<svg width="209" height="179" viewBox="0 0 209 179" fill="none" xmlns="http://www.w3.org/2000/svg">
<g clip-path="url(#clip0_999_13760)">
<path d="M0 177.187C0 177.448 0.211136 177.658 0.474054 177.658H208.526C208.789 177.658 209 177.448 209 177.187C209 176.926 208.789 176.716 208.526 176.716H0.474054C0.211133 176.716 0 176.926 0 177.187Z" fill="#3F3C57"/>
<path d="M67.8813 19.0232L70.1438 29.2835L65.3314 43.5648L57.5781 28.2207L58.6539 19.3189L67.8813 19.0232Z" fill="#FDB4B4"/>
<path d="M70.5641 28.752H57.1771V44.8268H70.5641V28.752Z" fill="#1E90FF"/>
<path d="M65.0591 24.1915C70.1083 24.1915 74.2015 20.1236 74.2015 15.1057C74.2015 10.0878 70.1083 6.01993 65.0591 6.01993C60.0099 6.01993 55.9167 10.0878 55.9167 15.1057C55.9167 20.1236 60.0099 24.1915 65.0591 24.1915Z" fill="#FDB4B4"/>
<path d="M57.1011 21.8619C57.1011 21.8619 50.2863 9.3541 56.4306 3.33504C62.5749 -2.68403 67.5073 1.28216 67.5073 1.28216L70.3239 1.16903C70.3239 1.16903 70.9113 3.37189 71.8585 2.17939C72.8057 0.986892 74.5174 5.32982 74.5174 5.32982C77.6942 11.0157 66.6812 12.2895 66.6812 12.2895C66.6812 12.2895 67.4765 14.807 66.6682 15.3343C65.8598 15.8615 63.7002 17.8449 63.7002 17.8449L61.7671 19.2958L60.6184 17.5563C60.6184 17.5563 59.4184 16.615 58.8122 17.0104C58.2059 17.4058 59.0398 22.6086 59.0398 22.6086L57.1011 21.8619Z" fill="#2E2E41"/>
<path d="M46.1335 113.88L42.6381 165.696L51.2309 165.985L62.5909 114.314L46.1335 113.88Z" fill="#2E2E41"/>
<path d="M66.9601 113.59L63.4647 165.407L72.0575 165.696L83.4175 114.024L66.9601 113.59Z" fill="#2E2E41"/>
<path d="M44.0287 125.718L48.603 69.2827L41.588 39.8955C40.9833 35.5271 43.7529 31.3937 48.0274 30.2666L54.8917 28.4567L57.9299 25.4372L64.8404 40.6034L69.1564 25.4488L72.5224 27.8816L82.5054 32.2587L82.5008 32.3612L80.8995 67.8607L84.474 125.216L84.3155 125.218L44.0287 125.718Z" fill="#E8E9EA"/>
<path d="M71.5058 165.107L73.9939 172.489C73.9939 172.489 83.7278 173.804 83.8793 176.799C84.0307 179.794 70.6503 178.06 62.8153 178.451C54.9803 178.843 61.5023 170.411 61.5023 170.411L62.3373 165.565L71.5058 165.107Z" fill="#2E2E41"/>
<path d="M51.1868 164.576L53.6749 171.957C53.6749 171.957 63.4088 173.273 63.5603 176.267C63.7117 179.262 50.3313 177.529 42.4963 177.92C34.6613 178.311 41.1834 169.879 41.1834 169.879L42.0183 165.034L51.1868 164.576Z" fill="#2E2E41"/>
<path d="M39.0478 95.7459C38.9423 94.2905 39.1892 92.8311 39.7677 91.49L37.9107 76.3514L45.1849 75.684L46.2851 91.1121C47.0161 92.3771 47.4317 93.7976 47.497 95.2549C47.711 98.9001 45.993 101.963 43.6595 102.099C41.326 102.234 39.2612 99.3899 39.0478 95.7459Z" fill="#FDB4B4"/>
<path d="M85.1202 97.968C85.0307 96.5115 85.2935 95.055 85.8867 93.7201L84.1959 78.5623L91.4769 77.9738L92.4079 93.4129C93.125 94.6857 93.5249 96.1107 93.5743 97.5686C93.7482 101.216 91.9967 104.26 89.6619 104.371C87.3271 104.481 85.2936 101.614 85.1202 97.968Z" fill="#FDB4B4"/>
<path d="M37.8808 89.6747L37.8562 89.5441L34.0652 69.3294L38.5447 36.4119C38.9444 33.473 41.5849 31.356 44.5626 31.5926C46.1176 31.7163 47.5128 32.4493 48.4915 33.6568C49.47 34.8643 49.8935 36.3753 49.6837 37.9116L46.3122 62.5993L48.4349 89.0052L37.8808 89.6747Z" fill="#E8E9EA"/>
<path d="M82.8736 89.2004L75.2516 38.6381C74.8554 37.1555 75.0873 35.604 75.9079 34.2855C76.7286 32.967 78.0218 32.0681 79.5496 31.754C82.4724 31.1533 85.3586 32.9288 86.1214 35.7956L93.4437 88.5654L82.8736 89.2004Z" fill="#E8E9EA"/>
<path d="M65.064 45.2254C65.5808 45.2254 65.9998 44.809 65.9998 44.2954C65.9998 43.7818 65.5808 43.3655 65.064 43.3655C64.5472 43.3655 64.1283 43.7818 64.1283 44.2954C64.1283 44.809 64.5472 45.2254 65.064 45.2254Z" fill="#D6D7D8"/>
<path d="M65.064 52.2664C65.5808 52.2664 65.9998 51.85 65.9998 51.3364C65.9998 50.8228 65.5808 50.4065 65.064 50.4065C64.5472 50.4065 64.1283 50.8228 64.1283 51.3364C64.1283 51.85 64.5472 52.2664 65.064 52.2664Z" fill="#D6D7D8"/>
<path d="M65.064 59.3074C65.5808 59.3074 65.9998 58.891 65.9998 58.3775C65.9998 57.8639 65.5808 57.4475 65.064 57.4475C64.5472 57.4475 64.1283 57.8639 64.1283 58.3775C64.1283 58.891 64.5472 59.3074 65.064 59.3074Z" fill="#D6D7D8"/>
<path d="M65.064 66.3484C65.5808 66.3484 65.9998 65.9321 65.9998 65.4185C65.9998 64.9049 65.5808 64.4885 65.064 64.4885C64.5472 64.4885 64.1283 64.9049 64.1283 65.4185C64.1283 65.9321 64.5472 66.3484 65.064 66.3484Z" fill="#D6D7D8"/>
<path d="M65.064 73.3895C65.5808 73.3895 65.9998 72.9731 65.9998 72.4595C65.9998 71.9459 65.5808 71.5296 65.064 71.5296C64.5472 71.5296 64.1283 71.9459 64.1283 72.4595C64.1283 72.9731 64.5472 73.3895 65.064 73.3895Z" fill="#D6D7D8"/>
<path d="M65.064 80.4304C65.5808 80.4304 65.9998 80.0141 65.9998 79.5005C65.9998 78.9869 65.5808 78.5706 65.064 78.5706C64.5472 78.5706 64.1283 78.9869 64.1283 79.5005C64.1283 80.0141 64.5472 80.4304 65.064 80.4304Z" fill="#D6D7D8"/>
<path d="M65.064 87.4715C65.5808 87.4715 65.9998 87.0551 65.9998 86.5415C65.9998 86.0279 65.5808 85.6116 65.064 85.6116C64.5472 85.6116 64.1283 86.0279 64.1283 86.5415C64.1283 87.0551 64.5472 87.4715 65.064 87.4715Z" fill="#D6D7D8"/>
<path d="M65.064 94.5125C65.5808 94.5125 65.9998 94.0962 65.9998 93.5826C65.9998 93.069 65.5808 92.6526 65.064 92.6526C64.5472 92.6526 64.1283 93.069 64.1283 93.5826C64.1283 94.0962 64.5472 94.5125 65.064 94.5125Z" fill="#D6D7D8"/>
<path d="M65.0651 99.9591L47.3598 97.6143L47.0189 97.5693L37.9701 76.8341L32.5813 64.489H46.6176L65.0651 99.9591Z" fill="#1E90FF"/>
<path d="M136.054 21.279L147.311 15.1505V32.6604H134.292L136.054 21.279Z" fill="#2E2E41"/>
<path d="M149.724 25.1828L150.763 33.7792L143.276 48.5967L138.628 34.8055L140.813 24.8973L149.724 25.1828Z" fill="#FDB4B4"/>
<path d="M151.15 34.2923H138.222V49.8155H151.15V34.2923Z" fill="#1E90FF"/>
<path d="M161.815 116.499L165.19 166.537L156.892 166.817L145.922 116.918L161.815 116.499Z" fill="#2E2E41"/>
<path d="M141.703 116.219L145.078 166.258L136.78 166.537L125.81 116.639L141.703 116.219Z" fill="#2E2E41"/>
<path d="M170.582 127.112L170.384 127.111L117.522 126.94L117.569 126.754L131.16 73.2406L127.756 46.2345C127.111 41.1172 129.867 36.2802 134.615 34.1987L136.329 33.4473L139.585 31.0939L143.751 45.7221L150.421 31.0825L153.36 34.0025L159.987 35.7499C164.118 36.839 166.794 40.833 166.212 45.0404L166.205 45.0697L156.084 73.7688L170.582 127.112Z" fill="#E8E9EA"/>
<path d="M137.313 165.969L146.167 166.411L146.973 171.09C146.973 171.09 153.272 179.233 145.705 178.855C138.139 178.477 125.218 180.151 125.364 177.259C125.51 174.367 134.91 173.097 134.91 173.097L137.313 165.969Z" fill="#2E2E41"/>
<path d="M156.935 165.455L165.789 165.898L166.595 170.577C166.595 170.577 172.893 178.72 165.327 178.342C157.761 177.964 144.84 179.638 144.986 176.746C145.132 173.854 154.532 172.584 154.532 172.584L156.935 165.455Z" fill="#2E2E41"/>
<path d="M165.043 98.4742C164.837 101.993 162.843 104.74 160.589 104.609C158.336 104.478 156.677 101.52 156.883 98C156.947 96.5927 157.348 95.221 158.054 93.9994L159.116 79.1006L166.141 79.7452L164.348 94.3643C164.906 95.6594 165.145 97.0687 165.043 98.4742Z" fill="#FDB4B4"/>
<path d="M128.945 97.1361C128.663 100.65 126.611 103.354 124.361 103.175C122.111 102.997 120.515 100.004 120.797 96.4895C120.891 95.0838 121.321 93.7209 122.053 92.5145L123.434 77.6416L130.444 78.4346L128.338 93.0125C128.868 94.3191 129.077 95.7331 128.945 97.1361Z" fill="#FDB4B4"/>
<path d="M166.174 92.6168L155.972 91.9697L155.984 91.8177L158.022 66.4651L154.767 42.6251C154.564 41.1402 154.973 39.6796 155.919 38.5125C156.865 37.3453 158.214 36.6368 159.717 36.5171C162.595 36.2917 165.147 38.3349 165.534 41.1755L169.859 72.9643L169.855 72.988L166.174 92.6168Z" fill="#E8E9EA"/>
<path d="M130.643 91.6456L120.425 91.0317L120.447 90.8714L127.493 40.0845C128.234 37.2952 131.025 35.5795 133.849 36.1599C135.326 36.4634 136.576 37.3324 137.369 38.6069C138.163 39.8814 138.387 41.381 138.001 42.8296L130.643 91.6456Z" fill="#E8E9EA"/>
<path d="M143.534 50.2004C144.033 50.2004 144.437 49.7983 144.437 49.3023C144.437 48.8064 144.033 48.4043 143.534 48.4043C143.035 48.4043 142.63 48.8064 142.63 49.3023C142.63 49.7983 143.035 50.2004 143.534 50.2004Z" fill="#D6D7D8"/>
<path d="M143.534 56.9998C144.033 56.9998 144.437 56.5977 144.437 56.1018C144.437 55.6058 144.033 55.2037 143.534 55.2037C143.035 55.2037 142.63 55.6058 142.63 56.1018C142.63 56.5977 143.035 56.9998 143.534 56.9998Z" fill="#D6D7D8"/>
<path d="M143.534 63.7992C144.033 63.7992 144.437 63.3971 144.437 62.9012C144.437 62.4052 144.033 62.0031 143.534 62.0031C143.035 62.0031 142.63 62.4052 142.63 62.9012C142.63 63.3971 143.035 63.7992 143.534 63.7992Z" fill="#D6D7D8"/>
<path d="M143.534 70.5986C144.033 70.5986 144.437 70.1966 144.437 69.7006C144.437 69.2046 144.033 68.8026 143.534 68.8026C143.035 68.8026 142.63 69.2046 142.63 69.7006C142.63 70.1966 143.035 70.5986 143.534 70.5986Z" fill="#D6D7D8"/>
<path d="M143.534 77.398C144.033 77.398 144.437 76.996 144.437 76.5C144.437 76.004 144.033 75.602 143.534 75.602C143.035 75.602 142.63 76.004 142.63 76.5C142.63 76.996 143.035 77.398 143.534 77.398Z" fill="#D6D7D8"/>
<path d="M143.534 84.1974C144.033 84.1974 144.437 83.7954 144.437 83.2994C144.437 82.8034 144.033 82.4014 143.534 82.4014C143.035 82.4014 142.63 82.8034 142.63 83.2994C142.63 83.7954 143.035 84.1974 143.534 84.1974Z" fill="#D6D7D8"/>
<path d="M143.534 90.9969C144.033 90.9969 144.437 90.5948 144.437 90.0988C144.437 89.6029 144.033 89.2008 143.534 89.2008C143.035 89.2008 142.63 89.6029 142.63 90.0988C142.63 90.5948 143.035 90.9969 143.534 90.9969Z" fill="#D6D7D8"/>
<path d="M143.534 97.7963C144.033 97.7963 144.437 97.3942 144.437 96.8982C144.437 96.4023 144.033 96.0002 143.534 96.0002C143.035 96.0002 142.63 96.4023 142.63 96.8982C142.63 97.3942 143.035 97.7963 143.534 97.7963Z" fill="#D6D7D8"/>
<path d="M144.906 29.57C149.574 29.57 153.358 25.8093 153.358 21.1703C153.358 16.5312 149.574 12.7705 144.906 12.7705C140.238 12.7705 136.453 16.5312 136.453 21.1703C136.453 25.8093 140.238 29.57 144.906 29.57Z" fill="#FDB4B4"/>
<path d="M149.335 11.3646C149.74 12.1832 149.098 13.2057 148.248 13.5499C147.398 13.8941 146.437 13.7546 145.531 13.6114C144.624 13.4681 143.663 13.3323 142.815 13.6825C141.718 14.1357 141.1 15.2726 140.568 16.3276C139.573 18.297 138.579 20.2665 137.584 22.2359C137.098 23.1981 136.602 24.2036 136.592 25.2802C136.575 27.2563 138.152 28.8355 139.001 30.6226C140.034 32.7985 139.949 35.4651 138.779 37.5715C137.609 39.6779 135.384 41.1703 132.98 41.4606C132.348 41.537 131.679 41.5287 131.11 41.2432C130.542 40.9577 130.108 40.3342 130.213 39.7098C130.419 38.4887 132.296 38.2034 132.641 37.0135C132.821 36.3924 132.502 35.7291 132.073 35.244C131.643 34.7589 131.099 34.3804 130.689 33.8786C129.744 32.7215 129.681 30.9353 130.543 29.7153C131.049 28.9983 131.832 28.4656 132.159 27.6523C132.438 26.9591 132.337 26.1798 132.231 25.4407C132.095 24.4908 131.96 23.541 131.824 22.5912C131.666 21.483 131.51 20.3351 131.823 19.2599C132.54 16.796 135.339 15.6388 136.981 13.6596C137.744 12.7399 138.257 11.6339 139.04 10.7307C140.353 9.21511 142.421 8.37903 144.426 8.55283C146.431 8.72663 148.322 9.90586 149.352 11.6246" fill="#2E2E41"/>
<path d="M148.001 11.5199C147.588 11.6667 147.435 12.2012 147.553 12.6207C147.672 13.0402 147.983 13.3736 148.268 13.7049C151.491 17.4524 152.239 23.1208 150.1 27.568C149.531 28.7509 148.773 29.8641 148.466 31.1393C148.243 32.0671 148.255 33.0848 147.737 33.8881C147.209 34.7059 146.164 35.2538 146.061 36.2196C145.995 36.8394 146.375 37.4415 146.884 37.8049C147.394 38.1682 148.017 38.3345 148.629 38.4701C150.22 38.8224 151.847 39.0148 153.477 39.0433C154.008 39.0526 154.556 39.0411 155.044 38.8307C155.531 38.6203 155.947 38.1639 155.953 37.6358C155.957 37.2207 155.716 36.8378 155.686 36.4238C155.594 35.1834 157.273 34.5235 157.6 33.3229C157.816 32.5336 157.392 31.7214 156.94 31.0377C156.489 30.3541 155.973 29.6363 155.984 28.8186C155.995 28.0358 156.489 27.3464 156.681 26.5872C156.947 25.5371 156.621 24.4387 156.297 23.4047C156.022 22.5257 155.746 21.6467 155.471 20.7677C155.179 19.8332 154.886 18.8988 154.593 17.9644C154.082 16.3331 153.546 14.6545 152.441 13.3461C151.335 12.0377 149.503 11.1801 147.87 11.7143" fill="#2E2E41"/>
<path d="M153.76 44.0692L153.181 43.9014C154.388 39.7888 151.785 32.114 151.759 32.037L152.33 31.8434C152.441 32.1654 155.02 39.7765 153.76 44.0692Z" fill="#3F3C57"/>
<path d="M153.471 48.793C154.863 48.793 155.991 47.6715 155.991 46.288C155.991 44.9045 154.863 43.783 153.471 43.783C152.078 43.783 150.95 44.9045 150.95 46.288C150.95 47.6715 152.078 48.793 153.471 48.793Z" fill="#3F3C57"/>
<path d="M136.908 55.1566H135.38C135.213 55.1566 135.078 55.0224 135.078 54.8568C135.078 54.6912 135.213 54.5569 135.38 54.5569H136.908C137.33 54.5569 137.725 54.3938 138.023 54.0975C138.32 53.8013 138.484 53.4075 138.483 52.9891L138.464 43.6316C138.464 41.5988 136.801 39.9454 134.756 39.9454C132.711 39.9454 131.047 41.5988 131.047 43.631L131.066 52.3897C131.067 53.2442 131.768 53.9446 132.628 53.9512L133.677 53.9591C133.844 53.9604 133.978 54.0956 133.977 54.2613C133.976 54.426 133.841 54.5588 133.675 54.5588H133.673L132.623 54.5509C131.434 54.5418 130.464 53.5727 130.462 52.3908L130.444 43.6316C130.444 41.2682 132.378 39.3457 134.756 39.3457C137.133 39.3457 139.068 41.2682 139.068 43.631L139.086 52.9879C139.088 53.5668 138.862 54.1114 138.45 54.521C138.039 54.9308 137.491 55.1566 136.908 55.1566Z" fill="#3F3C57"/>
<path d="M133.675 55.3218C134.266 55.3218 134.745 54.8459 134.745 54.259C134.745 53.672 134.266 53.1962 133.675 53.1962C133.084 53.1962 132.606 53.672 132.606 54.259C132.606 54.8459 133.084 55.3218 133.675 55.3218Z" fill="#3F3C57"/>
<path d="M135.38 55.9196C135.97 55.9196 136.449 55.4438 136.449 54.8568C136.449 54.2698 135.97 53.794 135.38 53.794C134.789 53.794 134.31 54.2698 134.31 54.8568C134.31 55.4438 134.789 55.9196 135.38 55.9196Z" fill="#3F3C57"/>
<path d="M73.6428 39.5745L73.0635 39.4067C74.2704 35.2941 71.6973 27.5004 71.671 27.4234L72.3951 27.9659C72.5056 28.2878 74.9027 35.2818 73.6428 39.5745Z" fill="#3F3C57"/>
<path d="M53.2793 40.3052L53.8585 40.1374C52.6516 36.0247 55.254 28.35 55.2802 28.2729L54.6606 28.6855C54.5501 29.0074 52.0193 36.0124 53.2793 40.3052Z" fill="#3F3C57"/>
<path d="M73.3532 44.2983C74.7453 44.2983 75.8738 43.1768 75.8738 41.7933C75.8738 40.4098 74.7453 39.2882 73.3532 39.2882C71.961 39.2882 70.8325 40.4098 70.8325 41.7933C70.8325 43.1768 71.961 44.2983 73.3532 44.2983Z" fill="#3F3C57"/>
<path d="M55.9665 55.7102H54.4379C54.2711 55.7102 54.1361 55.5759 54.1361 55.4103C54.1361 55.2447 54.2711 55.1105 54.4379 55.1105H55.9665C56.3879 55.1105 56.7836 54.9474 57.0812 54.651C57.3785 54.3548 57.5421 53.9611 57.5412 53.5426L57.5226 44.1851C57.5226 42.1523 55.859 40.499 53.8141 40.499C51.7692 40.499 50.1053 42.1523 50.1053 44.1846L50.1238 52.9432C50.1256 53.7977 50.8266 54.4982 51.6864 54.5047L52.7357 54.5127C52.9021 54.514 53.0362 54.6491 53.035 54.8149C53.0338 54.9796 52.8989 55.1124 52.7333 55.1124H52.7309L51.6817 55.1045C50.4924 55.0954 49.5227 54.1263 49.5204 52.9444L49.5018 44.1851C49.5018 41.8217 51.4362 39.8993 53.8141 39.8993C56.1917 39.8993 58.1261 41.8217 58.1261 44.1846L58.1446 53.5415C58.1458 54.1204 57.9198 54.6649 57.5082 55.0746C57.0968 55.4844 56.5491 55.7102 55.9665 55.7102Z" fill="#3F3C57"/>
<path d="M52.7334 55.8753C53.324 55.8753 53.8028 55.3995 53.8028 54.8125C53.8028 54.2255 53.324 53.7497 52.7334 53.7497C52.1428 53.7497 51.664 54.2255 51.664 54.8125C51.664 55.3995 52.1428 55.8753 52.7334 55.8753Z" fill="#3F3C57"/>
<path d="M54.4378 56.4731C55.0284 56.4731 55.5072 55.9973 55.5072 55.4103C55.5072 54.8234 55.0284 54.3475 54.4378 54.3475C53.8472 54.3475 53.3684 54.8234 53.3684 55.4103C53.3684 55.9973 53.8472 56.4731 54.4378 56.4731Z" fill="#3F3C57"/>
</g>
<defs>
<clipPath id="clip0_999_13760">
<rect width="209" height="179" fill="white"/>
</clipPath>
</defs>
</svg>
