<svg width="179" height="179" viewBox="0 0 179 179" fill="none" xmlns="http://www.w3.org/2000/svg">
<path d="M179 136.899H0V136.989H179V136.899Z" fill="#EBEBEB"/>
<path d="M161.064 142.659H149.207V142.749H161.064V142.659Z" fill="#EBEBEB"/>
<path d="M118.577 143.633H115.466V143.723H118.577V143.633Z" fill="#EBEBEB"/>
<path d="M148.849 139.337H141.979V139.427H148.849V139.337Z" fill="#EBEBEB"/>
<path d="M34.2428 139.939H18.7808V140.028H34.2428V139.939Z" fill="#EBEBEB"/>
<path d="M39.6985 139.939H37.4324V140.028H39.6985V139.939Z" fill="#EBEBEB"/>
<path d="M80.6036 141.449H47.0662V141.539H80.6036V141.449Z" fill="#EBEBEB"/>
<path d="M84.846 120.932H15.7198C15.1783 120.931 14.6592 120.716 14.2767 120.332C13.8941 119.949 13.6792 119.43 13.6792 118.888V21.7163C13.6839 21.1779 13.9009 20.663 14.2829 20.2836C14.665 19.9043 15.1814 19.6909 15.7198 19.69H84.846C85.3882 19.69 85.9081 19.9054 86.2915 20.2887C86.6748 20.6721 86.8902 21.192 86.8902 21.7342V118.888C86.8902 119.43 86.6748 119.95 86.2915 120.334C85.9081 120.717 85.3882 120.932 84.846 120.932ZM15.7198 19.7616C15.202 19.7626 14.7057 19.9689 14.3399 20.3354C13.9741 20.7018 13.7687 21.1985 13.7687 21.7163V118.888C13.7687 119.406 13.9741 119.903 14.3399 120.269C14.7057 120.636 15.202 120.842 15.7198 120.843H84.846C85.3641 120.842 85.8608 120.636 86.2271 120.269C86.5935 119.903 86.7998 119.406 86.8007 118.888V21.7163C86.7998 21.1982 86.5935 20.7015 86.2271 20.3352C85.8608 19.9688 85.3641 19.7625 84.846 19.7616H15.7198Z" fill="#EBEBEB"/>
<path d="M162.285 120.932H93.1553C92.6134 120.931 92.094 120.716 91.7109 120.333C91.3277 119.949 91.112 119.43 91.1111 118.888V21.7163C91.1167 21.1775 91.3345 20.6627 91.7171 20.2834C92.0998 19.9041 92.6165 19.6909 93.1553 19.69H162.285C162.823 19.6919 163.338 19.9056 163.72 20.2849C164.101 20.6642 164.317 21.1785 164.322 21.7163V118.888C164.322 119.429 164.108 119.948 163.726 120.331C163.344 120.714 162.826 120.931 162.285 120.932ZM93.1553 19.7616C92.6371 19.7625 92.1405 19.9688 91.7741 20.3352C91.4078 20.7015 91.2015 21.1982 91.2006 21.7163V118.888C91.2015 119.406 91.4078 119.903 91.7741 120.269C92.1405 120.636 92.6371 120.842 93.1553 120.843H162.285C162.803 120.842 163.3 120.636 163.666 120.269C164.033 119.903 164.239 119.406 164.24 118.888V21.7163C164.239 21.1982 164.033 20.7015 163.666 20.3352C163.3 19.9688 162.803 19.7625 162.285 19.7616H93.1553Z" fill="#EBEBEB"/>
<path d="M95.8653 136.899H108.431V90.0979H95.8653V136.899Z" fill="#E6E6E6"/>
<path d="M97.956 136.899H95.8652V132.686H100.15L97.956 136.899Z" fill="#F0F0F0"/>
<path d="M147.009 136.899H159.575V90.0979H147.009V136.899Z" fill="#E6E6E6"/>
<path d="M95.8653 135.281H148.835V90.0979H95.8653V135.281Z" fill="#F0F0F0"/>
<path d="M97.4905 104.489H147.213V92.0991H97.4905V104.489Z" fill="#E6E6E6"/>
<path d="M120.002 95.944H124.698C126.739 95.944 128.69 94.4153 130.094 91.716H114.606C116.01 94.4225 117.961 95.944 120.002 95.944Z" fill="#F0F0F0"/>
<path d="M146.744 136.899H148.835V132.686H144.55L146.744 136.899Z" fill="#F0F0F0"/>
<path d="M97.4905 118.885H147.213V106.494H97.4905V118.885Z" fill="#E6E6E6"/>
<path d="M120.002 110.343H124.698C126.739 110.343 128.69 108.814 130.094 106.115H114.606C116.01 108.832 117.961 110.343 120.002 110.343Z" fill="#F0F0F0"/>
<path d="M97.4905 133.28H147.213V120.889H97.4905V133.28Z" fill="#E6E6E6"/>
<path d="M120.002 124.738H124.698C126.739 124.738 128.69 123.209 130.094 120.51H114.606C116.01 123.209 117.961 124.738 120.002 124.738Z" fill="#F0F0F0"/>
<path d="M27.9204 79.4832H75.9067V30.9276L27.9204 30.9276L27.9204 79.4832Z" fill="#E6E6E6"/>
<path d="M24.5874 79.4832H75.0225V30.9276L24.5874 30.9276L24.5874 79.4832Z" fill="#F0F0F0"/>
<path d="M70.8018 75.2588V35.152H28.8191V75.2588H70.8018Z" fill="white"/>
<path d="M49.5186 40.454L41.8145 48.1725C39.9527 50.0389 38.9072 52.5674 38.9072 55.2036C38.9072 57.8398 39.9527 60.3683 41.8145 62.2347L49.5186 69.9425C49.5562 69.9801 49.6008 70.01 49.65 70.0304C49.6991 70.0508 49.7518 70.0613 49.805 70.0613C49.8582 70.0613 49.9109 70.0508 49.9601 70.0304C50.0092 70.01 50.0538 69.9801 50.0914 69.9425L57.7992 62.2347C59.6609 60.3683 60.7064 57.8398 60.7064 55.2036C60.7064 52.5674 59.6609 50.0389 57.7992 48.1725L50.095 40.454C50.018 40.3786 49.9146 40.3363 49.8068 40.3363C49.699 40.3363 49.5956 40.3786 49.5186 40.454ZM42.3873 61.6476C40.6779 59.9336 39.718 57.6117 39.718 55.1911C39.718 52.7704 40.6779 50.4485 42.3873 48.7345V61.6476ZM57.2264 61.6476V48.7489C58.9357 50.4628 59.8956 52.7847 59.8956 55.2054C59.8956 57.6261 58.9357 59.9479 57.2264 61.6619V61.6476Z" fill="#F0F0F0"/>
<path d="M145.652 73.39H118.842L117.313 89.2208H144.124L145.652 73.39Z" fill="#E6E6E6"/>
<path d="M144.124 89.2208L144.016 90.0979H117.202L117.313 89.2208H144.124Z" fill="#E6E6E6"/>
<path d="M144.829 73.39H118.018L116.486 89.2208H143.297L144.829 73.39Z" fill="#F0F0F0"/>
<path d="M142.756 88.1897L143.877 74.464C143.88 74.4183 143.873 74.3726 143.858 74.3295C143.842 74.2864 143.818 74.2468 143.787 74.2133C143.756 74.1798 143.718 74.153 143.677 74.1346C143.635 74.1161 143.589 74.1064 143.544 74.106H118.895C118.811 74.1057 118.729 74.1372 118.667 74.1942C118.605 74.2513 118.566 74.3297 118.559 74.4139L117.424 88.136C117.421 88.182 117.428 88.2281 117.443 88.2714C117.459 88.3147 117.483 88.3544 117.515 88.388C117.546 88.4215 117.584 88.4483 117.627 88.4665C117.669 88.4848 117.714 88.4941 117.761 88.494H142.409C142.495 88.498 142.579 88.4686 142.644 88.4118C142.709 88.3551 142.749 88.2755 142.756 88.1897Z" fill="white"/>
<path d="M136.312 89.2208L136.205 90.0979H106.68L106.788 89.2208H136.312Z" fill="#F0F0F0"/>
<path d="M100.272 64.9269H150.618V31.4575L100.272 31.4575V64.9269Z" fill="#E6E6E6"/>
<path d="M99.1552 64.9269H149.501V31.4575L99.1552 31.4575V64.9269Z" fill="#F5F5F5"/>
<path d="M147.492 62.6715V33.7164H101.164V62.6715H147.492Z" fill="white"/>
<path d="M102.005 62.6679V33.7129H101.16V62.6679H102.005Z" fill="#E6E6E6"/>
<path d="M99.9858 58.8301L148.67 58.8301V55.8015L99.9858 55.8015V58.8301Z" fill="#F5F5F5"/>
<path d="M96.9643 27.7271H152.812C152.894 27.728 152.971 27.7608 153.029 27.8183C153.087 27.8758 153.119 27.9536 153.12 28.035C153.12 28.1166 153.088 28.1949 153.03 28.2527C152.972 28.3104 152.894 28.3429 152.812 28.3429H96.9643C96.9236 28.3433 96.8831 28.3357 96.8454 28.3205C96.8076 28.3052 96.7732 28.2826 96.7443 28.254C96.7153 28.2253 96.6923 28.1912 96.6766 28.1536C96.6609 28.116 96.6528 28.0757 96.6528 28.035C96.6538 27.953 96.687 27.8747 96.7453 27.8171C96.8036 27.7594 96.8823 27.7271 96.9643 27.7271Z" fill="#E6E6E6"/>
<path d="M95.8831 28.035C95.8831 28.1878 95.9283 28.3371 96.0131 28.4642C96.0979 28.5913 96.2185 28.6904 96.3596 28.749C96.5007 28.8077 96.656 28.8232 96.8059 28.7937C96.9558 28.7641 97.0936 28.6908 97.2019 28.583C97.3102 28.4752 97.3841 28.3378 97.4143 28.188C97.4446 28.0383 97.4298 27.8829 97.3718 27.7415C97.3138 27.6002 97.2152 27.4792 97.0886 27.3938C96.9619 27.3084 96.8127 27.2624 96.6599 27.2617C96.5581 27.2612 96.4571 27.2809 96.3629 27.3195C96.2687 27.3582 96.183 27.4151 96.1108 27.4869C96.0386 27.5588 95.9813 27.6442 95.9423 27.7382C95.9032 27.8323 95.8831 27.9331 95.8831 28.035Z" fill="#E6E6E6"/>
<path d="M150.199 29.7677C150.309 29.7677 150.414 29.7246 150.493 29.6476C150.571 29.5706 150.616 29.4658 150.618 29.356V28.461C150.618 28.3499 150.574 28.2434 150.495 28.1648C150.417 28.0863 150.31 28.0421 150.199 28.0421C150.144 28.0421 150.09 28.053 150.039 28.0741C149.989 28.0952 149.943 28.1261 149.904 28.165C149.865 28.204 149.835 28.2502 149.814 28.301C149.794 28.3518 149.783 28.4062 149.784 28.461V29.356C149.786 29.4652 149.83 29.5694 149.908 29.6463C149.985 29.7232 150.09 29.7668 150.199 29.7677Z" fill="#E6E6E6"/>
<path d="M101.625 29.7677C101.732 29.7632 101.834 29.7182 101.909 29.6417C101.984 29.5653 102.027 29.4631 102.03 29.356V28.461C102.03 28.3499 101.986 28.2434 101.907 28.1648C101.829 28.0863 101.722 28.0421 101.611 28.0421C101.556 28.0421 101.502 28.053 101.451 28.0741C101.401 28.0952 101.355 28.1261 101.316 28.165C101.278 28.204 101.247 28.2502 101.226 28.301C101.206 28.3518 101.195 28.4062 101.196 28.461V29.356C101.197 29.4113 101.209 29.4659 101.231 29.5166C101.253 29.5673 101.285 29.6131 101.325 29.6514C101.365 29.6897 101.412 29.7197 101.463 29.7396C101.515 29.7596 101.57 29.7691 101.625 29.7677Z" fill="#E6E6E6"/>
<path opacity="0.4" d="M97.0645 60.5521L148.67 60.5521V28.035L97.0645 28.035V60.5521Z" fill="#E0E0E0"/>
<path d="M144.457 28.035C144.457 28.1879 144.502 28.3374 144.587 28.4646C144.672 28.5918 144.793 28.6909 144.934 28.7494C145.075 28.8079 145.231 28.8232 145.381 28.7934C145.531 28.7636 145.668 28.6899 145.777 28.5818C145.885 28.4736 145.958 28.3358 145.988 28.1858C146.018 28.0358 146.003 27.8804 145.944 27.7391C145.886 27.5978 145.787 27.477 145.659 27.392C145.532 27.3071 145.383 27.2617 145.23 27.2617C145.025 27.2617 144.828 27.3432 144.683 27.4882C144.538 27.6332 144.457 27.8299 144.457 28.035Z" fill="#E6E6E6"/>
<path d="M71.4211 134.579H75.5596V98.6827H71.4211V134.579Z" fill="#F0F0F0"/>
<path d="M26.5278 136.853H73.97V134.579H26.5278V136.853Z" fill="#F0F0F0"/>
<path d="M71.4209 98.6827H24.9382V134.579H71.4209V98.6827Z" fill="#F5F5F5"/>
<path d="M65.6177 103.1H30.7413C29.3336 103.1 28.1924 104.242 28.1924 105.649V112.323C28.1924 113.73 29.3336 114.871 30.7413 114.871H65.6177C67.0255 114.871 68.1667 113.73 68.1667 112.323V105.649C68.1667 104.242 67.0255 103.1 65.6177 103.1Z" fill="#F0F0F0"/>
<path d="M65.6177 118.387H30.7413C29.3336 118.387 28.1924 119.528 28.1924 120.936V127.609C28.1924 129.017 29.3336 130.158 30.7413 130.158H65.6177C67.0255 130.158 68.1667 129.017 68.1667 127.609V120.936C68.1667 119.528 67.0255 118.387 65.6177 118.387Z" fill="#F0F0F0"/>
<path d="M39.5195 109.795H56.8396C57.0535 109.795 57.2588 109.71 57.4104 109.559C57.562 109.408 57.6477 109.203 57.6487 108.99C57.6477 108.775 57.5622 108.57 57.4106 108.418C57.2591 108.267 57.0539 108.181 56.8396 108.18H39.5195C39.3052 108.181 39.1 108.267 38.9485 108.418C38.7969 108.57 38.7114 108.775 38.7104 108.99C38.7114 109.203 38.7971 109.408 38.9487 109.559C39.1003 109.71 39.3056 109.795 39.5195 109.795Z" fill="#F5F5F5"/>
<path d="M39.5195 125.082H56.8396C57.0535 125.082 57.2588 124.997 57.4104 124.846C57.562 124.695 57.6477 124.49 57.6487 124.276C57.6477 124.062 57.5622 123.857 57.4106 123.705C57.2591 123.554 57.0539 123.468 56.8396 123.467H39.5195C39.3052 123.468 39.1 123.554 38.9485 123.705C38.7969 123.857 38.7114 124.062 38.7104 124.276C38.7114 124.49 38.7971 124.695 38.9487 124.846C39.1003 124.997 39.3056 125.082 39.5195 125.082Z" fill="#F5F5F5"/>
<path d="M89.5 153.066C127.836 153.066 158.913 151.252 158.913 149.014C158.913 146.776 127.836 144.961 89.5 144.961C51.1645 144.961 20.0874 146.776 20.0874 149.014C20.0874 151.252 51.1645 153.066 89.5 153.066Z" fill="#F5F5F5"/>
<path d="M104.84 36.3191H38.6819L43.8228 126.417H109.978L104.84 36.3191Z" fill="#263238"/>
<path d="M106.125 36.3191H39.967L45.1079 126.417H111.266L106.125 36.3191Z" fill="#1E90FF"/>
<path opacity="0.5" d="M101.568 39.3478H42.9922L47.1915 120.904H107.289L101.568 39.3478Z" fill="black"/>
<path d="M42.9922 39.3478C47.3455 66.5343 44.3597 93.7208 48.7202 120.904H108.81C104.457 93.7208 107.443 66.5343 103.082 39.3478H42.9922Z" fill="white"/>
<g opacity="0.3">
<path d="M55.2788 63.7849C56.6059 63.7955 57.8782 64.315 58.8334 65.2363C59.7887 66.1575 60.3539 67.4102 60.4125 68.736C60.4393 69.3738 60.336 70.0103 60.1089 70.6068C59.8817 71.2034 59.5356 71.7475 59.0915 72.206C58.6474 72.6645 58.1146 73.0278 57.5256 73.2738C56.9367 73.5198 56.3037 73.6434 55.6655 73.637C54.3466 73.6261 53.0825 73.108 52.1354 72.1902C51.1882 71.2724 50.6307 70.0252 50.5783 68.7074C50.5507 68.0715 50.6516 67.4366 50.8748 66.8405C51.0981 66.2445 51.4392 65.6996 51.8778 65.2383C52.3178 64.7812 52.8462 64.4185 53.4309 64.1723C54.0157 63.9261 54.6444 63.8016 55.2788 63.8063M55.243 62.7717C54.4714 62.7669 53.7068 62.9195 52.9962 63.2202C52.2855 63.521 51.6437 63.9635 51.1099 64.5207C50.5761 65.078 50.1615 65.7383 49.8916 66.4612C49.6217 67.1841 49.5021 67.9545 49.5401 68.7253C49.6026 70.3164 50.2752 71.8224 51.4183 72.9309C52.5615 74.0394 54.0875 74.6653 55.6798 74.6788C56.455 74.6852 57.2234 74.5342 57.9385 74.2349C58.6536 73.9357 59.3005 73.4944 59.8401 72.9378C60.3796 72.3811 60.8006 71.7208 61.0774 70.9967C61.3543 70.2726 61.4813 69.4999 61.4507 68.7253C61.3738 67.1272 60.6875 65.6194 59.5328 64.512C58.3781 63.4046 56.8429 62.7818 55.243 62.7717Z" fill="#1E90FF"/>
</g>
<path d="M88.5047 108.445H69.5307C69.3887 108.443 69.2479 108.471 69.1175 108.527C68.9872 108.583 68.8704 108.667 68.7749 108.772C68.6793 108.877 68.6073 109.001 68.5635 109.136C68.5198 109.271 68.5053 109.414 68.5211 109.555C68.5556 109.857 68.6983 110.136 68.9228 110.341C69.1472 110.545 69.4382 110.662 69.7419 110.669H88.7159C88.8579 110.671 88.9988 110.643 89.1291 110.587C89.2594 110.53 89.3761 110.446 89.4711 110.341C89.5662 110.235 89.6374 110.11 89.6801 109.975C89.7227 109.839 89.7357 109.696 89.7183 109.555C89.6846 109.255 89.543 108.977 89.3198 108.772C89.0966 108.568 88.807 108.452 88.5047 108.445Z" fill="#E0E0E0"/>
<path d="M98.6539 103.773H69.1476C69.0048 103.771 68.8631 103.798 68.7317 103.854C68.6003 103.91 68.4822 103.993 68.3852 104.098C68.2882 104.203 68.2144 104.327 68.1687 104.462C68.123 104.598 68.1065 104.741 68.1201 104.883C68.1458 105.184 68.2825 105.465 68.5034 105.67C68.7244 105.876 69.0139 105.992 69.3158 105.997H98.8079C98.9509 106.001 99.0932 105.975 99.2253 105.92C99.3574 105.865 99.4765 105.783 99.5746 105.678C99.6726 105.574 99.7475 105.451 99.7943 105.315C99.8411 105.18 99.8588 105.037 99.8461 104.894C99.8229 104.592 99.6878 104.31 99.4672 104.103C99.2467 103.895 98.9566 103.778 98.6539 103.773Z" fill="#E0E0E0"/>
<g opacity="0.3">
<path d="M55.8838 83.056C57.2011 83.0654 58.4638 83.5836 59.4078 84.5023C60.3519 85.421 60.9043 86.6691 60.9495 87.9857C60.9737 88.623 60.8691 89.2586 60.6421 89.8546C60.4152 90.4507 60.0704 90.9948 59.6285 91.4547C59.1862 91.9127 58.6554 92.2759 58.0682 92.5221C57.481 92.7683 56.8499 92.8923 56.2132 92.8867C54.8927 92.8776 53.6265 92.3605 52.6772 91.4426C51.728 90.5246 51.1686 89.2764 51.1153 87.957C51.0935 87.3187 51.201 86.6826 51.4313 86.0869C51.6616 85.4912 52.0098 84.9482 52.4552 84.4904C52.9006 84.0327 53.4339 83.6696 54.0231 83.4231C54.6123 83.1767 55.2452 83.0518 55.8838 83.056ZM55.8838 82.0178C55.1081 82.013 54.3395 82.165 53.6239 82.4645C52.9084 82.7641 52.2607 83.2051 51.7198 83.7611C51.1789 84.317 50.7558 84.9766 50.476 85.7C50.1961 86.4235 50.0653 87.1961 50.0914 87.9713C50.1549 89.5668 50.8312 91.0763 51.9794 92.1859C53.1276 93.2955 54.6594 93.9196 56.2561 93.9285C57.0295 93.9315 57.7955 93.7779 58.508 93.4769C59.2204 93.1759 59.8645 92.7337 60.4014 92.1771C60.9383 91.6204 61.3569 90.9608 61.632 90.238C61.9071 89.5152 62.033 88.7441 62.002 87.9713C61.9484 86.381 61.2816 84.873 60.1411 83.7632C59.0007 82.6535 57.4751 82.028 55.8838 82.0178Z" fill="#1E90FF"/>
</g>
<path d="M77.9723 67.4794H67.823C67.5248 67.4769 67.2389 67.36 67.0244 67.1528C66.8099 66.9457 66.6831 66.664 66.6703 66.366C66.6655 66.222 66.6897 66.0785 66.7415 65.944C66.7933 65.8096 66.8717 65.6869 66.9719 65.5834C67.0721 65.4798 67.1921 65.3975 67.3248 65.3413C67.4575 65.2851 67.6002 65.2562 67.7443 65.2562H77.89C78.1884 65.2586 78.4746 65.3747 78.6901 65.581C78.9057 65.7873 79.0344 66.0681 79.0499 66.366C79.0552 66.5107 79.0312 66.6549 78.9794 66.79C78.9276 66.9251 78.849 67.0484 78.7484 67.1523C78.6477 67.2563 78.5271 67.3389 78.3938 67.3951C78.2604 67.4513 78.1171 67.48 77.9723 67.4794Z" fill="#E0E0E0"/>
<path d="M89.6861 67.4794H82.8125C82.5139 67.477 82.2276 67.3602 82.0125 67.1531C81.7974 66.946 81.6698 66.6643 81.6561 66.366C81.6513 66.222 81.6755 66.0785 81.7274 65.944C81.7792 65.8096 81.8575 65.6869 81.9577 65.5834C82.058 65.4798 82.178 65.3975 82.3107 65.3413C82.4434 65.2851 82.586 65.2562 82.7301 65.2562H89.6073C89.9053 65.2586 90.1911 65.3749 90.4061 65.5813C90.6211 65.7876 90.749 66.0684 90.7636 66.366C90.7689 66.5107 90.745 66.6549 90.6932 66.79C90.6413 66.9251 90.5627 67.0484 90.4621 67.1523C90.3615 67.2563 90.2408 67.3389 90.1075 67.3951C89.9741 67.4513 89.8308 67.48 89.6861 67.4794Z" fill="#E0E0E0"/>
<path d="M95.2281 72.1513H67.9842C67.6861 72.1497 67.4001 72.0329 67.186 71.8255C66.9719 71.618 66.8461 71.3359 66.8351 71.0379C66.8303 70.8939 66.8545 70.7504 66.9063 70.6159C66.9581 70.4815 67.0365 70.3588 67.1367 70.2553C67.2369 70.1517 67.3569 70.0694 67.4896 70.0132C67.6223 69.957 67.765 69.9281 67.9091 69.9281H95.1493C95.4465 69.9298 95.7316 70.0461 95.945 70.2529C96.1585 70.4597 96.2838 70.7409 96.2949 71.0379C96.3002 71.1817 96.2765 71.325 96.2254 71.4594C96.1742 71.5938 96.0966 71.7165 95.9971 71.8204C95.8976 71.9242 95.7782 72.007 95.6461 72.0639C95.514 72.1207 95.3719 72.1505 95.2281 72.1513Z" fill="#E0E0E0"/>
<g opacity="0.3">
<path d="M56.6606 102.302C57.996 102.328 59.2749 102.846 60.2525 103.756C61.23 104.666 61.8376 105.905 61.959 107.235C62.0232 107.859 61.9574 108.488 61.7657 109.085C61.5741 109.681 61.2608 110.232 60.8456 110.701C60.4269 111.162 59.9146 111.528 59.3428 111.775C58.7711 112.022 58.1532 112.144 57.5305 112.133C56.1835 112.111 54.8908 111.598 53.8953 110.69C52.8999 109.782 52.2702 108.542 52.1247 107.203C52.0633 106.575 52.1355 105.942 52.3367 105.344C52.5379 104.746 52.8634 104.197 53.2918 103.734C53.7229 103.274 54.2451 102.909 54.8252 102.663C55.4052 102.416 56.0303 102.293 56.6606 102.302ZM56.6104 101.267C55.8437 101.252 55.0825 101.4 54.3767 101.699C53.6709 101.999 53.0364 102.445 52.5148 103.007C51.9933 103.569 51.5964 104.235 51.3502 104.961C51.1041 105.688 51.0142 106.458 51.0865 107.221C51.3621 110.507 54.3443 113.175 57.6307 113.175C60.9172 113.175 63.2728 110.507 63.0007 107.221C62.8587 105.615 62.1278 104.119 60.9487 103.02C59.7696 101.921 58.2257 101.297 56.614 101.267H56.6104Z" fill="#1E90FF"/>
</g>
<path d="M99.8819 89.1885H68.4459C68.3018 89.1885 68.1592 89.2174 68.0265 89.2736C67.8938 89.3298 67.7738 89.4121 67.6736 89.5156C67.5733 89.6192 67.495 89.7419 67.4432 89.8763C67.3914 90.0108 67.3671 90.1543 67.3719 90.2983C67.3848 90.5953 67.5112 90.8761 67.725 91.0826C67.9389 91.2891 68.2238 91.4057 68.5211 91.4081H99.9714C100.116 91.4082 100.258 91.3793 100.391 91.3231C100.524 91.2669 100.644 91.1846 100.744 91.081C100.844 90.9775 100.922 90.8548 100.974 90.7203C101.026 90.5859 101.05 90.4424 101.045 90.2983C101.034 89.9982 100.906 89.7144 100.689 89.5071C100.472 89.2998 100.182 89.1855 99.8819 89.1885Z" fill="#E0E0E0"/>
<path d="M92.4321 84.5131H68.3101C68.1657 84.513 68.0227 84.542 67.8898 84.5984C67.7568 84.6548 67.6366 84.7375 67.5364 84.8414C67.4361 84.9454 67.3578 85.0684 67.3062 85.2033C67.2546 85.3382 67.2308 85.4821 67.2361 85.6264C67.2462 85.9231 67.3708 86.2043 67.5837 86.4112C67.7966 86.6181 68.0813 86.7346 68.3781 86.7362H92.5037C92.6478 86.7363 92.7905 86.7074 92.9232 86.6512C93.0558 86.595 93.1759 86.5127 93.2761 86.4091C93.3763 86.3056 93.4546 86.1829 93.5065 86.0484C93.5583 85.914 93.5825 85.7705 93.5777 85.6264C93.5693 85.3282 93.4449 85.045 93.231 84.8371C93.0171 84.6292 92.7304 84.5129 92.4321 84.5131Z" fill="#E0E0E0"/>
<path d="M55.8229 72.2158L55.4005 71.5212C54.4733 70.0069 52.5365 68.6572 51.8706 68.2599L52.3718 67.372C53.6868 68.168 54.8583 69.1798 55.8372 70.3649C57.3587 68.3207 59.5819 66.2193 62.5927 63.9495L63.2407 64.7873C60.0187 67.2109 57.7346 69.4413 56.2704 71.5642C56.1236 71.7826 55.9733 72.001 55.8229 72.2158Z" fill="#1E90FF"/>
<path d="M56.3599 91.4762C56.2203 91.2435 56.0771 91.0108 55.9339 90.7816C55.0031 89.2673 53.0699 87.9176 52.4111 87.5167L52.9195 86.6288C54.2277 87.427 55.393 88.4386 56.367 89.6217C57.8921 87.5811 60.1332 85.4761 63.1905 83.2064L63.8242 84.0441C60.5592 86.4677 58.2609 88.6981 56.8038 90.821L56.3599 91.4762Z" fill="#1E90FF"/>
<path d="M57.5878 110.78L57.1152 110.085C56.0842 108.571 54.0865 107.221 53.3992 106.824L53.8646 105.936C55.2174 106.737 56.4362 107.746 57.4768 108.925C58.8801 106.884 61.0138 104.779 63.9781 102.513L64.6475 103.351C61.4828 105.775 59.3097 108.005 57.9887 110.128L57.5878 110.78Z" fill="#1E90FF"/>
<path d="M80.2278 46.182C79.5977 47.5567 78.9521 48.9302 78.291 50.3026C79.6539 50.9805 80.8191 51.998 81.6744 53.2571C82.5297 54.5162 83.0462 55.9745 83.1741 57.4912H87.932C87.6169 52.626 84.488 48.3909 80.2278 46.182Z" fill="#1E90FF"/>
<path d="M62.1022 57.4984H66.86C66.7434 56.1526 66.9885 54.8001 67.5701 53.5809C68.1517 52.3617 69.0486 51.3201 70.1679 50.5639C69.2419 49.1892 68.3016 47.8145 67.3469 46.4398C63.8743 48.688 61.7979 52.8086 62.1022 57.4984Z" fill="#263238"/>
<path d="M73.7909 44.5853C71.5082 44.5627 69.2685 45.2073 67.3469 46.4398C68.3016 47.8145 69.2419 49.1892 70.168 50.5639C71.4083 49.7534 72.8606 49.3274 74.3422 49.3396C75.7131 49.3475 77.0626 49.68 78.2802 50.3097C78.939 48.935 79.5846 47.5615 80.217 46.1892C78.2336 45.1495 76.0302 44.5996 73.7909 44.5853Z" fill="#1E90FF"/>
<path opacity="0.5" d="M73.7909 44.5853C71.5082 44.5627 69.2685 45.2073 67.3469 46.4398C68.3016 47.8145 69.2419 49.1892 70.168 50.5639C71.4083 49.7534 72.8606 49.3274 74.3422 49.3396C75.7131 49.3475 77.0626 49.68 78.2802 50.3097C78.939 48.935 79.5846 47.5615 80.217 46.1892C78.2336 45.1495 76.0302 44.5996 73.7909 44.5853Z" fill="#263238"/>
<path d="M79.6049 54.2406C79.6049 54.2406 74.8006 56.206 74.2922 56.564C74.1708 56.6559 74.069 56.7712 73.9928 56.9031C73.9166 57.035 73.8675 57.1808 73.8485 57.3319C73.8295 57.483 73.8409 57.6364 73.8821 57.783C73.9232 57.9297 73.9933 58.0666 74.0882 58.1857C74.2675 58.4404 74.5389 58.6153 74.8449 58.6735C75.1509 58.7316 75.4676 58.6684 75.7278 58.4972C76.2541 58.1177 79.6121 54.2406 79.6049 54.2406ZM74.5571 57.8206C74.5104 57.7619 74.4759 57.6946 74.4556 57.6224C74.4353 57.5502 74.4297 57.4747 74.439 57.4003C74.4484 57.3259 74.4725 57.2541 74.51 57.1892C74.5475 57.1243 74.5976 57.0675 74.6574 57.0222C74.7863 56.9393 74.9421 56.909 75.0926 56.9377C75.2432 56.9663 75.377 57.0517 75.4665 57.1762C75.5132 57.2348 75.5477 57.3022 75.568 57.3744C75.5883 57.4466 75.5939 57.5221 75.5846 57.5965C75.5752 57.6709 75.5511 57.7426 75.5136 57.8076C75.4761 57.8725 75.426 57.9293 75.3662 57.9745C75.239 58.0589 75.0844 58.0915 74.9339 58.0656C74.7835 58.0396 74.6487 57.9571 74.5571 57.8349V57.8206Z" fill="#263238"/>
<path d="M85.3007 51.9673C85.3242 52.1828 85.3014 52.4008 85.234 52.6068C85.1665 52.8128 85.0559 53.002 84.9096 53.1619C84.7632 53.3218 84.5845 53.4487 84.3853 53.5341C84.186 53.6194 83.9709 53.6614 83.7541 53.657C83.2949 53.648 82.8549 53.4711 82.5172 53.1598C82.1795 52.8485 81.9675 52.4243 81.9212 51.9673C81.8967 51.753 81.9182 51.5359 81.9844 51.3305C82.0506 51.1252 82.1599 50.9364 82.305 50.7768C82.4501 50.6171 82.6276 50.4903 82.8256 50.4048C83.0237 50.3193 83.2377 50.2772 83.4534 50.2811C83.9139 50.2889 84.3557 50.4645 84.6958 50.775C85.036 51.0855 85.2511 51.5094 85.3007 51.9673Z" fill="white"/>
<path d="M83.2064 51.5806C83.21 51.6146 83.2063 51.649 83.1956 51.6815C83.185 51.714 83.1676 51.7439 83.1446 51.7692C83.1217 51.7945 83.0936 51.8148 83.0623 51.8285C83.031 51.8423 82.9972 51.8493 82.963 51.8491C82.8895 51.8486 82.8189 51.8209 82.7647 51.7713C82.7104 51.7217 82.6765 51.6538 82.6694 51.5806C82.6653 51.5465 82.6686 51.5119 82.679 51.4792C82.6895 51.4464 82.7068 51.4163 82.7299 51.3908C82.753 51.3654 82.7813 51.3452 82.8128 51.3316C82.8444 51.318 82.8785 51.3114 82.9129 51.3121C82.9864 51.3127 83.057 51.3404 83.1112 51.39C83.1654 51.4396 83.1994 51.5075 83.2064 51.5806Z" fill="#263238"/>
<path d="M84.4879 51.5806C84.4914 51.615 84.4877 51.6496 84.4768 51.6824C84.4659 51.7151 84.4482 51.7452 84.4249 51.7706C84.4015 51.796 84.373 51.8161 84.3413 51.8296C84.3096 51.8432 84.2753 51.8498 84.2408 51.8491C84.1678 51.8471 84.098 51.8188 84.0441 51.7695C83.9902 51.7202 83.9559 51.6532 83.9473 51.5806C83.9431 51.5462 83.9465 51.5113 83.9571 51.4783C83.9677 51.4453 83.9854 51.415 84.0089 51.3894C84.0324 51.3639 84.0611 51.3438 84.0931 51.3304C84.1251 51.3171 84.1597 51.3109 84.1943 51.3121C84.2678 51.3127 84.3384 51.3404 84.3927 51.39C84.4469 51.4396 84.4808 51.5075 84.4879 51.5806Z" fill="#263238"/>
<path d="M83.6896 52.984C83.3355 52.9812 82.9949 52.8473 82.7338 52.6081C82.7093 52.5833 82.6956 52.5499 82.6956 52.515C82.6956 52.4802 82.7093 52.4467 82.7338 52.4219C82.7458 52.4094 82.7602 52.3994 82.7762 52.3926C82.7922 52.3857 82.8095 52.3822 82.8269 52.3822C82.8442 52.3822 82.8615 52.3857 82.8775 52.3926C82.8935 52.3994 82.9079 52.4094 82.9199 52.4219C83.1318 52.6172 83.4086 52.7269 83.6968 52.7298C83.8306 52.7328 83.9635 52.7076 84.0868 52.6558C84.2102 52.6039 84.3213 52.5267 84.4128 52.4291C84.437 52.4035 84.4704 52.3885 84.5057 52.3875C84.5231 52.387 84.5405 52.3899 84.5568 52.3962C84.5731 52.4024 84.588 52.4117 84.6007 52.4237C84.6134 52.4357 84.6236 52.4501 84.6308 52.466C84.6379 52.482 84.6419 52.4991 84.6424 52.5166C84.6428 52.534 84.6399 52.5514 84.6337 52.5677C84.6275 52.5841 84.6181 52.599 84.6061 52.6117C84.4882 52.7348 84.3456 52.8316 84.1877 52.8958C84.0297 52.9599 83.86 52.99 83.6896 52.984Z" fill="#263238"/>
<path d="M75.7599 46.9338C75.7895 47.1468 75.7725 47.3637 75.7101 47.5696C75.6476 47.7754 75.5413 47.9652 75.3983 48.1258C75.2553 48.2865 75.0792 48.4142 74.882 48.5002C74.6848 48.5861 74.4714 48.6282 74.2563 48.6236C73.7933 48.6128 73.3494 48.4364 73.0052 48.1264C72.661 47.8163 72.4394 47.3932 72.3804 46.9338C72.3484 46.7217 72.3633 46.5053 72.424 46.2996C72.4847 46.0939 72.5897 45.904 72.7317 45.7433C72.8736 45.5825 73.0491 45.4549 73.2457 45.3692C73.4423 45.2836 73.6553 45.2421 73.8697 45.2476C74.3337 45.2585 74.7786 45.4342 75.1249 45.7431C75.4712 46.052 75.6963 46.4741 75.7599 46.9338Z" fill="white"/>
<path d="M73.655 46.54C73.6596 46.5736 73.657 46.6078 73.6472 46.6403C73.6374 46.6728 73.6207 46.7028 73.5983 46.7283C73.5759 46.7538 73.5483 46.7741 73.5173 46.788C73.4863 46.8018 73.4527 46.8088 73.4187 46.8085C73.3449 46.8067 73.2742 46.7786 73.2191 46.7295C73.164 46.6803 73.1282 46.6131 73.118 46.54C73.1128 46.5063 73.115 46.4718 73.1245 46.439C73.1341 46.4063 73.1507 46.376 73.1732 46.3504C73.1958 46.3248 73.2237 46.3044 73.255 46.2908C73.2863 46.2772 73.3202 46.2706 73.3543 46.2715C73.4283 46.2726 73.4995 46.3004 73.5547 46.3497C73.6099 46.399 73.6456 46.4666 73.655 46.54Z" fill="#263238"/>
<path d="M74.9329 46.54C74.9376 46.5739 74.9349 46.6085 74.9249 46.6412C74.9149 46.674 74.8979 46.7042 74.8751 46.7297C74.8523 46.7552 74.8242 46.7755 74.7927 46.7891C74.7613 46.8027 74.7273 46.8093 74.6931 46.8085C74.6195 46.806 74.5491 46.7777 74.4941 46.7286C74.4392 46.6796 74.4032 46.6128 74.3924 46.54C74.3877 46.5061 74.3904 46.4715 74.4004 46.4388C74.4104 46.406 74.4274 46.3758 74.4502 46.3503C74.473 46.3248 74.5011 46.3045 74.5325 46.2909C74.564 46.2773 74.598 46.2707 74.6322 46.2715C74.706 46.2733 74.7768 46.3014 74.8319 46.3505C74.887 46.3997 74.9228 46.4669 74.9329 46.54Z" fill="#263238"/>
<path d="M74.9687 47.614H73.2932C73.2614 47.6088 73.2325 47.5924 73.2116 47.5678C73.1907 47.5432 73.1792 47.512 73.1792 47.4797C73.1792 47.4475 73.1907 47.4163 73.2116 47.3917C73.2325 47.3671 73.2614 47.3507 73.2932 47.3455H74.9687C75.0005 47.3507 75.0295 47.3671 75.0504 47.3917C75.0713 47.4163 75.0827 47.4475 75.0827 47.4797C75.0827 47.512 75.0713 47.5432 75.0504 47.5678C75.0295 47.5924 75.0005 47.6088 74.9687 47.614Z" fill="#263238"/>
<path d="M67.2575 51.9673C67.2809 52.1828 67.2582 52.4008 67.1907 52.6068C67.1233 52.8128 67.0127 53.002 66.8664 53.1619C66.72 53.3218 66.5413 53.4487 66.342 53.5341C66.1428 53.6194 65.9277 53.6614 65.7109 53.657C65.2517 53.648 64.8117 53.4711 64.474 53.1598C64.1363 52.8485 63.9243 52.4243 63.878 51.9673C63.8535 51.753 63.875 51.5359 63.9412 51.3305C64.0074 51.1252 64.1167 50.9364 64.2618 50.7768C64.4068 50.6171 64.5844 50.4903 64.7824 50.4048C64.9805 50.3193 65.1945 50.2772 65.4102 50.2811C65.8705 50.2896 66.3118 50.4655 66.6518 50.7759C66.9918 51.0862 67.2071 51.5097 67.2575 51.9673Z" fill="white"/>
<path d="M65.1559 51.5806C65.1594 51.6146 65.1557 51.649 65.1451 51.6815C65.1345 51.714 65.1171 51.7439 65.0941 51.7692C65.0711 51.7945 65.0431 51.8148 65.0118 51.8285C64.9805 51.8423 64.9467 51.8493 64.9125 51.8491C64.839 51.8486 64.7683 51.8209 64.7141 51.7713C64.6599 51.7217 64.626 51.6538 64.6189 51.5806C64.6148 51.5465 64.6181 51.5119 64.6285 51.4792C64.6389 51.4464 64.6563 51.4163 64.6793 51.3908C64.7024 51.3654 64.7307 51.3452 64.7623 51.3316C64.7939 51.318 64.828 51.3114 64.8623 51.3121C64.9358 51.3127 65.0065 51.3404 65.0607 51.39C65.1149 51.4396 65.1488 51.5075 65.1559 51.5806Z" fill="#263238"/>
<path d="M66.4376 51.5806C66.4418 51.6148 66.4385 51.6494 66.4281 51.6821C66.4176 51.7149 66.4003 51.745 66.3772 51.7704C66.3541 51.7959 66.3258 51.8161 66.2943 51.8297C66.2627 51.8433 66.2286 51.8499 66.1942 51.8491C66.1212 51.8471 66.0514 51.8188 65.9975 51.7695C65.9436 51.7202 65.9092 51.6532 65.9006 51.5806C65.8965 51.5465 65.8998 51.5119 65.9102 51.4792C65.9207 51.4464 65.938 51.4163 65.9611 51.3908C65.9842 51.3654 66.0125 51.3452 66.044 51.3316C66.0756 51.318 66.1097 51.3114 66.1441 51.3121C66.2178 51.3119 66.2889 51.3393 66.3433 51.3891C66.3977 51.4388 66.4314 51.5072 66.4376 51.5806Z" fill="#263238"/>
<path d="M64.7979 52.984C64.7813 52.9842 64.7649 52.9812 64.7496 52.9751C64.7342 52.9689 64.7202 52.9598 64.7084 52.9482C64.6839 52.9234 64.6702 52.89 64.6702 52.8551C64.6702 52.8203 64.6839 52.7868 64.7084 52.762C64.8245 52.6386 64.9649 52.5405 65.1208 52.4739C65.2767 52.4074 65.4446 52.3739 65.6141 52.3754C65.9687 52.3792 66.3093 52.5144 66.57 52.7549C66.5825 52.7669 66.5925 52.7814 66.5994 52.7974C66.6062 52.8134 66.6097 52.8306 66.6097 52.848C66.6097 52.8654 66.6062 52.8826 66.5994 52.8986C66.5925 52.9146 66.5825 52.929 66.57 52.941C66.5442 52.9649 66.5103 52.9782 66.4751 52.9782C66.4399 52.9782 66.4061 52.9649 66.3802 52.941C66.1684 52.7434 65.8895 52.6334 65.5998 52.6332C65.4664 52.6302 65.3337 52.655 65.2105 52.7062C65.0872 52.7574 64.9759 52.8337 64.8838 52.9303C64.8629 52.9583 64.8322 52.9775 64.7979 52.984Z" fill="#263238"/>
<path d="M91.913 39.5805C90.7961 37.2284 88.1898 35.6711 85.3795 35.6711H79.6515C79.2582 35.6885 78.8673 35.6016 78.5184 35.4193C78.1695 35.237 77.875 34.9657 77.6646 34.6329C76.8663 33.1365 74.9617 32.0696 72.7994 32.0696C70.6371 32.0696 68.8614 33.1436 68.2313 34.6329C67.97 35.263 67.2218 35.6711 66.3626 35.6711H60.6346C57.8243 35.6711 55.3934 37.2284 54.5486 39.5805C54.5172 39.6626 54.505 39.7507 54.5128 39.8382C54.5219 40.0219 54.6014 40.1949 54.7347 40.3215C54.868 40.4482 55.0449 40.5187 55.2288 40.5184H91.3438C91.4542 40.5187 91.5627 40.4904 91.6589 40.4364C91.7552 40.3824 91.8358 40.3044 91.8931 40.2101C91.9503 40.1157 91.9823 40.0082 91.9858 39.8979C91.9893 39.7876 91.9642 39.6783 91.913 39.5805ZM73.0321 36.3191C72.6048 36.3103 72.1963 36.1419 71.8869 35.8471C71.5775 35.5523 71.3897 35.1524 71.3602 34.726C71.3459 34.5207 71.3742 34.3146 71.4435 34.1207C71.5128 33.9269 71.6215 33.7496 71.7628 33.5999C71.9041 33.4502 72.0749 33.3314 72.2644 33.251C72.4539 33.1706 72.658 33.1304 72.8638 33.1329C73.2939 33.1373 73.7064 33.3039 74.019 33.5992C74.3315 33.8945 74.5212 34.2969 74.55 34.726C74.5645 34.9326 74.5358 35.1399 74.4656 35.3347C74.3954 35.5295 74.2854 35.7076 74.1426 35.8575C73.9998 36.0074 73.8272 36.1259 73.636 36.2054C73.4448 36.2849 73.2391 36.3236 73.0321 36.3191Z" fill="#263238"/>
<path d="M129.03 146.461C128.75 146.496 128.467 146.426 128.236 146.264C128.205 146.227 128.186 146.181 128.182 146.132C128.177 146.084 128.187 146.035 128.21 145.992C128.228 145.956 128.253 145.923 128.285 145.898C128.316 145.872 128.353 145.854 128.393 145.846C128.815 145.727 129.793 146.25 129.825 146.275C129.837 146.281 129.847 146.29 129.854 146.301C129.86 146.313 129.863 146.326 129.861 146.34C129.86 146.352 129.856 146.363 129.848 146.372C129.84 146.381 129.83 146.387 129.818 146.39C129.558 146.436 129.294 146.46 129.03 146.461ZM128.558 145.953C128.519 145.947 128.479 145.947 128.44 145.953C128.415 145.958 128.392 145.968 128.372 145.983C128.352 145.997 128.336 146.017 128.325 146.039C128.289 146.118 128.325 146.157 128.325 146.179C128.468 146.347 129.134 146.35 129.614 146.282C129.284 146.11 128.927 145.999 128.558 145.953Z" fill="#1E90FF"/>
<path d="M129.818 146.39H129.793C129.46 146.247 128.765 145.674 128.78 145.38C128.78 145.309 128.823 145.223 128.995 145.205C129.123 145.194 129.251 145.232 129.353 145.312C129.62 145.593 129.802 145.945 129.875 146.325C129.88 146.334 129.882 146.344 129.882 146.354C129.882 146.364 129.88 146.374 129.875 146.383C129.867 146.388 129.857 146.392 129.847 146.393C129.838 146.395 129.827 146.393 129.818 146.39ZM129.055 145.316H129.02C128.909 145.316 128.905 145.369 128.905 145.384C128.905 145.563 129.374 146.01 129.721 146.204C129.653 145.898 129.501 145.618 129.281 145.395C129.216 145.346 129.137 145.321 129.055 145.323V145.316Z" fill="#1E90FF"/>
<path d="M132.703 146.329H130.072L129.131 140.236H131.762L132.703 146.329Z" fill="#FFC3BD"/>
<path d="M130.054 146.025H132.918C132.972 146.026 133.025 146.044 133.068 146.076C133.112 146.108 133.144 146.153 133.162 146.204L133.942 148.541C133.959 148.594 133.963 148.649 133.955 148.703C133.946 148.758 133.926 148.809 133.894 148.854C133.863 148.899 133.821 148.937 133.773 148.963C133.725 148.989 133.671 149.004 133.616 149.007C132.578 149.007 131.075 148.932 129.772 148.932C128.25 148.932 128.386 149.014 126.6 149.014C125.526 149.014 125.1 147.922 125.526 147.822C127.534 147.374 127.767 147.324 129.421 146.229C129.606 146.097 129.827 146.026 130.054 146.025Z" fill="#263238"/>
<path opacity="0.2" d="M129.131 140.239L129.617 143.379H132.249L131.762 140.239H129.131Z" fill="black"/>
<path d="M132.403 80.7111L130.613 82.519L133.355 83.4892C133.355 83.4892 134.429 82.0142 133.674 81.0047L132.403 80.7111Z" fill="#FFC3BD"/>
<path d="M130.011 85.0465L132.75 85.4474L133.362 83.4892L130.62 82.519L130.011 85.0465Z" fill="#FFC3BD"/>
<path d="M133.599 58.4507C133.831 58.9519 134.017 59.3779 134.204 59.8433C134.39 60.3087 134.562 60.7562 134.741 61.2144C135.081 62.1345 135.385 63.0724 135.668 64.0211C135.956 64.981 136.195 65.9548 136.384 66.9388L136.52 67.6906L136.631 68.4568C136.67 68.7109 136.695 68.9759 136.717 69.2372C136.738 69.4985 136.774 69.7348 136.774 70.0642V70.5296V70.9413L136.753 71.3458L136.713 71.7289C136.667 72.2444 136.599 72.7277 136.534 73.2182C136.391 74.1848 136.226 75.1299 136.044 76.0822C135.664 77.9545 135.249 79.7839 134.748 81.6276L131.486 80.9832C131.694 79.1645 131.909 77.3173 132.081 75.4986C132.163 74.5893 132.252 73.6836 132.303 72.7957C132.324 72.359 132.349 71.915 132.349 71.4962V71.1811V70.8912V70.6012L132.324 70.3649C132.308 70.1763 132.281 69.9887 132.245 69.8028C132.213 69.6024 132.184 69.4019 132.138 69.1978L132.005 68.5856L131.851 67.9699C131.63 67.1465 131.379 66.3195 131.093 65.4925C130.806 64.6655 130.488 63.8421 130.151 63.0259C129.986 62.6142 129.814 62.2061 129.635 61.8051C129.456 61.4042 129.277 60.9853 129.102 60.638L133.599 58.4507Z" fill="#263238"/>
<path d="M121.237 79.4295C121.237 79.4295 121.673 99.5634 122.855 107.583C124.086 115.924 128.583 142.77 128.583 142.77H133.036C133.036 142.77 131.44 117.22 130.931 109.011C130.376 100.061 130.498 79.4295 130.498 79.4295H121.237Z" fill="#1E90FF"/>
<path d="M127.512 140.995C127.491 140.995 127.971 142.846 127.971 142.846H133.391L133.351 141.195L127.512 140.995Z" fill="#263238"/>
<path d="M120.233 46.7903C120.247 46.5673 120.14 46.3792 119.994 46.3703C119.847 46.3613 119.718 46.5348 119.704 46.7578C119.691 46.9808 119.798 47.1688 119.944 47.1778C120.09 47.1868 120.219 47.0133 120.233 46.7903Z" fill="#263238"/>
<path d="M120.123 47.1772C119.833 47.8598 119.452 48.5003 118.992 49.0818C119.142 49.191 119.315 49.2656 119.498 49.3003C119.68 49.335 119.868 49.3288 120.048 49.2823L120.123 47.1772Z" fill="#ED847E"/>
<path d="M121.069 45.5376C121.041 45.5377 121.014 45.5302 120.99 45.5161C120.862 45.4153 120.711 45.3471 120.551 45.3171C120.391 45.2872 120.226 45.2965 120.07 45.3443C120.054 45.3506 120.037 45.3536 120.02 45.3533C120.002 45.3529 119.985 45.3491 119.97 45.3421C119.954 45.3351 119.94 45.325 119.928 45.3125C119.917 45.3 119.907 45.2852 119.901 45.2691C119.896 45.2526 119.893 45.2352 119.895 45.2179C119.896 45.2005 119.9 45.1835 119.908 45.1679C119.915 45.1523 119.926 45.1383 119.939 45.1268C119.952 45.1153 119.967 45.1065 119.984 45.1008C120.18 45.037 120.389 45.0219 120.592 45.0568C120.795 45.0918 120.987 45.1757 121.151 45.3013C121.178 45.3225 121.196 45.3535 121.2 45.3875C121.205 45.4216 121.196 45.4562 121.176 45.4839C121.163 45.5005 121.147 45.5139 121.128 45.5232C121.11 45.5325 121.089 45.5375 121.069 45.5376Z" fill="#263238"/>
<path d="M127.197 49.2322C126.753 51.1582 126.252 54.6845 127.555 55.9661C127.555 55.9661 126.961 57.9172 123.385 57.9172C119.447 57.9172 121.577 55.9661 121.577 55.9661C123.725 55.4542 123.743 53.8647 123.42 52.3682L127.197 49.2322Z" fill="#FFC3BD"/>
<path d="M128.941 56.8683C129.327 56.0843 129.753 55.1821 128.941 54.9029C128.053 54.5914 123.145 54.2764 121.423 54.8563C120.963 54.9736 120.568 55.2688 120.326 55.677C120.083 56.0852 120.013 56.573 120.13 57.033L128.941 56.8683Z" fill="#1E90FF"/>
<path d="M132.707 56.7215C134.973 57.7669 136.126 65.693 136.126 65.693L131.561 67.125C130.746 65.0279 130.084 62.8742 129.582 60.681C128.88 57.3731 130.387 55.6547 132.707 56.7215Z" fill="#263238"/>
<path d="M104.654 69.0546L102.549 67.2431L100.655 69.9997C100.655 69.9997 102.356 71.3637 104.235 70.8052L104.654 69.0546Z" fill="#FFC3BD"/>
<path d="M99.7746 66.366L99.4846 69.0904L100.655 69.9997L102.549 67.2431L99.7746 66.366Z" fill="#FFC3BD"/>
<path d="M127.681 46.3001C127.416 49.0353 127.398 50.6463 125.966 52.0496C125.505 52.5065 124.928 52.8293 124.297 52.9836C123.667 53.1379 123.006 53.1178 122.386 52.9254C121.766 52.7331 121.21 52.3757 120.777 51.8917C120.345 51.4076 120.052 50.815 119.93 50.1773C119.429 47.7214 119.93 43.6617 122.662 42.5734C123.243 42.3226 123.88 42.2292 124.509 42.3023C125.138 42.3755 125.737 42.6127 126.245 42.9902C126.754 43.3677 127.154 43.8722 127.406 44.4531C127.658 45.0341 127.753 45.671 127.681 46.3001Z" fill="#FFC3BD"/>
<path d="M122.078 47.1772C121.838 45.287 121.878 44.571 122.887 44.1521C121.838 43.9445 120.929 43.9159 120.496 43.3037C120.063 42.6915 119.959 41.127 122.064 40.411C121.87 40.769 122.483 41.5137 124.419 40.8406C126.356 40.1676 129.177 40.096 129.431 42.065C130.455 41.707 132.17 44.8681 130.147 47.1772C128.461 49.1104 127.337 50.4458 127.004 51.4732C126.989 51.5214 126.963 51.5656 126.929 51.6032C126.895 51.6407 126.854 51.6706 126.807 51.6909C126.761 51.7112 126.711 51.7214 126.66 51.7209C126.61 51.7204 126.56 51.7092 126.514 51.688C125.816 51.3623 124.566 51.6415 124.008 51.7919C123.929 51.8123 123.846 51.8053 123.772 51.7721C123.697 51.7389 123.637 51.6815 123.6 51.6093C123.238 50.8646 122.261 48.7381 122.078 47.1772Z" fill="#263238"/>
<path d="M129.052 42.3049C129.052 42.3049 129.882 41.1342 131.475 42.0041C130.656 41.966 129.837 42.0677 129.052 42.3049Z" fill="#263238"/>
<path d="M129.188 42.5555C129.188 42.5555 130.344 41.8395 129.442 40.4898C129.497 41.1884 129.411 41.8911 129.188 42.5555Z" fill="#263238"/>
<path d="M123.417 47.256C123.291 47.9328 122.956 48.5529 122.458 49.0281C121.795 49.6546 121.222 49.2107 121.205 48.4052C121.187 47.6892 121.509 46.4791 122.279 46.1569C123.048 45.8347 123.553 46.4469 123.417 47.256Z" fill="#FFC3BD"/>
<path opacity="0.3" d="M121.605 90.617C121.863 96.6242 122.268 103.598 122.855 107.583C123.08 109.101 123.41 111.227 123.804 113.694C125.386 105.059 126.331 93.932 121.605 90.617Z" fill="black"/>
<path d="M119.633 146.461C119.296 146.461 118.971 146.415 118.867 146.264C118.84 146.224 118.825 146.177 118.825 146.128C118.825 146.08 118.84 146.033 118.867 145.992C118.915 145.92 118.987 145.868 119.071 145.846C119.511 145.727 120.413 146.25 120.453 146.275C120.464 146.281 120.472 146.291 120.477 146.303C120.482 146.315 120.482 146.328 120.478 146.34C120.475 146.352 120.469 146.363 120.46 146.372C120.451 146.381 120.44 146.387 120.428 146.39C120.165 146.436 119.899 146.46 119.633 146.461ZM119.235 145.953C119.195 145.947 119.154 145.947 119.114 145.953C119.088 145.958 119.064 145.968 119.042 145.983C119.021 145.998 119.002 146.017 118.988 146.039C118.942 146.118 118.956 146.157 118.971 146.179C119.089 146.347 119.751 146.35 120.245 146.282C119.933 146.107 119.59 145.996 119.235 145.953Z" fill="#1E90FF"/>
<path d="M120.431 146.39H120.406C120.095 146.247 119.482 145.674 119.543 145.38C119.543 145.309 119.608 145.223 119.78 145.205C119.843 145.197 119.908 145.202 119.97 145.221C120.032 145.239 120.089 145.27 120.138 145.312C120.463 145.588 120.496 146.297 120.496 146.325C120.495 146.336 120.493 146.347 120.488 146.357C120.483 146.367 120.476 146.376 120.467 146.383C120.456 146.388 120.443 146.391 120.431 146.39ZM119.826 145.316H119.79C119.676 145.316 119.669 145.369 119.665 145.384C119.629 145.563 120.041 146.01 120.36 146.204C120.34 145.907 120.228 145.625 120.041 145.395C119.98 145.346 119.904 145.321 119.826 145.323V145.316Z" fill="#1E90FF"/>
<path d="M123.324 146.329H120.696L120.646 140.236H123.277L123.324 146.329Z" fill="#FFC3BD"/>
<path d="M120.721 146.025H123.585C123.636 146.024 123.686 146.042 123.726 146.074C123.765 146.107 123.791 146.153 123.8 146.204L124.24 148.541C124.25 148.599 124.247 148.658 124.232 148.714C124.217 148.771 124.189 148.823 124.151 148.867C124.113 148.912 124.066 148.947 124.012 148.972C123.959 148.996 123.901 149.008 123.843 149.007C122.808 149.007 121.312 148.932 120.012 148.932C118.487 148.932 117.17 149.014 115.383 149.014C114.309 149.014 114.044 147.922 114.499 147.822C116.572 147.374 118.255 147.324 120.07 146.229C120.264 146.103 120.489 146.032 120.721 146.025Z" fill="#263238"/>
<path opacity="0.2" d="M120.65 140.239L120.671 143.379H123.302L123.281 140.239H120.65Z" fill="black"/>
<path d="M116.543 79.4295C116.543 79.4295 115.469 99.0944 115.491 107.114C115.491 115.455 119.715 142.77 119.715 142.77H124.169C124.169 142.77 123.009 115.942 123.51 107.758C124.043 98.808 126.628 79.4366 126.628 79.4366L116.543 79.4295Z" fill="#1E90FF"/>
<path d="M118.921 140.995C118.899 140.995 119.103 142.846 119.103 142.846H124.523L124.731 141.195L118.921 140.995Z" fill="#263238"/>
<path d="M117.503 56.6965C117.503 56.6965 113.021 68.02 114.972 87.5919H131.339C131.511 85.4439 129.8 66.7348 132.242 56.5604C130.693 56.2606 129.126 56.0621 127.552 55.9661C125.561 55.8515 123.564 55.8515 121.573 55.9661C120.2 56.1043 118.839 56.3485 117.503 56.6965Z" fill="#263238"/>
<path opacity="0.2" d="M115.187 66.946C114.943 68.736 114.743 70.7802 114.614 73.032C117.793 70.1107 118.881 62.8326 118.881 62.8326L115.187 66.946Z" fill="black"/>
<path d="M119.189 62.0879C118.545 63.7634 117.893 65.378 117.177 66.9997C116.461 68.6214 115.72 70.2217 114.886 71.8255L114.56 72.4234L114.395 72.7241C114.327 72.8458 114.334 72.853 114.148 73.1645C113.827 73.6692 113.382 74.0834 112.856 74.3673C112.421 74.5962 111.945 74.7396 111.456 74.7898C110.784 74.8514 110.105 74.7969 109.451 74.6287C108.934 74.5007 108.427 74.3355 107.933 74.1346C107.048 73.7679 106.19 73.3372 105.367 72.8458C104.962 72.6131 104.575 72.3625 104.192 72.1298C103.809 71.8971 103.462 71.6 103.05 71.3136L104.983 68.3494C106.371 69.1138 107.827 69.7455 109.333 70.236C109.653 70.3348 109.98 70.409 110.311 70.458C110.499 70.4982 110.695 70.4982 110.883 70.458C110.905 70.458 110.837 70.4365 110.719 70.4974C110.575 70.5707 110.452 70.679 110.361 70.8124C110.285 70.9377 110.382 70.7515 110.414 70.6799L110.543 70.3971L110.801 69.8351C111.481 68.3171 112.111 66.7455 112.723 65.1811C113.336 63.6166 113.93 61.9841 114.478 60.4053L119.189 62.0879Z" fill="#263238"/>
<path d="M120.968 57.885C121.806 60.2263 115.877 69.6525 115.877 69.6525L112.362 66.1691C112.362 66.1691 113.26 63.2085 114.445 59.6428C115.612 56.138 120.17 55.6475 120.968 57.885Z" fill="#263238"/>
</svg>
