<svg width="409" height="217" viewBox="0 0 409 217" fill="none" xmlns="http://www.w3.org/2000/svg">
<g clip-path="url(#clip0_1023_15502)">
<path d="M406.353 216.439H178.615C177.913 216.438 177.24 216.16 176.744 215.664C176.248 215.169 175.969 214.497 175.968 213.797V2.64271C175.969 1.9421 176.248 1.27045 176.744 0.775045C177.24 0.279638 177.913 0.000916945 178.615 0H406.353C407.055 0.000916945 407.727 0.279638 408.224 0.775045C408.72 1.27045 408.999 1.9421 409 2.64271V213.796C408.999 214.497 408.72 215.169 408.224 215.664C407.728 216.159 407.055 216.439 406.353 216.439ZM178.615 1.05501C178.194 1.05592 177.791 1.22313 177.494 1.52003C177.196 1.81694 177.029 2.21936 177.028 2.63925V213.796C177.029 214.216 177.196 214.618 177.494 214.915C177.791 215.212 178.194 215.379 178.615 215.38H406.353C406.774 215.38 407.177 215.212 407.474 214.915C407.771 214.619 407.939 214.216 407.94 213.796V2.64271C407.939 2.22283 407.771 1.8204 407.474 1.5235C407.177 1.22659 406.773 1.05939 406.353 1.05847L178.615 1.05501Z" fill="#E6E6E6"/>
<path d="M286.225 54.869C285.748 54.869 285.291 55.0581 284.954 55.3945C284.617 55.731 284.428 56.1873 284.428 56.6632C284.428 57.139 284.617 57.5954 284.954 57.9318C285.291 58.2683 285.748 58.4573 286.225 58.4573H384.832C385.309 58.4573 385.766 58.2683 386.103 57.9318C386.44 57.5954 386.629 57.139 386.629 56.6632C386.629 56.1873 386.44 55.731 386.103 55.3945C385.766 55.0581 385.309 54.869 384.832 54.869H286.225Z" fill="#E6E6E6"/>
<path d="M286.225 65.635C285.748 65.635 285.291 65.824 284.954 66.1605C284.617 66.497 284.428 66.9533 284.428 67.4292C284.428 67.905 284.617 68.3614 284.954 68.6978C285.291 69.0343 285.748 69.2233 286.225 69.2233H336.566C337.042 69.2233 337.5 69.0343 337.837 68.6978C338.174 68.3614 338.363 67.905 338.363 67.4292C338.363 66.9533 338.174 66.497 337.837 66.1605C337.5 65.824 337.042 65.635 336.566 65.635H286.225Z" fill="#E6E6E6"/>
<path d="M200.039 117.744C199.563 117.744 199.106 117.933 198.769 118.269C198.432 118.606 198.242 119.062 198.242 119.538C198.242 120.014 198.432 120.47 198.769 120.806C199.106 121.143 199.563 121.332 200.039 121.332H384.929C385.405 121.332 385.862 121.143 386.199 120.806C386.536 120.47 386.726 120.014 386.726 119.538C386.726 119.062 386.536 118.606 386.199 118.269C385.862 117.933 385.405 117.744 384.929 117.744H200.039Z" fill="#E6E6E6"/>
<path d="M200.039 128.51C199.563 128.51 199.106 128.699 198.769 129.035C198.432 129.372 198.242 129.828 198.242 130.304C198.242 130.78 198.432 131.236 198.769 131.572C199.106 131.909 199.563 132.098 200.039 132.098H336.662C337.139 132.098 337.596 131.909 337.933 131.572C338.27 131.236 338.459 130.78 338.459 130.304C338.459 129.828 338.27 129.372 337.933 129.035C337.596 128.699 337.139 128.51 336.662 128.51H200.039Z" fill="#E6E6E6"/>
<path d="M200.039 139.032C199.563 139.032 199.106 139.221 198.769 139.557C198.432 139.894 198.242 140.35 198.242 140.826C198.242 141.302 198.432 141.758 198.769 142.095C199.106 142.431 199.563 142.62 200.039 142.62H384.929C385.405 142.62 385.862 142.431 386.199 142.095C386.536 141.758 386.726 141.302 386.726 140.826C386.726 140.35 386.536 139.894 386.199 139.557C385.862 139.221 385.405 139.032 384.929 139.032H200.039Z" fill="#E6E6E6"/>
<path d="M200.039 149.798C199.563 149.798 199.106 149.987 198.769 150.323C198.432 150.66 198.242 151.116 198.242 151.592C198.242 152.068 198.432 152.524 198.769 152.861C199.106 153.197 199.563 153.386 200.039 153.386H336.662C337.139 153.386 337.596 153.197 337.933 152.861C338.27 152.524 338.459 152.068 338.459 151.592C338.459 151.116 338.27 150.66 337.933 150.323C337.596 149.987 337.139 149.798 336.662 149.798H200.039Z" fill="#E6E6E6"/>
<path d="M261.304 92.67H118.36C117.658 92.6693 116.985 92.3906 116.489 91.8951C115.993 91.3997 115.714 90.728 115.713 90.0273V27.3967C115.714 26.6961 115.993 26.0244 116.489 25.5289C116.985 25.0335 117.658 24.7548 118.36 24.754H261.304C262.006 24.7548 262.679 25.0335 263.175 25.5289C263.671 26.0244 263.95 26.6961 263.951 27.3967V90.0273C263.95 90.728 263.671 91.3997 263.175 91.8951C262.679 92.3906 262.006 92.6693 261.304 92.67Z" fill="#1E90FF"/>
<path d="M383.785 191.685H329.602C328.9 191.685 328.227 191.406 327.731 190.91C327.235 190.415 326.956 189.743 326.955 189.043V180.375C326.956 179.675 327.235 179.003 327.731 178.507C328.227 178.012 328.9 177.733 329.602 177.733H383.785C384.487 177.733 385.16 178.012 385.656 178.507C386.152 179.003 386.431 179.675 386.432 180.375V189.043C386.431 189.743 386.152 190.415 385.656 190.91C385.16 191.406 384.487 191.685 383.785 191.685Z" fill="#1E90FF"/>
<path d="M62.6963 106.001C60.3613 104.26 59.676 101.008 61.1657 98.7366C61.3137 98.5142 61.4811 98.3053 61.6659 98.1122L61.8151 51.8427L68.704 53.1267L69.0066 98.6341C70.5761 100.452 70.893 103.101 69.6218 105.039C68.1321 107.31 65.0314 107.741 62.6963 106.001Z" fill="#FFB8B8"/>
<path d="M98.5215 209.566L105.623 209.566L109.002 182.217L98.5205 182.217L98.5215 209.566Z" fill="#FFB8B8"/>
<path d="M96.71 207.251L110.696 207.251H110.697C113.061 207.251 115.328 208.188 116.999 209.857C118.671 211.526 119.61 213.789 119.61 216.149V216.438L96.7104 216.439L96.71 207.251Z" fill="#2F2E41"/>
<path d="M32.4824 209.566L39.5848 209.566L42.9632 182.217L32.4814 182.217L32.4824 209.566Z" fill="#FFB8B8"/>
<path d="M30.6709 207.251L44.6572 207.251H44.6578C47.0217 207.251 49.2887 208.188 50.9602 209.857C52.6317 211.526 53.5708 213.789 53.571 216.149V216.438L30.6713 216.439L30.6709 207.251Z" fill="#2F2E41"/>
<path d="M98.1066 201.927L97.5114 198.362C96.8999 198.148 96.3804 197.732 96.0393 197.182C95.4001 196.174 95.2983 194.755 95.7364 192.964L90.9446 152.562L65.9274 126.647L49.8783 165.295L43.5251 195.879V200.297L30.8404 201.923L31.4176 197.759C30.9324 197.551 30.528 197.191 30.2658 196.734C29.537 195.523 29.547 193.646 30.2954 191.155L30.3278 191.047L30.2864 190.675C30.2573 190.415 30.4481 165.434 37.8862 153.057L45.3355 115.48C45.1421 114.95 44.187 111.869 45.9385 106.663C47.6672 101.525 52.5018 93.247 65.7172 82.9923L65.7626 82.9573L65.8189 82.9454C65.9652 82.9152 80.541 80.0221 88.0792 89.8639L88.1302 89.9304V90.0143C88.1302 90.6227 88.1171 104.782 86.9957 107.924L104.883 140.762C105.232 141.13 108.359 144.736 107.248 154.215L110.138 186.528C110.468 187.158 113.459 193.093 110.163 195.442L110.754 199.522L98.1066 201.927Z" fill="#2F2E41"/>
<path d="M68.1831 66.142C64.8244 66.142 60.3611 64.9568 57.6289 59.4938L57.5752 59.3864L64.3062 45.1412C65.1782 43.2956 66.7391 41.8641 68.6548 41.1528C70.5706 40.4416 72.689 40.5072 74.557 41.3355C76.4249 42.1639 77.8939 43.6892 78.6498 45.5852C79.4056 47.4811 79.3882 49.5971 78.6013 51.4805L72.782 65.4086L72.6807 65.446C71.2273 65.9121 69.7096 66.147 68.1831 66.142Z" fill="#1E90FF"/>
<path d="M86.8279 94.3852L65.6084 84.3812L68.5252 48.8537L73.8427 42.3651L74.8728 42.1448C79.607 41.1329 84.5262 41.4049 89.1194 42.9326L89.2204 42.9662L97.9549 61.5696C98.0097 61.6624 104.309 72.7656 95.6009 78.6195L86.8279 94.3852Z" fill="#1E90FF"/>
<path d="M116 83.0631C115.747 83.1684 115.502 83.2936 115.269 83.4373L92.9087 73.2256L92.3351 67.2893L83.2486 66.9827L83.2412 77.5902C83.2406 78.4471 83.5184 79.2811 84.033 79.967C84.5476 80.6529 85.2711 81.1536 86.0949 81.394L112.946 89.2286C113.221 90.2472 113.801 91.1578 114.608 91.8394C115.415 92.521 116.41 92.9411 117.462 93.044C118.514 93.1469 119.572 92.9277 120.496 92.4154C121.42 91.9031 122.166 91.1222 122.635 90.1764C123.103 89.2306 123.272 88.1647 123.119 87.1207C122.967 86.0766 122.499 85.1038 121.779 84.3316C121.058 83.5594 120.12 83.0244 119.087 82.7978C118.055 82.5712 116.978 82.6637 116 83.0631Z" fill="#FFB8B8"/>
<path d="M88.6494 69.8227C86.1014 69.8227 83.2259 68.943 80.466 66.1874L80.3809 66.1026L82.2458 50.4622C82.4874 48.4359 83.5137 46.5844 85.1052 45.3039C86.6966 44.0235 88.7269 43.4157 90.7614 43.6107C92.796 43.8057 94.6734 44.788 95.9918 46.3473C97.3103 47.9066 97.9651 49.9192 97.8161 51.9545L96.7153 67.0055L96.631 67.0729C96.577 67.1162 93.1174 69.8227 88.6494 69.8227Z" fill="#1E90FF"/>
<path d="M95.468 29.9888C99.2371 23.105 96.7031 14.474 89.8082 10.711C82.9133 6.94796 74.2684 9.47786 70.4994 16.3617C66.7303 23.2455 69.2642 31.8765 76.1591 35.6395C83.054 39.4025 91.6989 36.8726 95.468 29.9888Z" fill="#FFB8B8"/>
<path d="M97.4643 15.6488C96.7582 11.5491 93.4619 8.15059 89.5351 6.76003C85.6081 5.36947 81.1799 5.8217 77.3344 7.42303C76.6941 7.69091 76.0679 7.99149 75.4584 8.32357C74.0529 5.64876 70.607 4.09741 67.4552 4.26485C63.6476 4.46712 60.2089 6.47857 56.9019 8.3743C53.595 10.27 50.0464 12.1562 46.2341 12.0679C39.3449 11.9085 34.2196 5.53167 27.5951 3.63658C24.6461 2.79299 21.5082 2.87832 18.6095 3.88095C15.7109 4.88357 13.1927 6.75465 11.3985 9.2389C9.60427 11.7232 8.62145 14.6996 8.58411 17.7621C8.54677 20.8246 9.45673 23.824 11.1898 26.3512C14.0164 21.2939 20.6543 19.5858 26.414 20.2742C32.1734 20.9627 37.5413 23.4833 43.1838 24.8259C48.8266 26.1685 55.3615 26.1109 59.7321 22.3034C62.2115 20.1437 63.6672 17.0568 65.8255 14.5774C67.2855 12.9003 69.3639 11.4842 71.4876 11.1509C69.3958 13.0316 67.7989 15.3966 66.8371 18.0379C65.1342 22.8683 66.0446 28.6681 69.5772 32.3809C73.3643 36.3613 79.3082 37.4221 84.8067 37.3578L84.9217 37.241C83.2382 34.7252 81.9096 31.2367 83.7631 28.8429C85.5928 26.4801 89.2015 26.8282 92.0036 25.7826C95.9064 24.3263 98.1701 19.7486 97.4643 15.6488Z" fill="#2F2E41"/>
<path d="M135.869 217H0.495873C0.364359 217 0.238232 216.948 0.145237 216.855C0.0522433 216.762 0 216.636 0 216.505C0 216.374 0.0522433 216.248 0.145237 216.155C0.238232 216.062 0.364359 216.01 0.495873 216.01H135.869C136.001 216.01 136.127 216.062 136.22 216.155C136.313 216.248 136.365 216.374 136.365 216.505C136.365 216.636 136.313 216.762 136.22 216.855C136.127 216.948 136.001 217 135.869 217Z" fill="#CCCCCC"/>
<path d="M183.419 46.7203C182.798 46.7223 182.296 47.5272 182.297 48.518C182.298 49.5062 182.8 50.3067 183.419 50.3086H236.412C237.033 50.3067 237.535 49.5018 237.534 48.5109C237.533 47.5228 237.031 46.7223 236.412 46.7203H183.419Z" fill="white"/>
<path d="M183.419 57.1169C182.798 57.1189 182.296 57.9238 182.297 58.9146C182.298 59.9028 182.8 60.7033 183.419 60.7052H236.412C237.033 60.7033 237.535 59.8984 237.534 58.9075C237.533 57.9194 237.031 57.1189 236.412 57.1169H183.419Z" fill="white"/>
<path d="M183.419 67.3878C182.798 67.3898 182.296 68.1946 182.297 69.1855C182.298 70.1736 182.8 70.9742 183.419 70.9761H206.222C206.843 70.9741 207.345 70.1693 207.344 69.1784C207.343 68.1903 206.841 67.3898 206.222 67.3878H183.419Z" fill="white"/>
<path d="M156.511 73.0693C164.453 73.0693 170.892 66.6413 170.892 58.7121C170.892 50.7828 164.453 44.3549 156.511 44.3549C148.569 44.3549 142.131 50.7828 142.131 58.7121C142.131 66.6413 148.569 73.0693 156.511 73.0693Z" fill="white"/>
</g>
<defs>
<clipPath id="clip0_1023_15502">
<rect width="409" height="217" fill="white"/>
</clipPath>
</defs>
</svg>
