<svg width="334" height="183" viewBox="0 0 334 183" fill="none" xmlns="http://www.w3.org/2000/svg">
<g clip-path="url(#clip0_1023_15327)">
<path d="M13.2599 175.31C22.377 181.895 34.1921 182.226 45.6127 181.417C47.2074 181.304 48.7909 181.172 50.3596 181.029C50.3691 181.026 50.3816 181.027 50.3912 181.025C50.4666 181.017 50.5421 181.01 50.6143 181.006C50.9381 180.976 51.262 180.945 51.5828 180.915L51.507 181.06L51.2692 181.509C51.3546 181.359 51.4401 181.211 51.5255 181.061C51.5507 181.016 51.5788 180.971 51.6038 180.926C54.5624 175.764 57.4967 170.413 58.2452 164.519C59.0189 158.401 56.8446 151.474 51.4741 148.467C50.7697 148.074 50.0239 147.76 49.2503 147.533C48.9291 147.435 48.6035 147.356 48.2743 147.286C46.2601 146.837 44.1632 146.935 42.1991 147.568C40.235 148.202 38.4746 149.348 37.099 150.89C35.7233 152.431 34.7821 154.313 34.372 156.34C33.962 158.367 34.0979 160.467 34.7658 162.424C30.2126 157.744 31.0619 150.15 32.6326 143.804C34.2062 137.457 36.1113 130.396 32.9106 124.695C31.1314 121.523 28.0025 119.554 24.4911 118.761C24.3834 118.738 24.2758 118.715 24.1679 118.695C19.9842 117.845 15.6348 118.609 11.9885 120.834C5.27447 125.076 1.82606 133.118 0.706847 140.997C-1.09641 153.674 2.89423 167.823 13.2599 175.31Z" fill="#F1F1F1"/>
<path d="M16.2032 154.987C16.4679 157.784 17.1379 160.527 18.1922 163.129C19.1637 165.432 20.4733 167.577 22.0774 169.492C25.3542 173.443 29.687 176.415 34.3926 178.394C37.9906 179.872 41.7604 180.887 45.6125 181.417C47.2072 181.304 48.7906 181.171 50.3594 181.029C50.3689 181.026 50.3814 181.027 50.391 181.025C50.4664 181.017 50.5419 181.01 50.6141 181.006C50.9379 180.976 51.2618 180.945 51.5826 180.915L51.5068 181.06L51.269 181.509C51.3544 181.359 51.4398 181.211 51.5253 181.061C51.5504 181.016 51.5786 180.971 51.6036 180.926C48.7157 178.041 46.5596 174.504 45.3158 170.612C44.0721 166.72 43.7769 162.586 44.4551 158.556C45.1648 154.554 46.8077 150.777 49.25 147.533C48.9288 147.435 48.6033 147.356 48.2741 147.286C47.3459 148.558 46.5317 149.91 45.8411 151.326C43.3629 156.375 42.5723 162.091 43.5863 167.626C44.5289 172.635 46.8774 177.27 50.3561 180.988C50.0515 180.966 49.7439 180.941 49.4429 180.914C43.7421 180.43 38.0529 179.201 32.8822 176.684C28.4624 174.585 24.6253 171.428 21.7088 167.493C18.5772 163.163 17.1973 157.954 16.9602 152.661C16.7089 146.994 17.4423 141.227 18.7324 135.716C20.0496 130.066 22.0515 124.599 24.6934 119.436C24.7525 119.319 24.7644 119.184 24.7268 119.058C24.6891 118.932 24.6046 118.826 24.4909 118.761C24.3961 118.697 24.28 118.673 24.1677 118.694C24.1127 118.709 24.0618 118.736 24.0186 118.773C23.9754 118.81 23.9412 118.856 23.9184 118.909C23.5924 119.546 23.2726 120.185 22.9649 120.83C20.4023 126.205 18.5157 131.878 17.3483 137.719C16.2151 143.354 15.6102 149.249 16.2032 154.987Z" fill="white"/>
<path d="M131.81 183H0.345051C0.253538 183 0.165773 182.964 0.101063 182.899C0.0363532 182.834 0 182.746 0 182.654C0 182.562 0.0363532 182.474 0.101063 182.409C0.165773 182.345 0.253538 182.308 0.345051 182.308H131.81C131.901 182.308 131.989 182.345 132.054 182.409C132.118 182.474 132.155 182.562 132.155 182.654C132.155 182.746 132.118 182.834 132.054 182.899C131.989 182.964 131.901 183 131.81 183Z" fill="#CBCBCB"/>
<path d="M92.3465 90.105L86.4022 60.9026L83.7909 39.3337L78.0059 43.0858L78.805 66.8547L88.0385 91.4815C87.7417 92.0482 87.6198 92.6905 87.6881 93.3269C87.7564 93.9632 88.012 94.5648 88.4222 95.0552C88.8325 95.5455 89.3789 95.9025 89.992 96.0807C90.6052 96.2589 91.2573 96.2503 91.8655 96.0559C92.4738 95.8616 93.0106 95.4903 93.4078 94.9892C93.805 94.4882 94.0446 93.88 94.0962 93.2421C94.1478 92.6042 94.0089 91.9653 93.6974 91.4067C93.3858 90.8481 92.9156 90.395 92.3465 90.105Z" fill="#FFB7B7"/>
<path d="M36.7491 92.363L38.3945 62.6044L37.8495 40.8842L45.4975 43.7529L46.7742 67.3856L41.211 93.0969C41.5868 93.6143 41.8006 94.232 41.8253 94.8715C41.85 95.5111 41.6845 96.1435 41.3497 96.6885C41.0149 97.2334 40.5261 97.6663 39.9453 97.932C39.3645 98.1977 38.7181 98.2842 38.0881 98.1806C37.4582 98.077 36.8732 97.7879 36.4075 97.3501C35.9419 96.9123 35.6166 96.3456 35.473 95.7219C35.3295 95.0983 35.3742 94.446 35.6014 93.8479C35.8286 93.2498 36.2281 92.7329 36.7491 92.363Z" fill="#FFB7B7"/>
<path d="M52.7668 178.882L56.6745 178.882L58.5336 163.77L52.7661 163.77L52.7668 178.882Z" fill="#FFB7B7"/>
<path d="M51.77 177.603L59.4661 177.603C60.7668 177.603 62.0146 178.121 62.9343 179.043C63.8541 179.965 64.3708 181.215 64.3709 182.52V182.679L51.7703 182.68L51.77 177.603Z" fill="#2F2E41"/>
<path d="M67.5688 177.148L71.4307 177.747L75.5727 163.098L69.8731 162.214L67.5688 177.148Z" fill="#FFB7B7"/>
<path d="M66.7785 175.731L74.3841 176.911C75.6695 177.11 76.8236 177.814 77.5919 178.866C78.3602 179.918 78.6801 181.233 78.4813 182.522L78.4569 182.68L66.0044 180.749L66.7785 175.731Z" fill="#2F2E41"/>
<path d="M51.6189 174.37L51.5987 174.26L37.4515 97.5749C36.3284 91.4187 37.2242 85.0633 40.0047 79.46L48.5675 62.2908L74.1179 65.7611L77.1332 87.6204L87.8789 129.32L87.8683 129.354L74.1007 173.198L65.0777 173.793L73.0704 134.656L58.4353 101.33L59.4676 173.774L51.6189 174.37Z" fill="#2F2E41"/>
<path d="M74.7128 68.5585L74.5442 68.2937C74.5139 68.2459 71.4103 63.558 62.9647 66.688C54.3431 69.8839 47.6627 63.7113 47.5962 63.6487L47.5631 63.6174L45.6106 46.17L43.3057 32.0061L50.6428 30.7156L54.2501 28.5458L68.5942 28.2898L72.3689 31.2662L78.5662 31.9433L79.1335 44.8491L79.1309 44.8632L74.7128 68.5585Z" fill="#1E90FF"/>
<path d="M76.7686 46.0975V35.0466L78.5113 31.858L78.5821 31.8558C79.954 31.9071 81.2507 32.4978 82.1916 33.5C83.9445 35.2856 84.7385 38.2604 84.5517 42.3419L84.5483 42.4166L76.7686 46.0975Z" fill="#1E90FF"/>
<path d="M46.3932 44.8963L37.511 43.8276L37.504 43.725C37.201 39.2843 37.9741 35.988 39.8019 33.9277C41.4607 32.0579 43.3615 31.9447 43.4416 31.9408L43.4929 31.9384L45.8973 34.1298L46.3932 44.8963Z" fill="#1E90FF"/>
<path d="M72.1054 23.837H48.7324C48.2516 23.8364 47.7906 23.6447 47.4507 23.3039C47.1107 22.963 46.9195 22.5009 46.9189 22.0189V13.5346C46.9189 9.94496 48.3413 6.5024 50.873 3.96418C53.4047 1.42596 56.8385 0 60.4189 0C63.9993 0 67.4331 1.42596 69.9648 3.96418C72.4965 6.5024 73.9188 9.94496 73.9188 13.5346V22.0189C73.9183 22.5009 73.7271 22.963 73.3871 23.3039C73.0471 23.6447 72.5862 23.8364 72.1054 23.837Z" fill="#2F2E41"/>
<path d="M69.6463 18.5901C72.2683 13.7813 70.5056 7.75204 65.7091 5.12333C60.9126 2.49463 54.8988 4.26192 52.2768 9.07068C49.6548 13.8794 51.4176 19.9087 56.2141 22.5374C61.0105 25.1661 67.0244 23.3988 69.6463 18.5901Z" fill="#FFB7B7"/>
<path d="M70.3694 14.1406H57.3021C57.0566 14.1403 56.8196 14.0502 56.6356 13.8873C56.4516 13.7244 56.3331 13.4998 56.3024 13.2556L56.1332 11.8988C56.1169 11.7683 56.0588 11.6467 55.9676 11.5522C55.8763 11.4578 55.7569 11.3957 55.6274 11.3752C55.4978 11.3548 55.3652 11.3771 55.2494 11.4389C55.1336 11.5007 55.0411 11.5985 54.9856 11.7177L54.129 13.5579C54.0475 13.7317 53.9185 13.8788 53.7568 13.982C53.5952 14.0851 53.4077 14.1401 53.2161 14.1406H51.2312C51.0908 14.1406 50.9519 14.1112 50.8235 14.0543C50.6951 13.9974 50.5799 13.9141 50.4855 13.81C50.3911 13.7058 50.3194 13.583 50.2751 13.4494C50.2308 13.3158 50.2148 13.1744 50.2282 13.0343L51.0109 4.83837C51.0276 4.66302 51.0895 4.49504 51.1904 4.35084C51.2913 4.20665 51.4279 4.09118 51.5866 4.01573C57.5711 1.21484 63.6397 1.21839 69.6242 4.02639C69.776 4.09792 69.9076 4.20627 70.0071 4.34164C70.1067 4.47701 70.171 4.63512 70.1942 4.80167L71.3667 12.987C71.3872 13.1303 71.3768 13.2763 71.3362 13.4153C71.2955 13.5542 71.2255 13.6827 71.1309 13.7921C71.0363 13.9016 70.9194 13.9893 70.788 14.0494C70.6566 14.1096 70.5139 14.1406 70.3694 14.1406Z" fill="#2F2E41"/>
<path d="M92.3766 91.9701L91.8887 91.481L113.096 70.2187H154.195L174.93 49.0008H215.498L235.965 28.3214H331.239V29.0133H236.252L215.785 49.6926H175.22L154.484 70.9106H113.382L92.3766 91.9701Z" fill="#3F3D56"/>
<path d="M175.621 62.2684C182.672 62.2684 188.388 56.5378 188.388 49.4688C188.388 42.3998 182.672 36.6692 175.621 36.6692C168.57 36.6692 162.854 42.3998 162.854 49.4688C162.854 56.5378 168.57 62.2684 175.621 62.2684Z" fill="white"/>
<path d="M236.35 32.172C238.256 32.172 239.801 30.6232 239.801 28.7127C239.801 26.8021 238.256 25.2533 236.35 25.2533C234.445 25.2533 232.9 26.8021 232.9 28.7127C232.9 30.6232 234.445 32.172 236.35 32.172Z" fill="#CBCBCB"/>
<path d="M330.55 32.172C332.455 32.172 334 30.6232 334 28.7127C334 26.8021 332.455 25.2533 330.55 25.2533C328.644 25.2533 327.099 26.8021 327.099 28.7127C327.099 30.6232 328.644 32.172 330.55 32.172Z" fill="#CBCBCB"/>
<path d="M283.622 32.172C285.528 32.172 287.073 30.6232 287.073 28.7127C287.073 26.8021 285.528 25.2533 283.622 25.2533C281.717 25.2533 280.172 26.8021 280.172 28.7127C280.172 30.6232 281.717 32.172 283.622 32.172Z" fill="#CBCBCB"/>
<path d="M175.622 62.6144C173.028 62.6144 170.493 61.8434 168.337 60.3989C166.181 58.9545 164.5 56.9014 163.508 54.4994C162.515 52.0974 162.256 49.4542 162.762 46.9042C163.268 44.3542 164.516 42.0119 166.35 40.1735C168.184 38.3351 170.52 37.0831 173.064 36.5758C175.607 36.0686 178.244 36.3289 180.639 37.3239C183.035 38.3188 185.083 40.0037 186.524 42.1655C187.965 44.3273 188.734 46.8689 188.734 49.4688C188.73 52.954 187.347 56.2953 184.889 58.7598C182.431 61.2242 179.098 62.6104 175.622 62.6144ZM175.622 37.0151C173.165 37.0151 170.763 37.7455 168.721 39.1139C166.678 40.4824 165.086 42.4274 164.145 44.703C163.205 46.9786 162.959 49.4826 163.439 51.8984C163.918 54.3142 165.101 56.5332 166.838 58.2749C168.575 60.0166 170.789 61.2027 173.198 61.6832C175.608 62.1637 178.106 61.9171 180.375 60.9745C182.645 60.0319 184.585 58.4357 185.95 56.3877C187.315 54.3397 188.044 51.9319 188.044 49.4688C188.04 46.167 186.73 43.0015 184.401 40.6668C182.072 38.3321 178.915 37.0188 175.622 37.0151Z" fill="#3F3D56"/>
<path d="M175.621 58.614C180.659 58.614 184.743 54.5195 184.743 49.4688C184.743 44.418 180.659 40.3235 175.621 40.3235C170.584 40.3235 166.5 44.418 166.5 49.4688C166.5 54.5195 170.584 58.614 175.621 58.614Z" fill="#1E90FF"/>
<path d="M174.752 53.3294L172.022 49.8099L173.61 48.5718L174.902 50.2381L179.269 45.6161L180.73 47.0033L174.752 53.3294Z" fill="white"/>
<path d="M112.822 83.3705C119.873 83.3705 125.589 77.6399 125.589 70.5709C125.589 63.5018 119.873 57.7712 112.822 57.7712C105.771 57.7712 100.055 63.5018 100.055 70.5709C100.055 77.6399 105.771 83.3705 112.822 83.3705Z" fill="white"/>
<path d="M112.822 83.7164C110.229 83.7164 107.694 82.9454 105.538 81.501C103.382 80.0565 101.701 78.0035 100.709 75.6014C99.7161 73.1994 99.4565 70.5563 99.9624 68.0063C100.468 65.4563 101.717 63.114 103.551 61.2755C105.385 59.4371 107.721 58.1851 110.264 57.6779C112.808 57.1707 115.444 57.431 117.84 58.4259C120.236 59.4209 122.284 61.1058 123.725 63.2676C125.165 65.4294 125.934 67.9709 125.934 70.5709C125.93 74.0561 124.548 77.3974 122.09 79.8618C119.631 82.3262 116.299 83.7125 112.822 83.7164ZM112.822 58.1172C110.366 58.1172 107.964 58.8476 105.921 60.216C103.878 61.5844 102.286 63.5294 101.346 65.805C100.406 68.0806 100.16 70.5847 100.639 73.0005C101.119 75.4162 102.302 77.6353 104.039 79.3769C105.776 81.1186 107.989 82.3047 110.399 82.7852C112.809 83.2658 115.306 83.0192 117.576 82.0766C119.846 81.134 121.786 79.5377 123.151 77.4897C124.516 75.4418 125.244 73.034 125.244 70.5709C125.241 67.2691 123.931 64.1036 121.602 61.7689C119.273 59.4342 116.116 58.1209 112.822 58.1172Z" fill="#3F3D56"/>
<path d="M112.822 79.7162C117.86 79.7162 121.944 75.6217 121.944 70.5709C121.944 65.5201 117.86 61.4257 112.822 61.4257C107.784 61.4257 103.7 65.5201 103.7 70.5709C103.7 75.6217 107.784 79.7162 112.822 79.7162Z" fill="#1E90FF"/>
<path d="M111.953 74.4316L109.223 70.912L110.81 69.6739L112.103 71.3403L116.47 66.7183L117.93 68.1055L111.953 74.4316Z" fill="white"/>
</g>
<defs>
<clipPath id="clip0_1023_15327">
<rect width="334" height="183" fill="white"/>
</clipPath>
</defs>
</svg>
