<svg width="231" height="160" viewBox="0 0 231 160" fill="none" xmlns="http://www.w3.org/2000/svg">
<g clip-path="url(#clip0_999_13886)">
<path d="M186.958 76.512L192.647 89.3456L191.278 105.217C190.848 105.582 190.544 106.073 190.408 106.621C190.273 107.169 190.313 107.745 190.523 108.269C190.733 108.792 191.102 109.237 191.578 109.538C192.054 109.84 192.613 109.984 193.176 109.949C193.738 109.915 194.275 109.704 194.711 109.347C195.148 108.99 195.46 108.504 195.605 107.959C195.75 107.413 195.72 106.836 195.519 106.309C195.318 105.782 194.957 105.332 194.486 105.022L194.709 104.982L196.938 89.1217L193.261 73.1231L186.958 76.512Z" fill="#FFB8B8"/>
<path d="M170.711 160C176.318 160 180.865 159.526 180.865 158.941C180.865 158.356 176.318 157.882 170.711 157.882C165.103 157.882 160.556 158.356 160.556 158.941C160.556 159.526 165.103 160 170.711 160Z" fill="#E6E6E6"/>
<path d="M200.749 160C206.357 160 210.904 159.526 210.904 158.941C210.904 158.356 206.357 157.882 200.749 157.882C195.141 157.882 190.595 158.356 190.595 158.941C190.595 159.526 195.141 160 200.749 160Z" fill="#E6E6E6"/>
<path d="M224.019 160C227.875 160 231 159.674 231 159.272C231 158.869 227.875 158.543 224.019 158.543C220.164 158.543 217.038 158.869 217.038 159.272C217.038 159.674 220.164 160 224.019 160Z" fill="#E6E6E6"/>
<path d="M226.016 153.752C225.968 155.567 225.664 157.366 225.115 159.097C225.102 159.137 225.089 159.177 225.076 159.217H221.71C221.714 159.181 221.718 159.141 221.721 159.097C221.945 156.512 223.239 140.787 221.692 138.098C221.828 138.316 226.278 145.542 226.016 153.752Z" fill="#E6E6E6"/>
<path d="M225.764 159.097C225.736 159.137 225.707 159.177 225.677 159.217H223.152C223.171 159.183 223.193 159.144 223.219 159.097C223.636 158.343 224.871 156.089 226.017 153.752C227.249 151.24 228.379 148.634 228.283 147.69C228.313 147.903 229.165 154.389 225.764 159.097Z" fill="#E6E6E6"/>
<path d="M155.215 101.412H1.84607C1.35664 101.412 0.887423 101.217 0.541343 100.87C0.195263 100.524 0.000579933 100.054 0 99.5637V1.84874C0.000515618 1.35858 0.195179 0.888648 0.541273 0.542055C0.887367 0.195461 1.35662 0.000516363 1.84607 0H155.215C155.704 0.000516363 156.173 0.195461 156.519 0.542055C156.866 0.888648 157.06 1.35858 157.061 1.84874V99.5637C157.06 100.054 156.865 100.524 156.519 100.87C156.173 101.217 155.704 101.412 155.215 101.412ZM1.84607 0.731498C1.55029 0.73182 1.26671 0.849633 1.05756 1.05909C0.848407 1.26854 0.730767 1.55253 0.730444 1.84874V99.5637C0.730767 99.8599 0.848407 100.144 1.05756 100.353C1.26671 100.563 1.55029 100.681 1.84607 100.681H155.215C155.51 100.681 155.794 100.563 156.003 100.353C156.212 100.144 156.33 99.8599 156.33 99.5637V1.84874C156.33 1.55253 156.212 1.26854 156.003 1.05909C155.794 0.849633 155.51 0.73182 155.215 0.731498H1.84607Z" fill="#E6E6E6"/>
<path d="M115.489 14.4059H34.2293C33.8302 14.4063 33.4476 14.5653 33.1654 14.8479C32.8832 15.1305 32.7245 15.5136 32.7241 15.9133V85.4989C32.7245 85.8986 32.8832 86.2817 33.1654 86.5643C33.4476 86.8469 33.8302 87.0058 34.2293 87.0063H115.489C115.888 87.0058 116.271 86.8469 116.553 86.5643C116.835 86.2817 116.994 85.8986 116.994 85.4989V15.9133C116.994 15.5136 116.835 15.1305 116.553 14.8479C116.271 14.5653 115.888 14.4063 115.489 14.4059ZM116.39 85.4992C116.39 85.7388 116.295 85.9686 116.126 86.1383C115.957 86.3081 115.728 86.4041 115.489 86.4053H34.2293C33.9899 86.4045 33.7606 86.3087 33.5916 86.1388C33.4227 85.969 33.3281 85.7389 33.3284 85.4992V15.9133C33.3281 15.6735 33.4227 15.4435 33.5916 15.2736C33.7606 15.1037 33.9899 15.0079 34.2293 15.0072H115.489C115.728 15.0083 115.957 15.1043 116.126 15.2741C116.295 15.4439 116.39 15.6737 116.39 15.9133V85.4992Z" fill="#3F3D56"/>
<path d="M52.9861 74.6335C52.9861 74.7408 52.9831 74.8481 52.9775 74.9524C52.8954 76.5227 52.2146 78.0015 51.0757 79.0839C49.9367 80.1662 48.4265 80.7696 46.8563 80.7696C45.2862 80.7696 43.7759 80.1662 42.637 79.0839C41.498 78.0015 40.8173 76.5227 40.7351 74.9524C40.7295 74.8481 40.7266 74.7408 40.7266 74.6335C40.7266 73.0054 41.3724 71.4441 42.5219 70.2929C43.6714 69.1417 45.2305 68.495 46.8562 68.495C48.4819 68.495 50.041 69.1417 51.1905 70.2929C52.34 71.4441 52.9858 73.0054 52.9858 74.6335H52.9861Z" fill="#1E90FF"/>
<path d="M109.175 70.5403H61.0114C60.7471 70.5503 60.4969 70.6625 60.3134 70.8533C60.13 71.0441 60.0275 71.2987 60.0275 71.5636C60.0275 71.8286 60.13 72.0831 60.3134 72.274C60.4969 72.4648 60.7471 72.577 61.0114 72.587H109.175C109.445 72.5968 109.709 72.4985 109.907 72.3139C110.106 72.1293 110.223 71.8733 110.233 71.6022C110.243 71.3311 110.146 71.0671 109.962 70.868C109.778 70.6689 109.523 70.551 109.252 70.5403C109.226 70.5393 109.2 70.5393 109.175 70.5403Z" fill="#1E90FF"/>
<path d="M81.7358 76.68H61.0115C60.7408 76.68 60.4813 76.7876 60.2899 76.9793C60.0985 77.1709 59.991 77.4308 59.991 77.7019C59.991 77.9729 60.0985 78.2328 60.2899 78.4245C60.4813 78.6161 60.7408 78.7238 61.0115 78.7238H81.7358C82.0064 78.7242 82.2662 78.617 82.4579 78.4257C82.6495 78.2343 82.7575 77.9746 82.7579 77.7036C82.7584 77.4325 82.6513 77.1724 82.4603 76.9805C82.2692 76.7885 82.0099 76.6804 81.7392 76.68H81.7358Z" fill="#E6E6E6"/>
<path d="M134.794 62.9486H53.5341C53.0791 62.948 52.6428 62.7668 52.3211 62.4446C51.9993 62.1223 51.8183 61.6855 51.8178 61.2298V25.5166C51.8183 25.0609 51.9993 24.624 52.3211 24.3018C52.6428 23.9796 53.0791 23.7983 53.5341 23.7978H134.793C135.248 23.7983 135.685 23.9796 136.006 24.3018C136.328 24.624 136.509 25.0609 136.51 25.5166V61.2288C136.509 61.6845 136.329 62.1215 136.007 62.4439C135.686 62.7663 135.249 62.9478 134.794 62.9486Z" fill="#1E90FF"/>
<path d="M70.0838 36.4574C69.8128 36.4455 69.5483 36.5419 69.3483 36.7254C69.1483 36.9089 69.0294 37.1645 69.0175 37.4358C69.0057 37.7071 69.102 37.9721 69.2852 38.1723C69.4684 38.3726 69.7236 38.4918 69.9945 38.5036C70.0243 38.5049 70.054 38.5049 70.0838 38.5036H118.246C118.509 38.4921 118.758 38.3793 118.94 38.1887C119.122 37.998 119.224 37.7444 119.224 37.4805C119.224 37.2166 119.122 36.9629 118.94 36.7723C118.758 36.5817 118.509 36.4689 118.246 36.4574H70.0838Z" fill="white"/>
<path d="M70.0838 42.3857C69.8128 42.3738 69.5483 42.4702 69.3483 42.6537C69.1483 42.8372 69.0294 43.0927 69.0175 43.3641C69.0057 43.6354 69.102 43.9004 69.2852 44.1006C69.4684 44.3009 69.7236 44.42 69.9945 44.4319C70.0243 44.4332 70.054 44.4332 70.0838 44.4319H118.246C118.509 44.4204 118.758 44.3076 118.94 44.1169C119.122 43.9263 119.224 43.6726 119.224 43.4088C119.224 43.1449 119.122 42.8912 118.94 42.7006C118.758 42.51 118.509 42.3972 118.246 42.3857H70.0838Z" fill="white"/>
<path d="M70.0838 48.2418C69.8205 48.2533 69.5719 48.3661 69.3897 48.5567C69.2075 48.7473 69.1058 49.001 69.1058 49.2649C69.1058 49.5288 69.2075 49.7825 69.3897 49.9731C69.5719 50.1637 69.8205 50.2765 70.0838 50.288H90.8081C90.9423 50.2939 91.0763 50.2732 91.2025 50.2273C91.3287 50.1813 91.4446 50.1108 91.5436 50.02C91.6426 49.9291 91.7228 49.8196 91.7796 49.6977C91.8363 49.5758 91.8685 49.444 91.8744 49.3096C91.8803 49.1752 91.8596 49.041 91.8137 48.9147C91.7678 48.7883 91.6974 48.6722 91.6067 48.5731C91.516 48.4739 91.4067 48.3936 91.2849 48.3368C91.1632 48.2799 91.0315 48.2477 90.8974 48.2418C90.8676 48.2405 90.8379 48.2405 90.8081 48.2418H70.0838Z" fill="white"/>
<path d="M6.55284 6.47375C7.25383 6.47375 7.8221 5.90466 7.8221 5.20265C7.8221 4.50064 7.25383 3.93155 6.55284 3.93155C5.85184 3.93155 5.28357 4.50064 5.28357 5.20265C5.28357 5.90466 5.85184 6.47375 6.55284 6.47375Z" fill="#1E90FF"/>
<path d="M10.9951 6.47375C11.6961 6.47375 12.2644 5.90466 12.2644 5.20265C12.2644 4.50064 11.6961 3.93155 10.9951 3.93155C10.2941 3.93155 9.72583 4.50064 9.72583 5.20265C9.72583 5.90466 10.2941 6.47375 10.9951 6.47375Z" fill="#1E90FF"/>
<path d="M15.4374 6.47375C16.1384 6.47375 16.7067 5.90466 16.7067 5.20265C16.7067 4.50064 16.1384 3.93155 15.4374 3.93155C14.7364 3.93155 14.1682 4.50064 14.1682 5.20265C14.1682 5.90466 14.7364 6.47375 15.4374 6.47375Z" fill="#1E90FF"/>
<path d="M185.015 60.5634C188.138 60.5634 190.669 58.0284 190.669 54.9014C190.669 51.7743 188.138 49.2393 185.015 49.2393C181.893 49.2393 179.361 51.7743 179.361 54.9014C179.361 58.0284 181.893 60.5634 185.015 60.5634Z" fill="#FFB8B8"/>
<path d="M173.832 85.0968L188.682 87.8634C193.688 78.6787 196.449 70.3852 191.79 65.0387L182.984 64.5198C177.357 70.5454 172.598 76.393 175.832 80.6015L173.832 85.0968Z" fill="#1E90FF"/>
<path d="M187.056 77.885C190.454 79.1871 193.608 78.0557 196.503 74.3443L192.212 66.054L186.745 67.1391L187.056 77.885Z" fill="#1E90FF"/>
<path d="M172.45 153.917L178.321 153.615L182.119 113.801L201.457 153.399L207.501 153.226L195.933 118.469C195.477 106.874 195 95.308 190.063 90.2841L188.336 86.653L174.523 83.7133L172.624 87.3445C168.22 97.6423 170.806 127.066 172.45 153.917Z" fill="#2F2E41"/>
<path d="M179.53 74.2036L174.695 87.3462L165.929 99.8395C165.366 99.8761 164.83 100.089 164.395 100.448C163.961 100.807 163.65 101.294 163.507 101.84C163.365 102.386 163.397 102.963 163.6 103.489C163.803 104.016 164.167 104.465 164.639 104.772C165.111 105.08 165.668 105.232 166.231 105.205C166.794 105.178 167.334 104.974 167.774 104.623C168.215 104.271 168.534 103.789 168.686 103.246C168.838 102.703 168.816 102.125 168.622 101.596L168.824 101.697L180.048 90.2856L186.609 75.2411L179.53 74.2036Z" fill="#FFB8B8"/>
<path d="M178.322 74.2034C180.74 76.9255 184.061 77.3732 188.336 75.4138V66.0764L182.984 64.5203L178.322 74.2034Z" fill="#1E90FF"/>
<path d="M202.747 70.668C201.887 69.591 200.688 68.8507 199.524 68.1139C198.361 67.377 197.179 66.5941 196.389 65.4651C195.127 63.6637 195.067 61.2944 195.255 59.1023C195.443 56.9103 195.829 54.6712 195.295 52.5366C194.59 49.7131 192.253 47.4269 189.493 46.5152C186.733 45.6035 183.629 45.9927 181.032 47.3006L181.746 46.6259C181.177 46.7433 180.658 47.0324 180.259 47.4542C179.859 47.8761 179.598 48.4104 179.511 48.9853C179.424 49.5601 179.515 50.1479 179.772 50.6693C180.029 51.1908 180.439 51.6209 180.948 51.9017C182.119 52.5486 183.715 52.3633 184.656 53.3142C185.582 54.2518 185.388 55.7906 185.054 57.0663C184.188 60.3688 182.815 63.5479 182.34 66.9279C181.864 70.3079 182.466 74.0951 184.97 76.4115C186.81 78.1142 189.426 78.7711 191.931 78.7208C194.436 78.6706 196.881 77.9842 199.291 77.3015C200.982 76.8231 202.89 76.1594 203.552 74.5286C204.071 73.2527 203.607 71.745 202.747 70.668Z" fill="#2F2E41"/>
<path d="M178.469 158.474L165.864 158.473V158.314C165.864 157.011 166.381 155.761 167.301 154.84C168.221 153.918 169.469 153.401 170.77 153.401H170.771L178.469 153.401L178.469 158.474Z" fill="#2F2E41"/>
<path d="M207.687 157.986L195.082 157.986V157.826C195.082 156.523 195.599 155.274 196.519 154.352C197.439 153.431 198.687 152.913 199.988 152.913H199.988L207.687 152.913L207.687 157.986Z" fill="#2F2E41"/>
</g>
<defs>
<clipPath id="clip0_999_13886">
<rect width="231" height="160" fill="white"/>
</clipPath>
</defs>
</svg>
