<svg width="125" height="82" viewBox="0 0 125 82" fill="none" xmlns="http://www.w3.org/2000/svg">
<g clip-path="url(#clip0_941_16732)">
<path d="M120.114 54.8761C119.212 55.8529 118.092 56.58 116.878 57.1446H116.876C116.762 57.1983 116.648 57.2505 116.532 57.2999H116.53L116.529 57.3013L116.528 57.2999H116.526L116.526 57.3004L116.526 57.3009L116.525 57.3012L116.525 57.3013H116.523L116.522 57.2999C116.52 57.3013 116.52 57.3013 116.519 57.2999L116.517 57.3013L116.516 57.2999H116.514C116.513 57.3013 116.513 57.3013 116.511 57.2999H116.51C115.697 57.6482 114.862 57.9439 114.01 58.1852C109.002 59.5925 103.738 59.8649 98.6094 58.9819C98.5113 58.9645 98.4146 58.9471 98.3164 58.9297V47.158C98.4131 47.1173 98.5113 47.0767 98.6094 47.0375C99.2498 46.7748 99.8979 46.5334 100.554 46.3133C101.497 45.994 102.454 45.7202 103.424 45.4919C106.589 44.7332 109.854 44.4717 113.1 44.7168C113.691 44.7604 114.28 44.8233 114.867 44.9055C116.097 45.0753 117.386 45.3714 118.52 45.8852H118.522C118.687 45.9621 118.85 46.0419 119.011 46.1275C120.019 46.6689 120.869 47.4134 121.388 48.4337C121.574 48.8001 121.708 49.1904 121.786 49.5933V49.5962C121.815 49.7355 121.836 49.8763 121.852 50.0157C122.037 51.734 121.317 53.5728 120.114 54.8761Z" fill="#F2F2F2"/>
<path d="M121.852 50.0156C121.838 50.0192 121.823 50.0211 121.808 50.0214C119.298 50.1303 116.792 50.2919 114.289 50.5062H114.284C114.274 50.5076 114.265 50.5076 114.255 50.5091C111.685 50.7297 109.12 51.0059 106.561 51.3378C106.453 51.3523 106.346 51.3668 106.239 51.3799C104.469 51.6136 102.702 51.8729 100.939 52.1578C100.161 52.2841 99.3845 52.4157 98.6094 52.5526C98.5113 52.57 98.4146 52.5859 98.3164 52.6048V52.1651C98.4146 52.1462 98.5127 52.1302 98.6094 52.1128C101.191 51.66 103.782 51.2648 106.381 50.9271C107.034 50.84 107.689 50.7578 108.344 50.6804C110.237 50.4539 112.133 50.2585 114.032 50.094C114.171 50.0824 114.309 50.0708 114.448 50.0592C116.879 49.8545 119.313 49.6993 121.751 49.5933C121.763 49.5928 121.775 49.5938 121.786 49.5962C122.021 49.6165 122.07 49.9648 121.852 50.0156Z" fill="white"/>
<path d="M116.639 56.8722C113.512 56.8949 110.431 55.5817 108.22 53.408C107.596 52.7923 107.046 52.107 106.581 51.3659C106.432 51.1291 106.083 51.3903 106.231 51.6251C107.949 54.3536 110.81 56.2973 113.964 57.012C114.86 57.2131 115.776 57.3102 116.695 57.3014C116.975 57.2994 116.917 56.8702 116.639 56.8722Z" fill="white"/>
<path d="M103.424 45.4919C103.411 45.5327 103.387 45.5693 103.355 45.598C103.322 45.6268 103.283 45.6467 103.241 45.6559C102.524 45.8418 101.832 46.1097 101.178 46.4541C100.223 46.9538 99.3554 47.6032 98.6094 48.3771C98.5699 48.4163 98.5318 48.4555 98.4952 48.4961C98.4336 48.56 98.375 48.6253 98.3164 48.692V48.0593C98.4102 47.9606 98.5084 47.8633 98.6094 47.7704C99.1985 47.2118 99.8509 46.7229 100.554 46.3133C101.497 45.994 102.454 45.7202 103.424 45.4919Z" fill="white"/>
<path d="M118.779 45.7708C116.79 46.6175 115.126 48.071 114.029 49.9195C114.006 49.9724 114.006 50.0318 114.028 50.0849C114.05 50.138 114.092 50.1804 114.145 50.203C114.198 50.224 114.258 50.2237 114.311 50.2023C114.364 50.1809 114.407 50.1399 114.431 50.088C115.478 48.3421 117.058 46.9708 118.943 46.1718C119.202 46.0624 119.038 45.6611 118.779 45.7708Z" fill="white"/>
<path d="M124.775 33.4444C124.435 34.7245 123.783 35.8841 122.973 36.9421L122.972 36.9435C122.897 37.0422 122.819 37.1424 122.739 37.2382V37.2396C122.176 37.9261 121.569 38.5753 120.92 39.1829C118.59 41.3829 115.957 43.246 113.1 44.7168C108.607 47.0419 103.584 48.4163 98.6094 48.4947C98.5714 48.4961 98.5333 48.4961 98.4952 48.4961C98.4351 48.4976 98.375 48.4976 98.3164 48.4976V41.9013C98.4116 41.7213 98.5098 41.5413 98.6094 41.3628C99.9022 39.0588 101.479 36.9226 103.303 35.0031C103.346 34.9552 103.392 34.9073 103.437 34.8609C104.123 34.1439 104.842 33.4613 105.594 32.8131C108.488 30.293 111.832 28.3314 115.454 27.0295C116.621 26.6144 117.902 26.2821 119.147 26.2168C119.33 26.2066 119.512 26.2023 119.695 26.2037C120.843 26.2197 121.943 26.4882 122.882 27.1529C123.219 27.3922 123.52 27.6759 123.779 27.9961C123.87 28.1079 123.953 28.2225 124.034 28.3401V28.3415C125.004 29.7783 125.229 31.7362 124.775 33.4444Z" fill="#F2F2F2"/>
<path d="M124.034 28.3401V28.3415C124.023 28.3509 124.011 28.3592 123.999 28.3662C121.83 29.6158 119.689 30.9109 117.575 32.2514C117.572 32.2528 117.571 32.2543 117.568 32.2558C117.559 32.2616 117.551 32.2669 117.541 32.2717C115.369 33.6505 113.226 35.0757 111.115 36.5473C111.027 36.6083 110.938 36.6707 110.848 36.7331C109.39 37.7534 107.948 38.7954 106.52 39.8593C103.824 41.8708 101.187 43.9568 98.6094 46.1174C98.5113 46.1987 98.4146 46.2814 98.3164 46.3641V45.7995C98.4131 45.7168 98.5113 45.6341 98.6094 45.5528C99.597 44.727 100.593 43.9128 101.598 43.1102C101.899 42.8708 102.201 42.6313 102.502 42.3947C105.184 40.2801 107.925 38.2444 110.727 36.2875H110.728C111.279 35.9029 111.831 35.5217 112.384 35.1439C113.955 34.0728 115.543 33.0274 117.149 32.0076C117.265 31.9336 117.382 31.8595 117.499 31.7855C119.555 30.4851 121.637 29.2273 123.747 28.0121C123.757 28.0059 123.768 28.0005 123.779 27.9961C123.999 27.909 124.205 28.1964 124.034 28.3401Z" fill="white"/>
<path d="M122.633 36.8105C119.875 38.2693 116.531 38.5237 113.553 37.6164C112.712 37.3583 111.904 37.0045 111.144 36.5621C110.901 36.4209 110.715 36.8127 110.956 36.9526C113.757 38.5786 117.202 38.9834 120.331 38.1649C121.218 37.9308 122.075 37.5951 122.884 37.1648C123.132 37.034 122.879 36.6806 122.633 36.8105Z" fill="white"/>
<path d="M101.999 42.1207C101.863 41.3609 101.816 40.588 101.86 39.8175C101.958 38.0604 102.502 36.356 103.439 34.8612C104.126 34.1445 104.845 33.4617 105.597 32.813C105.604 32.8554 105.599 32.899 105.584 32.9393C105.569 32.9796 105.544 33.0154 105.511 33.043C104.964 33.5375 104.476 34.0931 104.058 34.6986C102.566 36.8568 101.983 39.5072 102.435 42.0848C102.442 42.114 102.442 42.1446 102.433 42.1737C102.425 42.2027 102.41 42.2292 102.389 42.2506C102.357 42.2777 102.319 42.2961 102.279 42.3041C102.238 42.3121 102.196 42.3094 102.156 42.2963C102.117 42.2832 102.082 42.26 102.054 42.2292C102.027 42.1984 102.008 42.161 101.999 42.1207Z" fill="white"/>
<path d="M119.324 25.9951C117.96 27.6601 117.167 29.7129 117.062 31.8548C117.068 31.9118 117.095 31.9646 117.139 32.0016C117.184 32.0386 117.241 32.0569 117.298 32.0525C117.356 32.0464 117.408 32.0187 117.445 31.9752C117.482 31.9317 117.501 31.8757 117.498 31.8189C117.607 29.7909 118.363 27.8495 119.657 26.2746C119.835 26.0587 119.502 25.7787 119.324 25.9951Z" fill="white"/>
<path d="M104.149 30.7638V30.7652C104.139 30.8901 104.127 31.0134 104.114 31.1368V31.1397C104.012 32.0178 103.853 32.8885 103.638 33.7463C103.536 34.1671 103.424 34.5851 103.303 35.0031C103.288 35.0568 103.272 35.1105 103.256 35.1628V35.1642C102.898 36.3799 102.47 37.5743 101.975 38.7417C101.064 40.8911 99.9364 42.944 98.6094 44.8692C98.5142 45.01 98.4161 45.1508 98.3164 45.2901V22.5623C98.4146 22.5565 98.5113 22.5565 98.6094 22.5594C98.6563 22.5594 98.7032 22.5609 98.7501 22.5638C99.1635 22.5853 99.5719 22.664 99.9634 22.7975C100.101 22.8424 100.234 22.8932 100.366 22.9498C101.965 23.6436 103.221 25.1733 103.766 26.8554C104.174 28.1151 104.256 29.4402 104.149 30.7638Z" fill="#F2F2F2"/>
<path d="M100.366 22.9498C100.363 22.9641 100.357 22.9777 100.35 22.9905C99.7567 24.1327 99.1765 25.2807 98.6094 26.4345C98.5113 26.6333 98.4131 26.8336 98.3164 27.0324V26.0455C98.4131 25.8481 98.5108 25.6508 98.6094 25.4534C99.0476 24.5739 99.493 23.6982 99.9457 22.8265C99.9507 22.8163 99.9566 22.8066 99.9633 22.7974C100.098 22.6059 100.432 22.7365 100.366 22.9498Z" fill="white"/>
<path d="M104.196 30.9975C104.17 31.0439 104.144 31.0903 104.114 31.1368C103.684 31.8795 103.172 32.5726 102.587 33.2035C101.465 34.4098 100.113 35.3848 98.6094 36.0727C98.5127 36.1192 98.4146 36.1627 98.3164 36.2034V35.7317C98.4146 35.6881 98.5127 35.6431 98.6094 35.5967C100.786 34.5683 102.594 32.9066 103.792 30.8335C103.809 30.8039 103.833 30.7783 103.861 30.7585C103.889 30.7386 103.921 30.725 103.955 30.7186C103.989 30.7121 104.024 30.7129 104.057 30.721C104.091 30.729 104.122 30.7441 104.149 30.7652C104.168 30.7774 104.184 30.7931 104.196 30.8114C104.209 30.8296 104.217 30.8502 104.221 30.8717C104.226 30.8933 104.226 30.9155 104.222 30.9371C104.217 30.9586 104.209 30.9792 104.196 30.9975Z" fill="white"/>
<path d="M98.6089 4.78938V15.8195H98.3159V15.7019H0.293043V15.8195H0V4.78938C0.00125838 3.51954 0.511084 2.30207 1.41759 1.40415C2.32409 0.50624 3.55322 0.00124645 4.83521 0H93.7737C95.0557 0.00124645 96.2848 0.50624 97.1913 1.40415C98.0978 2.30207 98.6077 3.51954 98.6089 4.78938Z" fill="#1E90FF"/>
<path d="M93.7737 0H4.83521C3.55322 0.00124645 2.32409 0.50624 1.41759 1.40415C0.511084 2.30207 0.00125838 3.51954 0 4.78938V67.777C0.00125838 69.0468 0.511084 70.2643 1.41759 71.1622C2.32409 72.0601 3.55322 72.5651 4.83521 72.5664H93.7737C95.0557 72.5651 96.2848 72.0601 97.1913 71.1622C98.0978 70.2643 98.6077 69.0468 98.6089 67.777V4.78938C98.6077 3.51954 98.0978 2.30207 97.1913 1.40415C96.2848 0.50624 95.0557 0.00124645 93.7737 0ZM98.3159 67.777C98.3144 68.9698 97.8353 70.1133 96.9838 70.9567C96.1323 71.8001 94.9779 72.2746 93.7737 72.2761H4.83521C3.63102 72.2746 2.4766 71.8001 1.62511 70.9567C0.77362 70.1133 0.294579 68.9698 0.293043 67.777V4.78938C0.294579 3.59661 0.77362 2.45313 1.62511 1.60971C2.4766 0.76629 3.63102 0.291787 4.83521 0.290266H93.7737C94.9779 0.291788 96.1323 0.76629 96.9838 1.60971C97.8353 2.45313 98.3144 3.59661 98.3159 4.78938V67.777Z" fill="#3F3D56"/>
<path d="M19.9265 10.8124C21.545 10.8124 22.857 9.51283 22.857 7.90974C22.857 6.30664 21.545 5.00708 19.9265 5.00708C18.3081 5.00708 16.9961 6.30664 16.9961 7.90974C16.9961 9.51283 18.3081 10.8124 19.9265 10.8124Z" fill="white"/>
<path d="M78.6804 10.8124C80.2989 10.8124 81.6109 9.51283 81.6109 7.90974C81.6109 6.30664 80.2989 5.00708 78.6804 5.00708C77.062 5.00708 75.75 6.30664 75.75 7.90974C75.75 9.51283 77.062 10.8124 78.6804 10.8124Z" fill="white"/>
<path d="M28.3939 40.2746H10.9614C10.2228 40.2738 9.5148 39.9828 8.99258 39.4656C8.47036 38.9483 8.17662 38.247 8.17578 37.5154V29.3542C8.17662 28.6227 8.47036 27.9214 8.99258 27.4041C9.5148 26.8868 10.2228 26.5959 10.9614 26.5951H28.3939C29.1325 26.5959 29.8405 26.8868 30.3627 27.4041C30.8849 27.9214 31.1787 28.6227 31.1795 29.3542V37.5154C31.1787 38.247 30.8849 38.9483 30.3627 39.4656C29.8405 39.9828 29.1325 40.2738 28.3939 40.2746Z" fill="#1E90FF"/>
<path d="M58.0502 40.2746H40.6176C39.8791 40.2738 39.171 39.9828 38.6488 39.4656C38.1266 38.9483 37.8329 38.247 37.832 37.5154V29.3542C37.8329 28.6227 38.1266 27.9214 38.6488 27.4041C39.171 26.8868 39.8791 26.5959 40.6176 26.5951H58.0502C58.7887 26.5959 59.4967 26.8868 60.019 27.4041C60.5412 27.9214 60.8349 28.6227 60.8358 29.3542V37.5154C60.8349 38.247 60.5412 38.9483 60.019 39.4656C59.4967 39.9828 58.7887 40.2738 58.0502 40.2746Z" fill="#1E90FF"/>
<path d="M58.0487 61.3611H40.6161C39.8552 61.3603 39.1257 61.0605 38.5876 60.5276C38.0496 59.9946 37.747 59.2721 37.7461 58.5184V50.3571C37.7469 49.6034 38.0496 48.8808 38.5876 48.3479C39.1257 47.8149 39.8552 47.5151 40.6161 47.5143H58.0487C58.8096 47.5151 59.5391 47.8149 60.0771 48.3479C60.6151 48.8808 60.9178 49.6034 60.9186 50.3571V58.5184C60.9178 59.272 60.6151 59.9946 60.0771 60.5276C59.5391 61.0605 58.8096 61.3603 58.0487 61.3611Z" fill="#F2F2F2"/>
<path d="M28.3338 61.3611H10.9012C10.1403 61.3603 9.41084 61.0605 8.8728 60.5276C8.33475 59.9946 8.03211 59.272 8.03125 58.5184V50.3571C8.03211 49.6034 8.33475 48.8808 8.8728 48.3479C9.41084 47.8149 10.1403 47.5151 10.9012 47.5143H28.3338C29.0947 47.5151 29.8242 47.8149 30.3623 48.3479C30.9003 48.8808 31.203 49.6034 31.2038 50.3571V58.5184C31.203 59.2721 30.9003 59.9946 30.3623 60.5276C29.8242 61.0605 29.0947 61.3603 28.3338 61.3611Z" fill="#F2F2F2"/>
<path d="M87.7049 61.3611H70.2723C69.5114 61.3603 68.7819 61.0605 68.2439 60.5276C67.7058 59.9946 67.4032 59.272 67.4023 58.5184V50.3571C67.4032 49.6034 67.7058 48.8808 68.2439 48.3479C68.7819 47.8149 69.5114 47.5151 70.2723 47.5143H87.7049C88.4658 47.5151 89.1953 47.8149 89.7333 48.3479C90.2714 48.8808 90.574 49.6034 90.5749 50.3571V58.5184C90.574 59.2721 90.2714 59.9946 89.7334 60.5276C89.1953 61.0605 88.4658 61.3603 87.7049 61.3611Z" fill="#F2F2F2"/>
<path d="M87.7049 40.291H70.2723C69.5114 40.2902 68.7819 39.9904 68.2439 39.4575C67.7058 38.9245 67.4032 38.2019 67.4023 37.4482V29.287C67.4032 28.5333 67.7058 27.8107 68.2439 27.2777C68.7819 26.7448 69.5114 26.445 70.2723 26.4442H87.7049C88.4658 26.445 89.1953 26.7448 89.7333 27.2777C90.2714 27.8107 90.574 28.5333 90.5749 29.287V37.4482C90.574 38.2019 90.2714 38.9245 89.7334 39.4575C89.1953 39.9904 88.4658 40.2902 87.7049 40.291Z" fill="#F2F2F2"/>
<path d="M19.6802 38.1171C22.2909 38.1171 24.4072 36.0208 24.4072 33.4348C24.4072 30.8489 22.2909 28.7526 19.6802 28.7526C17.0695 28.7526 14.9531 30.8489 14.9531 33.4348C14.9531 36.0208 17.0695 38.1171 19.6802 38.1171Z" fill="white"/>
<path d="M19.2065 35.221C19.1001 35.2212 18.9966 35.1871 18.9115 35.1239L18.9062 35.12L17.7953 34.2776C17.7438 34.2385 17.7006 34.1898 17.668 34.1342C17.6355 34.0787 17.6144 34.0173 17.6059 33.9536C17.5973 33.8899 17.6015 33.8252 17.6183 33.7631C17.635 33.7011 17.6639 33.6429 17.7033 33.5919C17.7428 33.5409 17.792 33.4981 17.8481 33.4659C17.9043 33.4338 17.9663 33.4129 18.0306 33.4045C18.0949 33.3961 18.1602 33.4004 18.2229 33.417C18.2855 33.4336 18.3442 33.4623 18.3957 33.5014L19.1152 34.048L20.8156 31.8514C20.8551 31.8004 20.9042 31.7577 20.9604 31.7256C21.0165 31.6935 21.0784 31.6726 21.1427 31.6642C21.2069 31.6558 21.2722 31.66 21.3349 31.6766C21.3975 31.6932 21.4562 31.7219 21.5076 31.7609L21.497 31.7751L21.5079 31.7611C21.6116 31.8401 21.6795 31.9566 21.6966 32.0851C21.7137 32.2136 21.6787 32.3436 21.5992 32.4465L19.5991 35.0302C19.5529 35.0898 19.4934 35.1379 19.4253 35.171C19.3572 35.2041 19.2823 35.2212 19.2065 35.221Z" fill="#1E90FF"/>
<path d="M49.4146 38.0498C52.0252 38.0498 54.1416 35.9535 54.1416 33.3676C54.1416 30.7817 52.0252 28.6853 49.4146 28.6853C46.8039 28.6853 44.6875 30.7817 44.6875 33.3676C44.6875 35.9535 46.8039 38.0498 49.4146 38.0498Z" fill="white"/>
<path d="M48.9483 35.1538C48.8419 35.154 48.7384 35.1199 48.6533 35.0567L48.648 35.0528L47.5371 34.2103C47.4332 34.1315 47.3652 34.0149 47.348 33.8864C47.3308 33.7579 47.3659 33.6279 47.4455 33.5249C47.5251 33.422 47.6428 33.3546 47.7725 33.3376C47.9023 33.3206 48.0336 33.3554 48.1375 33.4342L48.857 33.9807L50.5574 31.7842C50.5969 31.7332 50.646 31.6905 50.7022 31.6583C50.7583 31.6262 50.8202 31.6054 50.8845 31.597C50.9488 31.5886 51.0141 31.5928 51.0767 31.6094C51.1393 31.626 51.198 31.6546 51.2494 31.6937L51.2388 31.7079L51.2497 31.6939C51.3534 31.7729 51.4213 31.8894 51.4384 32.0179C51.4555 32.1464 51.4205 32.2764 51.341 32.3793L49.3409 34.963C49.2947 35.0225 49.2352 35.0707 49.1671 35.1038C49.099 35.1369 49.0241 35.154 48.9483 35.1538Z" fill="#1E90FF"/>
<path d="M81.3637 55.4624C81.5189 55.2942 81.6351 55.0944 81.704 54.8769C81.7728 54.6594 81.7927 54.4296 81.7622 54.2037C81.7318 53.9777 81.6516 53.7612 81.5275 53.5693C81.4034 53.3773 81.2383 53.2147 81.0438 53.0928L78.4048 39.135L75.1953 40.3139L78.7986 53.6632C78.6135 54.0004 78.5597 54.3931 78.6474 54.7668C78.7351 55.1406 78.9582 55.4696 79.2743 55.6914C79.5905 55.9131 79.9778 56.0123 80.3629 55.9701C80.748 55.9279 81.1041 55.7473 81.3637 55.4624Z" fill="#A0616A"/>
<path d="M55.7553 34.1643C55.7633 34.251 55.7644 34.3381 55.7585 34.425L61.9988 39.1824L63.7685 38.4626L65.2143 40.966L62.2065 42.5418C61.9635 42.6691 61.6853 42.7149 61.4138 42.6723C61.1423 42.6297 60.8921 42.501 60.7007 42.3056L54.4632 35.9358C54.133 36.0096 53.788 35.982 53.474 35.8568C53.16 35.7316 52.8919 35.5147 52.7055 35.2349C52.519 34.9551 52.4229 34.6257 52.4301 34.2905C52.4372 33.9553 52.5472 33.6302 52.7454 33.3585C52.9436 33.0867 53.2207 32.8812 53.5397 32.7692C53.8587 32.6572 54.2046 32.644 54.5314 32.7315C54.8581 32.819 55.1502 33.003 55.3689 33.2589C55.5875 33.5148 55.7223 33.8306 55.7553 34.1643Z" fill="#A0616A"/>
<path d="M70.3345 80.2365H68.5383L67.6836 74.8248L70.3349 74.8249L70.3345 80.2365Z" fill="#A0616A"/>
<path d="M70.7921 81.9613L65 81.9611V81.8885C65 81.5953 65.0583 81.3049 65.1716 81.034C65.2849 80.763 65.451 80.5169 65.6603 80.3095C65.8696 80.1021 66.1182 79.9377 66.3917 79.8254C66.6652 79.7132 66.9584 79.6555 67.2544 79.6555L70.7922 79.6556L70.7921 81.9613Z" fill="#2F2E41"/>
<path d="M77.0727 80.2365H75.2765L74.4219 74.8248L77.0732 74.8249L77.0727 80.2365Z" fill="#A0616A"/>
<path d="M77.5343 81.9613L71.7422 81.9611V81.8885C71.7422 81.5953 71.8005 81.3049 71.9138 81.034C72.0271 80.763 72.1931 80.5169 72.4025 80.3095C72.6118 80.1021 72.8604 79.9377 73.1339 79.8254C73.4074 79.7132 73.7006 79.6555 73.9966 79.6555L77.5344 79.6556L77.5343 81.9613Z" fill="#2F2E41"/>
<path d="M68.1664 79.1669C68.0024 79.1671 67.8442 79.1065 67.7229 78.9972C67.6016 78.8879 67.526 78.7376 67.5107 78.5759L65.9453 57.7218L66.0193 57.7159L76.7917 56.8389L76.7946 56.9147L77.6509 78.5178C77.6542 78.6055 77.6397 78.6931 77.608 78.7751C77.5764 78.8572 77.5284 78.932 77.4669 78.9953C77.4054 79.0585 77.3316 79.1088 77.25 79.1432C77.1684 79.1776 77.0807 79.1953 76.992 79.1953H74.8798C74.7221 79.196 74.5695 79.1404 74.4498 79.0387C74.3301 78.937 74.2514 78.796 74.2282 78.6415L71.3598 61.19C71.357 61.172 71.3475 61.1557 71.3331 61.1443C71.3187 61.1329 71.3005 61.1274 71.2821 61.1287C71.2638 61.13 71.2466 61.1381 71.234 61.1514C71.2214 61.1647 71.2143 61.1823 71.2142 61.2005L71.0841 78.4312C71.0827 78.5976 71.0174 78.7572 70.9013 78.8776C70.7852 78.9979 70.6272 79.0698 70.4594 79.0788L68.2017 79.1659C68.1899 79.1666 68.178 79.1669 68.1664 79.1669Z" fill="#2F2E41"/>
<path d="M70.005 31.3669C71.9925 31.3669 73.6037 29.7709 73.6037 27.8023C73.6037 25.8336 71.9925 24.2377 70.005 24.2377C68.0175 24.2377 66.4062 25.8336 66.4062 27.8023C66.4062 29.7709 68.0175 31.3669 70.005 31.3669Z" fill="#A0616A"/>
<path d="M70.7011 59.0518C69.1282 59.0472 67.5628 58.8353 66.0463 58.4217C65.9004 58.3796 65.7736 58.289 65.6872 58.1651C65.6008 58.0412 65.5602 57.8916 65.5722 57.7415C66.0567 50.5294 66.1706 44.9326 65.1519 41.0601C64.7176 39.4097 64.9148 37.6714 65.6927 36.2911C66.8634 34.2138 69.0151 32.9495 71.3103 32.9931C71.42 32.9952 71.5308 32.9991 71.6426 33.0048C75.1259 33.1824 77.8401 36.3037 77.6931 39.9627L76.9925 57.4031C76.99 57.5303 76.9494 57.654 76.876 57.7584C76.8026 57.8629 76.6996 57.9434 76.58 57.99C74.7005 58.6904 72.7092 59.05 70.7011 59.0518Z" fill="#3F3D56"/>
<path d="M65.7452 42.3992L63.0495 39.1273C62.9728 39.0342 62.9173 38.9258 62.8867 38.8095C62.8561 38.6932 62.8511 38.5718 62.8722 38.4535C62.8932 38.3351 62.9398 38.2227 63.0087 38.1238C63.0776 38.0249 63.1672 37.9418 63.2714 37.8803L66.9229 35.7251C67.406 35.339 68.0239 35.1584 68.6412 35.223C69.2585 35.2875 69.8248 35.5919 70.2158 36.0694C70.6069 36.5469 70.7908 37.1585 70.7272 37.7701C70.6637 38.3817 70.3578 38.9434 69.8768 39.332L67.023 42.4339C66.9412 42.5227 66.8411 42.593 66.7295 42.64C66.6179 42.687 66.4973 42.7097 66.376 42.7064C66.2548 42.7031 66.1356 42.6739 66.0268 42.6209C65.9179 42.5679 65.8219 42.4923 65.7452 42.3992Z" fill="#3F3D56"/>
<path d="M74.2229 41.9886C74.1121 41.9396 74.0134 41.8674 73.9334 41.7771C73.8534 41.6868 73.794 41.5804 73.7593 41.4653L72.5458 37.4443C72.2823 36.8875 72.2526 36.25 72.4631 35.6715C72.6736 35.093 73.1071 34.6209 73.6685 34.3586C74.23 34.0962 74.8736 34.0652 75.4581 34.2723C76.0426 34.4793 76.5204 34.9076 76.7866 35.463L79.1333 38.9736C79.2003 39.0738 79.2447 39.1871 79.2635 39.3058C79.2822 39.4245 79.2749 39.5458 79.2421 39.6615C79.2093 39.7772 79.1517 39.8845 79.0732 39.9761C78.9947 40.0677 78.8972 40.1415 78.7873 40.1925L74.9259 41.9829C74.816 42.0339 74.6963 42.0608 74.575 42.0618C74.4537 42.0628 74.3336 42.0378 74.2229 41.9886Z" fill="#3F3D56"/>
<path d="M71.7807 30.7271L69.1131 30.1223C68.8379 30.0599 68.5074 29.9409 68.4692 29.6639C68.4179 29.2916 68.9588 29.0323 68.9089 28.6598C68.8606 28.299 68.3679 28.2525 68.0165 28.146C67.6893 28.0323 67.4196 27.797 67.2645 27.4898C67.1094 27.1826 67.081 26.8277 67.1854 26.5002C66.8053 27.0308 65.9368 27.0762 65.4438 26.6464C64.9507 26.2165 64.8562 25.4365 65.1523 24.8557C65.3122 24.5705 65.5379 24.3266 65.8109 24.144C66.084 23.9614 66.3966 23.8452 66.7236 23.8049C67.3809 23.7311 68.0454 23.8538 68.6317 24.1573C68.6708 23.7461 69.1891 23.5793 69.6061 23.5757C70.4723 23.5857 71.3137 23.8629 72.0134 24.3687C72.7131 24.8746 73.2362 25.5839 73.5099 26.398C74.0215 28.031 73.6793 29.8211 72.2477 30.7766L71.7807 30.7271Z" fill="#2F2E41"/>
<path d="M98.6509 82H42.8262C42.7873 82 42.7501 81.9847 42.7226 81.9575C42.6951 81.9303 42.6797 81.8934 42.6797 81.8549C42.6797 81.8164 42.6951 81.7795 42.7226 81.7523C42.7501 81.725 42.7873 81.7097 42.8262 81.7097H98.6509C98.6897 81.7097 98.727 81.725 98.7545 81.7523C98.782 81.7795 98.7974 81.8164 98.7974 81.8549C98.7974 81.8934 98.782 81.9303 98.7545 81.9575C98.727 81.9847 98.6897 82 98.6509 82Z" fill="#3F3D56"/>
</g>
<defs>
<clipPath id="clip0_941_16732">
<rect width="125" height="82" fill="white"/>
</clipPath>
</defs>
</svg>
