<svg width="400" height="200" viewBox="0 0 400 200" fill="none" xmlns="http://www.w3.org/2000/svg">
<g clip-path="url(#clip0_951_13815)">
<path d="M361.371 162.677H57.2351C53.3471 162.672 49.6196 161.138 46.8704 158.412C44.1211 155.685 42.5747 151.988 42.5703 148.131V33.6668C42.5747 29.8105 44.1212 26.1134 46.8704 23.3866C49.6196 20.6598 53.3471 19.126 57.2351 19.1216H361.371C365.259 19.126 368.986 20.6598 371.736 23.3866C374.485 26.1134 376.031 29.8105 376.036 33.6668V148.131C376.031 151.988 374.485 155.685 371.736 158.412C368.986 161.138 365.259 162.672 361.371 162.677Z" fill="white"/>
<path d="M361.371 162.677H57.2351C53.3471 162.672 49.6196 161.138 46.8704 158.412C44.1211 155.685 42.5747 151.988 42.5703 148.131V33.6668C42.5747 29.8105 44.1212 26.1134 46.8704 23.3866C49.6196 20.6598 53.3471 19.126 57.2351 19.1216H361.371C365.259 19.126 368.986 20.6598 371.736 23.3866C374.485 26.1134 376.031 29.8105 376.036 33.6668V148.131C376.031 151.988 374.485 155.685 371.736 158.412C368.986 161.138 365.259 162.672 361.371 162.677ZM57.2351 20.3864C53.684 20.3864 50.2783 21.7856 47.7672 24.2761C45.2562 26.7667 43.8455 30.1446 43.8455 33.6668V148.131C43.8455 149.875 44.1918 151.602 44.8647 153.214C45.5376 154.825 46.5239 156.289 47.7672 157.522C49.0106 158.755 50.4866 159.733 52.1112 160.401C53.7357 161.068 55.4768 161.412 57.2351 161.412H361.371C363.129 161.412 364.87 161.068 366.495 160.401C368.119 159.733 369.595 158.755 370.839 157.522C372.082 156.289 373.068 154.825 373.741 153.214C374.414 151.602 374.761 149.875 374.761 148.131V104.972C374.761 82.5385 365.776 61.0238 349.782 45.161C333.789 29.2981 312.097 20.3864 289.479 20.3864H57.2351Z" fill="#E6E6E6"/>
<path d="M33.1715 187.044C33.2958 186.196 32.4005 185.365 31.1716 185.188C29.9427 185.011 28.8457 185.554 28.7213 186.402C28.5969 187.25 29.4923 188.081 30.7212 188.258C31.95 188.436 33.0471 187.892 33.1715 187.044Z" fill="white"/>
<path d="M47.8004 185.628C47.9247 184.78 47.0294 183.949 45.8005 183.772C44.5716 183.595 43.4746 184.138 43.3502 184.986C43.2258 185.834 44.1212 186.665 45.3501 186.842C46.579 187.02 47.676 186.476 47.8004 185.628Z" fill="#3F3D56"/>
<path d="M29.1637 175.296C29.288 174.448 28.3927 173.617 27.1638 173.439C25.9349 173.262 24.8379 173.806 24.7135 174.654C24.5891 175.502 25.4845 176.333 26.7134 176.51C27.9422 176.687 29.0393 176.144 29.1637 175.296Z" fill="#FF6584"/>
<path d="M22.8081 170.484C22.814 169.705 22.3763 169.071 21.8303 169.067C21.2844 169.063 20.837 169.69 20.8311 170.469C20.8251 171.247 21.2629 171.881 21.8088 171.886C22.3548 171.89 22.8022 171.262 22.8081 170.484Z" fill="#E6E6E6"/>
<path d="M20.6519 161.52C20.6578 160.742 20.22 160.107 19.6741 160.103C19.1281 160.099 18.6807 160.727 18.6748 161.505C18.6689 162.284 19.1066 162.918 19.6526 162.922C20.1985 162.926 20.6459 162.298 20.6519 161.52Z" fill="#3F3D56"/>
<path d="M37.4175 177.295C37.4234 176.517 36.9857 175.882 36.4397 175.878C35.8938 175.874 35.4464 176.502 35.4404 177.28C35.4345 178.059 35.8723 178.693 36.4182 178.697C36.9642 178.701 37.4116 178.074 37.4175 177.295Z" fill="#E6E6E6"/>
<path d="M30.3472 180.796C30.3531 180.018 29.9153 179.384 29.3694 179.38C28.8234 179.376 28.3761 180.003 28.3701 180.782C28.3642 181.56 28.802 182.194 29.3479 182.198C29.8939 182.203 30.3412 181.575 30.3472 180.796Z" fill="#FF6584"/>
<path d="M40.1871 187.268C40.193 186.49 39.7552 185.855 39.2092 185.851C38.6633 185.847 38.2159 186.475 38.21 187.253C38.204 188.031 38.6418 188.666 39.1877 188.67C39.7337 188.674 40.1811 188.046 40.1871 187.268Z" fill="#3F3D56"/>
<path d="M386.644 4.25095C386.915 3.19224 385.89 2.02134 384.356 1.63566C382.821 1.24997 381.358 1.79555 381.087 2.85426C380.817 3.91297 381.842 5.0839 383.376 5.46958C384.91 5.85527 386.374 5.30966 386.644 4.25095Z" fill="white"/>
<path d="M367.906 4.13119C368.176 3.07248 367.152 1.90156 365.617 1.51588C364.083 1.13019 362.62 1.6758 362.349 2.73451C362.079 3.79322 363.103 4.96412 364.638 5.3498C366.172 5.73549 367.635 5.18991 367.906 4.13119Z" fill="#3F3D56"/>
<path d="M390.16 19.6704C390.43 18.6117 389.406 17.4408 387.871 17.0551C386.337 16.6694 384.874 17.215 384.603 18.2737C384.333 19.3324 385.357 20.5033 386.892 20.889C388.426 21.2747 389.889 20.7291 390.16 19.6704Z" fill="#FF6584"/>
<path d="M394.526 25.4847C394.637 24.4985 394.167 23.637 393.475 23.5604C392.783 23.4837 392.133 24.221 392.021 25.2071C391.91 26.1932 392.381 27.0547 393.073 27.1314C393.764 27.208 394.415 26.4708 394.526 25.4847Z" fill="#E6E6E6"/>
<path d="M396.069 37.129C396.18 36.1429 395.71 35.2814 395.018 35.2047C394.326 35.1281 393.676 35.8653 393.564 36.8514C393.453 37.8376 393.924 38.6991 394.616 38.7758C395.307 38.8524 395.958 38.1151 396.069 37.129Z" fill="#3F3D56"/>
<path d="M376.909 14.9364C377.02 13.9503 376.549 13.0888 375.858 13.0121C375.166 12.9355 374.515 13.6727 374.404 14.6588C374.293 15.6449 374.764 16.5065 375.455 16.5831C376.147 16.6598 376.798 15.9225 376.909 14.9364Z" fill="#E6E6E6"/>
<path d="M386.342 11.4227C386.454 10.4366 385.983 9.57506 385.291 9.49841C384.6 9.42176 383.949 10.159 383.838 11.1451C383.727 12.1312 384.197 12.9928 384.889 13.0694C385.581 13.1461 386.231 12.4088 386.342 11.4227Z" fill="#FF6584"/>
<path d="M374.725 1.92976C374.836 0.943648 374.366 0.0821145 373.674 0.00546367C372.983 -0.0711872 372.332 0.666071 372.221 1.65218C372.11 2.63829 372.58 3.49982 373.272 3.57647C373.963 3.65312 374.614 2.91586 374.725 1.92976Z" fill="#3F3D56"/>
<path d="M164.22 88.5696C164.237 100.025 159.97 111.079 152.246 119.595V119.602C151.154 120.806 150 121.954 148.79 123.042C147.552 124.154 146.253 125.199 144.901 126.172C143.957 126.855 142.988 127.5 141.993 128.107C140.814 128.835 139.6 129.507 138.352 130.125C137.428 130.586 136.484 131.016 135.521 131.415C129.775 133.81 123.603 135.042 117.369 135.038C113.848 135.042 110.338 134.652 106.906 133.875C105.319 133.517 103.752 133.073 102.213 132.547C101.62 132.351 101.027 132.136 100.441 131.908C96.8838 130.544 93.5108 128.749 90.3984 126.564C83.8198 121.97 78.5449 115.773 75.0818 108.57C71.6187 101.368 70.0841 93.4015 70.6259 85.4397C71.1677 77.4778 73.7676 69.7885 78.1752 63.1125C82.5828 56.4366 88.6494 50.9989 95.7908 47.3234C102.932 43.6478 110.907 41.8583 118.948 42.1272C126.989 42.3961 134.825 44.7144 141.701 48.8587C148.576 53.0029 154.26 58.8336 158.204 65.7889C162.148 72.7441 164.22 80.5897 164.22 88.5696Z" fill="#F2F2F2"/>
<path d="M304.44 54.0269H223.465C222.789 54.0259 222.141 53.7589 221.664 53.2847C221.186 52.8104 220.918 52.1675 220.918 51.4973C220.918 50.827 221.186 50.1842 221.664 49.7099C222.141 49.2356 222.789 48.9687 223.465 48.9677H304.44C305.116 48.9677 305.765 49.2342 306.243 49.7086C306.722 50.183 306.99 50.8264 306.99 51.4973C306.99 52.1682 306.722 52.8116 306.243 53.286C305.765 53.7604 305.116 54.0269 304.44 54.0269Z" fill="#1E90FF"/>
<path d="M304.44 88.1765H223.465C222.789 88.1755 222.141 87.9086 221.664 87.4343C221.186 86.96 220.918 86.3172 220.918 85.6469C220.918 84.9767 221.186 84.3338 221.664 83.8595C222.141 83.3852 222.789 83.1183 223.465 83.1173H304.44C305.116 83.1183 305.763 83.3852 306.241 83.8595C306.718 84.3338 306.987 84.9767 306.987 85.6469C306.987 86.3172 306.718 86.96 306.241 87.4343C305.763 87.9086 305.116 88.1755 304.44 88.1765Z" fill="#E6E6E6"/>
<path d="M304.44 122.326H223.465C222.789 122.325 222.141 122.058 221.664 121.584C221.186 121.11 220.918 120.467 220.918 119.797C220.918 119.126 221.186 118.483 221.664 118.009C222.141 117.535 222.789 117.268 223.465 117.267H304.44C305.116 117.267 305.765 117.533 306.243 118.008C306.722 118.482 306.99 119.126 306.99 119.797C306.99 120.467 306.722 121.111 306.243 121.585C305.765 122.06 305.116 122.326 304.44 122.326Z" fill="#E6E6E6"/>
<path d="M101.996 197.791C92.8541 185.731 87.5705 172.245 87.3973 156.87C87.1028 156.041 87.1517 155.13 87.5333 154.337C87.9148 153.545 88.5979 152.934 89.4326 152.64L120.592 141.705C121.427 141.413 122.345 141.462 123.145 141.84C123.944 142.218 124.56 142.896 124.856 143.724L139.454 184.646C139.749 185.474 139.7 186.385 139.318 187.178C138.937 187.971 138.254 188.581 137.419 188.875L106.26 199.81C105.424 200.102 104.506 200.054 103.707 199.675C102.907 199.297 102.292 198.619 101.996 197.791Z" fill="#E6E6E6"/>
<path d="M99.9774 184.592C94.4793 179.079 92.1259 169.245 90.5923 158.284C90.3165 157.508 90.3622 156.655 90.7196 155.913C91.0769 155.17 91.7166 154.599 92.4984 154.323L119.277 144.926C120.059 144.652 120.919 144.697 121.668 145.052C122.417 145.406 122.993 146.041 123.271 146.816L136.261 183.231C136.537 184.007 136.491 184.86 136.134 185.602C135.777 186.345 135.137 186.916 134.355 187.192L117.766 193.014C114.281 194.232 110.451 194.03 107.116 192.451C103.781 190.873 101.214 188.046 99.9774 184.592Z" fill="white"/>
<path d="M123.632 166.433L102.772 173.818C102.607 173.876 102.433 173.902 102.259 173.893C102.085 173.885 101.914 173.842 101.756 173.768C101.598 173.694 101.457 173.589 101.34 173.461C101.223 173.333 101.132 173.183 101.073 173.02C101.015 172.857 100.989 172.684 100.998 172.511C101.006 172.338 101.049 172.169 101.124 172.012C101.199 171.856 101.304 171.716 101.433 171.599C101.563 171.483 101.714 171.394 101.878 171.335L122.738 163.95C123.07 163.833 123.435 163.851 123.754 164C124.072 164.15 124.318 164.419 124.436 164.748C124.555 165.078 124.537 165.44 124.386 165.756C124.235 166.072 123.964 166.315 123.632 166.433Z" fill="#1E90FF"/>
<path d="M104.909 165.386L100.32 167.01C100.156 167.069 99.9811 167.094 99.8067 167.086C99.6323 167.077 99.4612 167.035 99.3034 166.961C99.1456 166.887 99.004 166.782 98.8868 166.654C98.7696 166.526 98.679 166.376 98.6203 166.212C98.5616 166.049 98.5359 165.876 98.5446 165.703C98.5534 165.53 98.5964 165.361 98.6713 165.204C98.7461 165.048 98.8514 164.907 98.9809 164.791C99.1105 164.675 99.2619 164.586 99.4264 164.527L104.016 162.903C104.18 162.844 104.354 162.819 104.529 162.827C104.703 162.836 104.874 162.878 105.032 162.952C105.19 163.026 105.332 163.131 105.449 163.259C105.566 163.387 105.657 163.537 105.715 163.701C105.774 163.864 105.8 164.037 105.791 164.21C105.782 164.383 105.739 164.552 105.664 164.709C105.589 164.865 105.484 165.006 105.355 165.122C105.225 165.238 105.074 165.327 104.909 165.386Z" fill="#1E90FF"/>
<path d="M127.556 177.348L106.696 184.733C106.364 184.85 105.999 184.832 105.681 184.682C105.363 184.532 105.118 184.263 104.999 183.934C104.881 183.605 104.899 183.243 105.05 182.927C105.2 182.611 105.471 182.368 105.803 182.25L126.663 174.865C126.994 174.748 127.36 174.766 127.678 174.916C127.996 175.066 128.241 175.335 128.36 175.664C128.478 175.993 128.46 176.355 128.309 176.671C128.159 176.986 127.888 177.23 127.556 177.348Z" fill="#1E90FF"/>
<path d="M125.593 171.89L104.733 179.276C104.401 179.393 104.035 179.375 103.717 179.225C103.398 179.076 103.153 178.806 103.034 178.477C102.916 178.148 102.934 177.786 103.085 177.47C103.236 177.154 103.507 176.91 103.839 176.793L124.699 169.408C124.863 169.349 125.038 169.324 125.212 169.332C125.387 169.34 125.558 169.383 125.716 169.457C125.873 169.531 126.015 169.635 126.132 169.764C126.249 169.892 126.34 170.042 126.399 170.205C126.457 170.369 126.483 170.542 126.474 170.715C126.466 170.887 126.423 171.057 126.348 171.214C126.273 171.37 126.168 171.51 126.038 171.626C125.908 171.743 125.757 171.832 125.593 171.89Z" fill="#1E90FF"/>
<path d="M106.653 67.5463C107.333 72.9822 111.13 77.4643 116.653 77.4643C119.305 77.4643 121.848 76.4194 123.724 74.5594C125.599 72.6994 126.653 70.1767 126.653 67.5463C126.653 62.0687 122.152 58.1347 116.653 57.6282C110.818 57.0909 105.781 60.5671 106.653 67.5463Z" fill="#2F2E41"/>
<path d="M125.358 134.362C119.235 135.406 112.965 135.24 106.906 133.875C109.782 132.3 118.504 133.268 125.358 134.362Z" fill="#2F2E41"/>
<path d="M86.4363 151.807L91.2396 140.294L95.0241 142.379L92.7386 154.091C92.9675 154.833 92.9832 155.624 92.7839 156.374C92.5846 157.124 92.1782 157.805 91.6104 158.339C91.0427 158.872 90.336 159.239 89.57 159.396C88.8039 159.553 88.0087 159.496 87.2739 159.229C86.5391 158.963 85.8937 158.499 85.4104 157.889C84.927 157.278 84.6248 156.547 84.5378 155.775C84.4508 155.004 84.5824 154.224 84.9177 153.523C85.2531 152.822 85.779 152.228 86.4363 151.807Z" fill="#FFB6B6"/>
<path d="M136.125 120.651V120.658C135.953 124.667 135.717 128.48 135.519 131.415C129.773 133.81 123.601 135.042 117.367 135.038C113.846 135.042 110.336 134.652 106.904 133.875C105.317 133.517 103.75 133.074 102.211 132.547C102.425 132.41 102.657 132.301 102.9 132.224C105.195 131.453 102.925 130.751 102.944 130.017C103.015 127.336 103.761 124.117 104.723 121.031L100.439 131.908L98.207 137.562C98.207 137.562 98.2835 142.444 96.868 140.951C95.4462 139.459 95.5482 144.29 95.5482 144.29C95.1063 144.603 94.7259 144.993 94.426 145.441C94.2999 145.643 94.2523 145.884 94.2921 146.118V146.124C94.3562 146.308 94.4824 146.465 94.6492 146.567C95.612 147.212 94.2284 148.92 93.6163 149.596C93.4505 149.78 93.3421 149.887 93.3421 149.887L87.457 149.47V149.356C87.4826 148.667 87.642 145.037 88.5537 144.17C89.5548 143.215 89.0638 141.704 89.0638 141.704C89.0638 141.704 91.678 139.408 89.9246 137.543C89.2232 136.79 89.5356 132.332 90.3964 126.564C92.2773 113.84 96.7852 94.7419 98.7362 95.0138C99.1382 93.0767 100.072 91.2873 101.435 89.8433C102.797 88.3993 104.535 87.3567 106.458 86.8305L112.814 85.0978L113.949 80.652H122.901L124.457 83.5737L130.98 86.4954L131.063 86.5333L131.267 86.6218L131.343 86.8622C131.343 86.8622 131.337 86.8685 131.343 86.8685L134.971 98.1695C136.603 100.029 136.54 110.893 136.125 120.651Z" fill="#1E90FF"/>
<path d="M151.37 143.423L145.309 132.51L149.315 130.882L157.106 139.97C157.833 140.256 158.465 140.738 158.932 141.361C159.398 141.985 159.679 142.724 159.745 143.498C159.81 144.271 159.657 145.047 159.302 145.738C158.947 146.43 158.405 147.01 157.736 147.412C157.067 147.815 156.299 148.025 155.516 148.018C154.734 148.011 153.969 147.788 153.308 147.373C152.646 146.959 152.115 146.369 151.772 145.672C151.43 144.974 151.291 144.195 151.37 143.423Z" fill="#FFB6B6"/>
<path d="M130.98 86.4083C132.059 88.3299 141.92 93.272 140.211 98.2336C140.211 98.2336 149.475 126.981 150.68 126.793C151.884 126.605 153.06 129.575 153.06 129.575C153.06 129.575 152.805 131.513 153.556 130.708C154.307 129.902 154.128 132.013 154.128 132.013C154.128 132.013 153.767 133.877 154.722 133.37C155.676 132.863 154.421 136.429 154.421 136.429L148.688 139.107L147.598 137.499C147.598 137.499 145.27 137.059 146.366 136.71C147.461 136.362 145.335 135.19 145.335 135.19C145.335 135.19 143.112 133.691 143.422 131.208C143.731 128.726 137.651 123.845 137.651 123.845C133.471 115.659 131.184 107.255 131.192 98.5859L130.98 86.4083Z" fill="#1E90FF"/>
<path d="M117.758 78.0532C122.655 78.0532 126.625 74.1156 126.625 69.2584C126.625 64.4011 122.655 60.4635 117.758 60.4635C112.861 60.4635 108.891 64.4011 108.891 69.2584C108.891 74.1156 112.861 78.0532 117.758 78.0532Z" fill="#FFB6B6"/>
<path d="M108.576 70.2165C108.857 72.1276 110.499 74.794 110.115 74.794C109.73 74.794 106.996 66.9156 109.73 66.4019C111.714 66.0293 112.157 66.3561 114.011 65.5588L113.749 65.803C114.976 66.688 116.684 66.1425 118.084 65.5665C119.488 64.9943 121.191 64.4488 122.422 65.33C123.195 65.8831 123.522 66.8444 124.003 67.6607C124.483 68.4808 125.372 69.2552 126.287 69.0035C126.644 68.8668 126.948 68.6214 127.155 68.3027C127.362 67.984 127.462 67.6083 127.441 67.2296C127.437 66.4744 126.446 65.7558 126.78 65.0782C127.769 63.07 126.879 61.7012 124.722 60.7562C123.937 60.638 123.153 60.5172 122.368 60.3938C122.779 59.829 123.278 59.3321 123.845 58.9214C123.605 58.3119 123.191 57.7854 122.653 57.407C121.988 57.1005 121.247 56.9944 120.522 57.1018C118.899 57.1857 117.277 57.2696 115.657 57.3536C114.45 57.3322 113.252 57.5636 112.142 58.0326C110.803 58.7154 109.926 60.0467 109.288 61.4009C107.857 64.445 108.084 66.894 108.576 70.2165Z" fill="#2F2E41"/>
<path d="M330.39 64.448H197.038C196.891 64.448 196.75 64.3901 196.647 64.2871C196.543 64.1842 196.484 64.0445 196.484 63.8988C196.484 63.7532 196.543 63.6135 196.647 63.5105C196.75 63.4075 196.891 63.3497 197.038 63.3497H330.39C330.537 63.3497 330.677 63.4075 330.781 63.5105C330.885 63.6135 330.943 63.7532 330.943 63.8988C330.943 64.0445 330.885 64.1842 330.781 64.2871C330.677 64.3901 330.537 64.448 330.39 64.448Z" fill="#E6E6E6"/>
<path d="M330.39 98.4955H197.038C196.891 98.4955 196.75 98.4377 196.647 98.3347C196.543 98.2317 196.484 98.092 196.484 97.9464C196.484 97.8007 196.543 97.6611 196.647 97.5581C196.75 97.4551 196.891 97.3972 197.038 97.3972H330.39C330.537 97.3972 330.677 97.4551 330.781 97.5581C330.885 97.6611 330.943 97.8007 330.943 97.9464C330.943 98.092 330.885 98.2317 330.781 98.3347C330.677 98.4377 330.537 98.4955 330.39 98.4955Z" fill="#E6E6E6"/>
<path d="M330.39 132.543H197.038C196.891 132.543 196.75 132.485 196.647 132.382C196.543 132.279 196.484 132.139 196.484 131.994C196.484 131.848 196.543 131.708 196.647 131.605C196.75 131.502 196.891 131.445 197.038 131.445H330.39C330.537 131.445 330.677 131.502 330.781 131.605C330.885 131.708 330.943 131.848 330.943 131.994C330.943 132.139 330.885 132.279 330.781 132.382C330.677 132.485 330.537 132.543 330.39 132.543Z" fill="#E6E6E6"/>
<path d="M350.239 130.366C345.357 130.366 340.636 128.637 336.926 125.49C335.688 124.439 334.369 122.612 333.006 120.06C332.136 118.417 331.649 116.6 331.581 114.745C331.512 112.89 331.863 111.043 332.609 109.341C331.89 110.066 331.095 110.713 330.237 111.271L329.803 111.557L329.778 111.041C329.762 110.706 329.753 110.371 329.753 110.047C329.753 108.138 331.209 106.201 330.538 104.437C327.708 97 318.734 89.6093 331.741 78.0997C332.944 77.035 331.337 74.9062 331.337 73.2953C331.337 57.5084 353.832 30.1964 360.208 44.6647C368.071 62.5079 381.618 60.5994 387.619 64.2849L387.706 64.5456L387.45 64.6485C386.136 65.196 384.753 65.561 383.339 65.733C384.846 66.038 386.385 66.1658 387.923 66.1139L388.161 66.1057L388.219 66.3355C388.791 68.612 389.08 70.9493 389.08 73.2953L389.079 73.5489C389.074 75.3309 389.447 77.094 390.175 78.7232C390.902 80.3525 391.968 81.8113 393.303 83.0046C395.41 84.9106 397.094 87.2312 398.248 89.8185C399.401 92.4057 399.998 95.203 400.001 98.0319C400.001 101.379 397.708 105.772 395.784 108.868C395.296 109.657 394.635 110.326 393.849 110.825C393.064 111.324 392.175 111.64 391.249 111.749C390.371 111.859 389.48 111.776 388.639 111.507C387.798 111.237 387.026 110.787 386.379 110.189C387.29 112.005 388.477 113.672 389.898 115.13L390.161 115.398L389.835 115.587C386.702 117.398 383.141 118.352 379.516 118.351L379.303 118.35C376.645 118.323 374.007 118.822 371.546 119.819C369.084 120.815 366.848 122.289 364.968 124.153C363.054 126.109 360.765 127.666 358.235 128.733C355.706 129.8 352.988 130.355 350.239 130.366Z" fill="#E6E6E6"/>
<path d="M343.191 162.543C343.103 162.543 343.017 162.511 342.95 162.454C342.883 162.396 342.839 162.316 342.827 162.229C341.864 153.708 341.806 145.111 342.655 136.578C343.927 123.117 348.01 103.729 360.243 87.8059C360.272 87.7678 360.309 87.7357 360.351 87.7116C360.393 87.6874 360.439 87.6717 360.487 87.6653C360.535 87.6589 360.583 87.6619 360.63 87.6741C360.677 87.6864 360.721 87.7077 360.759 87.7368C360.798 87.7659 360.83 87.8022 360.855 87.8437C360.879 87.8851 360.895 87.931 360.901 87.9785C360.908 88.0261 360.905 88.0744 360.892 88.1208C360.88 88.1672 360.858 88.2107 360.829 88.2489C348.702 104.035 344.651 123.281 343.389 136.646C342.544 145.122 342.6 153.662 343.556 162.126C343.564 162.178 343.56 162.231 343.545 162.281C343.53 162.331 343.504 162.378 343.47 162.417C343.435 162.457 343.392 162.489 343.344 162.51C343.296 162.532 343.244 162.543 343.191 162.543Z" fill="#3F3D56"/>
<path d="M353.173 110.266C353.096 110.266 353.02 110.242 352.957 110.197C352.894 110.151 352.847 110.087 352.823 110.014C352.799 109.941 352.799 109.862 352.823 109.788C352.847 109.715 352.894 109.651 352.957 109.605C356.442 107.265 360.208 105.364 364.166 103.946C370.351 101.7 379.755 99.6638 389.437 102.72C389.483 102.735 389.526 102.758 389.563 102.789C389.6 102.82 389.631 102.858 389.653 102.9C389.675 102.943 389.689 102.99 389.693 103.037C389.697 103.085 389.691 103.133 389.677 103.179C389.662 103.225 389.638 103.267 389.607 103.304C389.576 103.341 389.538 103.371 389.495 103.393C389.452 103.415 389.405 103.428 389.357 103.432C389.309 103.436 389.26 103.431 389.214 103.416C379.73 100.423 370.496 102.425 364.42 104.632C360.525 106.026 356.82 107.895 353.39 110.197C353.327 110.242 353.251 110.266 353.173 110.266Z" fill="#3F3D56"/>
<path d="M336.31 68.6128C336.304 68.5359 336.323 68.4591 336.364 68.3935C336.405 68.3279 336.466 68.2769 336.538 68.2478C336.61 68.2187 336.69 68.213 336.765 68.2315C336.841 68.2499 336.909 68.2917 336.959 68.3507C339.563 71.6304 341.746 75.2185 343.457 79.0325C346.161 84.989 348.886 94.1461 346.51 103.944C346.498 103.991 346.478 104.035 346.45 104.074C346.421 104.113 346.385 104.146 346.344 104.171C346.303 104.196 346.257 104.213 346.209 104.221C346.161 104.228 346.112 104.226 346.065 104.215C346.018 104.204 345.974 104.183 345.934 104.155C345.895 104.127 345.862 104.091 345.837 104.05C345.812 104.009 345.795 103.963 345.787 103.916C345.78 103.868 345.782 103.82 345.793 103.773C348.121 94.1759 345.442 85.1851 342.786 79.3326C341.103 75.5798 338.957 72.0491 336.395 68.8218C336.345 68.7629 336.315 68.6897 336.31 68.6128Z" fill="#3F3D56"/>
<path d="M35.0331 123.056C33.1531 121.191 30.9168 119.717 28.4552 118.721C25.9937 117.724 23.3564 117.225 20.6979 117.252L20.4855 117.253C16.8597 117.254 13.2987 116.3 10.1665 114.489L9.84057 114.301L10.1031 114.032C11.5243 112.574 12.711 110.907 13.6216 109.091C12.9749 109.689 12.2035 110.139 11.3621 110.409C10.5207 110.678 9.62977 110.761 8.75249 110.652C7.8263 110.542 6.93713 110.226 6.15169 109.727C5.36624 109.228 4.70491 108.559 4.2173 107.77C2.29336 104.674 0 100.281 0 96.9342C0.00299413 94.1053 0.600178 91.308 1.75349 88.7207C2.90681 86.1334 4.59096 83.8129 6.69858 81.9069C8.03289 80.7136 9.09866 79.2548 9.82641 77.6255C10.5542 75.9963 10.9275 74.2332 10.9222 72.4512L10.9211 72.1976C10.9208 69.8516 11.2098 67.5143 11.7819 65.2378L11.8399 65.008L12.0784 65.0162C13.6161 65.0681 15.1547 64.9403 16.6623 64.6353C15.2482 64.4633 13.8648 64.0983 12.5513 63.5508L12.2948 63.4479L12.3818 63.1872C18.3832 59.5017 31.9299 61.4102 39.7929 43.567C46.1687 29.0986 68.6645 56.4107 68.6645 72.1976C68.6645 73.8085 67.0572 75.9372 68.2604 77.0019C81.2676 88.5115 72.2928 95.9023 69.4633 103.339C68.7919 105.104 70.2476 107.041 70.2476 108.95C70.2476 109.274 70.2393 109.608 70.2228 109.943L70.1978 110.459L69.7641 110.173C68.9061 109.615 68.1108 108.968 67.3918 108.243C68.1377 109.946 68.4893 111.792 68.4206 113.648C68.3519 115.503 67.8647 117.319 66.9948 118.963C65.6317 121.514 64.3129 123.341 63.0752 124.392C59.1104 127.757 53.9992 129.493 48.7867 129.245C43.5743 128.996 38.6544 126.782 35.0331 123.056Z" fill="#E6E6E6"/>
<path d="M56.8109 161.445C56.8996 161.445 56.9852 161.414 57.0521 161.356C57.119 161.298 57.1627 161.219 57.1752 161.132C58.1386 152.611 58.1962 144.013 57.3471 135.48C56.0755 122.02 51.9919 102.631 39.7591 86.7082C39.7298 86.67 39.6932 86.6379 39.6514 86.6138C39.6095 86.5897 39.5633 86.574 39.5154 86.5675C39.4674 86.5611 39.4187 86.5641 39.3719 86.5764C39.3251 86.5886 39.2813 86.6099 39.2428 86.639C39.2043 86.6681 39.172 86.7044 39.1476 86.7459C39.1233 86.7874 39.1074 86.8332 39.101 86.8808C39.0945 86.9283 39.0975 86.9767 39.1099 87.0231C39.1223 87.0695 39.1437 87.113 39.173 87.1512C51.3002 102.937 55.3508 122.183 56.6134 135.548C57.458 144.024 57.4018 152.565 56.4457 161.029C56.4383 161.08 56.4423 161.133 56.4572 161.183C56.4722 161.234 56.4978 161.28 56.5325 161.32C56.5671 161.359 56.6099 161.391 56.6579 161.413C56.7059 161.434 56.7581 161.445 56.8109 161.445Z" fill="#3F3D56"/>
<path d="M46.8253 109.169C46.9031 109.169 46.9789 109.144 47.0419 109.099C47.1049 109.054 47.1518 108.99 47.1759 108.916C47.2 108.843 47.2 108.764 47.176 108.69C47.152 108.617 47.1051 108.553 47.0422 108.508C43.5565 106.167 39.7911 104.266 35.8324 102.848C29.6478 100.602 20.2432 98.5661 10.5613 101.622C10.5152 101.637 10.4725 101.66 10.4355 101.691C10.3985 101.722 10.3681 101.76 10.3459 101.803C10.3236 101.845 10.3101 101.892 10.306 101.94C10.3019 101.987 10.3074 102.036 10.322 102.081C10.3367 102.127 10.3603 102.169 10.3915 102.206C10.4227 102.243 10.4609 102.273 10.5038 102.295C10.5468 102.317 10.5937 102.331 10.6419 102.335C10.6901 102.339 10.7387 102.333 10.7848 102.319C20.2683 99.3252 29.5024 101.327 35.5791 103.534C39.4741 104.928 43.1792 106.798 46.609 109.099C46.6718 109.144 46.7476 109.169 46.8253 109.169Z" fill="#3F3D56"/>
<path d="M63.6882 67.5151C63.6938 67.4381 63.6748 67.3613 63.6337 67.2958C63.5927 67.2302 63.5318 67.1792 63.4597 67.1501C63.3876 67.121 63.3081 67.1152 63.2325 67.1337C63.157 67.1522 63.0892 67.1939 63.0391 67.2529C60.4348 70.5326 58.2518 74.1208 56.5403 77.9348C53.8365 83.8913 51.1119 93.0483 53.4881 102.846C53.4993 102.893 53.5197 102.937 53.5481 102.976C53.5765 103.015 53.6124 103.048 53.6537 103.073C53.695 103.098 53.7409 103.115 53.7888 103.123C53.8366 103.13 53.8855 103.128 53.9326 103.117C53.9798 103.106 54.0242 103.086 54.0634 103.057C54.1025 103.029 54.1357 102.993 54.1609 102.952C54.1862 102.911 54.203 102.866 54.2105 102.818C54.2179 102.771 54.2159 102.722 54.2044 102.676C51.8771 93.0782 54.5556 84.0874 57.2122 78.2348C58.8947 74.482 61.0412 70.9513 63.6024 67.724C63.6526 67.6652 63.6826 67.592 63.6882 67.5151Z" fill="#3F3D56"/>
</g>
<defs>
<clipPath id="clip0_951_13815">
<rect width="400" height="200" fill="white"/>
</clipPath>
</defs>
</svg>
