<svg width="122" height="105" viewBox="0 0 122 105" fill="none" xmlns="http://www.w3.org/2000/svg">
<g clip-path="url(#clip0_941_16780)">
<path d="M0 103.937C0 104.09 0.123247 104.213 0.276721 104.213H121.723C121.877 104.213 122 104.09 122 103.937C122 103.783 121.877 103.66 121.723 103.66H0.276721C0.123245 103.66 0 103.783 0 103.937Z" fill="#3F3C57"/>
<path d="M39.6237 11.1589L40.9444 17.1774L38.1352 25.5547L33.6094 16.554L34.2373 11.3323L39.6237 11.1589Z" fill="#FDB4B4"/>
<path d="M41.1895 16.8657H33.375V26.2951H41.1895V16.8657Z" fill="#1E90FF"/>
<path d="M37.9773 14.1905C40.9247 14.1905 43.3141 11.8044 43.3141 8.86088C43.3141 5.9174 40.9247 3.53123 37.9773 3.53123C35.03 3.53123 32.6406 5.9174 32.6406 8.86088C32.6406 11.8044 35.03 14.1905 37.9773 14.1905Z" fill="#FDB4B4"/>
<path d="M33.3352 12.824C33.3352 12.824 29.3572 5.48704 32.9439 1.95631C36.5305 -1.57443 39.4097 0.752104 39.4097 0.752104L41.0538 0.685747C41.0538 0.685747 41.3967 1.97792 41.9496 1.27841C42.5025 0.578903 43.5017 3.12643 43.5017 3.12643C45.3561 6.46175 38.9275 7.20892 38.9275 7.20892C38.9275 7.20892 39.3917 8.68569 38.9199 8.99496C38.448 9.30423 37.1873 10.4677 37.1873 10.4677L36.059 11.3187L35.3884 10.2984C35.3884 10.2984 34.688 9.74622 34.3341 9.97817C33.9802 10.2101 34.467 13.262 34.467 13.262L33.3352 12.824Z" fill="#2E2E41"/>
<path d="M26.931 66.8009L24.8906 97.196L29.9065 97.3658L36.5377 67.0556L26.931 66.8009Z" fill="#2E2E41"/>
<path d="M39.0872 66.6311L37.0469 97.0262L42.0628 97.196L48.694 66.8858L39.0872 66.6311Z" fill="#2E2E41"/>
<path d="M25.6995 73.7453L28.3697 40.6407L24.2748 23.4024C23.9218 20.8399 25.5385 18.4153 28.0337 17.7541L32.0406 16.6925L33.8141 14.9213L37.848 23.8177L40.3674 14.9281L42.3322 16.3551L48.1596 18.9227L48.157 18.9828L47.2222 39.8066L49.3087 73.4505L49.2162 73.4517L25.6995 73.7453Z" fill="#E8E9EA"/>
<path d="M41.7393 96.8506L43.1917 101.181C43.1917 101.181 48.8737 101.952 48.9621 103.709C49.0505 105.466 41.24 104.449 36.6664 104.678C32.0929 104.908 35.9 99.9615 35.9 99.9615L36.3874 97.1192L41.7393 96.8506Z" fill="#2E2E41"/>
<path d="M29.8799 96.5389L31.3323 100.869C31.3323 100.869 37.0143 101.64 37.1027 103.397C37.1912 105.154 29.3806 104.137 24.807 104.366C20.2335 104.596 24.0406 99.6498 24.0406 99.6498L24.528 96.8075L29.8799 96.5389Z" fill="#2E2E41"/>
<path d="M22.7966 56.1638C22.735 55.3101 22.8791 54.454 23.2168 53.6673L22.1328 44.7871L26.3789 44.3956L27.0212 53.4457C27.4479 54.1877 27.6905 55.0209 27.7286 55.8758C27.8535 58.014 26.8507 59.811 25.4885 59.8904C24.1264 59.9698 22.9211 58.3013 22.7966 56.1638Z" fill="#FDB4B4"/>
<path d="M49.688 57.4673C49.6357 56.6129 49.7891 55.7585 50.1354 54.9755L49.1484 46.084L53.3986 45.7388L53.942 54.7953C54.3606 55.5419 54.5941 56.3778 54.6229 57.233C54.7244 59.3724 53.702 61.1584 52.3391 61.2229C50.9762 61.2875 49.7892 59.606 49.688 57.4673Z" fill="#FDB4B4"/>
<path d="M22.114 52.6025L22.0997 52.5259L19.8867 40.6681L22.5015 21.3589C22.7349 19.635 24.2762 18.3932 26.0144 18.532C26.9221 18.6046 27.7365 19.0345 28.3078 19.7428C28.879 20.4511 29.1262 21.3375 29.0037 22.2387L27.0357 36.7203L28.2748 52.2098L22.114 52.6025Z" fill="#E8E9EA"/>
<path d="M48.3796 52.3242L43.9304 22.6648C43.6992 21.7951 43.8346 20.885 44.3136 20.1116C44.7926 19.3382 45.5475 18.8109 46.4393 18.6266C48.1455 18.2743 49.8302 19.3158 50.2755 20.9974L54.5498 51.9518L48.3796 52.3242Z" fill="#E8E9EA"/>
<path d="M37.9798 26.5289C38.2815 26.5289 38.526 26.2846 38.526 25.9834C38.526 25.6821 38.2815 25.4379 37.9798 25.4379C37.6781 25.4379 37.4336 25.6821 37.4336 25.9834C37.4336 26.2846 37.6781 26.5289 37.9798 26.5289Z" fill="#D6D7D8"/>
<path d="M37.9798 30.6591C38.2815 30.6591 38.526 30.4148 38.526 30.1136C38.526 29.8123 38.2815 29.5681 37.9798 29.5681C37.6781 29.5681 37.4336 29.8123 37.4336 30.1136C37.4336 30.4148 37.6781 30.6591 37.9798 30.6591Z" fill="#D6D7D8"/>
<path d="M37.9798 34.7893C38.2815 34.7893 38.526 34.545 38.526 34.2438C38.526 33.9425 38.2815 33.6983 37.9798 33.6983C37.6781 33.6983 37.4336 33.9425 37.4336 34.2438C37.4336 34.545 37.6781 34.7893 37.9798 34.7893Z" fill="#D6D7D8"/>
<path d="M37.9798 38.9195C38.2815 38.9195 38.526 38.6752 38.526 38.374C38.526 38.0727 38.2815 37.8285 37.9798 37.8285C37.6781 37.8285 37.4336 38.0727 37.4336 38.374C37.4336 38.6752 37.6781 38.9195 37.9798 38.9195Z" fill="#D6D7D8"/>
<path d="M37.9798 43.0497C38.2815 43.0497 38.526 42.8054 38.526 42.5042C38.526 42.2029 38.2815 41.9587 37.9798 41.9587C37.6781 41.9587 37.4336 42.2029 37.4336 42.5042C37.4336 42.8054 37.6781 43.0497 37.9798 43.0497Z" fill="#D6D7D8"/>
<path d="M37.9798 47.1799C38.2815 47.1799 38.526 46.9357 38.526 46.6344C38.526 46.3331 38.2815 46.0889 37.9798 46.0889C37.6781 46.0889 37.4336 46.3331 37.4336 46.6344C37.4336 46.9357 37.6781 47.1799 37.9798 47.1799Z" fill="#D6D7D8"/>
<path d="M37.9798 51.3101C38.2815 51.3101 38.526 51.0659 38.526 50.7646C38.526 50.4633 38.2815 50.2191 37.9798 50.2191C37.6781 50.2191 37.4336 50.4633 37.4336 50.7646C37.4336 51.0659 37.6781 51.3101 37.9798 51.3101Z" fill="#D6D7D8"/>
<path d="M37.9798 55.4403C38.2815 55.4403 38.526 55.1961 38.526 54.8948C38.526 54.5935 38.2815 54.3493 37.9798 54.3493C37.6781 54.3493 37.4336 54.5935 37.4336 54.8948C37.4336 55.1961 37.6781 55.4403 37.9798 55.4403Z" fill="#D6D7D8"/>
<path d="M37.9814 58.6353L27.6463 57.2598L27.4472 57.2334L22.1652 45.0703L19.0195 37.8288H27.213L37.9814 58.6353Z" fill="#1E90FF"/>
<path d="M79.4191 12.4821L85.99 8.8872V19.1584H78.3906L79.4191 12.4821Z" fill="#2E2E41"/>
<path d="M87.3988 14.7721L88.0052 19.8146L83.6346 28.5065L80.9219 20.4166L82.1973 14.6046L87.3988 14.7721Z" fill="#FDB4B4"/>
<path d="M88.2338 20.1156H80.6875V29.2214H88.2338V20.1156Z" fill="#1E90FF"/>
<path d="M94.4568 68.3373L96.4271 97.6894L91.5833 97.8534L85.1797 68.5833L94.4568 68.3373Z" fill="#2E2E41"/>
<path d="M82.7185 68.1733L84.6888 97.5254L79.8451 97.6894L73.4414 68.4193L82.7185 68.1733Z" fill="#2E2E41"/>
<path d="M99.5742 74.5627L99.4588 74.5624L68.6016 74.4617L68.6293 74.3526L76.5626 42.9624L74.5753 27.1208C74.1988 24.119 75.8078 21.2817 78.5792 20.0607L79.5798 19.6199L81.4805 18.2395L83.9121 26.8202L87.806 18.2328L89.5213 19.9456L93.3898 20.9706C95.801 21.6094 97.3631 23.9523 97.0234 26.4203L97.0193 26.4375L91.1116 43.2722L99.5742 74.5627Z" fill="#E8E9EA"/>
<path d="M80.1554 97.3559L85.3237 97.6153L85.7943 100.36C85.7943 100.36 89.4708 105.137 85.0542 104.915C80.6376 104.693 73.095 105.675 73.1804 103.979C73.2658 102.282 78.7528 101.537 78.7528 101.537L80.1554 97.3559Z" fill="#2E2E41"/>
<path d="M91.6085 97.0549L96.7768 97.3143L97.2474 100.059C97.2474 100.059 100.924 104.836 96.5073 104.614C92.0907 104.392 84.5481 105.374 84.6335 103.678C84.7189 101.981 90.206 101.236 90.206 101.236L91.6085 97.0549Z" fill="#2E2E41"/>
<path d="M96.3433 57.7642C96.223 59.8284 95.0591 61.4396 93.7437 61.3629C92.4283 61.2862 91.4599 59.5509 91.5805 57.4861C91.6173 56.6606 91.8516 55.8559 92.2636 55.1393L92.8838 46.3998L96.9843 46.7779L95.9375 55.3534C96.2636 56.1131 96.4028 56.9398 96.3433 57.7642Z" fill="#FDB4B4"/>
<path d="M75.2669 56.9793C75.1026 59.0404 73.9046 60.6265 72.5912 60.5219C71.2777 60.4173 70.3465 58.6618 70.511 56.6C70.5655 55.7754 70.8168 54.9759 71.2441 54.2683L72.0504 45.544L76.1419 46.0091L74.9126 54.5604C75.2224 55.3269 75.3439 56.1563 75.2669 56.9793Z" fill="#FDB4B4"/>
<path d="M97.0008 54.3283L91.0457 53.9487L91.0529 53.8595L92.2424 38.9879L90.3422 25.0036C90.2237 24.1325 90.4626 23.2757 91.0147 22.5911C91.5668 21.9064 92.3541 21.4908 93.2316 21.4207C94.9117 21.2884 96.4014 22.4869 96.627 24.1532L99.1522 42.8003L99.1496 42.8142L97.0008 54.3283Z" fill="#E8E9EA"/>
<path d="M76.2615 53.7586L70.2969 53.3985L70.3099 53.3045L74.423 23.5133C74.8555 21.8771 76.4847 20.8707 78.1332 21.2111C78.9952 21.3892 79.7249 21.8989 80.1879 22.6465C80.6509 23.3942 80.7818 24.2738 80.5563 25.1235L76.2615 53.7586Z" fill="#E8E9EA"/>
<path d="M83.7853 29.4472C84.0766 29.4472 84.3128 29.2113 84.3128 28.9204C84.3128 28.6294 84.0766 28.3936 83.7853 28.3936C83.494 28.3936 83.2578 28.6294 83.2578 28.9204C83.2578 29.2113 83.494 29.4472 83.7853 29.4472Z" fill="#D6D7D8"/>
<path d="M83.7853 33.4356C84.0766 33.4356 84.3128 33.1998 84.3128 32.9089C84.3128 32.6179 84.0766 32.3821 83.7853 32.3821C83.494 32.3821 83.2578 32.6179 83.2578 32.9089C83.2578 33.1998 83.494 33.4356 83.7853 33.4356Z" fill="#D6D7D8"/>
<path d="M83.7853 37.4241C84.0766 37.4241 84.3128 37.1883 84.3128 36.8973C84.3128 36.6064 84.0766 36.3706 83.7853 36.3706C83.494 36.3706 83.2578 36.6064 83.2578 36.8973C83.2578 37.1883 83.494 37.4241 83.7853 37.4241Z" fill="#D6D7D8"/>
<path d="M83.7853 41.4126C84.0766 41.4126 84.3128 41.1768 84.3128 40.8858C84.3128 40.5949 84.0766 40.359 83.7853 40.359C83.494 40.359 83.2578 40.5949 83.2578 40.8858C83.2578 41.1768 83.494 41.4126 83.7853 41.4126Z" fill="#D6D7D8"/>
<path d="M83.7853 45.4011C84.0766 45.4011 84.3128 45.1652 84.3128 44.8743C84.3128 44.5834 84.0766 44.3475 83.7853 44.3475C83.494 44.3475 83.2578 44.5834 83.2578 44.8743C83.2578 45.1652 83.494 45.4011 83.7853 45.4011Z" fill="#D6D7D8"/>
<path d="M83.7853 49.3896C84.0766 49.3896 84.3128 49.1537 84.3128 48.8628C84.3128 48.5719 84.0766 48.336 83.7853 48.336C83.494 48.336 83.2578 48.5719 83.2578 48.8628C83.2578 49.1537 83.494 49.3896 83.7853 49.3896Z" fill="#D6D7D8"/>
<path d="M83.7853 53.3781C84.0766 53.3781 84.3128 53.1422 84.3128 52.8513C84.3128 52.5603 84.0766 52.3245 83.7853 52.3245C83.494 52.3245 83.2578 52.5603 83.2578 52.8513C83.2578 53.1422 83.494 53.3781 83.7853 53.3781Z" fill="#D6D7D8"/>
<path d="M83.7853 57.3665C84.0766 57.3665 84.3128 57.1307 84.3128 56.8398C84.3128 56.5488 84.0766 56.313 83.7853 56.313C83.494 56.313 83.2578 56.5488 83.2578 56.8398C83.2578 57.1307 83.494 57.3665 83.7853 57.3665Z" fill="#D6D7D8"/>
<path d="M84.5861 17.3456C87.311 17.3456 89.5199 15.1396 89.5199 12.4183C89.5199 9.69708 87.311 7.49108 84.5861 7.49108C81.8613 7.49108 79.6523 9.69708 79.6523 12.4183C79.6523 15.1396 81.8613 17.3456 84.5861 17.3456Z" fill="#FDB4B4"/>
<path d="M87.1713 6.66638C87.4077 7.14657 87.0328 7.7464 86.5366 7.94828C86.0404 8.15017 85.4798 8.06837 84.9507 7.98434C84.4215 7.9003 83.8601 7.82061 83.3654 8.02607C82.7253 8.29192 82.3644 8.95879 82.0535 9.57762C81.473 10.7329 80.8925 11.8882 80.312 13.0434C80.0284 13.6079 79.7384 14.1977 79.7329 14.8292C79.7229 15.9883 80.6437 16.9147 81.1391 17.963C81.7422 19.2394 81.6925 20.8036 81.0094 22.0391C80.3264 23.2747 79.0274 24.1502 77.6245 24.3205C77.2554 24.3653 76.8647 24.3604 76.5329 24.1929C76.201 24.0255 75.9477 23.6597 76.0091 23.2935C76.1293 22.5772 77.2254 22.4098 77.4266 21.7119C77.5317 21.3475 77.3456 20.9584 77.0947 20.6739C76.8439 20.3893 76.5266 20.1673 76.2873 19.8729C75.7355 19.1942 75.6988 18.1464 76.2016 17.4308C76.4972 17.0102 76.9542 16.6977 77.1452 16.2206C77.308 15.814 77.2489 15.3569 77.1873 14.9233C77.108 14.3661 77.0288 13.809 76.9496 13.2518C76.8571 12.6018 76.7661 11.9284 76.9488 11.2977C77.3674 9.8524 79.0016 9.17359 79.9599 8.01264C80.4052 7.47315 80.7048 6.82433 81.1617 6.29456C81.9283 5.40552 83.1354 4.91508 84.3058 5.01703C85.4762 5.11898 86.58 5.81071 87.181 6.81888" fill="#2E2E41"/>
<path d="M86.3944 6.75751C86.1534 6.8436 86.0639 7.15714 86.1333 7.40323C86.2027 7.64931 86.3844 7.84484 86.5507 8.0392C88.4315 10.2375 88.8687 13.5625 87.6198 16.1712C87.2877 16.865 86.8452 17.5181 86.666 18.2661C86.5356 18.8103 86.5426 19.4073 86.2403 19.8785C85.9325 20.3582 85.3225 20.6796 85.2622 21.2462C85.2235 21.6097 85.4454 21.9629 85.7428 22.176C86.0403 22.3892 86.4037 22.4867 86.761 22.5663C87.6898 22.7729 88.6395 22.8858 89.5909 22.9025C89.9011 22.9079 90.2212 22.9012 90.5057 22.7778C90.7903 22.6544 91.0331 22.3867 91.0364 22.0769C91.0389 21.8334 90.8983 21.6088 90.8804 21.366C90.8266 20.6383 91.807 20.2512 91.9981 19.547C92.1236 19.084 91.8762 18.6075 91.6126 18.2065C91.3491 17.8055 91.0483 17.3844 91.0548 16.9048C91.061 16.4456 91.3495 16.0412 91.4617 15.5959C91.6168 14.9799 91.4262 14.3355 91.2372 13.729C91.0765 13.2134 90.9159 12.6978 90.7552 12.1822C90.5843 11.634 90.4135 11.0859 90.2427 10.5378C89.9445 9.58086 89.6315 8.59621 88.9862 7.82871C88.3408 7.06122 87.2715 6.55818 86.3183 6.87153" fill="#2E2E41"/>
<path d="M89.754 25.8507L89.4158 25.7522C90.1203 23.3398 88.6012 18.8378 88.5859 18.7927L88.9193 18.6791C88.9838 18.868 90.4895 23.3326 89.754 25.8507Z" fill="#3F3C57"/>
<path d="M89.5886 28.6216C90.4012 28.6216 91.06 27.9637 91.06 27.1522C91.06 26.3406 90.4012 25.6827 89.5886 25.6827C88.7759 25.6827 88.1172 26.3406 88.1172 27.1522C88.1172 27.9637 88.7759 28.6216 89.5886 28.6216Z" fill="#3F3C57"/>
<path d="M79.9182 32.3544H79.0259C78.9285 32.3544 78.8497 32.2757 78.8497 32.1785C78.8497 32.0814 78.9285 32.0027 79.0259 32.0027H79.9182C80.1642 32.0027 80.3952 31.907 80.5689 31.7331C80.7424 31.5594 80.8379 31.3284 80.8374 31.083L80.8265 25.5939C80.8265 24.4015 79.8554 23.4317 78.6617 23.4317C77.4681 23.4317 76.4968 24.4015 76.4968 25.5936L76.5076 30.7314C76.5087 31.2326 76.9178 31.6435 77.4197 31.6473L78.0322 31.652C78.1294 31.6528 78.2077 31.732 78.207 31.8292C78.2063 31.9259 78.1275 32.0038 78.0308 32.0038H78.0295L77.417 31.9991C76.7228 31.9938 76.1567 31.4253 76.1554 30.7321L76.1445 25.5939C76.1445 24.2076 77.2737 23.0799 78.6617 23.0799C80.0496 23.0799 81.1788 24.2076 81.1788 25.5936L81.1896 31.0823C81.1903 31.4219 81.0584 31.7413 80.8181 31.9816C80.578 32.222 80.2582 32.3544 79.9182 32.3544Z" fill="#3F3C57"/>
<path d="M78.0305 32.4513C78.3753 32.4513 78.6548 32.1722 78.6548 31.8279C78.6548 31.4836 78.3753 31.2045 78.0305 31.2045C77.6857 31.2045 77.4062 31.4836 77.4062 31.8279C77.4062 32.1722 77.6857 32.4513 78.0305 32.4513Z" fill="#3F3C57"/>
<path d="M79.0266 32.802C79.3714 32.802 79.6509 32.5229 79.6509 32.1786C79.6509 31.8343 79.3714 31.5551 79.0266 31.5551C78.6818 31.5551 78.4023 31.8343 78.4023 32.1786C78.4023 32.5229 78.6818 32.802 79.0266 32.802Z" fill="#3F3C57"/>
<path d="M42.9869 23.2141L42.6488 23.1157C43.3533 20.7032 41.8512 16.1315 41.8359 16.0863L42.2586 16.4046C42.3231 16.5934 43.7224 20.696 42.9869 23.2141Z" fill="#3F3C57"/>
<path d="M31.1032 23.6427L31.4414 23.5443C30.7368 21.1318 32.2559 16.6299 32.2713 16.5847L31.9095 16.8267C31.845 17.0155 30.3677 21.1246 31.1032 23.6427Z" fill="#3F3C57"/>
<path d="M42.819 25.985C43.6317 25.985 44.2904 25.3272 44.2904 24.5156C44.2904 23.7041 43.6317 23.0462 42.819 23.0462C42.0064 23.0462 41.3477 23.7041 41.3477 24.5156C41.3477 25.3272 42.0064 25.985 42.819 25.985Z" fill="#3F3C57"/>
<path d="M32.6721 32.6791H31.7798C31.6824 32.6791 31.6036 32.6004 31.6036 32.5032C31.6036 32.4061 31.6824 32.3274 31.7798 32.3274H32.6721C32.9181 32.3274 33.1491 32.2317 33.3228 32.0578C33.4963 31.8841 33.5918 31.6531 33.5913 31.4077L33.5804 25.9186C33.5804 24.7262 32.6093 23.7564 31.4156 23.7564C30.222 23.7564 29.2507 24.7262 29.2507 25.9183L29.2615 31.0561C29.2626 31.5573 29.6717 31.9682 30.1736 31.972L30.7861 31.9767C30.8833 31.9775 30.9616 32.0567 30.9609 32.1539C30.9602 32.2506 30.8814 32.3285 30.7848 32.3285H30.7834L30.1709 32.3238C29.4767 32.3185 28.9107 31.75 28.9093 31.0568L28.8984 25.9186C28.8984 24.5323 30.0276 23.4046 31.4156 23.4046C32.8035 23.4046 33.9327 24.5323 33.9327 25.9183L33.9435 31.407C33.9442 31.7466 33.8123 32.066 33.572 32.3063C33.3319 32.5467 33.0121 32.6791 32.6721 32.6791Z" fill="#3F3C57"/>
<path d="M30.7805 32.776C31.1253 32.776 31.4048 32.4969 31.4048 32.1526C31.4048 31.8083 31.1253 31.5292 30.7805 31.5292C30.4357 31.5292 30.1562 31.8083 30.1562 32.1526C30.1562 32.4969 30.4357 32.776 30.7805 32.776Z" fill="#3F3C57"/>
<path d="M31.7766 33.1267C32.1214 33.1267 32.4009 32.8476 32.4009 32.5033C32.4009 32.159 32.1214 31.8798 31.7766 31.8798C31.4318 31.8798 31.1523 32.159 31.1523 32.5033C31.1523 32.8476 31.4318 33.1267 31.7766 33.1267Z" fill="#3F3C57"/>
</g>
<defs>
<clipPath id="clip0_941_16780">
<rect width="122" height="105" fill="white"/>
</clipPath>
</defs>
</svg>
