<svg width="155" height="84" viewBox="0 0 155 84" fill="none" xmlns="http://www.w3.org/2000/svg">
<g clip-path="url(#clip0_941_17026)">
<path d="M84.1126 44.4355V44.6179C84.1123 46.2932 83.4471 47.8997 82.2633 49.0842C81.0795 50.2686 79.4741 50.9339 77.8003 50.9336H6.55245C4.87891 50.9335 3.27396 50.268 2.09059 49.0836C0.907225 47.8992 0.242347 46.2928 0.242188 44.6179V44.4355H84.1126Z" fill="#F2F2F2"/>
<path d="M15.1404 14.3699C9.99161 15.6427 5.36953 11.678 4.5625 8.00001L4.92097 7.93587C9.26068 6.97578 14.105 10.0805 15.1404 14.3699Z" fill="#1E90FF"/>
<path d="M139.595 82.4847C138.106 81.8412 137.768 79.4965 139.014 78.4577C140.26 77.4188 142.503 78.176 142.866 79.7582L141.477 69.8128C141.158 67.5264 140.902 64.9704 142.283 63.1209C143.575 61.389 146.101 60.8341 148.129 61.5796C150.156 62.3252 151.655 64.185 152.29 66.2512C152.926 68.3174 152.776 70.5627 152.221 72.652C151.666 74.7413 150.723 76.7038 149.769 78.6435C148.792 80.6312 147.606 82.7851 145.517 83.5168C143.521 84.2157 139.595 82.4847 139.595 82.4847Z" fill="#F2F2F2"/>
<path d="M146.123 61.391C147.036 64.2424 147.471 67.2255 147.409 70.219C147.352 73.1993 146.817 76.1511 145.825 78.9617C145.26 80.5562 144.545 82.0931 143.688 83.5515C143.651 83.6202 143.642 83.7006 143.664 83.7757C143.685 83.8508 143.734 83.9148 143.801 83.9542C143.869 83.9935 143.949 84.0052 144.024 83.9867C144.1 83.9682 144.166 83.921 144.207 83.855C145.745 81.225 146.838 78.3585 147.441 75.3716C148.053 72.3706 148.176 69.2902 147.804 66.25C147.595 64.5462 147.226 62.8659 146.703 61.2312C146.585 60.8643 146.004 61.0212 146.123 61.391Z" fill="white"/>
<path d="M138.714 78.8237L143.469 83.8249C143.736 84.1058 144.16 83.6802 143.893 83.3997L139.138 78.3985C138.871 78.1176 138.447 78.5433 138.714 78.8237Z" fill="white"/>
<path d="M134.674 59.9403C134.505 59.9406 134.341 59.8796 134.213 59.7687C131.277 57.8552 128.664 55.4867 126.471 52.7517C126.336 52.6243 126.257 52.4494 126.251 52.2644C126.244 52.0795 126.309 51.8991 126.433 51.7619L127.875 50.1689L128.171 50.438L126.73 52.031C126.675 52.0915 126.647 52.1714 126.651 52.2529C126.655 52.3344 126.691 52.411 126.752 52.4659L126.773 52.4881C128.944 55.1986 131.533 57.5452 134.442 59.4397L134.469 59.4597C134.529 59.5145 134.609 59.543 134.69 59.539C134.772 59.535 134.848 59.4987 134.903 59.4382L137.715 56.3298C137.768 56.272 137.796 56.1965 137.795 56.1186C137.794 56.0406 137.763 55.966 137.709 55.9098C137.057 55.5544 136.421 55.167 135.818 54.758L136.043 54.4262C136.643 54.8328 137.275 55.2178 137.924 55.5704L137.963 55.598C138.031 55.6604 138.087 55.7359 138.127 55.82C138.167 55.9041 138.19 55.9953 138.194 56.0882C138.199 56.1812 138.185 56.2741 138.154 56.3618C138.123 56.4494 138.075 56.53 138.012 56.599L135.2 59.7073C135.138 59.7765 135.062 59.8326 134.978 59.8725C134.894 59.9123 134.803 59.935 134.71 59.9394C134.698 59.94 134.686 59.9403 134.674 59.9403Z" fill="#3F3D56"/>
<path d="M131.577 54.7076C132.46 55.5073 133.367 55.9463 133.603 55.6857C133.634 55.6415 133.653 55.5904 133.66 55.5369C133.666 55.4834 133.659 55.4291 133.639 55.379C133.543 55.084 133.39 54.8108 133.189 54.5753C132.404 54.0161 131.641 53.4127 130.9 52.7653C130.667 52.6892 130.489 52.6912 130.403 52.7874C130.391 52.8011 130.381 52.8167 130.373 52.8335C130.225 53.1361 130.739 53.9479 131.577 54.7076Z" fill="#1E90FF"/>
<path d="M126.251 48.2635C126.258 48.446 126.338 48.6182 126.471 48.7425C127.658 50.21 128.962 51.5781 130.37 52.8335C131.401 53.7538 132.492 54.6043 133.637 55.379C133.827 55.5093 134.019 55.6356 134.213 55.7598C134.341 55.8715 134.505 55.9328 134.674 55.9322C134.686 55.9322 134.698 55.9302 134.71 55.9302C134.803 55.9259 134.894 55.9031 134.979 55.8632C135.063 55.8233 135.138 55.767 135.201 55.6977L138.012 52.5909C138.138 52.4514 138.204 52.2674 138.195 52.0795C138.185 51.8915 138.102 51.715 137.962 51.5888L137.924 51.5607C134.855 49.9012 132.231 47.5241 130.276 44.6316L130.246 44.5955C130.107 44.4693 129.923 44.4037 129.735 44.4131C129.547 44.4225 129.371 44.5061 129.245 44.6456L126.433 47.7524C126.371 47.8214 126.322 47.902 126.291 47.9897C126.26 48.0775 126.246 48.1705 126.251 48.2635ZM126.651 48.2435C126.649 48.2034 126.655 48.1633 126.669 48.1254C126.682 48.0876 126.703 48.0528 126.73 48.023L129.541 44.9142C129.569 44.884 129.602 44.8597 129.638 44.8424C129.675 44.8252 129.715 44.8156 129.756 44.814C129.829 44.8095 129.902 44.8324 129.96 44.8781C131.943 47.8065 134.601 50.2152 137.708 51.9014C137.762 51.9573 137.793 52.0316 137.794 52.1093C137.796 52.1871 137.768 52.2625 137.716 52.3204L134.902 55.4291C134.876 55.4594 134.843 55.4839 134.807 55.5011C134.77 55.5184 134.73 55.528 134.69 55.5293C134.609 55.5333 134.529 55.5053 134.468 55.4512L134.442 55.4311C134.017 55.1586 133.599 54.8733 133.186 54.5753C132.401 54.0161 131.638 53.4127 130.897 52.7653C129.401 51.459 128.02 50.0252 126.772 48.48L126.752 48.4579C126.691 48.4023 126.656 48.3253 126.651 48.2435Z" fill="#3F3D56"/>
<path d="M133.602 51.6777C133.838 51.4176 133.312 50.5576 132.429 49.7568C131.545 48.956 130.638 48.5177 130.403 48.7778C130.167 49.0379 130.693 49.8979 131.576 50.6987C132.46 51.4995 133.367 51.9378 133.602 51.6777Z" fill="#1E90FF"/>
<path d="M115.932 81.4877L113.477 81.4875L112.309 72.0092L115.932 72.0094L115.932 81.4877Z" fill="#FFB8B8"/>
<path d="M116.561 83.8697L108.645 83.8694V83.7692C108.645 83.3642 108.724 82.9631 108.879 82.5889C109.034 82.2148 109.261 81.8748 109.547 81.5884C109.833 81.302 110.173 81.0749 110.547 80.9199C110.921 80.7649 111.321 80.6852 111.726 80.6852H111.726L116.561 80.6854L116.561 83.8697Z" fill="#2F2E41"/>
<path d="M123.147 81.4877L120.692 81.4875L119.523 72.0092L123.147 72.0094L123.147 81.4877Z" fill="#FFB8B8"/>
<path d="M123.768 83.8697L115.852 83.8694V83.7692C115.852 83.3642 115.931 82.9631 116.086 82.5889C116.241 82.2148 116.468 81.8748 116.754 81.5884C117.04 81.302 117.38 81.0749 117.754 80.9199C118.128 80.7649 118.528 80.6852 118.933 80.6852H118.933L123.768 80.6854L123.768 83.8697Z" fill="#2F2E41"/>
<path d="M124.792 43.1826L124.206 77.9973C124.204 78.1075 124.179 78.2162 124.134 78.3165C124.088 78.4168 124.022 78.5066 123.94 78.5803C123.858 78.654 123.762 78.7099 123.657 78.7447C123.553 78.7794 123.442 78.7922 123.332 78.7822L120.459 78.5208C120.271 78.5037 120.095 78.4203 119.962 78.2855C119.829 78.1507 119.748 77.9731 119.733 77.7843L118.051 56.0679C118.047 56.0169 118.024 55.9693 117.986 55.935C117.948 55.9006 117.899 55.882 117.848 55.883C117.797 55.884 117.748 55.9045 117.711 55.9404C117.675 55.9762 117.653 56.0247 117.652 56.0758L116.811 78.2894C116.803 78.4966 116.715 78.6928 116.566 78.8366C116.417 78.9804 116.218 79.0608 116.01 79.0608H112.929C112.725 79.0608 112.529 78.9829 112.38 78.843C112.232 78.7031 112.142 78.5117 112.13 78.308L109.973 42.9821L122.79 39.7751L124.792 43.1826Z" fill="#2F2E41"/>
<path d="M115.497 10.492C118.213 10.492 120.415 8.28794 120.415 5.56907C120.415 2.85021 118.213 0.646133 115.497 0.646133C112.78 0.646133 110.578 2.85021 110.578 5.56907C110.578 8.28794 112.78 10.492 115.497 10.492Z" fill="#FFB8B8"/>
<path d="M109.532 44.2182C109.446 44.1359 109.378 44.0374 109.331 43.9285C109.285 43.8196 109.26 43.7024 109.258 43.5839L108.927 19.8436C108.907 18.636 109.27 17.4531 109.963 16.4648C110.657 15.4766 111.646 14.7339 112.788 14.3433C113.249 12.2509 115.701 11.9888 117.131 12.0201C117.488 12.0278 117.838 12.1215 118.151 12.2933C118.464 12.465 118.731 12.7098 118.929 13.0068L119.954 14.5455L122.213 15.8709C123.259 16.4816 124.083 17.409 124.568 18.5191C125.053 19.6292 125.173 20.8648 124.911 22.0476L124.563 23.631C123.338 29.2351 123.455 35.0496 124.903 40.6L125.603 43.2707C125.639 43.4098 125.642 43.5556 125.611 43.6959C125.579 43.8363 125.515 43.9671 125.423 44.0775C125.331 44.1879 125.214 44.2746 125.081 44.3305C124.949 44.3864 124.805 44.4098 124.662 44.3987L123.849 44.3361C123.638 44.3201 123.439 44.2302 123.288 44.0822C123.137 43.9341 123.042 43.7375 123.022 43.5267L122.887 42.1804C122.885 42.1557 122.873 42.1328 122.855 42.1161C122.836 42.0994 122.812 42.0902 122.787 42.0902C122.763 42.0902 122.739 42.0994 122.72 42.1161C122.702 42.1328 122.69 42.1557 122.688 42.1804L122.558 43.4838C122.536 43.704 122.433 43.9085 122.271 44.0582C122.108 44.208 121.896 44.2926 121.675 44.296L110.173 44.4731C110.169 44.4731 110.164 44.4733 110.159 44.4733C109.925 44.4738 109.699 44.3822 109.532 44.2182Z" fill="#3F3D56"/>
<path d="M115.878 8.40676C115.899 9.10268 116.381 9.50529 116.974 9.8698C117.567 10.2343 118.259 10.3924 118.938 10.5448C119.029 10.5933 119.131 10.6174 119.235 10.6149C119.338 10.6123 119.439 10.5832 119.527 10.5304C119.616 10.4775 119.69 10.4026 119.741 10.313C119.792 10.2234 119.82 10.1221 119.82 10.0188L120.443 7.64894C120.663 6.89193 120.823 6.11873 120.922 5.3365C121.072 3.83139 120.716 2.21228 119.666 1.12405C118.616 0.0358228 116.796 -0.350753 115.538 0.487709C114.046 -1.42041 107.223 2.79534 108.906 4.12219C109.205 4.35824 109.663 4.05956 110.043 4.0306C110.423 4.00165 110.849 4.06856 111.09 4.36377C111.406 4.74945 111.268 5.32397 111.398 5.80509C111.452 5.97438 111.539 6.13134 111.653 6.26691C111.768 6.40249 111.908 6.51401 112.066 6.59503C112.224 6.67606 112.397 6.72498 112.574 6.73899C112.751 6.753 112.929 6.73182 113.097 6.67666C113.411 6.52169 113.707 6.33148 113.978 6.1097C114.27 5.91536 114.638 5.77177 114.966 5.89434C115.399 6.0559 115.553 6.58593 115.592 7.04636C115.658 7.50558 115.753 7.96001 115.878 8.40676Z" fill="#2F2E41"/>
<path opacity="0.2" d="M114.733 21.6007L113.932 31.4221L109.727 41.6444L115.935 31.6225L114.733 21.6007Z" fill="black"/>
<path d="M108.74 45.4512C108.97 45.2667 109.156 45.0341 109.286 44.7697C109.416 44.5053 109.487 44.2157 109.493 43.9211C109.499 43.6265 109.44 43.3341 109.321 43.0646C109.202 42.7951 109.025 42.555 108.804 42.3612L111.483 35.7195L107.838 36.4563L105.852 42.6504C105.552 43.0449 105.406 43.536 105.443 44.0307C105.48 44.5254 105.697 44.9893 106.053 45.3346C106.409 45.6798 106.879 45.8823 107.375 45.9038C107.87 45.9253 108.356 45.7643 108.74 45.4512Z" fill="#FFB8B8"/>
<path d="M108.549 42.5219L106.485 41.7776C106.273 41.6998 106.097 41.5451 105.993 41.3441C105.888 41.143 105.863 40.9102 105.922 40.6913L109.325 28.2203L109.844 16.9492C109.86 16.609 109.943 16.2753 110.089 15.9675C110.234 15.6597 110.44 15.384 110.693 15.1563C110.946 14.9287 111.242 14.7537 111.563 14.6414C111.884 14.5292 112.225 14.482 112.564 14.5026C112.904 14.5233 113.236 14.6112 113.541 14.7615C113.847 14.9117 114.119 15.1212 114.343 15.3778C114.567 15.6344 114.737 15.9329 114.845 16.2561C114.952 16.5792 114.994 16.9205 114.969 17.2601L114.042 29.6017L109.705 41.9723C109.639 42.1592 109.514 42.3193 109.348 42.4279C109.182 42.5366 108.986 42.5877 108.788 42.5735C108.706 42.5673 108.626 42.5499 108.549 42.5219Z" fill="#3F3D56"/>
<path d="M129.811 46.1026C129.952 45.8438 130.034 45.5573 130.052 45.2632C130.071 44.9691 130.024 44.6746 129.916 44.4004C129.809 44.1262 129.642 43.879 129.428 43.6762C129.215 43.4734 128.959 43.32 128.68 43.2266L128.596 36.0646L125.516 38.1501L126.068 44.6316C125.942 45.1115 125.997 45.6209 126.222 46.0631C126.446 46.5053 126.825 46.8498 127.287 47.0311C127.748 47.2124 128.26 47.218 128.725 47.0469C129.19 46.8758 129.577 46.5398 129.811 46.1026Z" fill="#FFB8B8"/>
<path d="M128.499 43.4747L126.308 43.5836C126.082 43.5937 125.861 43.5187 125.687 43.3735C125.513 43.2282 125.4 43.0231 125.37 42.7985L123.71 29.9776L119.851 19.3766C119.734 19.0566 119.682 18.7167 119.698 18.3765C119.714 18.0363 119.797 17.7027 119.943 17.395C120.089 17.0874 120.295 16.8118 120.548 16.5844C120.801 16.3569 121.097 16.1822 121.419 16.0702C121.74 15.9583 122.08 15.9114 122.42 15.9323C122.76 15.9531 123.092 16.0414 123.397 16.1919C123.702 16.3424 123.974 16.5521 124.198 16.8088C124.421 17.0656 124.592 17.3643 124.699 17.6875L128.594 29.4337L129.354 42.5218C129.365 42.7196 129.311 42.9157 129.2 43.0798C129.089 43.2439 128.928 43.3669 128.74 43.4299C128.662 43.4557 128.581 43.4708 128.499 43.4747Z" fill="#3F3D56"/>
<path d="M154.802 83.9714H78.501C78.4479 83.9714 78.397 83.9502 78.3594 83.9127C78.3219 83.8751 78.3008 83.8241 78.3008 83.7709C78.3008 83.7178 78.3219 83.6668 78.3594 83.6292C78.397 83.5916 78.4479 83.5705 78.501 83.5705H154.802C154.855 83.5705 154.906 83.5916 154.943 83.6292C154.981 83.6668 155.002 83.7178 155.002 83.7709C155.002 83.8241 154.981 83.8751 154.943 83.9127C154.906 83.9502 154.855 83.9714 154.802 83.9714Z" fill="#3F3D56"/>
<path d="M64.7292 40.6973C63.579 40.6973 62.6643 40.355 62.0102 39.6797C60.5319 38.1533 60.6246 35.2112 60.699 32.8472C60.7206 32.1595 60.741 31.5098 60.7204 30.9656L60.7202 30.9574C60.7255 29.8942 61.1496 28.8761 61.9006 28.1241C62.6515 27.3721 63.6686 26.947 64.7309 26.9413H74.2666C75.4153 26.9413 76.3291 27.2831 76.9827 27.9575C78.4609 29.4826 78.3694 32.424 78.2958 34.7875C78.2744 35.4767 78.2541 36.1277 78.2751 36.6728C78.2714 37.7376 77.8478 38.7578 77.0963 39.5115C76.3448 40.2652 75.3264 40.6914 74.2626 40.6973H64.7292ZM61.1208 30.9546C61.1417 31.5118 61.1211 32.1666 61.0992 32.8598C61.0272 35.1482 60.9376 37.9962 62.2978 39.4006C62.8816 40.0034 63.677 40.2964 64.7291 40.2964H74.262C75.2187 40.2914 76.1348 39.9087 76.8112 39.2316C77.4877 38.5544 77.8699 37.6375 77.8748 36.68C77.8533 36.1292 77.8738 35.4714 77.8955 34.7749C77.9667 32.4871 78.0553 29.6398 76.6952 28.2366C76.1119 27.6347 75.3173 27.3421 74.2666 27.3421H64.7315C63.7757 27.3475 62.8606 27.7297 62.1847 28.406C61.5088 29.0823 61.1265 29.998 61.1208 30.9546Z" fill="#3F3D56"/>
<path d="M13.0331 14.7388C11.3611 14.7286 9.72542 14.2491 8.31212 13.3548C6.24165 12.0671 4.67831 10.0048 4.23221 7.97294L4.1875 7.76927L4.74703 7.66905C9.15146 6.69613 14.1331 9.83138 15.2004 14.2507L15.2472 14.4445L15.0538 14.4923C14.3927 14.6561 13.7142 14.7388 13.0331 14.7388ZM4.67185 8.0898C5.15244 9.95373 6.61101 11.8248 8.52353 13.0143C10.3727 14.1987 12.6136 14.6065 14.7609 14.1493C13.6443 10.032 8.96879 7.14281 4.8296 8.06143L4.67185 8.0898Z" fill="#3F3D56"/>
<path d="M7.47961 37.5168C6.16937 37.5168 5.10489 36.93 4.47994 35.8595C4.12966 35.2367 3.94554 34.5341 3.94531 33.8194C3.94509 33.1048 4.12877 32.402 4.47867 31.779C5.11361 30.6902 6.20347 30.0996 7.54946 30.1202H20.2549C21.5964 30.1031 22.687 30.6911 23.3224 31.7812C23.6723 32.4041 23.8561 33.1066 23.856 33.8212C23.856 34.5358 23.672 35.2383 23.322 35.8611C22.6869 36.9486 21.5966 37.5295 20.2519 37.5164H7.54621C7.52394 37.5166 7.50174 37.5168 7.47961 37.5168ZM7.48705 30.5206C6.31856 30.5206 5.37469 31.0378 4.82458 31.9811C4.50937 32.5424 4.3439 33.1755 4.34411 33.8193C4.34432 34.4632 4.51021 35.0962 4.82578 35.6572C5.38516 36.6156 6.34837 37.1343 7.5432 37.1155H20.2549C21.451 37.1346 22.4172 36.616 22.9762 35.6588C23.2915 35.0977 23.4572 34.4648 23.4572 33.821C23.4573 33.1773 23.2917 32.5443 22.9764 31.9832C22.4171 31.0235 21.4507 30.5067 20.2578 30.5211H7.54525C7.52584 30.5208 7.50634 30.5206 7.48705 30.5206Z" fill="#3F3D56"/>
<path d="M67.991 31.7077H63.9857C63.7201 31.7077 63.4654 31.6021 63.2777 31.4142C63.0899 31.2262 62.9844 30.9713 62.9844 30.7055C62.9844 30.4397 63.0899 30.1848 63.2777 29.9969C63.4654 29.8089 63.7201 29.7033 63.9857 29.7033H67.991C68.2565 29.7033 68.5112 29.8089 68.699 29.9969C68.8868 30.1848 68.9923 30.4397 68.9923 30.7055C68.9923 30.9713 68.8868 31.2262 68.699 31.4142C68.5112 31.6021 68.2565 31.7077 67.991 31.7077Z" fill="#1E90FF"/>
<path d="M67.991 34.9147H63.9857C63.7201 34.9147 63.4654 34.8091 63.2777 34.6212C63.0899 34.4332 62.9844 34.1783 62.9844 33.9125C62.9844 33.6467 63.0899 33.3918 63.2777 33.2039C63.4654 33.0159 63.7201 32.9103 63.9857 32.9103H67.991C68.2565 32.9103 68.5112 33.0159 68.699 33.2039C68.8868 33.3918 68.9923 33.6467 68.9923 33.9125C68.9923 34.1783 68.8868 34.4332 68.699 34.6212C68.5112 34.8091 68.2565 34.9147 67.991 34.9147Z" fill="#1E90FF"/>
<path d="M67.991 38.1217H63.9857C63.7201 38.1217 63.4654 38.0161 63.2777 37.8282C63.0899 37.6402 62.9844 37.3853 62.9844 37.1195C62.9844 36.8537 63.0899 36.5988 63.2777 36.4108C63.4654 36.2229 63.7201 36.1173 63.9857 36.1173H67.991C68.2565 36.1173 68.5112 36.2229 68.699 36.4108C68.8868 36.5988 68.9923 36.8537 68.9923 37.1195C68.9923 37.3853 68.8868 37.6402 68.699 37.8282C68.5112 38.0161 68.2565 38.1217 67.991 38.1217Z" fill="#1E90FF"/>
<path d="M74.9988 31.7077H70.9935C70.7279 31.7077 70.4733 31.6021 70.2855 31.4142C70.0977 31.2262 69.9922 30.9713 69.9922 30.7055C69.9922 30.4397 70.0977 30.1848 70.2855 29.9969C70.4733 29.8089 70.7279 29.7033 70.9935 29.7033H74.9988C75.2643 29.7033 75.519 29.8089 75.7068 29.9969C75.8946 30.1848 76.0001 30.4397 76.0001 30.7055C76.0001 30.9713 75.8946 31.2262 75.7068 31.4142C75.519 31.6021 75.2643 31.7077 74.9988 31.7077Z" fill="#1E90FF"/>
<path d="M74.9988 34.9147H70.9935C70.7279 34.9147 70.4733 34.8091 70.2855 34.6212C70.0977 34.4332 69.9922 34.1783 69.9922 33.9125C69.9922 33.6467 70.0977 33.3918 70.2855 33.2039C70.4733 33.0159 70.7279 32.9103 70.9935 32.9103H74.9988C75.2643 32.9103 75.519 33.0159 75.7068 33.2039C75.8946 33.3918 76.0001 33.6467 76.0001 33.9125C76.0001 34.1783 75.8946 34.4332 75.7068 34.6212C75.519 34.8091 75.2643 34.9147 74.9988 34.9147Z" fill="#1E90FF"/>
<path d="M74.9988 38.1217H70.9935C70.7279 38.1217 70.4733 38.0161 70.2855 37.8282C70.0977 37.6402 69.9922 37.3853 69.9922 37.1195C69.9922 36.8537 70.0977 36.5988 70.2855 36.4108C70.4733 36.2229 70.7279 36.1173 70.9935 36.1173H74.9988C75.2643 36.1173 75.519 36.2229 75.7068 36.4108C75.8946 36.5988 76.0001 36.8537 76.0001 37.1195C76.0001 37.3853 75.8946 37.6402 75.7068 37.8282C75.519 38.0161 75.2643 38.1217 74.9988 38.1217Z" fill="#1E90FF"/>
<path d="M84.1126 17.4648H0.242188V17.8657H84.1126V17.4648Z" fill="#3F3D56"/>
<path d="M77.5021 51.0499H6.6087C4.85657 51.0479 3.17677 50.3504 1.93783 49.1104C0.698887 47.8703 0.0019792 46.1891 0 44.4354V9.96028C0.0019792 8.20663 0.698887 6.52538 1.93783 5.28536C3.17677 4.04535 4.85657 3.34784 6.6087 3.34586H77.5021C79.2542 3.34784 80.934 4.04535 82.1729 5.28536C83.4119 6.52538 84.1088 8.20663 84.1108 9.96028V44.4354C84.1088 46.1891 83.4119 47.8703 82.1729 49.1104C80.934 50.3504 79.2542 51.0479 77.5021 51.0499ZM6.6087 3.74673C4.96277 3.7486 3.38478 4.40385 2.22092 5.56871C1.05707 6.73357 0.402397 8.31292 0.400527 9.96028V44.4354C0.402398 46.0828 1.05707 47.6622 2.22093 48.827C3.38478 49.9919 4.96277 50.6471 6.6087 50.649H77.5021C79.148 50.6471 80.726 49.9919 81.8898 48.827C83.0537 47.6622 83.7084 46.0828 83.7102 44.4354V9.96028C83.7084 8.31291 83.0537 6.73356 81.8898 5.5687C80.726 4.40384 79.148 3.7486 77.5021 3.74673H6.6087Z" fill="#3F3D56"/>
</g>
<defs>
<clipPath id="clip0_941_17026">
<rect width="155" height="84" fill="white"/>
</clipPath>
</defs>
</svg>
