<svg width="150" height="34" viewBox="0 0 150 34" fill="none" xmlns="http://www.w3.org/2000/svg">
<path d="M38.1624 32.8054C36.2678 33.0428 34.509 34.215 32.6159 33.9653C30.7228 33.7156 28.8275 32.9198 27.6379 31.4256C26.7717 30.3375 26.3396 28.9639 26.1003 27.5937C25.8611 26.2234 25.7969 24.8276 25.5704 23.4551C25.098 20.5929 24.5429 17.7499 22.2486 15.9759C23.6928 16.3087 24.4742 16.3856 25.9146 16.7341C27.3551 17.0826 28.7979 17.7592 29.6312 18.9852C30.6091 20.424 30.5619 22.2922 30.8481 24.0083C31.5526 28.2327 34.1505 31.3111 38.1624 32.8054Z" fill="#003E56"/>
<path d="M0 33.3207C0.741787 31.5605 2.39454 29.93 3.5572 28.4147C4.71991 26.8994 6.3565 25.6553 8.24479 25.3718C9.61983 25.1653 11.025 25.4778 12.3308 25.9556C13.6366 26.4334 14.8771 27.0757 16.1784 27.5657C18.8923 28.5875 21.2319 28.1541 23.9147 27.0534C23.3319 28.5093 22.4518 30.0691 21.4299 31.1429C20.408 32.2166 19.4955 33.2098 18.0175 33.3188C16.283 33.4467 14.6893 32.4716 13.0607 31.8615C9.05144 30.3598 3.29951 30.592 0 33.3207Z" fill="#003E56"/>
<path d="M18.6351 0C19.788 1.52278 22.1612 4.24925 22.8916 6.01422C23.622 7.7792 23.8807 9.81911 23.182 11.5969C22.6732 12.8914 21.7001 13.9525 20.6336 14.8449C19.567 15.7374 18.3908 16.4909 17.316 17.3734C15.0745 19.2136 12.4917 20.9781 12.1032 23.8527C11.6692 22.4351 11.7443 21.8578 11.3256 20.4356C10.907 19.0133 10.7715 17.4251 11.4161 16.0901C12.1726 14.5234 13.8136 13.6303 15.1561 12.5242C18.4607 9.80171 19.3475 4.22301 18.6351 0Z" fill="#003E56"/>
<path d="M38.1624 32.8054C36.2678 33.0428 33.7533 33.459 31.8602 33.2093C29.9671 32.9596 28.0718 32.1637 26.8822 30.6695C26.0159 29.5814 25.5839 28.2079 25.3446 26.8376C25.1054 25.4673 25.0412 24.0715 24.8147 22.699C24.3423 19.8369 23.074 16.9938 20.7796 15.2198C22.2238 15.5526 23.7184 15.6296 25.1589 15.978C26.5995 16.3265 28.0422 17.0031 28.8755 18.2292C29.8534 19.6679 29.8062 21.5362 30.0924 23.2523C30.7969 27.4767 34.1505 31.3111 38.1624 32.8054Z" fill="url(#paint0_linear_1344_2919)"/>
<path d="M0 33.3207C0.741787 31.5605 1.6388 29.1739 2.80146 27.6586C3.96417 26.1434 5.60071 24.8993 7.48904 24.6157C8.86409 24.4092 10.2692 24.7217 11.575 25.1995C12.8809 25.6773 14.1213 26.3196 15.4227 26.8096C18.1365 27.8314 21.2319 28.1541 23.9147 27.0534C22.9045 28.1382 22.0906 29.3946 21.0687 30.4684C20.0468 31.5422 18.7397 32.4538 17.2617 32.5628C15.5273 32.6906 13.9336 31.7155 12.3049 31.1055C8.29569 29.6038 3.29951 30.592 0 33.3207Z" fill="url(#paint1_linear_1344_2919)"/>
<path d="M18.6351 0C19.788 1.52278 21.4055 3.49319 22.1359 5.25817C22.8662 7.02314 23.1249 9.06306 22.4262 10.8408C21.9175 12.1354 20.9444 13.1964 19.8779 14.0889C18.8113 14.9813 17.635 15.7349 16.5602 16.6173C14.3188 18.4576 12.4917 20.978 12.1032 23.8527C11.6692 22.4351 10.9885 21.1018 10.5699 19.6796C10.1513 18.2573 10.0157 16.6691 10.6604 15.3341C11.4169 13.7674 13.0578 12.8743 14.4003 11.7682C17.7049 9.04566 19.3475 4.22301 18.6351 0Z" fill="url(#paint2_linear_1344_2919)"/>
<path d="M4.34999 28.6732C4.34999 28.6732 8.73334 24.4607 15.5854 28.9359Z" fill="url(#paint3_linear_1344_2919)"/>
<path d="M32.8269 31.7213C32.8269 31.7213 26.9381 30.2157 27.1272 22.0315Z" fill="url(#paint4_linear_1344_2919)"/>
<path d="M20.1633 7.8623C20.1633 7.8623 20.2353 13.9425 12.2847 15.8801Z" fill="url(#paint5_linear_1344_2919)"/>
<path d="M51.8948 12.3152V26.6938H48.3938V20.7744H42.9477V26.6938H39.4466V12.3152H42.9477V17.9478H48.3938V12.3152H51.8948Z" fill="#006C6E"/>
<path d="M65.1916 20.7949C65.1916 21.1226 65.1711 21.464 65.1302 21.819H57.2067C57.2613 22.5291 57.4865 23.0753 57.8824 23.4576C58.2919 23.8263 58.7901 24.0106 59.377 24.0106C60.2505 24.0106 60.8579 23.6419 61.1992 22.9046H64.9255C64.7344 23.6556 64.3863 24.3315 63.8813 24.9323C63.3899 25.5331 62.7689 26.0042 62.0181 26.3456C61.2674 26.687 60.428 26.8577 59.4998 26.8577C58.3806 26.8577 57.3842 26.6187 56.5106 26.1408C55.6371 25.6629 54.9546 24.9801 54.4632 24.0926C53.9718 23.205 53.7261 22.1672 53.7261 20.9792C53.7261 19.7913 53.965 18.7535 54.4427 17.8659C54.9341 16.9783 55.6166 16.2956 56.4901 15.8177C57.3637 15.3398 58.3669 15.1008 59.4998 15.1008C60.6054 15.1008 61.5882 15.3329 62.4481 15.7972C63.308 16.2615 63.9768 16.9237 64.4546 17.784C64.9459 18.6442 65.1916 19.6479 65.1916 20.7949ZM61.6087 19.8732C61.6087 19.2724 61.4039 18.7944 60.9944 18.4394C60.585 18.0844 60.0731 17.9069 59.4589 17.9069C58.872 17.9069 58.3738 18.0776 57.9643 18.4189C57.5684 18.7603 57.3228 19.2451 57.2272 19.8732H61.6087Z" fill="#006C6E"/>
<path d="M66.3425 20.9588C66.3425 19.7844 66.5609 18.7535 66.9976 17.8659C67.4481 16.9783 68.0555 16.2956 68.8198 15.8177C69.5842 15.3398 70.4373 15.1008 71.3791 15.1008C72.1844 15.1008 72.8874 15.2647 73.4879 15.5924C74.1022 15.9201 74.5731 16.3502 74.9006 16.8828V15.2647H78.4017V26.6938H74.9006V25.0757C74.5594 25.6083 74.0817 26.0384 73.4675 26.3661C72.8669 26.6938 72.1639 26.8577 71.3586 26.8577C70.4305 26.8577 69.5842 26.6187 68.8198 26.1408C68.0555 25.6492 67.4481 24.9596 66.9976 24.0721C66.5609 23.1708 66.3425 22.1331 66.3425 20.9588ZM74.9006 20.9792C74.9006 20.1053 74.655 19.4157 74.1636 18.9105C73.6858 18.4053 73.0989 18.1527 72.4028 18.1527C71.7067 18.1527 71.1129 18.4053 70.6216 18.9105C70.1438 19.4021 69.905 20.0848 69.905 20.9588C69.905 21.8327 70.1438 22.5291 70.6216 23.048C71.1129 23.5532 71.7067 23.8058 72.4028 23.8058C73.0989 23.8058 73.6858 23.5532 74.1636 23.048C74.655 22.5427 74.9006 21.8531 74.9006 20.9792Z" fill="#006C6E"/>
<path d="M84.4356 11.5369V26.6938H80.9346V11.5369H84.4356Z" fill="#006C6E"/>
<path d="M93.3403 23.7239V26.6938H91.559C90.2896 26.6938 89.3 26.3866 88.5903 25.7721C87.8805 25.144 87.5256 24.1267 87.5256 22.7202V18.1731H86.1334V15.2647H87.5256V12.4791H91.0267V15.2647H93.3198V18.1731H91.0267V22.7612C91.0267 23.1026 91.1086 23.3484 91.2724 23.4986C91.4362 23.6488 91.7092 23.7239 92.0913 23.7239H93.3403Z" fill="#006C6E"/>
<path d="M102.313 15.1418C103.623 15.1418 104.674 15.5787 105.466 16.4526C106.258 17.3129 106.654 18.5009 106.654 20.0166V26.6938H103.173V20.4877C103.173 19.723 102.975 19.129 102.579 18.7057C102.183 18.2824 101.651 18.0707 100.982 18.0707C100.313 18.0707 99.7811 18.2824 99.3852 18.7057C98.9894 19.129 98.7915 19.723 98.7915 20.4877V26.6938H95.2904V11.5369H98.7915V16.8008C99.1464 16.2956 99.6309 15.8928 100.245 15.5924C100.859 15.292 101.549 15.1418 102.313 15.1418Z" fill="#006C6E"/>
<path d="M112.587 23.9901H117.174V26.6938H109.086V12.3152H112.587V23.9901Z" fill="#006C6E"/>
<path d="M120.604 14.0767C119.99 14.0767 119.485 13.8992 119.089 13.5441C118.707 13.1755 118.516 12.7248 118.516 12.1923C118.516 11.6461 118.707 11.1955 119.089 10.8405C119.485 10.4718 119.99 10.2874 120.604 10.2874C121.205 10.2874 121.696 10.4718 122.078 10.8405C122.474 11.1955 122.672 11.6461 122.672 12.1923C122.672 12.7248 122.474 13.1755 122.078 13.5441C121.696 13.8992 121.205 14.0767 120.604 14.0767ZM122.345 15.2647V26.6938H118.844V15.2647H122.345Z" fill="#006C6E"/>
<path d="M131.843 15.1418C133.181 15.1418 134.245 15.5787 135.037 16.4526C135.842 17.3129 136.245 18.5009 136.245 20.0166V26.6938H132.764V20.4877C132.764 19.723 132.566 19.129 132.171 18.7057C131.775 18.2824 131.242 18.0707 130.574 18.0707C129.905 18.0707 129.372 18.2824 128.977 18.7057C128.581 19.129 128.383 19.723 128.383 20.4877V26.6938H124.882V15.2647H128.383V16.7803C128.738 16.2751 129.216 15.8791 129.816 15.5924C130.417 15.292 131.092 15.1418 131.843 15.1418Z" fill="#006C6E"/>
<path d="M145.66 26.6938L142.179 21.9009V26.6938H138.678V11.5369H142.179V19.9142L145.639 15.2647H149.959L145.209 20.9997L150 26.6938H145.66Z" fill="#006C6E"/>
<path d="M122.69 12.1406C122.69 13.3738 121.691 14.3736 120.458 14.3736C119.226 14.3736 118.226 13.3738 118.226 12.1406C118.226 10.9073 119.226 9.90751 120.458 9.90751C121.691 9.90751 122.69 10.9073 122.69 12.1406Z" fill="#1E90FF"/>
<defs>
<linearGradient id="paint0_linear_1344_2919" x1="75.0001" y1="34" x2="75.0001" y2="5.67435e-05" gradientUnits="userSpaceOnUse">
<stop stop-color="#006C6E"/>
<stop offset="1" stop-color="#00B3B5"/>
</linearGradient>
<linearGradient id="paint1_linear_1344_2919" x1="-9.65557e-05" y1="17.0001" x2="150" y2="17.0001" gradientUnits="userSpaceOnUse">
<stop stop-color="#006C6E"/>
<stop offset="1" stop-color="#00B3B5"/>
</linearGradient>
<linearGradient id="paint2_linear_1344_2919" x1="74.9997" y1="34" x2="74.9997" y2="-1.41859e-05" gradientUnits="userSpaceOnUse">
<stop stop-color="#00B3B5"/>
<stop offset="1" stop-color="#006C6E"/>
</linearGradient>
<linearGradient id="paint3_linear_1344_2919" x1="74.8709" y1="33.9878" x2="77.9715" y2="0.178926" gradientUnits="userSpaceOnUse">
<stop stop-color="#00929E" stop-opacity="0"/>
<stop offset="1" stop-color="#00B3B5"/>
</linearGradient>
<linearGradient id="paint4_linear_1344_2919" x1="31.4821" y1="20.3584" x2="34.5022" y2="7.29582" gradientUnits="userSpaceOnUse">
<stop stop-color="#00B3B5"/>
<stop offset="1" stop-color="#00929E" stop-opacity="0"/>
</linearGradient>
<linearGradient id="paint5_linear_1344_2919" x1="100.759" y1="22.7397" x2="98.2614" y2="11.5283" gradientUnits="userSpaceOnUse">
<stop stop-color="#00B3B5"/>
<stop offset="1" stop-color="#00929E" stop-opacity="0"/>
</linearGradient>
</defs>
</svg>
