<svg width="135" height="31" viewBox="0 0 135 31" fill="none" xmlns="http://www.w3.org/2000/svg">
<path d="M34.3462 29.9108C32.641 30.1272 31.0581 31.196 29.3543 30.9684C27.6506 30.7407 25.9448 30.0151 24.8741 28.6527C24.0945 27.6606 23.7056 26.4083 23.4903 25.1589C23.2749 23.9096 23.2172 22.6369 23.0133 21.3855C22.5882 18.7759 22.0886 16.1837 20.0237 14.5663C21.3235 14.8697 22.0267 14.9398 23.3232 15.2576C24.6196 15.5753 25.9181 16.1922 26.6681 17.31C27.5482 18.6218 27.5057 20.3253 27.7632 21.8899C28.3974 25.7416 30.7354 28.5484 34.3462 29.9108Z" fill="#003E56"/>
<path d="M0 30.3806C0.667609 28.7758 2.15509 27.2891 3.20148 25.9075C4.24792 24.5259 5.72085 23.3916 7.42031 23.1331C8.65785 22.9448 9.92246 23.2297 11.0977 23.6654C12.2729 24.101 13.3893 24.6867 14.5606 25.1334C17.003 26.0651 19.1087 25.6699 21.5233 24.6663C20.9987 25.9937 20.2067 27.4159 19.2869 28.395C18.3672 29.374 17.5459 30.2795 16.2157 30.3789C14.6547 30.4955 13.2204 29.6065 11.7546 29.0502C8.14629 27.681 2.96956 27.8927 0 30.3806Z" fill="#003E56"/>
<path d="M16.7716 0C17.8092 1.38842 19.9451 3.87431 20.6024 5.48355C21.2598 7.0928 21.4926 8.95272 20.8638 10.5736C20.4059 11.7539 19.5301 12.7214 18.5702 13.5351C17.6103 14.3488 16.5517 15.0358 15.5844 15.8404C13.5671 17.5183 11.2426 19.1271 10.8929 21.7481C10.5023 20.4556 10.5698 19.9292 10.1931 18.6324C9.81633 17.3356 9.69432 15.8876 10.2745 14.6703C10.9554 13.242 12.4322 12.4276 13.6405 11.4191C16.6146 8.93686 17.4128 3.85039 16.7716 0Z" fill="#003E56"/>
<path d="M34.3462 29.9108C32.641 30.1272 30.3779 30.5067 28.6741 30.279C26.9704 30.0514 25.2646 29.3258 24.194 27.9634C23.4143 26.9713 23.0255 25.7189 22.8102 24.4696C22.5948 23.2202 22.5371 21.9476 22.3332 20.6962C21.9081 18.0866 20.7666 15.4944 18.7017 13.8769C20.0014 14.1803 21.3466 14.2505 22.643 14.5682C23.9395 14.8859 25.238 15.5029 25.988 16.6207C26.8681 17.9325 26.8256 19.6359 27.0831 21.2006C27.7172 25.0523 30.7354 28.5484 34.3462 29.9108Z" fill="url(#paint0_linear_1361_9642)"/>
<path d="M0 30.3806C0.667609 28.7758 1.47492 26.5998 2.52131 25.2182C3.56775 23.8366 5.04064 22.7023 6.74014 22.4437C7.97768 22.2555 9.24228 22.5404 10.4175 22.976C11.5928 23.4117 12.7092 23.9973 13.8804 24.4441C16.3229 25.3757 19.1087 25.6699 21.5233 24.6663C20.6141 25.6554 19.8816 26.8009 18.9619 27.78C18.0421 28.759 16.8657 29.5902 15.5356 29.6896C13.9746 29.8062 12.5402 28.9171 11.0744 28.3609C7.46612 26.9917 2.96956 27.8927 0 30.3806Z" fill="url(#paint1_linear_1361_9642)"/>
<path d="M16.7716 0C17.8092 1.38842 19.2649 3.18497 19.9223 4.79421C20.5796 6.40345 20.8124 8.26338 20.1836 9.88428C19.7257 11.0646 18.85 12.0321 17.8901 12.8458C16.9302 13.6595 15.8715 14.3465 14.9042 15.1511C12.8869 16.829 11.2426 19.127 10.8929 21.7481C10.5023 20.4556 9.88967 19.2399 9.51291 17.9431C9.13616 16.6464 9.01415 15.1983 9.59433 13.9811C10.2752 12.5527 11.7521 11.7383 12.9603 10.7299C15.9344 8.24752 17.4128 3.85039 16.7716 0Z" fill="url(#paint2_linear_1361_9642)"/>
<path d="M3.91499 26.1432C3.91499 26.1432 7.86001 22.3024 14.0269 26.3827Z" fill="url(#paint3_linear_1361_9642)"/>
<path d="M29.5442 28.9224C29.5442 28.9224 24.2443 27.5496 24.4145 20.0875Z" fill="url(#paint4_linear_1361_9642)"/>
<path d="M18.1469 7.16857C18.1469 7.16857 18.2118 12.7123 11.0563 14.4789Z" fill="url(#paint5_linear_1361_9642)"/>
<path d="M46.7053 11.2286V24.3385H43.5544V18.9414H38.6529V24.3385H35.5019V11.2286H38.6529V16.3642H43.5544V11.2286H46.7053Z" fill="#006C6E"/>
<path d="M58.6725 18.96C58.6725 19.2589 58.654 19.5701 58.6172 19.8938H51.4861C51.5352 20.5412 51.7379 21.0392 52.0941 21.3878C52.4627 21.724 52.9111 21.892 53.4393 21.892C54.2255 21.892 54.7721 21.5559 55.0793 20.8836H58.4329C58.2609 21.5683 57.9477 22.1846 57.4932 22.7324C57.0509 23.2802 56.492 23.7097 55.8163 24.021C55.1407 24.3323 54.3852 24.4879 53.5498 24.4879C52.5425 24.4879 51.6458 24.27 50.8596 23.8343C50.0733 23.3985 49.4591 22.776 49.0169 21.9667C48.5746 21.1575 48.3535 20.2113 48.3535 19.1281C48.3535 18.045 48.5685 17.0988 48.9985 16.2895C49.4407 15.4803 50.0549 14.8578 50.8411 14.422C51.6273 13.9862 52.5302 13.7684 53.5498 13.7684C54.5449 13.7684 55.4294 13.98 56.2033 14.4033C56.9772 14.8266 57.5791 15.4305 58.0091 16.2148C58.4513 16.9992 58.6725 17.9142 58.6725 18.96ZM55.4478 18.1197C55.4478 17.5719 55.2635 17.1361 54.895 16.8124C54.5265 16.4887 54.0658 16.3269 53.513 16.3269C52.9848 16.3269 52.5364 16.4825 52.1678 16.7937C51.8116 17.105 51.5905 17.547 51.5045 18.1197H55.4478Z" fill="#006C6E"/>
<path d="M59.7082 19.1095C59.7082 18.0387 59.9048 17.0988 60.2979 16.2895C60.7033 15.4803 61.2499 14.8578 61.9379 14.422C62.6258 13.9862 63.3936 13.7684 64.2412 13.7684C64.966 13.7684 65.5986 13.9178 66.1391 14.2166C66.6919 14.5154 67.1158 14.9076 67.4106 15.3931V13.9178H70.5615V24.3385H67.4106V22.8631C67.1035 23.3487 66.6735 23.7409 66.1207 24.0397C65.5802 24.3385 64.9475 24.4879 64.2228 24.4879C63.3874 24.4879 62.6258 24.27 61.9379 23.8343C61.2499 23.386 60.7033 22.7573 60.2979 21.9481C59.9048 21.1264 59.7082 20.1802 59.7082 19.1095ZM67.4106 19.1281C67.4106 18.3313 67.1895 17.7026 66.7472 17.2419C66.3173 16.7813 65.789 16.551 65.1625 16.551C64.536 16.551 64.0016 16.7813 63.5594 17.2419C63.1294 17.6901 62.9145 18.3126 62.9145 19.1095C62.9145 19.9063 63.1294 20.5412 63.5594 21.0143C64.0016 21.475 64.536 21.7053 65.1625 21.7053C65.789 21.7053 66.3173 21.475 66.7472 21.0143C67.1895 20.5537 67.4106 19.9249 67.4106 19.1281Z" fill="#006C6E"/>
<path d="M75.9921 10.5189V24.3385H72.8411V10.5189H75.9921Z" fill="#006C6E"/>
<path d="M84.0062 21.6306V24.3385H82.4031C81.2607 24.3385 80.37 24.0584 79.7312 23.4981C79.0925 22.9254 78.7731 21.9979 78.7731 20.7155V16.5696H77.52V13.9178H78.7731V11.378H81.924V13.9178H83.9878V16.5696H81.924V20.7529C81.924 21.0641 81.9977 21.2882 82.1451 21.4252C82.2926 21.5621 82.5382 21.6306 82.8822 21.6306H84.0062Z" fill="#006C6E"/>
<path d="M92.0817 13.8057C93.261 13.8057 94.2069 14.2041 94.9194 15.0009C95.6319 15.7853 95.9882 16.8684 95.9882 18.2504V24.3385H92.8556V18.6799C92.8556 17.9827 92.6775 17.4411 92.3213 17.0552C91.965 16.6692 91.4859 16.4763 90.884 16.4763C90.282 16.4763 89.8029 16.6692 89.4467 17.0552C89.0905 17.4411 88.9123 17.9827 88.9123 18.6799V24.3385H85.7614V10.5189H88.9123V15.3184C89.2317 14.8578 89.6678 14.4905 90.2206 14.2166C90.7734 13.9427 91.3938 13.8057 92.0817 13.8057Z" fill="#006C6E"/>
<path d="M101.329 21.8734H105.456V24.3385H98.1778V11.2286H101.329V21.8734Z" fill="#006C6E"/>
<path d="M108.544 12.8346C107.991 12.8346 107.537 12.6728 107.18 12.3491C106.836 12.0129 106.664 11.6021 106.664 11.1165C106.664 10.6185 106.836 10.2077 107.18 9.88395C107.537 9.5478 107.991 9.37972 108.544 9.37972C109.084 9.37972 109.527 9.5478 109.871 9.88395C110.227 10.2077 110.405 10.6185 110.405 11.1165C110.405 11.6021 110.227 12.0129 109.871 12.3491C109.527 12.6728 109.084 12.8346 108.544 12.8346ZM110.11 13.9178V24.3385H106.959V13.9178H110.11Z" fill="#006C6E"/>
<path d="M118.659 13.8057C119.863 13.8057 120.821 14.2041 121.533 15.0009C122.258 15.7853 122.62 16.8684 122.62 18.2504V24.3385H119.488V18.6799C119.488 17.9827 119.31 17.4411 118.954 17.0552C118.597 16.6692 118.118 16.4763 117.516 16.4763C116.914 16.4763 116.435 16.6692 116.079 17.0552C115.723 17.4411 115.545 17.9827 115.545 18.6799V24.3385H112.394V13.9178H115.545V15.2997C115.864 14.8391 116.294 14.478 116.834 14.2166C117.375 13.9427 117.983 13.8057 118.659 13.8057Z" fill="#006C6E"/>
<path d="M131.094 24.3385L127.961 19.9685V24.3385H124.81V10.5189H127.961V18.157L131.075 13.9178H134.963L130.688 19.1468L135 24.3385H131.094Z" fill="#006C6E"/>
<path d="M110.421 11.0693C110.421 12.1938 109.522 13.1053 108.412 13.1053C107.303 13.1053 106.404 12.1938 106.404 11.0693C106.404 9.94487 107.303 9.03332 108.412 9.03332C109.522 9.03332 110.421 9.94487 110.421 11.0693Z" fill="#1E90FF"/>
<defs>
<linearGradient id="paint0_linear_1361_9642" x1="67.5001" y1="31" x2="67.5001" y2="5.17367e-05" gradientUnits="userSpaceOnUse">
<stop stop-color="#006C6E"/>
<stop offset="1" stop-color="#00B3B5"/>
</linearGradient>
<linearGradient id="paint1_linear_1361_9642" x1="-8.69002e-05" y1="15.5001" x2="135" y2="15.5001" gradientUnits="userSpaceOnUse">
<stop stop-color="#006C6E"/>
<stop offset="1" stop-color="#00B3B5"/>
</linearGradient>
<linearGradient id="paint2_linear_1361_9642" x1="67.4998" y1="31" x2="67.4998" y2="-1.29342e-05" gradientUnits="userSpaceOnUse">
<stop stop-color="#00B3B5"/>
<stop offset="1" stop-color="#006C6E"/>
</linearGradient>
<linearGradient id="paint3_linear_1361_9642" x1="67.3838" y1="30.9889" x2="70.2471" y2="0.169902" gradientUnits="userSpaceOnUse">
<stop stop-color="#00929E" stop-opacity="0"/>
<stop offset="1" stop-color="#00B3B5"/>
</linearGradient>
<linearGradient id="paint4_linear_1361_9642" x1="28.3339" y1="18.5621" x2="31.1198" y2="6.66796" gradientUnits="userSpaceOnUse">
<stop stop-color="#00B3B5"/>
<stop offset="1" stop-color="#00929E" stop-opacity="0"/>
</linearGradient>
<linearGradient id="paint5_linear_1361_9642" x1="90.6835" y1="20.7332" x2="88.3789" y2="10.5238" gradientUnits="userSpaceOnUse">
<stop stop-color="#00B3B5"/>
<stop offset="1" stop-color="#00929E" stop-opacity="0"/>
</linearGradient>
</defs>
</svg>
