<svg width="81" height="72" viewBox="0 0 81 72" fill="none" xmlns="http://www.w3.org/2000/svg">
<path d="M81 69.4702C76.9786 69.973 73.2456 72.4553 69.2275 71.9265C65.2094 71.3978 61.1866 69.7125 58.6617 66.5482C56.823 64.2441 55.906 61.3354 55.3981 58.4336C54.8903 55.5319 54.754 52.576 54.2733 49.6696C53.2707 43.6086 52.0924 37.588 47.2228 33.8313C50.288 34.536 51.9465 34.699 55.004 35.4369C58.0615 36.1748 61.1237 37.6077 62.8924 40.204C64.9681 43.2507 64.8678 47.207 65.4752 50.8411C66.9707 59.7869 72.4846 66.3059 81 69.4702Z" fill="#003E56"/>
<path d="M0 70.5615C1.57445 66.834 5.08243 63.3811 7.55018 60.1723C10.018 56.9635 13.4917 54.3289 17.4996 53.7284C20.4182 53.2912 23.4005 53.9529 26.1722 54.9648C28.9438 55.9766 31.5766 57.3368 34.3388 58.3744C40.099 60.5382 45.0648 59.6204 50.7592 57.2895C49.522 60.3725 47.6542 63.6757 45.4852 65.9496C43.3162 68.2234 41.3793 70.3267 38.2422 70.5575C34.5609 70.8283 31.1782 68.7634 27.7213 67.4715C19.2117 64.2913 7.00322 64.783 0 70.5615Z" fill="#003E56"/>
<path d="M39.5531 0C42.0001 3.22471 47.0373 8.9984 48.5876 12.736C50.1378 16.4736 50.6869 20.7934 49.2039 24.5581C48.124 27.2995 46.0587 29.5465 43.7949 31.4364C41.5311 33.3262 39.0346 34.922 36.7533 36.7907C31.9957 40.6877 26.5138 44.4241 25.6891 50.5116C24.768 47.5097 24.9273 46.2871 24.0388 43.2753C23.1502 40.2634 22.8625 36.9001 24.2308 34.0731C25.8365 30.7555 29.3194 28.8641 32.1689 26.5219C39.1829 20.7566 41.0653 8.94285 39.5531 0Z" fill="#003E56"/>
<path d="M81 69.4702C76.9786 69.973 71.6415 70.8543 67.6234 70.3255C63.6054 69.7967 59.5826 68.1114 57.0576 64.9472C55.2189 62.643 54.3019 59.7343 53.7942 56.8326C53.2863 53.9308 53.15 50.975 52.6693 48.0685C51.6668 42.0075 48.9746 35.987 44.1049 32.2302C47.1702 32.935 50.3425 33.098 53.4 33.8359C56.4575 34.5738 59.5197 36.0066 61.2885 38.6029C63.3641 41.6497 63.2638 45.606 63.8712 49.2401C65.3666 58.1859 72.4846 66.3059 81 69.4702Z" fill="url(#paint0_linear_1344_2920)"/>
<path d="M0 70.5615C1.57445 66.834 3.47836 61.7801 5.94611 58.5712C8.41397 55.3624 11.8875 52.7279 15.8955 52.1274C18.8141 51.6901 21.7965 52.3518 24.5681 53.3637C27.3397 54.3756 29.9726 55.7357 32.7347 56.7733C38.4949 58.9372 45.0648 59.6204 50.7592 57.2895C48.615 59.5867 46.8875 62.2473 44.7185 64.5213C42.5495 66.7952 39.7752 68.7256 36.6382 68.9564C32.9568 69.2272 29.5742 67.1623 26.1173 65.8704C17.6077 62.6903 7.00322 64.783 0 70.5615Z" fill="url(#paint1_linear_1344_2920)"/>
<path d="M39.5531 0C42.0001 3.22471 45.4332 7.39735 46.9835 11.1349C48.5338 14.8725 49.0828 19.1924 47.5998 22.957C46.52 25.6984 44.4546 27.9454 42.1909 29.8353C39.9271 31.7252 37.4305 33.3209 35.1492 35.1896C30.3917 39.0867 26.5138 44.424 25.6891 50.5116C24.768 47.5097 23.3232 44.6862 22.4347 41.6744C21.5462 38.6625 21.2584 35.2992 22.6267 32.4721C24.2324 29.1546 27.7153 27.2632 30.5648 24.9209C37.5788 19.1555 41.0653 8.94285 39.5531 0Z" fill="url(#paint2_linear_1344_2920)"/>
<path d="M9.23289 60.7196C9.23289 60.7196 18.5366 51.7991 33.0802 61.276Z" fill="url(#paint3_linear_1344_2920)"/>
<path d="M69.6754 67.1746C69.6754 67.1746 57.1762 63.9862 57.5777 46.6549Z" fill="url(#paint4_linear_1344_2920)"/>
<path d="M42.7966 16.6496C42.7966 16.6496 42.9496 29.5253 26.0745 33.6284Z" fill="url(#paint5_linear_1344_2920)"/>
<defs>
<linearGradient id="paint0_linear_1344_2920" x1="40.5" y1="72" x2="40.5" y2="0.000120163" gradientUnits="userSpaceOnUse">
<stop stop-color="#006C6E"/>
<stop offset="1" stop-color="#00B3B5"/>
</linearGradient>
<linearGradient id="paint1_linear_1344_2920" x1="-5.21401e-05" y1="36.0002" x2="80.9999" y2="36.0002" gradientUnits="userSpaceOnUse">
<stop stop-color="#006C6E"/>
<stop offset="1" stop-color="#00B3B5"/>
</linearGradient>
<linearGradient id="paint2_linear_1344_2920" x1="40.4999" y1="72" x2="40.4999" y2="-3.00408e-05" gradientUnits="userSpaceOnUse">
<stop stop-color="#00B3B5"/>
<stop offset="1" stop-color="#006C6E"/>
</linearGradient>
<linearGradient id="paint3_linear_1344_2920" x1="40.4303" y1="71.9742" x2="63.4219" y2="8.0456" gradientUnits="userSpaceOnUse">
<stop stop-color="#00929E" stop-opacity="0"/>
<stop offset="1" stop-color="#00B3B5"/>
</linearGradient>
<linearGradient id="paint4_linear_1344_2920" x1="17.0003" y1="43.112" x2="31.5011" y2="27.1191" gradientUnits="userSpaceOnUse">
<stop stop-color="#00B3B5"/>
<stop offset="1" stop-color="#00929E" stop-opacity="0"/>
</linearGradient>
<linearGradient id="paint5_linear_1344_2920" x1="37.3073" y1="28.0053" x2="34.3689" y2="25.0614" gradientUnits="userSpaceOnUse">
<stop stop-color="#00B3B5"/>
<stop offset="1" stop-color="#00929E" stop-opacity="0"/>
</linearGradient>
</defs>
</svg>
