<svg width="35" height="31" viewBox="0 0 35 31" fill="none" xmlns="http://www.w3.org/2000/svg">
<path d="M35 29.9108C33.2624 30.1272 31.6493 31.196 29.9131 30.9684C28.1769 30.7407 26.4387 30.0151 25.3476 28.6527C24.5532 27.6606 24.1569 26.4083 23.9375 25.1589C23.718 23.9096 23.6591 22.6369 23.4514 21.3855C23.0182 18.7759 22.5091 16.1837 20.4049 14.5663C21.7294 14.8697 22.446 14.9398 23.7671 15.2576C25.0883 15.5753 26.4115 16.1922 27.1757 17.31C28.0726 18.6218 28.0293 20.3253 28.2917 21.8899C28.9379 25.7416 31.3205 28.5484 35 29.9108Z" fill="#003E56"/>
<path d="M0 30.3806C0.680317 28.7758 2.19611 27.2891 3.26243 25.9075C4.32879 24.5259 5.82976 23.3916 7.56156 23.1331C8.82266 22.9448 10.1113 23.2297 11.309 23.6654C12.5066 24.101 13.6442 24.6867 14.8377 25.1334C17.3267 26.0651 19.4724 25.6699 21.933 24.6663C21.3984 25.9937 20.5913 27.4159 19.6541 28.395C18.7169 29.374 17.8799 30.2795 16.5244 30.3789C14.9337 30.4955 13.4721 29.6065 11.9784 29.0502C8.30137 27.681 3.02608 27.8927 0 30.3806Z" fill="#003E56"/>
<path d="M17.0909 0C18.1482 1.38842 20.3248 3.87431 20.9946 5.48355C21.6645 7.0928 21.9017 8.95272 21.2609 10.5736C20.7943 11.7539 19.9019 12.7214 18.9237 13.5351C17.9455 14.3488 16.8668 15.0358 15.881 15.8404C13.8253 17.5183 11.4566 19.1271 11.1002 21.7481C10.7022 20.4556 10.771 19.9292 10.3871 18.6324C10.0032 17.3356 9.87886 15.8876 10.4701 14.6703C11.1639 13.242 12.6689 12.4276 13.9001 11.4191C16.9309 8.93686 17.7442 3.85039 17.0909 0Z" fill="#003E56"/>
<path d="M35 29.9108C33.2624 30.1272 30.9562 30.5067 29.22 30.279C27.4838 30.0514 25.7455 29.3258 24.6545 27.9634C23.86 26.9713 23.4638 25.7189 23.2444 24.4696C23.0249 23.2202 22.9661 21.9476 22.7583 20.6962C22.3251 18.0866 21.1619 15.4944 19.0577 13.8769C20.3822 14.1803 21.7529 14.2505 23.0741 14.5682C24.3952 14.8859 25.7184 15.5029 26.4827 16.6207C27.3796 17.9325 27.3362 19.6359 27.5987 21.2006C28.2448 25.0523 31.3205 28.5484 35 29.9108Z" fill="url(#paint0_linear_1356_9641)"/>
<path d="M0 30.3806C0.680317 28.7758 1.50299 26.5998 2.56931 25.2182C3.63567 23.8366 5.13659 22.7023 6.86844 22.4437C8.12954 22.2555 9.41822 22.5404 10.6158 22.976C11.8134 23.4117 12.9511 23.9973 14.1446 24.4441C16.6336 25.3757 19.4724 25.6699 21.933 24.6663C21.0065 25.6554 20.26 26.8009 19.3228 27.78C18.3856 28.759 17.1868 29.5902 15.8313 29.6896C14.2406 29.8062 12.779 28.9171 11.2852 28.3609C7.60825 26.9917 3.02608 27.8927 0 30.3806Z" fill="url(#paint1_linear_1356_9641)"/>
<path d="M17.0909 0C18.1482 1.38842 19.6316 3.18497 20.3015 4.79421C20.9714 6.40345 21.2086 8.26338 20.5678 9.88428C20.1012 11.0646 19.2088 12.0321 18.2306 12.8458C17.2525 13.6595 16.1737 14.3465 15.1879 15.1511C13.1322 16.829 11.4566 19.127 11.1002 21.7481C10.7022 20.4556 10.0779 19.2399 9.694 17.9431C9.31008 16.6464 9.18574 15.1983 9.77697 13.9811C10.4708 12.5527 11.9758 11.7383 13.207 10.7299C16.2378 8.24752 17.7442 3.85039 17.0909 0Z" fill="url(#paint2_linear_1356_9641)"/>
<path d="M3.98952 26.1432C3.98952 26.1432 8.00963 22.3024 14.2939 26.3827Z" fill="url(#paint3_linear_1356_9641)"/>
<path d="M30.1067 28.9224C30.1067 28.9224 24.7058 27.5496 24.8792 20.0875Z" fill="url(#paint4_linear_1356_9641)"/>
<path d="M18.4924 7.16857C18.4924 7.16857 18.5585 12.7123 11.2667 14.4789Z" fill="url(#paint5_linear_1356_9641)"/>
<defs>
<linearGradient id="paint0_linear_1356_9641" x1="17.5" y1="31" x2="17.5" y2="5.17367e-05" gradientUnits="userSpaceOnUse">
<stop stop-color="#006C6E"/>
<stop offset="1" stop-color="#00B3B5"/>
</linearGradient>
<linearGradient id="paint1_linear_1356_9641" x1="-2.25297e-05" y1="15.5001" x2="34.9999" y2="15.5001" gradientUnits="userSpaceOnUse">
<stop stop-color="#006C6E"/>
<stop offset="1" stop-color="#00B3B5"/>
</linearGradient>
<linearGradient id="paint2_linear_1356_9641" x1="17.4999" y1="31" x2="17.4999" y2="-1.29342e-05" gradientUnits="userSpaceOnUse">
<stop stop-color="#00B3B5"/>
<stop offset="1" stop-color="#006C6E"/>
</linearGradient>
<linearGradient id="paint3_linear_1356_9641" x1="17.4699" y1="30.9889" x2="27.3418" y2="3.44158" gradientUnits="userSpaceOnUse">
<stop stop-color="#00929E" stop-opacity="0"/>
<stop offset="1" stop-color="#00B3B5"/>
</linearGradient>
<linearGradient id="paint4_linear_1356_9641" x1="7.34581" y1="18.5621" x2="13.587" y2="11.654" gradientUnits="userSpaceOnUse">
<stop stop-color="#00B3B5"/>
<stop offset="1" stop-color="#00929E" stop-opacity="0"/>
</linearGradient>
<linearGradient id="paint5_linear_1356_9641" x1="16.1204" y1="12.0578" x2="14.8553" y2="10.7858" gradientUnits="userSpaceOnUse">
<stop stop-color="#00B3B5"/>
<stop offset="1" stop-color="#00929E" stop-opacity="0"/>
</linearGradient>
</defs>
</svg>
