<svg width="121" height="116" viewBox="0 0 121 116" fill="none" xmlns="http://www.w3.org/2000/svg">
<g clip-path="url(#clip0_941_16671)">
<path d="M91.4552 61.6696C95.7772 59.1488 101.537 58.622 105.7 61.396C100.502 63.0141 96.0461 66.4135 93.1199 70.9927C91.9977 72.7628 90.9345 74.848 88.9416 75.5082C87.7016 75.9189 86.3177 75.6657 85.1403 75.1006C83.963 74.5354 82.9536 73.6815 81.9585 72.8371L81.6406 72.7639C84.0453 68.3842 87.1331 64.1905 91.4552 61.6696Z" fill="#F0F0F0"/>
<path d="M105.652 61.4901C101.519 61.1775 97.3929 62.1714 93.8591 64.3305C93.0901 64.7819 92.3972 65.3513 91.8059 66.0178C91.251 66.6857 90.8856 67.4895 90.7476 68.3458C90.6028 69.1417 90.5471 69.9725 90.2109 70.7194C90.0331 71.0991 89.7768 71.4371 89.4588 71.7112C89.1408 71.9853 88.7683 72.1892 88.3658 72.3096C87.3705 72.6357 86.3172 72.5858 85.2888 72.5012C84.1469 72.4073 82.9624 72.2918 81.8691 72.7156C81.7366 72.7669 81.6645 72.5589 81.7967 72.5076C83.6989 71.7703 85.7392 72.603 87.6927 72.2522C88.6043 72.0885 89.4719 71.6499 89.9214 70.8086C90.3146 70.073 90.3727 69.2163 90.5123 68.4092C90.6347 67.5719 90.9608 66.7771 91.4621 66.0945C92.0174 65.4001 92.6871 64.805 93.4426 64.3347C95.1266 63.2488 96.9712 62.4337 98.909 61.9193C101.117 61.32 103.412 61.1018 105.694 61.2742C105.836 61.2849 105.792 61.5008 105.652 61.4901Z" fill="white"/>
<path d="M94.954 63.5685C94.6712 62.928 94.6259 62.2082 94.8262 61.5375C95.0265 60.8669 95.4593 60.289 96.0474 59.9072C96.1667 59.8304 96.292 60.0116 96.1726 60.0885C95.6243 60.4431 95.2212 60.9813 95.0359 61.6063C94.8507 62.2312 94.8956 62.9015 95.1624 63.4963C95.2203 63.6257 95.0115 63.6971 94.954 63.5685Z" fill="white"/>
<path d="M90.7685 67.9326C92.1009 68.4627 93.5846 68.4725 94.9238 67.96C95.0565 67.9092 95.1287 68.1171 94.9962 68.168C93.6015 68.6986 92.0575 68.6853 90.6723 68.1307C90.5403 68.0777 90.6372 67.88 90.7685 67.9326Z" fill="white"/>
<path d="M101.077 61.6088C101.135 61.8793 101.259 62.1314 101.438 62.3423C101.618 62.5532 101.847 62.7163 102.105 62.817C102.238 62.8683 102.14 63.066 102.009 63.0151C101.724 62.9024 101.471 62.722 101.272 62.4894C101.073 62.2568 100.935 61.9793 100.868 61.681C100.86 61.6534 100.862 61.6235 100.875 61.5975C100.887 61.5715 100.909 61.5513 100.937 61.5409C100.964 61.5315 100.994 61.5334 101.021 61.5461C101.047 61.5588 101.067 61.5813 101.077 61.6088Z" fill="white"/>
<path d="M107.424 78.2143C107.341 78.1847 107.257 78.155 107.172 78.1264C106.044 77.7335 104.886 77.4325 103.71 77.2266C103.619 77.2092 103.527 77.193 103.436 77.1782C100.597 76.7121 97.695 76.7758 94.8788 77.3661C93.7584 77.602 92.6576 77.9226 91.5859 78.325C90.106 78.8809 88.5457 79.6011 87.0131 79.6359C86.8533 79.6413 86.6932 79.6369 86.5339 79.6226L81.5746 73.1563C81.5707 73.1359 81.5653 73.1166 81.5614 73.0962L81.3516 72.8471C81.4054 72.8225 81.4617 72.7981 81.5155 72.7735C81.5467 72.7591 81.579 72.7461 81.6101 72.7317C81.6312 72.7226 81.6524 72.7135 81.671 72.7041C81.678 72.701 81.6851 72.698 81.6906 72.696C81.7091 72.6866 81.7274 72.6798 81.7444 72.6714C82.059 72.5344 82.3751 72.3993 82.6927 72.2661C82.6942 72.265 82.6942 72.265 82.6968 72.2653C85.1194 71.257 87.6477 70.4415 90.2198 70.0347C90.2971 70.0225 90.376 70.0091 90.4556 69.9998C91.616 69.8228 92.7889 69.7408 93.9627 69.7544C94.6054 69.7639 95.2473 69.8058 95.8857 69.8801C97.535 70.075 99.1433 70.5275 100.652 71.2209C103.658 72.6035 106.188 74.9297 107.339 77.9804C107.368 78.0584 107.397 78.1351 107.424 78.2143Z" fill="#F0F0F0"/>
<path d="M107.333 78.2626C104.222 75.5317 100.328 73.8478 96.2025 73.45C95.316 73.3486 94.419 73.3873 93.5445 73.5645C92.6983 73.7645 91.9212 74.1869 91.294 74.7878C90.6979 75.3363 90.1519 75.9662 89.4325 76.3607C89.0613 76.5571 88.6526 76.6731 88.2332 76.701C87.8139 76.7289 87.3933 76.6681 86.9992 76.5226C86.0077 76.1854 85.1968 75.513 84.4267 74.828C83.5717 74.0675 82.6957 73.264 81.5669 72.9459C81.4301 72.9074 81.4981 72.698 81.6346 72.7365C83.5985 73.2899 84.7249 75.1797 86.4965 76.0726C87.3231 76.4892 88.2807 76.6599 89.1475 76.2581C89.9055 75.9068 90.4691 75.2577 91.0679 74.6971C91.6711 74.102 92.4112 73.6633 93.2237 73.4192C94.0863 73.1982 94.9803 73.1251 95.8675 73.2032C97.8675 73.3473 99.8325 73.8041 101.69 74.5568C103.815 75.4042 105.779 76.6079 107.497 78.1158C107.604 78.2092 107.439 78.3553 107.333 78.2626Z" fill="white"/>
<path d="M97.5345 73.5001C97.6954 72.819 98.0938 72.217 98.6586 71.8018C99.2235 71.3866 99.9179 71.1851 100.618 71.2333C100.647 71.2355 100.673 71.2487 100.692 71.2701C100.711 71.2915 100.721 71.3193 100.72 71.3479C100.718 71.3764 100.706 71.4033 100.685 71.423C100.665 71.4426 100.637 71.4535 100.608 71.4532C99.9567 71.4071 99.3098 71.5949 98.7846 71.9826C98.2595 72.3703 97.8906 72.9325 97.7445 73.5677C97.7126 73.7057 97.5028 73.6373 97.5345 73.5001Z" fill="white"/>
<path d="M91.5563 74.4699C92.3001 75.6931 93.4788 76.5918 94.8575 76.9867C94.9942 77.0258 94.9262 77.2351 94.7898 77.1962C93.3559 76.7825 92.1311 75.8448 91.3599 74.5703C91.2865 74.4487 91.4833 74.3491 91.5563 74.4699Z" fill="white"/>
<path d="M103.606 75.6098C103.488 75.8604 103.435 76.1362 103.451 76.4123C103.467 76.6884 103.552 76.9563 103.697 77.1918C103.772 77.3124 103.575 77.4119 103.501 77.2921C103.341 77.0312 103.248 76.7352 103.23 76.4302C103.212 76.1252 103.268 75.8203 103.396 75.5423C103.405 75.5151 103.425 75.4926 103.451 75.4794C103.477 75.4662 103.507 75.4633 103.534 75.4713C103.562 75.4804 103.585 75.5001 103.599 75.526C103.612 75.5519 103.614 75.5821 103.606 75.6098Z" fill="white"/>
<path d="M7.29868 101.128C7.80576 96.1603 10.7753 91.2109 15.4767 89.4935C13.7223 94.6339 13.8477 100.228 15.8307 105.285C16.6025 107.232 17.6644 109.318 17.0238 111.313C16.6253 112.553 15.6041 113.519 14.4522 114.134C13.3003 114.749 12.0135 115.058 10.7428 115.362L10.4962 115.575C8.36723 111.055 6.79161 106.095 7.29868 101.128Z" fill="#F0F0F0"/>
<path d="M15.5232 89.5861C12.8332 92.7302 11.2049 96.6396 10.8697 100.759C10.7818 101.645 10.8344 102.538 11.0255 103.408C11.2392 104.248 11.6747 105.017 12.2868 105.633C12.846 106.219 13.486 106.754 13.8926 107.465C14.0953 107.832 14.2179 108.238 14.2523 108.655C14.2868 109.073 14.2323 109.493 14.0924 109.889C13.7697 110.882 13.1081 111.701 12.4332 112.48C11.6838 113.344 10.8917 114.23 10.5903 115.361C10.5537 115.498 10.3427 115.433 10.3792 115.296C10.9038 113.329 12.7812 112.177 13.649 110.397C14.054 109.566 14.2104 108.609 13.7941 107.751C13.4302 107 12.7707 106.448 12.1994 105.86C11.5934 105.267 11.1421 104.536 10.8848 103.73C10.6499 102.873 10.5629 101.983 10.6275 101.097C10.7411 99.1004 11.1687 97.134 11.8948 95.2699C12.7116 93.1378 13.8882 91.1608 15.3735 89.4244C15.4655 89.3169 15.6145 89.4794 15.5232 89.5861Z" fill="white"/>
<path d="M10.9027 99.4263C10.2173 99.2764 9.60761 98.8884 9.18257 98.3316C8.75753 97.7748 8.5448 97.0854 8.58237 96.3866C8.58423 96.3582 8.59707 96.3316 8.61819 96.3124C8.63931 96.2932 8.66707 96.2829 8.69563 96.2837C8.72419 96.2845 8.75134 96.2963 8.77136 96.3166C8.79139 96.3369 8.80274 96.3642 8.80302 96.3927C8.76683 97.0434 8.96506 97.6855 9.36191 98.2032C9.75877 98.7208 10.3281 99.08 10.9672 99.2158C11.1061 99.2455 11.0408 99.4558 10.9027 99.4263Z" fill="white"/>
<path d="M11.9676 105.373C13.1825 104.612 14.0653 103.423 14.44 102.042C14.477 101.906 14.688 101.97 14.6511 102.107C14.2584 103.543 13.3372 104.779 12.0712 105.567C11.9504 105.642 11.8475 105.448 11.9676 105.373Z" fill="white"/>
<path d="M12.923 93.3417C13.1761 93.4548 13.4534 93.5035 13.73 93.4833C14.0066 93.4631 14.2738 93.3747 14.5077 93.2261C14.6274 93.1495 14.7303 93.3443 14.6113 93.4204C14.3522 93.5834 14.0569 93.6807 13.7513 93.7036C13.4458 93.7266 13.1392 93.6746 12.8585 93.5521C12.8311 93.5428 12.8082 93.5234 12.7946 93.4979C12.781 93.4724 12.7776 93.4427 12.7852 93.4148C12.7939 93.3869 12.8132 93.3636 12.839 93.35C12.8648 93.3363 12.895 93.3333 12.923 93.3417Z" fill="white"/>
<path d="M30.1157 98.0208C30.0423 98.0708 29.9689 98.1207 29.8955 98.1725C28.9124 98.8489 27.986 99.6039 27.1255 100.43C27.058 100.493 26.9905 100.557 26.9249 100.622C24.873 102.634 23.2136 105.009 22.031 107.625C21.5613 108.667 21.1718 109.742 20.8658 110.843C20.4434 112.363 20.1065 114.044 19.231 115.299C19.1411 115.431 19.0432 115.557 18.9376 115.677L10.7765 115.858C10.7577 115.849 10.7389 115.842 10.72 115.834L10.3945 115.856C10.4063 115.798 10.4198 115.738 10.4316 115.68C10.4383 115.647 10.4469 115.613 10.4536 115.579C10.4586 115.557 10.4638 115.535 10.467 115.514C10.4687 115.507 10.4704 115.499 10.4721 115.494C10.4754 115.473 10.4806 115.454 10.4839 115.436C10.5584 115.102 10.6354 114.767 10.7149 114.433C10.7148 114.431 10.7148 114.431 10.7166 114.429C11.3286 111.883 12.159 109.366 13.3462 107.055C13.382 106.985 13.4176 106.914 13.457 106.844C13.998 105.805 14.6231 104.812 15.3263 103.875C15.713 103.363 16.1254 102.87 16.562 102.4C17.6925 101.187 19.0073 100.158 20.4582 99.352C23.3509 97.7457 26.7265 97.0799 29.8757 97.9519C29.9563 97.9742 30.0351 97.9966 30.1157 98.0208Z" fill="#F0F0F0"/>
<path d="M30.1015 98.1245C26.0555 99.0198 22.3953 101.164 19.6406 104.252C19.0358 104.906 18.5381 105.651 18.166 106.46C17.829 107.259 17.7128 108.134 17.8296 108.994C17.9224 109.797 18.1105 110.609 18.0058 111.421C17.946 111.835 17.7989 112.233 17.5742 112.587C17.3495 112.941 17.0523 113.244 16.702 113.476C15.8443 114.076 14.8216 114.332 13.8128 114.549C12.6927 114.789 11.5254 115.021 10.6022 115.742C10.4903 115.83 10.3608 115.651 10.4725 115.564C12.0787 114.309 14.2734 114.516 16.0412 113.615C16.866 113.195 17.5689 112.525 17.7547 111.59C17.9171 110.772 17.7238 109.935 17.6228 109.122C17.4966 108.286 17.5777 107.431 17.8592 106.633C18.1888 105.807 18.6568 105.044 19.2432 104.376C20.5393 102.85 22.0679 101.537 23.773 100.484C25.7124 99.2723 27.8454 98.4001 30.0797 97.9055C30.218 97.875 30.2389 98.0942 30.1015 98.1245Z" fill="white"/>
<path d="M20.4665 103.205C20.0097 102.674 19.7572 101.998 19.7539 101.298C19.7507 100.598 19.997 99.9204 20.4489 99.385C20.5407 99.277 20.7133 99.4142 20.6214 99.5223C20.1997 100.02 19.9703 100.652 19.9747 101.303C19.979 101.955 20.2167 102.584 20.645 103.076C20.738 103.183 20.5589 103.312 20.4665 103.205Z" fill="white"/>
<path d="M17.7265 108.593C19.1557 108.715 20.5785 108.295 21.7114 107.418C21.8235 107.331 21.9531 107.509 21.841 107.596C20.6605 108.507 19.1789 108.94 17.6919 108.81C17.5502 108.797 17.5855 108.58 17.7265 108.593Z" fill="white"/>
<path d="M25.7529 99.5607C25.8867 99.803 26.0787 100.008 26.3118 100.158C26.5448 100.308 26.8115 100.398 27.088 100.42C27.2298 100.431 27.1943 100.648 27.0534 100.637C26.7481 100.612 26.4536 100.512 26.1958 100.347C25.938 100.182 25.7246 99.9564 25.5744 99.6901C25.5581 99.6661 25.5516 99.6369 25.5561 99.6084C25.5606 99.5798 25.5759 99.5541 25.5988 99.5364C25.6225 99.5194 25.652 99.5124 25.6809 99.5169C25.7097 99.5215 25.7356 99.5372 25.7529 99.5607Z" fill="white"/>
<path d="M70.1965 13.6535L26.2637 9.34402C25.7547 9.29133 25.2629 9.13121 24.8208 8.87429C24.3647 8.60961 23.9604 8.26477 23.6275 7.85646C22.9118 6.98365 22.5192 5.89178 22.5156 4.76432C22.5152 4.48971 22.5397 4.21562 22.5888 3.94541C22.6359 3.68659 22.7078 3.43288 22.8036 3.18779C22.8963 2.95066 23.0131 2.72362 23.1522 2.51023C23.2891 2.30057 23.4482 2.10628 23.627 1.93073C23.8008 1.75973 23.9935 1.60888 24.2014 1.48106C24.606 1.2323 25.0634 1.08148 25.5369 1.04068C25.779 1.01998 26.0226 1.02621 26.2633 1.05926L70.1965 6.98573C70.5318 7.0354 70.8494 7.16802 71.1201 7.3715C71.4166 7.59341 71.6702 7.86732 71.8683 8.17983C72.089 8.52405 72.2579 8.89871 72.3696 9.29183C72.4914 9.71522 72.5531 10.1536 72.5529 10.594C72.5532 10.8087 72.5382 11.023 72.5082 11.2356C72.4797 11.4381 72.4357 11.6381 72.3767 11.834C72.3207 12.0205 72.2489 12.2019 72.1623 12.3764C72.0797 12.543 71.9813 12.7014 71.8686 12.8494C71.7633 12.9882 71.6431 13.1151 71.5101 13.2278C71.3868 13.3322 71.2508 13.4208 71.1054 13.4915C70.8234 13.6287 70.5085 13.6848 70.1963 13.6533L70.1965 13.6535Z" fill="#E4E4E4"/>
<path d="M50.6696 11.7382L26.2637 9.34402C25.7547 9.29133 25.2629 9.13121 24.8208 8.87429C24.3647 8.60961 23.9604 8.26477 23.6275 7.85646C22.9118 6.98365 22.5192 5.89178 22.5156 4.76432C22.5152 4.48971 22.5397 4.21562 22.5888 3.94541C22.6359 3.68658 22.7078 3.43288 22.8036 3.18779C22.8963 2.95066 23.0131 2.72362 23.1522 2.51023C23.2891 2.30057 23.4482 2.10627 23.627 1.93073C23.8008 1.75972 23.9935 1.60888 24.2014 1.48106C24.606 1.2323 25.0634 1.08148 25.5369 1.04068C25.779 1.01998 26.0226 1.02621 26.2633 1.05925L50.6691 4.35217L50.6696 11.7382Z" fill="#1E90FF"/>
<path d="M50.6073 12.2822C50.4944 12.2704 50.3859 12.2323 50.2906 12.1707C50.1902 12.1061 50.1026 12.0234 50.0325 11.9269C49.9562 11.8225 49.8971 11.7067 49.8574 11.5838C49.8148 11.4529 49.793 11.3162 49.793 11.1785V4.70637C49.7922 4.57367 49.8139 4.44179 49.8572 4.31632C49.8955 4.20535 49.955 4.10285 50.0325 4.0145C50.103 3.93322 50.1917 3.8696 50.2914 3.82877C50.3919 3.78902 50.501 3.77622 50.608 3.79162C50.721 3.80828 50.8287 3.8506 50.9228 3.91532C51.0226 3.98422 51.1093 4.0704 51.1787 4.16978C51.2539 4.27599 51.3122 4.39315 51.3515 4.51711C51.3934 4.64783 51.4148 4.78422 51.4148 4.92145V11.3414C51.4156 11.474 51.3942 11.6059 51.3515 11.7315C51.3136 11.8436 51.255 11.9477 51.1787 12.0383C51.1089 12.1214 51.0211 12.1878 50.922 12.2324C50.8232 12.2758 50.7147 12.2929 50.6073 12.2822Z" fill="#3F3D56"/>
<path d="M11.5668 6.96957C11.5233 6.96513 11.4802 6.95774 11.4377 6.94746C11.3942 6.93691 11.3515 6.9235 11.3097 6.90734C11.2668 6.89075 11.225 6.87146 11.1846 6.84958C11.1427 6.82694 11.1023 6.80176 11.0635 6.77417C10.8291 6.60759 10.6622 6.36282 10.5931 6.08416C10.5701 5.99149 10.5586 5.89638 10.5586 5.80092V0.940943C10.5583 0.848282 10.5698 0.755961 10.5931 0.666238C10.6149 0.581534 10.6484 0.500269 10.6927 0.424781C10.7796 0.277306 10.9088 0.159223 11.0637 0.0858125C11.1415 0.0486809 11.2244 0.0232086 11.3097 0.0102183C11.3949 -0.00261238 11.4814 -0.00336437 11.5668 0.00798784C11.6549 0.0197886 11.7412 0.043147 11.8232 0.0774547C11.9101 0.113779 11.9921 0.160561 12.0676 0.216757L15.9598 3.10031C16.0293 3.15193 16.093 3.21097 16.1497 3.27639C16.2621 3.40591 16.3453 3.5579 16.3939 3.72216C16.4182 3.80452 16.4335 3.88928 16.4395 3.97494C16.4395 3.98177 16.44 3.9886 16.4408 3.99537C16.4417 4.00216 16.4417 4.00902 16.4408 4.0158V4.05685C16.4411 4.14733 16.4301 4.23749 16.4081 4.32524C16.3872 4.40795 16.3552 4.48748 16.3131 4.56168C16.2721 4.63361 16.221 4.69929 16.1613 4.75671C16.1016 4.81436 16.0337 4.86293 15.9598 4.90084L12.0672 6.87726C12.0284 6.89692 11.9883 6.91374 11.9471 6.92759C11.9064 6.94128 11.8649 6.95202 11.8227 6.95972C11.7806 6.96739 11.738 6.97204 11.6953 6.97365C11.6524 6.97528 11.6094 6.97391 11.5668 6.96957Z" fill="#CACACA"/>
<path d="M70.2071 34.8153L26.2789 35.6415C25.7814 35.6507 25.2883 35.5477 24.8363 35.3404C24.383 35.1311 23.9771 34.8323 23.643 34.4621C23.292 34.0741 23.0166 33.6243 22.8308 33.1357C22.4314 32.0816 22.4314 30.9184 22.8308 29.8643C23.0166 29.3757 23.292 28.9258 23.643 28.5376C23.977 28.167 24.383 27.8679 24.8363 27.6582C25.2882 27.4506 25.7814 27.3473 26.2789 27.3562L70.2071 28.148C70.5345 28.1563 70.8536 28.2525 71.1307 28.4266C71.4266 28.613 71.6811 28.8578 71.8787 29.1459C72.1011 29.468 72.2704 29.8237 72.3799 30.1992C72.6242 31.0357 72.6242 31.9244 72.3799 32.7609C72.2704 33.1366 72.1011 33.4924 71.8787 33.8148C71.6813 34.1036 71.4268 34.3492 71.1307 34.5364C70.8536 34.7105 70.5345 34.8069 70.2071 34.8153Z" fill="#E4E4E4"/>
<path d="M43.4485 35.3187L26.2789 35.6415C25.7814 35.6507 25.2883 35.5477 24.8363 35.3404C24.383 35.1311 23.9771 34.8323 23.643 34.4621C23.292 34.0741 23.0166 33.6243 22.8307 33.1357C22.6315 32.6134 22.53 32.059 22.5313 31.5001C22.5311 31.2227 22.5556 30.9458 22.6045 30.6727C22.6522 30.4059 22.7241 30.144 22.8192 29.8902C22.9128 29.6405 23.0295 29.4 23.1679 29.1719C23.3052 28.9455 23.4641 28.7329 23.6424 28.5369C23.8159 28.3455 24.0084 28.1721 24.2168 28.0192C24.4172 27.8725 24.6326 27.7474 24.8593 27.6459C25.3053 27.4461 25.7901 27.3472 26.2789 27.3562L43.4485 27.6656V35.3187Z" fill="#1E90FF"/>
<path d="M43.6453 35.8029C43.528 35.8053 43.4119 35.7791 43.307 35.7267C43.2002 35.6728 43.1059 35.5973 43.0299 35.505C42.9478 35.4056 42.8843 35.2924 42.8424 35.1706C42.7964 35.0384 42.7731 34.8994 42.7734 34.7594V28.0618C42.773 27.9217 42.7963 27.7825 42.8424 27.6502C42.8843 27.5284 42.9478 27.4152 43.0299 27.3159C43.1059 27.2238 43.2003 27.1486 43.307 27.0948C43.4119 27.0424 43.528 27.0163 43.6453 27.0187C43.7632 27.0215 43.8788 27.0525 43.9824 27.1089C44.0885 27.1671 44.1819 27.2459 44.2571 27.3406C44.3378 27.4419 44.4004 27.5564 44.442 27.679C44.4872 27.8112 44.5101 27.95 44.5098 28.0896V34.7316C44.5101 34.8712 44.4872 35.01 44.442 35.1422C44.4004 35.2649 44.3379 35.3794 44.2571 35.4808C44.182 35.5757 44.0886 35.6545 43.9824 35.7128C43.8788 35.7692 43.7632 35.8001 43.6453 35.8029Z" fill="#3F3D56"/>
<path d="M11.5822 34.9851C11.4954 34.9864 11.4089 34.9755 11.3252 34.953C11.2825 34.9415 11.2407 34.9271 11.2 34.9099C11.1584 34.8922 11.118 34.8717 11.0791 34.8486C11.0013 34.8025 10.93 34.7463 10.8672 34.6814C10.805 34.6168 10.7516 34.5444 10.7083 34.466C10.6644 34.3863 10.6309 34.3015 10.6087 34.2134C10.5856 34.1223 10.5741 34.0287 10.5742 33.9348V29.0748C10.5741 28.9808 10.5856 28.8873 10.6087 28.7962C10.631 28.7082 10.6645 28.6234 10.7083 28.5439C10.7953 28.3856 10.9235 28.2535 11.0793 28.1615C11.1561 28.1153 11.2389 28.0799 11.3254 28.0562C11.4938 28.0107 11.6716 28.0132 11.8386 28.0634C11.9246 28.0893 12.0068 28.1266 12.0828 28.1743L15.9754 30.6026L15.9893 30.6116L16.0033 30.6207L16.0171 30.6299L16.0307 30.6394C16.0932 30.6845 16.1502 30.7366 16.2007 30.7947C16.2512 30.8526 16.2949 30.9159 16.3311 30.9836C16.3676 31.0521 16.3966 31.1244 16.4173 31.1992C16.4387 31.2761 16.4519 31.3551 16.4565 31.4347V31.5025C16.4566 31.5942 16.4456 31.6856 16.4237 31.7746C16.4024 31.8607 16.3705 31.9438 16.3287 32.022C16.2875 32.0991 16.2365 32.1706 16.1771 32.2347C16.117 32.2991 16.0487 32.3553 15.9739 32.4019L12.0828 34.8345C12.0443 34.8586 12.0043 34.8801 11.9629 34.8989C11.9225 34.9172 11.8809 34.9328 11.8385 34.9455C11.7967 34.958 11.7541 34.9676 11.7111 34.9743C11.6684 34.9809 11.6253 34.9845 11.5822 34.9851Z" fill="#CACACA"/>
<path d="M70.1966 55.9064L26.2637 61.8513C25.7865 61.9199 25.2998 61.8768 24.8422 61.7253C24.3846 61.5738 23.9687 61.318 23.6274 60.9783C23.2743 60.6281 22.9977 60.2088 22.815 59.7467C22.6139 59.2372 22.5123 58.6941 22.5157 58.1466C22.5193 57.019 22.9119 55.927 23.6276 55.0541C23.9605 54.6456 24.3648 54.3006 24.8209 54.0357C25.2629 53.7786 25.7548 53.6183 26.2637 53.5654L70.1966 49.2389C70.5144 49.207 70.8347 49.266 71.1202 49.409C71.415 49.5602 71.671 49.7771 71.8683 50.0427C72.0927 50.3425 72.2624 50.6793 72.3697 51.0377C72.4935 51.4461 72.5553 51.8706 72.553 52.2972C72.5532 52.7377 72.4915 53.176 72.3697 53.5994C72.258 53.9926 72.0891 54.3673 71.8683 54.7116C71.6702 55.0242 71.4167 55.2982 71.1202 55.5203C70.8495 55.7239 70.532 55.8566 70.1966 55.9064Z" fill="#E4E4E4"/>
<path d="M63.2887 56.841L26.2637 61.8511C25.7865 61.9198 25.2998 61.8766 24.8422 61.7251C24.3846 61.5736 23.9687 61.3178 23.6274 60.9781C23.2743 60.6279 22.9977 60.2086 22.815 59.7465C22.614 59.2373 22.5124 58.6944 22.5157 58.1471C22.5158 57.8669 22.5403 57.5873 22.5889 57.3113C22.7343 56.4821 23.0919 55.7044 23.627 55.0533C23.8006 54.842 23.9928 54.6466 24.2014 54.4696C24.4008 54.2999 24.6159 54.1496 24.8438 54.0206C25.0639 53.8963 25.2961 53.7945 25.5368 53.7168C25.7728 53.6407 26.0163 53.59 26.2632 53.5654L63.2887 49.919V56.841Z" fill="#1E90FF"/>
<path d="M11.5666 62.9072C11.5238 62.9128 11.4807 62.9155 11.4375 62.9152C11.3947 62.9149 11.352 62.9115 11.3097 62.9051C11.2244 62.8922 11.1415 62.8667 11.0637 62.8295C10.9087 62.7559 10.7794 62.6376 10.6927 62.4898C10.6484 62.4144 10.6149 62.3331 10.5931 62.2484C10.5699 62.159 10.5584 62.0671 10.5586 61.9748V57.1141C10.5586 57.0188 10.5702 56.9239 10.5931 56.8314C10.6623 56.5527 10.8293 56.3079 11.0637 56.1412C11.1398 56.0867 11.2225 56.042 11.3097 56.008C11.3922 55.9759 11.4787 55.955 11.5668 55.9458C11.6523 55.9369 11.7386 55.9402 11.8232 55.9555C11.9081 55.9709 11.9903 55.9986 12.0672 56.0377L15.9598 58.0127L15.9739 58.0199L15.9879 58.0275L16.0017 58.0353L16.0153 58.0433C16.0743 58.079 16.1287 58.1218 16.1773 58.1707C16.2257 58.2195 16.2681 58.2739 16.3036 58.3327C16.3398 58.3929 16.3691 58.457 16.3909 58.5238C16.4137 58.5936 16.4289 58.6657 16.4364 58.7387C16.4374 58.7484 16.4382 58.758 16.439 58.7677C16.4397 58.7773 16.4403 58.7871 16.4408 58.797C16.4408 58.8068 16.4412 58.8167 16.442 58.8266C16.4427 58.8365 16.4427 58.8465 16.442 58.8565C16.442 58.9494 16.4309 59.0421 16.4092 59.1325C16.3664 59.3121 16.2828 59.4795 16.1646 59.6217C16.1042 59.6934 16.0354 59.7577 15.9598 59.8132L12.0672 62.6982C12.0288 62.7267 11.9886 62.7529 11.9471 62.7766C11.9069 62.7995 11.8654 62.82 11.8227 62.8377C11.7812 62.855 11.7386 62.8696 11.6953 62.8814C11.653 62.8928 11.61 62.9015 11.5666 62.9072Z" fill="#CACACA"/>
<path d="M63.025 51.8687C63.296 51.8298 63.5723 51.8506 63.8343 51.9296C64.0964 52.0087 64.3379 52.1441 64.5418 52.3263C64.7457 52.5085 64.9071 52.7331 65.0146 52.9842C65.1221 53.2353 65.173 53.5069 65.1639 53.7798L71.3752 56.1641L68.5611 58.1691L63.0942 55.5976C62.6355 55.5519 62.2095 55.34 61.8971 55.002C61.5846 54.664 61.4073 54.2234 61.3988 53.7638C61.3902 53.3042 61.5511 52.8574 61.8508 52.5081C62.1505 52.1588 62.5683 51.9313 63.025 51.8687Z" fill="#FFB6B6"/>
<path d="M86.6082 50.6983L87.659 52.6035C87.4051 53.8119 86.7488 54.8992 85.7968 55.6885C84.188 57.0416 75.776 62.0812 75.776 62.0812L65.1562 56.7644L67.014 54.3025L75.3515 57.089L80.055 52.6597L86.6082 50.6983Z" fill="#3F3D56"/>
<path d="M87.5708 80.5738L86.4727 80.7802L93.0941 115.825L94.1923 115.619L87.5708 80.5738Z" fill="#CACACA"/>
<path d="M76.644 115.619L77.7422 115.825L84.3637 80.7802L83.2655 80.5738L76.644 115.619Z" fill="#CACACA"/>
<path d="M84.6552 82.2249C89.2325 82.2249 92.9432 81.0192 92.9432 79.5318C92.9432 78.0444 89.2325 76.8386 84.6552 76.8386C80.0778 76.8386 76.3672 78.0444 76.3672 79.5318C76.3672 81.0192 80.0778 82.2249 84.6552 82.2249Z" fill="#CACACA"/>
<path d="M67.0493 113.618L64.7659 113.617L63.6797 104.834L67.0496 104.835L67.0493 113.618Z" fill="#FFB6B6"/>
<path d="M67.632 115.825L60.2695 115.825V115.732C60.2696 114.974 60.5715 114.247 61.1089 113.711C61.6463 113.175 62.3752 112.874 63.1352 112.874L67.6321 112.874L67.632 115.825Z" fill="#2F2E41"/>
<path d="M78.1341 101.667L76.1396 102.776L70.9023 95.6315L73.846 93.9952L78.1341 101.667Z" fill="#FFB6B6"/>
<path d="M79.7216 103.312L73.2908 106.887L73.2454 106.806C72.8754 106.144 72.7842 105.362 72.9919 104.633C73.1997 103.904 73.6893 103.287 74.3531 102.918L78.281 100.735L79.7216 103.312Z" fill="#2F2E41"/>
<path d="M91.1005 72.9472C91.1005 72.9472 92.2077 76.368 85.4148 80.694L76.6664 89.3876L67.5763 111.072L62.1797 108.659L70.4788 86.5676L75.3319 78.0935L75.4727 73.4953L76.6664 70.2541L85.3269 67.1894L91.1005 72.9472Z" fill="#2F2E41"/>
<path d="M73.3398 101.525L64.3106 87.9491C63.8959 87.3244 63.7124 86.5752 63.7914 85.8302C63.8704 85.0852 64.2071 84.3909 64.7436 83.8665L73.8858 74.9483L75.4359 73.4025H78.9046L77.2781 79.3871L71.6354 85.7658L78.1585 97.2774L73.3398 101.525Z" fill="#2F2E41"/>
<path d="M79.9756 54.3471L82.6963 50.4641L88.913 49.9653C88.913 49.9653 94.2574 54.9868 93.2851 61.5989C92.3127 68.211 91.3815 74.7117 91.3815 74.7117C91.3815 74.7117 81.6966 67.8395 76.668 70.2541L79.9756 54.3471Z" fill="#3F3D56"/>
<path d="M78.1293 74.6048C78.1775 74.336 78.2842 74.081 78.4419 73.8578C78.5997 73.6346 78.8045 73.4486 79.0421 73.3129C79.2797 73.1772 79.5443 73.0951 79.8171 73.0724C80.09 73.0497 80.3645 73.087 80.6213 73.1815L84.8453 68.0523L85.8682 71.3471L81.7002 75.7127C81.5123 76.1325 81.1766 76.469 80.7566 76.6585C80.3365 76.8479 79.8614 76.8771 79.4213 76.7405C78.9811 76.6039 78.6065 76.3111 78.3683 75.9175C78.1302 75.5238 78.0452 75.0568 78.1293 74.6048Z" fill="#FFB6B6"/>
<path d="M83.4463 74.2715L81.5859 71.5916L86.8687 64.5673L84.1473 58.7517L84.3455 51.8341L86.5943 51.4199L86.6222 51.4338C87.7155 52.0614 88.5606 53.0431 89.0172 54.2159C89.5782 55.6145 90.8306 60.865 91.5272 63.8702C91.664 64.4525 91.6491 65.0601 91.4837 65.6351C91.3184 66.2101 91.0082 66.7332 90.5826 67.1547L83.4463 74.2715Z" fill="#3F3D56"/>
<path d="M88.1923 47.0656C89.403 45.0346 88.7334 42.4094 86.6968 41.202C84.6602 39.9947 82.0277 40.6624 80.8171 42.6935C79.6064 44.7245 80.276 47.3497 82.3126 48.557C84.3492 49.7644 86.9817 49.0966 88.1923 47.0656Z" fill="#FFB6B6"/>
<path d="M87.2423 43.3434C87.1969 43.9646 87.7812 46.2553 87.7812 46.2553C88.2094 45.537 87.5367 47.9242 87.5367 47.9242C94.5639 43.0393 89.0114 38.1316 86.8394 38.5679C86.8848 37.9466 85.1134 38.1927 85.1134 38.1927C84.4384 37.1445 82.9591 38.5359 82.9591 38.5359L83.2446 38.057C82.0961 38.3484 80.9609 41.8881 80.9609 41.8881C81.3504 43.4153 87.2876 42.7222 87.2423 43.3434Z" fill="#2F2E41"/>
<path d="M63.1257 57.3058C63.0315 57.3192 62.9354 57.3064 62.8481 57.2686C62.7595 57.229 62.6815 57.1691 62.6207 57.0936C62.5518 57.0092 62.4994 56.9126 62.4661 56.8089C62.4281 56.6905 62.4092 56.5668 62.4102 56.4425V50.3757C62.4099 50.2471 62.4287 50.1192 62.4661 49.9961C62.5007 49.8819 62.5529 49.7738 62.6207 49.6755C62.6815 49.586 62.7587 49.5087 62.8482 49.4476C62.9308 49.3912 63.0262 49.3562 63.1257 49.3457C63.2207 49.3364 63.3165 49.3533 63.4025 49.3945C63.4908 49.4378 63.568 49.5005 63.6282 49.578C63.6959 49.6644 63.7474 49.7622 63.7802 49.8668C63.8178 49.9851 63.8367 50.1085 63.8361 50.2325V56.2534C63.836 56.3817 63.8172 56.5092 63.7802 56.6321C63.7461 56.7471 63.6948 56.8564 63.6282 56.9564C63.5679 57.0479 63.4914 57.1278 63.4025 57.1923C63.3208 57.2518 63.2258 57.2907 63.1257 57.3058Z" fill="#3F3D56"/>
<path d="M120.778 116H0.221117C0.162414 116 0.106171 115.976 0.0647215 115.935C0.0232719 115.894 0 115.837 0 115.779C0 115.72 0.0232719 115.664 0.0647215 115.623C0.106171 115.581 0.162414 115.558 0.221117 115.558H120.778C120.836 115.558 120.893 115.581 120.934 115.622C120.976 115.664 120.999 115.72 120.999 115.779C120.999 115.838 120.976 115.894 120.934 115.935C120.893 115.977 120.836 116 120.778 116Z" fill="#CACACA"/>
</g>
<defs>
<clipPath id="clip0_941_16671">
<rect width="121" height="116" fill="white"/>
</clipPath>
</defs>
</svg>
