<svg width="357" height="253" viewBox="0 0 357 253" fill="none" xmlns="http://www.w3.org/2000/svg">
<g clip-path="url(#clip0_941_17492)">
<path opacity="0.1" d="M118.687 252.858C136.072 252.858 150.166 250.593 150.166 247.799C150.166 245.006 136.072 242.741 118.687 242.741C101.301 242.741 87.207 245.006 87.207 247.799C87.207 250.593 101.301 252.858 118.687 252.858Z" fill="#1E90FF"/>
<path opacity="0.1" d="M289.805 253C311.5 253 329.086 250.735 329.086 247.942C329.086 245.148 311.5 242.883 289.805 242.883C268.11 242.883 250.523 245.148 250.523 247.942C250.523 250.735 268.11 253 289.805 253Z" fill="#1E90FF"/>
<path opacity="0.1" d="M4.47276 109.314H37.2606V154.026H6.87313C6.79237 154.485 6.71483 154.947 6.63083 155.409H37.2606V191.468C37.2057 191.452 37.1573 191.432 37.1056 191.413C36.2398 191.07 35.3804 190.708 34.521 190.32L33.9718 190.072C33.1103 189.664 32.2488 189.233 31.3873 188.779C31.0869 188.62 30.7864 188.455 30.4892 188.287C25.7065 185.607 21.3616 182.21 17.6054 178.216C17.4955 178.109 17.3921 177.996 17.2823 177.893C16.7589 177.324 16.2453 176.748 15.7477 176.16L15.1985 175.514C14.6105 174.793 14.0419 174.053 13.4895 173.303C13.4087 173.193 13.3312 173.083 13.2472 172.98C11.0004 169.863 9.13491 166.488 7.69049 162.927C7.64526 162.821 7.60649 162.704 7.56449 162.604C7.12082 161.462 6.72775 160.309 6.3853 159.146C6.23669 158.657 6.09454 158.176 5.97178 157.668C5.92655 157.52 5.88778 157.374 5.85224 157.229C4.01723 150.063 3.80078 142.619 3.80078 135.227C3.80078 134.364 3.80078 133.498 3.80078 132.641C3.80078 129.651 3.83632 126.642 3.88801 123.636C3.88801 122.857 3.92031 122.082 3.93647 121.299C3.9817 119.315 4.04631 117.33 4.13031 115.346C4.14969 114.793 4.17554 114.243 4.20461 113.694C4.20461 113.377 4.22077 113.06 4.25307 112.744C4.33061 111.593 4.39522 110.452 4.47276 109.314Z" fill="#1E90FF"/>
<path opacity="0.1" d="M37.2585 59.5313H19.2734C22.197 54.9531 25.3913 50.5537 28.8394 46.3567C31.5111 43.0728 34.3315 39.8729 37.2585 36.7893V59.5313Z" fill="#1E90FF"/>
<path opacity="0.1" d="M37.2587 60.9147V107.931H4.57422C4.57422 107.795 4.59683 107.656 4.60652 107.52C4.6356 107.149 4.66468 106.777 4.69698 106.408C4.73252 105.975 4.77129 105.539 4.81329 105.116C4.85528 104.692 4.90051 104.175 4.94897 103.706C4.99743 103.238 5.04266 102.762 5.09758 102.294C5.15251 101.825 5.20096 101.356 5.25912 100.891C5.31727 100.426 5.36896 99.9537 5.43034 99.4882C5.4788 99.1004 5.53049 98.7157 5.58218 98.3279C5.65649 97.7816 5.73402 97.2321 5.81802 96.6891C5.81802 96.6083 5.84063 96.5243 5.85356 96.4467C6.44321 92.4716 7.24666 88.5311 8.26039 84.6426C9.32153 80.5634 10.6766 76.5666 12.3149 72.6833C14.0561 68.6209 16.0948 64.6928 18.4143 60.9309L37.2587 60.9147Z" fill="#1E90FF"/>
<path opacity="0.1" d="M45.0859 109.311V154.026H115.117V109.311H45.0859ZM45.0859 155.406V193.805C45.4865 193.889 45.8839 193.97 46.278 194.038C46.8143 194.141 47.3474 194.235 47.8934 194.316C47.9968 194.332 48.1034 194.348 48.2164 194.358C48.4297 194.393 48.6493 194.422 48.8626 194.451C49.4021 194.526 49.9384 194.587 50.4779 194.636C50.7331 194.661 50.9916 194.684 51.25 194.703L51.8735 194.752C52.2128 194.778 52.5487 194.797 52.8815 194.807C53.0883 194.807 53.295 194.826 53.5082 194.833C53.6698 194.833 53.8313 194.833 53.9993 194.833C54.1673 194.833 54.4064 194.833 54.6099 194.833C54.8877 194.833 55.1656 194.833 55.4402 194.833H55.8117C56.0895 194.833 56.3674 194.833 56.642 194.807H56.6614C56.852 194.807 57.0458 194.807 57.2396 194.781C57.2934 194.784 57.3474 194.784 57.4012 194.781C57.5627 194.781 57.7242 194.781 57.8793 194.758H57.9924L59.0747 194.674C59.43 194.642 59.7886 194.6 60.1505 194.561L60.8871 194.474C63.8837 194.054 66.8471 193.423 69.7552 192.586C76.2876 190.763 82.6778 188.213 89.207 186.345C97.6486 183.937 106.976 182.754 115.133 185.698V155.406H45.0859ZM115.117 59.5313V0.00321075C107.45 -0.0798977 99.8032 0.817307 92.3633 2.67304C74.6303 7.13029 58.7193 16.7979 45.0859 29.145V59.5281H48.6009V60.9082H45.0859V107.931H115.117V60.9115H63.0322V59.5313H115.117ZM205.068 39.4236C200.681 39.2684 196.319 37.8785 192.375 35.7323C184.831 31.6274 178.806 25.289 172.073 19.9396C158.084 8.79812 140.736 2.07507 122.938 0.40724V59.5313H222.911L223.159 59.2695L205.068 39.4236ZM214.175 37.8074L223.831 48.4092V35.0277C220.598 35.4285 217.764 36.382 214.188 37.7945L214.175 37.8074ZM223.831 203.34V155.406H203.255C203.201 155.202 203.146 154.995 203.081 154.789C203.142 154.995 203.194 155.202 203.252 155.406H122.951V190.072C123.714 190.637 124.466 191.232 125.213 191.836C126.017 192.483 126.812 193.165 127.61 193.834L128.414 194.5C128.799 194.823 129.186 195.146 129.577 195.45C130.353 196.079 131.135 196.7 131.926 197.312C132.317 197.635 132.717 197.926 133.115 198.23C139.423 203.055 146.078 207.41 153.025 211.259C154.582 212.121 156.154 212.962 157.739 213.783C158.795 214.323 159.858 214.86 160.924 215.38C162.527 216.162 164.142 216.916 165.77 217.643C180.782 224.384 196.656 229.011 212.938 231.389C216.554 231.924 220.184 232.344 223.828 232.65V203.337H224.151L223.831 203.34ZM122.951 60.9115V107.931H223.844V60.9115H122.951ZM122.951 109.311V154.026H223.844V109.311H122.951ZM231.675 34.9695V49.896L244 36.3659C239.917 35.7065 235.809 35.2357 231.675 34.9534V34.9695ZM231.675 109.327V154.026H329.807V109.311L231.675 109.327ZM329.448 206.889L329.794 155.406H231.675V233.164C237.996 233.429 244.327 233.354 250.639 232.937H250.749C253.765 232.748 256.766 232.472 259.753 232.11H259.821C275.758 230.254 291.341 226.094 306.084 219.76M348.728 116.674C348.36 115.805 347.976 114.942 347.585 114.088C346.855 112.472 346.083 110.901 345.288 109.33H337.631V154.026H356.989C356.98 141.368 353.778 128.439 348.738 116.658L348.728 116.674ZM337.631 155.422V199.704C343.085 194.474 347.691 188.491 351.009 181.652C354.999 173.416 356.824 164.498 356.973 155.416L337.631 155.422ZM337.631 96.298V107.934H344.571C342.471 103.928 340.158 100.039 337.641 96.2818L337.631 96.298ZM271.08 43.7418C270.569 43.5479 270.059 43.3507 269.545 43.16C264.128 41.1584 258.592 39.4938 252.969 38.1759L234.108 58.8848L233.746 59.2695L233.989 59.5345H301.115C291.766 53.0961 281.687 47.7894 271.089 43.7257L271.08 43.7418ZM303.083 60.9276H233.052L231.675 62.1882V107.931H243.739H243.758H329.819V85.7738C322.034 76.3537 313.049 67.9951 303.092 60.9115L303.083 60.9276Z" fill="#1E90FF"/>
<path opacity="0.1" d="M37.2587 84.6296V107.931H4.57422C4.57422 107.795 4.59683 107.656 4.60652 107.52C4.6356 107.149 4.66468 106.777 4.69698 106.408C4.73252 105.975 4.77129 105.539 4.81329 105.115C4.85528 104.692 4.90051 104.175 4.94897 103.706C4.99743 103.238 5.04266 102.762 5.09758 102.294C5.15251 101.825 5.20096 101.356 5.25912 100.891C5.31727 100.426 5.36896 99.9536 5.43034 99.4882C5.4788 99.1003 5.53049 98.7157 5.58218 98.3278C5.65649 97.7815 5.73402 97.2321 5.81802 96.689C5.81802 96.6082 5.84063 96.5242 5.85356 96.4466C6.44321 92.4715 7.24666 88.5311 8.26039 84.6425L37.2587 84.6296Z" fill="#1E90FF"/>
<path opacity="0.1" d="M4.47276 109.314H37.2606V154.026H6.87313C6.79237 154.485 6.71483 154.947 6.63083 155.409H37.2606V191.468C37.2057 191.452 37.1573 191.432 37.1056 191.413C36.2398 191.07 35.3804 190.708 34.521 190.32L33.9718 190.072C33.1103 189.664 32.2488 189.233 31.3873 188.779C31.0869 188.62 30.7864 188.455 30.4892 188.287C25.7065 185.607 21.3616 182.21 17.6054 178.216C17.4955 178.109 17.3921 177.996 17.2823 177.893C16.7589 177.324 16.2453 176.748 15.7477 176.16L15.1985 175.514C14.6105 174.793 14.0419 174.053 13.4895 173.303C13.4087 173.193 13.3312 173.083 13.2472 172.98C11.0004 169.863 9.13491 166.488 7.69049 162.927C7.64526 162.821 7.60649 162.704 7.56449 162.604C7.12082 161.462 6.72775 160.309 6.3853 159.146C6.23669 158.657 6.09454 158.176 5.97178 157.668C5.92655 157.52 5.88778 157.374 5.85224 157.229C4.01723 150.063 3.80078 142.619 3.80078 135.227C3.80078 134.364 3.80078 133.498 3.80078 132.641C3.80078 129.651 3.83632 126.642 3.88801 123.636C3.88801 122.857 3.92031 122.082 3.93647 121.299C3.9817 119.315 4.04631 117.33 4.13031 115.346C4.14969 114.793 4.17554 114.243 4.20461 113.694C4.20461 113.377 4.22077 113.06 4.25307 112.744C4.33061 111.593 4.39522 110.452 4.47276 109.314Z" fill="#1E90FF"/>
<path opacity="0.1" d="M69.739 67.6442V107.931H45.0859V67.6442H48.6009V54.0042H63.029V67.6442H69.739Z" fill="#1E90FF"/>
<path opacity="0.1" d="M69.7397 109.311H45.0898V154.022H69.7397V109.311Z" fill="#1E90FF"/>
<path opacity="0.1" d="M45.0859 155.409H69.739V192.58C66.831 193.416 63.8676 194.046 60.8709 194.464L60.1343 194.555C59.7725 194.597 59.4139 194.632 59.0585 194.668C58.7031 194.703 58.3348 194.729 57.9762 194.752H57.8632C57.7081 194.752 57.5401 194.771 57.3883 194.775H57.2235C57.0297 194.775 56.8358 194.794 56.642 194.8C56.3674 194.817 56.0928 194.82 55.8117 194.823C55.6922 194.823 55.5791 194.823 55.4596 194.823C55.1817 194.823 54.9071 194.823 54.6293 194.823H54.0187C53.8539 194.823 53.6956 194.823 53.5244 194.823L52.9009 194.8C52.5778 194.8 52.2289 194.765 51.8929 194.742L51.2726 194.697L50.5005 194.626C49.9578 194.577 49.4182 194.516 48.8852 194.442L48.2391 194.351L47.916 194.306C47.3765 194.222 46.8434 194.131 46.3007 194.028C45.9033 193.96 45.5092 193.876 45.1085 193.795L45.0859 155.409Z" fill="#1E90FF"/>
<path opacity="0.1" d="M223.847 62.8864H203.52V107.928H223.847V62.8864Z" fill="#1E90FF"/>
<path opacity="0.1" d="M223.85 109.311V154.026H122.953V134.739H176.695V146.116H203.519V109.311H223.85Z" fill="#1E90FF"/>
<path opacity="0.1" d="M224.169 203.35H223.846V232.682C220.207 232.374 216.577 231.955 212.959 231.425C196.669 229.039 180.789 224.403 165.772 217.649C161.437 215.697 157.189 213.566 153.03 211.256C146.083 207.405 139.428 203.05 133.117 198.227C131.532 197.011 129.967 195.768 128.423 194.497C127.353 193.614 126.29 192.709 125.215 191.83C124.468 191.226 123.716 190.631 122.953 190.062V155.409H203.251C203.196 155.202 203.141 154.995 203.083 154.792C203.144 154.995 203.203 155.202 203.257 155.409H223.846V203.33C223.956 203.333 224.063 203.343 224.169 203.35Z" fill="#1E90FF"/>
<path opacity="0.1" d="M276.859 59.5313H263.613V55.4135H269.551V43.1471C270.066 43.3346 270.579 43.5275 271.089 43.7257V55.4135H276.859V59.5313Z" fill="#1E90FF"/>
<path opacity="0.1" d="M308.772 107.931H243.745C243.745 107.931 243.745 107.931 243.768 107.947L243.739 107.931H231.676V62.8896H235.094V96.1817H250.714V76.465H263.617V60.9147H276.863V76.4779H289.766V96.1946H308.772V107.931Z" fill="#1E90FF"/>
<path opacity="0.1" d="M231.676 109.311V154.026H308.772V109.311H231.676ZM329.7 206.659L329.807 171.266H308.772V155.429H231.676V233.164C237.997 233.429 244.327 233.354 250.64 232.938H250.75C253.765 232.748 256.766 232.472 259.753 232.11H259.821C275.758 230.254 291.342 226.094 306.084 219.76" fill="#1E90FF"/>
<path opacity="0.1" d="M339.001 155.409H356.986C356.828 164.488 355.006 173.406 351.019 181.642C347.702 188.485 343.091 194.467 337.645 199.694V171.25H339.001V155.409Z" fill="#1E90FF"/>
<path opacity="0.1" d="M356.999 154.026H339.004V116.658H348.741C353.781 128.439 356.983 141.368 356.999 154.026Z" fill="#1E90FF"/>
<path opacity="0.1" d="M223.848 75.408H212.957V89.5297H223.848V75.408Z" fill="#1E90FF"/>
<path opacity="0.1" d="M223.848 104.679H212.957V107.931H223.848V104.679Z" fill="#1E90FF"/>
<path opacity="0.1" d="M223.848 109.311H212.957V118.798H223.848V109.311Z" fill="#1E90FF"/>
<path opacity="0.1" d="M223.848 133.95H212.957V148.072H223.848V133.95Z" fill="#1E90FF"/>
<path opacity="0.1" d="M223.848 163.221H212.957V177.343H223.848V163.221Z" fill="#1E90FF"/>
<path opacity="0.1" d="M223.844 203.33C223.954 203.33 224.061 203.33 224.167 203.35H223.844V206.63H212.957V192.493H223.844V203.33Z" fill="#1E90FF"/>
<path opacity="0.1" d="M223.844 221.757V232.666C220.204 232.358 216.575 231.939 212.957 231.409V221.757H223.844Z" fill="#1E90FF"/>
<path opacity="0.1" d="M169.626 152.988H122.953V154.025H169.626V152.988Z" fill="#1E90FF"/>
<path opacity="0.1" d="M169.626 155.406H122.953V159.382H169.626V155.406Z" fill="#1E90FF"/>
<path opacity="0.1" d="M169.626 172.414H122.953V178.807H169.626V172.414Z" fill="#1E90FF"/>
<path opacity="0.1" d="M169.623 191.84V198.233H133.116C131.531 197.022 129.965 195.779 128.419 194.503C127.35 193.621 126.29 192.716 125.211 191.84H169.623Z" fill="#1E90FF"/>
<path opacity="0.1" d="M169.624 211.262V217.649H165.77C161.438 215.695 157.192 213.562 153.031 211.252L169.624 211.262Z" fill="#1E90FF"/>
<path opacity="0.1" d="M259.833 113.645H250.645V122.838H259.833V113.645Z" fill="#1E90FF"/>
<path opacity="0.1" d="M60.895 70.815H51.707V80.0075H60.895V70.815Z" fill="#1E90FF"/>
<path opacity="0.1" d="M60.895 92.1672H51.707V101.36H60.895V92.1672Z" fill="#1E90FF"/>
<path opacity="0.1" d="M60.895 113.519H51.707V122.712H60.895V113.519Z" fill="#1E90FF"/>
<path opacity="0.1" d="M60.895 134.868H51.707V144.061H60.895V134.868Z" fill="#1E90FF"/>
<path opacity="0.1" d="M60.895 156.22H51.707V165.413H60.895V156.22Z" fill="#1E90FF"/>
<path opacity="0.1" d="M60.895 177.573H51.707V186.765H60.895V177.573Z" fill="#1E90FF"/>
<path opacity="0.1" d="M294.907 113.645H285.719V122.838H294.907V113.645Z" fill="#1E90FF"/>
<path opacity="0.1" d="M259.833 136.32H250.645V145.512H259.833V136.32Z" fill="#1E90FF"/>
<path opacity="0.1" d="M294.907 136.32H285.719V145.512H294.907V136.32Z" fill="#1E90FF"/>
<path opacity="0.1" d="M259.833 158.99H250.645V168.183H259.833V158.99Z" fill="#1E90FF"/>
<path opacity="0.1" d="M294.907 158.99H285.719V168.183H294.907V158.99Z" fill="#1E90FF"/>
<path opacity="0.1" d="M259.833 181.665H250.645V190.857H259.833V181.665Z" fill="#1E90FF"/>
<path opacity="0.1" d="M294.907 181.665H285.719V190.857H294.907V181.665Z" fill="#1E90FF"/>
<path opacity="0.1" d="M259.833 204.339H250.645V213.531H259.833V204.339Z" fill="#1E90FF"/>
<path opacity="0.1" d="M294.907 204.339H285.719V213.531H294.907V204.339Z" fill="#1E90FF"/>
<path opacity="0.1" d="M250.645 232.937V227.01H259.829V232.094L250.645 232.937Z" fill="#1E90FF"/>
<path opacity="0.1" d="M5.81641 96.4402V101.699H37.2603V96.4402H5.81641ZM8.95014 101.369H6.385V96.7634H8.96952L8.95014 101.369ZM12.0806 101.369H9.49612V96.7634H12.0806V101.369ZM15.2047 101.369H12.6202V96.7634H15.2047V101.369ZM18.3352 101.369H15.7539V96.7634H18.3384L18.3352 101.369ZM21.4625 101.369H18.8779V96.7634H21.4625V101.369ZM24.593 101.369H22.0084V96.7634H24.593V101.369ZM27.7235 101.369H25.1389V96.7634H27.7235V101.369ZM30.8507 101.369H28.2662V96.7634H30.8507V101.369ZM33.978 101.369H31.3935V96.7634H33.978V101.369ZM37.1053 101.369H34.5207V96.7634H37.1053V101.369Z" fill="#1E90FF"/>
<path opacity="0.1" d="M5.81641 111.742V117H37.2603V111.742H5.81641ZM8.95014 116.668H6.385V112.075H8.96952L8.95014 116.668ZM12.0806 116.668H9.49612V112.075H12.0806V116.668ZM15.2047 116.668H12.6202V112.075H15.2047V116.668ZM18.3352 116.668H15.7539V112.075H18.3384L18.3352 116.668ZM21.4625 116.668H18.8779V112.075H21.4625V116.668ZM24.593 116.668H22.0084V112.075H24.593V116.668ZM27.7235 116.668H25.1389V112.075H27.7235V116.668ZM30.8507 116.668H28.2662V112.075H30.8507V116.668ZM33.978 116.668H31.3935V112.075H33.978V116.668ZM37.1053 116.668H34.5207V112.075H37.1053V116.668Z" fill="#1E90FF"/>
<path opacity="0.1" d="M5.81641 127.049V132.318H37.2603V127.049H5.81641ZM8.95014 131.975H6.385V127.379H8.96952L8.95014 131.975ZM12.0806 131.975H9.49612V127.379H12.0806V131.975ZM15.2047 131.975H12.6202V127.379H15.2047V131.975ZM18.3352 131.975H15.7539V127.379H18.3384L18.3352 131.975ZM21.4625 131.975H18.8779V127.379H21.4625V131.975ZM24.593 131.975H22.0084V127.379H24.593V131.975ZM27.7235 131.975H25.1389V127.379H27.7235V131.975ZM30.8507 131.975H28.2662V127.379H30.8507V131.975ZM33.978 131.975H31.3935V127.379H33.978V131.975ZM37.1053 131.975H34.5207V127.379H37.1053V131.975Z" fill="#1E90FF"/>
<path opacity="0.1" d="M5.81641 142.357V147.61H37.2603V142.357H5.81641ZM8.95014 147.283H6.385V142.684H8.96952L8.95014 147.283ZM12.0806 147.283H9.49612V142.684H12.0806V147.283ZM15.2047 147.283H12.6202V142.684H15.2047V147.283ZM18.3352 147.283H15.7539V142.684H18.3384L18.3352 147.283ZM21.4625 147.283H18.8779V142.684H21.4625V147.283ZM24.593 147.283H22.0084V142.684H24.593V147.283ZM27.7235 147.283H25.1389V142.684H27.7235V147.283ZM30.8507 147.283H28.2662V142.684H30.8507V147.283ZM33.978 147.283H31.3935V142.684H33.978V147.283ZM37.1053 147.283H34.5207V142.684H37.1053V147.283Z" fill="#1E90FF"/>
<path opacity="0.1" d="M5.94922 157.662C6.07521 158.156 6.21736 158.651 6.36597 159.139V157.992H8.95049V162.588H7.56777C7.60977 162.695 7.65177 162.811 7.69377 162.911H37.2575V157.662H5.94922ZM12.0875 162.588H9.50294V157.992H12.0875V162.588ZM15.2115 162.588H12.627V157.992H15.2115V162.588ZM18.342 162.588H15.751V157.992H18.3355L18.342 162.588ZM21.4693 162.588H18.8847V157.992H21.4693V162.588ZM24.5998 162.588H22.0153V157.992H24.5998V162.588ZM27.7303 162.588H25.1458V157.992H27.7303V162.588ZM30.8575 162.588H28.273V157.992H30.8575V162.588ZM33.9848 162.588H31.4003V157.992H33.9848V162.588ZM37.1121 162.588H34.5276V157.992H37.1121V162.588Z" fill="#1E90FF"/>
<path opacity="0.1" d="M13.2539 172.97C13.3347 173.073 13.4122 173.19 13.4962 173.293H15.2052V175.501C15.3894 175.72 15.5703 175.94 15.7577 176.147V173.28H18.3422V177.893H17.2955C17.3988 177.999 17.499 178.112 17.6185 178.216H37.2706V172.97H13.2539ZM21.463 177.893H18.8785V173.3H21.463V177.893ZM24.5935 177.893H22.009V173.3H24.5935V177.893ZM27.724 177.893H25.1395V173.3H27.724V177.893ZM30.8513 177.893H28.2667V173.3H30.8513V177.893ZM33.9785 177.893H31.394V173.3H33.9785V177.893ZM37.1058 177.893H34.5213V173.3H37.1058V177.893Z" fill="#1E90FF"/>
<path opacity="0.1" d="M30.5 188.274C30.794 188.443 31.0944 188.598 31.3981 188.766V188.604H33.9826V190.059L34.5319 190.314V188.604H37.1164V191.4C37.1659 191.425 37.2179 191.444 37.2714 191.458V188.274H30.5Z" fill="#1E90FF"/>
<path opacity="0.1" d="M203.08 154.789C203.142 154.995 203.194 155.202 203.252 155.406C203.2 155.202 203.145 154.995 203.08 154.789ZM48.6133 59.5216V60.9017H63.0446V59.5216H48.6133ZM203.08 154.789C203.142 154.995 203.194 155.202 203.252 155.406C203.2 155.202 203.145 154.995 203.08 154.789ZM203.08 154.789C203.142 154.995 203.194 155.202 203.252 155.406C203.2 155.202 203.145 154.995 203.08 154.789Z" fill="#1E90FF"/>
<path d="M149.126 122.718C149.126 122.718 147.853 122.54 147.853 120.685C147.853 118.83 146.942 115.365 146.942 115.365C146.942 115.349 146.154 109.33 145.065 108.374C143.976 107.417 142.578 101.799 142.578 101.799C142.578 101.799 142.339 98.7512 141.851 98.0951C141.363 97.4389 140.704 95.8325 139.731 93.5409C138.759 91.2492 134.705 89.6622 134.705 89.6622C134.705 89.6622 127.374 85.4086 125.297 84.0219C125.108 83.908 124.932 83.7748 124.77 83.6244C124.408 83.1492 122.832 83.1395 122.832 83.1395C122.667 82.0988 122.509 80.9028 122.457 79.82C122.457 79.7037 122.457 79.5873 122.441 79.471C124.757 78.1011 126.502 75.9412 127.355 73.3879C127.394 73.2651 127.426 73.1358 127.461 73.0129C127.6 72.9672 127.728 72.893 127.836 72.795C127.945 72.6971 128.032 72.5775 128.091 72.4441C128.279 72.0271 128.282 71.5391 128.515 71.1512C128.786 70.6922 129.303 70.4466 129.71 70.1007C130.737 69.228 131.002 67.7573 130.954 66.4192C130.921 65.3364 130.747 64.2439 130.815 63.1676L130.834 62.8961C130.854 62.7344 130.876 62.5728 130.905 62.4177C131.064 61.6161 131.409 60.8597 131.603 60.0646C131.797 59.2695 131.816 58.3742 131.364 57.6889C130.702 56.6837 129.322 56.4833 128.111 56.3799C126.738 56.2635 125.51 56.4154 124.631 55.2744C124.22 54.6781 123.757 54.1189 123.249 53.6034C123.068 53.4353 121.31 52.3622 121.31 52.2911C119.595 51.4963 117.651 51.3471 115.834 51.8709C114.923 52.1359 114.064 52.5691 113.14 52.7856C111.147 53.2575 108.853 52.7468 107.16 53.8878C106.217 54.5343 105.651 55.5621 105.121 56.5641C104.691 57.3894 104.253 58.2136 103.81 59.0368C103.096 60.3911 102.369 61.768 102.068 63.2678C102.005 63.5941 101.966 63.9247 101.952 64.2568V64.273C101.952 64.3926 101.952 64.5122 101.952 64.6318V64.7837C101.952 64.8968 101.952 65.0067 101.972 65.1069C101.991 65.2071 101.988 65.2394 101.997 65.3073C102.007 65.3752 102.023 65.5271 102.043 65.6305C102.062 65.734 102.101 65.915 102.14 66.0572C102.156 66.1186 102.178 66.1768 102.198 66.2349C102.23 66.3448 102.269 66.4515 102.311 66.5582C102.333 66.6131 102.356 66.6713 102.382 66.7263C102.43 66.8394 102.488 66.9493 102.547 67.0495C102.572 67.0947 102.592 67.1367 102.618 67.1788C102.708 67.3291 102.807 67.4737 102.915 67.6119C103.606 68.4749 104.624 69.0244 105.377 69.8324C105.377 69.8647 105.377 69.8971 105.377 69.9262C105.377 70.0167 105.377 70.1039 105.377 70.1944C105.417 71.9966 105.896 73.7617 106.773 75.3362C107.65 76.9106 108.899 78.2469 110.41 79.2285C110.41 79.3514 110.426 79.4774 110.433 79.6002C110.496 80.5597 110.484 81.5226 110.397 82.4802C110.266 82.3251 110.101 82.2017 109.915 82.1189C109.73 82.0361 109.528 81.9961 109.325 82.0018C109.186 81.995 109.047 82.007 108.911 82.0374L108.882 82.0147V82.0438C108.171 82.2184 107.296 82.9585 106.459 85.0627C106.459 85.0627 103.913 87.9329 101.975 87.8134C100.036 87.6938 95.129 90.7999 95.129 90.7999C95.129 90.7999 90.3412 93.9094 89.3139 97.0769C88.7396 98.8731 88.0512 100.631 87.2527 102.339L81.3341 114.541L80.2422 124.221C80.2422 124.221 80.8463 128.527 80.7268 129.183C80.6073 129.839 83.2112 135.757 83.2112 135.757C83.2112 135.757 91.8144 150.881 95.3293 151.656L95.5813 151.479C95.7317 151.557 95.8912 151.617 96.0562 151.656L96.7799 151.146C96.8234 151.715 96.8049 152.287 96.725 152.852C96.2404 154.346 96.9059 164.091 97.7523 166.001C98.5988 167.911 98.2983 192.958 98.2983 192.958L98.1788 195.169C98.1788 195.169 98.1788 195.24 98.2078 195.363L98.1788 195.886L98.266 195.932C98.3566 196.633 98.3271 197.344 98.1788 198.036C97.8751 199.005 97.7523 201.746 97.7523 201.746C97.7523 201.746 95.3326 217.222 96.4794 220.332C97.6263 223.441 98.602 226.848 98.602 226.848C98.602 226.848 99.8135 230.727 98.6601 231.389C97.5068 232.052 94.2277 233.164 94.9029 234.78C95.5167 236.273 97.846 240.275 98.1917 240.86L98.1626 241.167L97.6877 246.316C97.7646 246.996 97.9489 247.659 98.2337 248.281C98.7538 249.403 99.765 250.566 101.687 250.44C102.01 250.417 102.385 250.379 102.747 250.33C106.265 249.858 110.597 248.287 110.597 248.287C110.372 248.144 110.166 247.974 109.984 247.78C109.811 247.612 109.674 247.411 109.581 247.189C109.488 246.967 109.442 246.728 109.444 246.487C109.496 245.55 107.742 241.083 107.305 239.984C107.238 239.825 107.202 239.735 107.202 239.735C107.202 239.735 111.202 235.552 110.536 231.845C110.536 231.845 106.11 229.259 107.567 227.84C109.024 226.421 111.628 222.345 111.628 222.345C111.628 222.345 111.748 207.105 111.628 204.83C111.503 203.251 111.578 201.662 111.851 200.101C111.899 199.865 111.958 199.636 112.019 199.41C114.034 199.71 116.068 199.865 118.105 199.872C118.848 199.872 119.604 199.872 120.367 199.826C120.367 200.042 120.377 200.275 120.396 200.525C120.564 204.3 120.877 210.919 121.133 213.379C121.494 216.906 123.494 226.408 123.494 226.408C123.494 226.408 119.679 228.858 124.16 234.896C124.16 234.896 124.16 237.084 123.862 237.401C123.545 238.437 123.289 239.49 123.097 240.556C122.909 241.694 122.832 242.844 123.136 243.442C123.862 244.871 128.224 244.755 128.224 244.755L128.33 244.735C129.154 244.65 129.986 244.729 130.778 244.968C131.571 245.208 132.308 245.602 132.947 246.128C134.604 247.46 140.894 246.875 144.3 246.451C145.634 246.283 146.525 246.128 146.525 246.128C146.569 245.977 146.584 245.819 146.571 245.663C146.535 244.826 145.879 242.99 141.434 241.351C141.434 241.351 137.253 238.539 137.312 236.089H137.224H136.74C137.092 236.07 137.318 236.089 137.318 236.089C137.318 236.089 135.68 230.109 136.349 229.624C137.018 229.14 135.015 222.514 135.015 222.514C135.015 222.514 133.868 211.395 133.806 210.616C133.809 209.947 133.91 209.283 134.107 208.644L133.806 202.548C133.806 202.548 133.748 200.521 133.806 199.862C133.797 199.29 133.75 198.719 133.667 198.152C133.638 197.926 133.609 197.69 133.577 197.457C135.144 197.06 136.162 196.691 136.162 196.691L135.981 175.472C137.312 172.886 137.557 167.213 137.551 163.189C137.551 160.603 137.434 158.69 137.434 158.69L139.253 155.719C139.253 155.719 139.673 152.164 139.008 151.385C138.714 151.033 138.846 150.667 139.089 150.367C139.214 150.267 139.347 150.176 139.486 150.095C139.486 150.095 139.466 150.066 139.444 150.024C139.571 149.918 139.706 149.822 139.848 149.737C139.848 149.737 139.202 148.735 139.78 148.311C140.323 148.68 140.807 148.958 141.176 149.184C141.15 149.42 141.124 149.556 141.124 149.556L141.279 149.232C141.634 149.433 141.851 149.556 141.851 149.556C141.851 149.556 144.7 143.876 144.639 143.039C144.577 142.202 146.577 138.676 146.577 138.676C146.577 138.676 146.819 136.824 147.911 136.048C149.003 135.272 148.758 129.651 148.758 129.651C148.758 129.651 149.062 126.723 149.788 125.527C150.515 124.331 149.126 122.718 149.126 122.718ZM94.6057 120.226L94.6606 121.581C94.3375 121.06 94.1049 120.685 94.1049 120.685L94.6057 120.226Z" fill="url(#paint0_linear_941_17492)"/>
<path d="M142.005 147.102L141.307 150.076C141.307 150.076 135.718 147.222 134.71 143.595C133.702 139.969 136.397 138.592 136.397 138.592L141.604 140.799L142.005 147.102Z" fill="white"/>
<path opacity="0.1" d="M142.005 147.102L141.307 150.076C141.307 150.076 135.718 147.222 134.71 143.595C133.702 139.969 136.397 138.592 136.397 138.592L141.604 140.799L142.005 147.102Z" fill="black"/>
<path d="M110.641 248.307C110.641 248.307 105.472 250.207 101.918 250.447C100.031 250.573 99.0396 249.415 98.5291 248.3C98.2503 247.68 98.0704 247.021 97.9961 246.345L98.4581 241.222L98.7036 238.494L106.254 236.532L107.323 239.803L107.423 240.052C107.853 241.144 109.575 245.588 109.523 246.516C109.521 246.754 109.567 246.989 109.658 247.209C109.749 247.428 109.883 247.627 110.053 247.793C110.226 247.988 110.424 248.161 110.641 248.307Z" fill="white"/>
<path d="M145.946 245.702C145.959 245.857 145.944 246.014 145.901 246.164C145.901 246.164 134.846 248.009 132.584 246.164C131.947 245.625 131.203 245.225 130.402 244.99C129.601 244.755 128.76 244.69 127.932 244.8C127.932 244.8 123.655 244.916 122.941 243.507C122.644 242.915 122.721 241.768 122.905 240.637C123.093 239.577 123.343 238.529 123.655 237.498L123.826 237.362L124.844 236.545L136.758 236.192H136.849C136.791 238.629 140.894 241.425 140.894 241.425C145.252 243.041 145.895 244.868 145.946 245.702Z" fill="white"/>
<path opacity="0.1" d="M145.948 245.702C145.96 245.857 145.943 246.014 145.9 246.164C145.9 246.164 134.848 248.009 132.587 246.164C131.949 245.625 131.207 245.225 130.406 244.991C129.605 244.756 128.765 244.691 127.938 244.8C127.938 244.8 123.657 244.916 122.946 243.507C122.649 242.912 122.723 241.768 122.907 240.637C124.555 240.802 127.156 241.212 128.177 242.191C129.721 243.681 132.338 245.168 133.943 245.285C135.2 245.365 142.718 245.605 145.948 245.702Z" fill="black"/>
<path opacity="0.1" d="M110.64 248.307C110.64 248.307 105.471 250.207 101.917 250.447C100.03 250.573 99.0385 249.415 98.5312 248.297C99.8461 248.74 101.671 249.205 102.631 248.779C103.768 248.274 107.8 247.948 110.061 247.809C110.234 247.998 110.428 248.165 110.64 248.307Z" fill="black"/>
<path d="M118.309 95.1473C114.045 93.4892 108.559 88.0105 109.929 85.4506C110.233 84.8046 110.414 84.1074 110.462 83.3949C110.55 82.4277 110.563 81.4551 110.501 80.4859C110.405 78.8986 110.214 77.3184 109.929 75.7539C109.929 75.7539 123.242 76.0545 122.467 78.0165C122.241 78.5918 122.205 79.5906 122.267 80.7089C122.328 81.8273 122.49 83.0911 122.658 84.161C122.89 85.6284 123.123 86.7467 123.123 86.7467C123.123 86.7467 122.309 87.8877 121.831 87.9491C121.353 88.0105 124.428 97.5101 118.309 95.1473Z" fill="#CF6F80"/>
<path opacity="0.1" d="M107.414 240.052L107.314 240.162C103.334 235.346 98.5203 241.348 98.5203 241.348L98.4492 241.222L98.6948 238.494L106.245 236.532L107.314 239.803L107.414 240.052Z" fill="black"/>
<path opacity="0.1" d="M136.855 236.532C136.855 236.532 133.948 236.47 132.397 237.841C130.846 239.211 123.351 238.138 123.674 237.841C123.77 237.693 123.828 237.525 123.842 237.35L124.86 236.532L136.775 236.179C136.82 236.396 136.855 236.532 136.855 236.532Z" fill="black"/>
<path d="M112.366 198.711C112.15 199.247 111.985 199.802 111.875 200.37C111.606 201.923 111.531 203.504 111.652 205.076C111.772 207.338 111.652 222.501 111.652 222.501C111.652 222.501 109.097 226.544 107.672 227.97C106.247 229.395 110.58 231.955 110.58 231.955C111.226 235.64 107.31 239.803 107.31 239.803C103.33 234.987 98.5163 240.992 98.5163 240.992C98.5163 240.992 95.8995 236.467 95.2469 234.851C94.5943 233.235 97.8023 232.117 98.9298 231.46C100.057 230.804 98.8749 226.935 98.8749 226.935C98.8749 226.935 97.9219 223.545 96.7911 220.451C95.6604 217.358 98.0382 201.96 98.0382 201.96C98.0382 201.96 98.1609 199.225 98.4549 198.272C98.6032 197.584 98.6328 196.875 98.5422 196.177C98.5228 195.941 98.5001 195.744 98.484 195.612C98.4678 195.479 98.4549 195.418 98.4549 195.418L98.5002 195.34L100.115 192.328C100.115 192.328 113.141 196.814 112.366 198.711Z" fill="#1E90FF"/>
<path d="M136.855 236.176C136.855 236.176 133.947 236.115 132.397 237.469C130.846 238.823 123.351 237.766 123.674 237.469C123.997 237.172 123.971 234.971 123.971 234.971C119.574 228.965 123.325 226.528 123.325 226.528C123.325 226.528 121.361 217.074 121.005 213.567C120.757 211.117 120.45 204.533 120.285 200.774C120.214 199.157 120.172 198.046 120.172 198.046L123.764 197.322L124.226 197.228L132.891 195.489C132.891 195.489 133.13 197.105 133.292 198.427C133.372 198.991 133.417 199.56 133.427 200.13C133.369 200.777 133.427 202.8 133.427 202.8L133.721 208.867C133.529 209.503 133.43 210.164 133.427 210.829C133.485 211.602 134.613 222.662 134.613 222.662C134.613 222.662 136.574 229.262 135.905 229.738C135.236 230.213 136.855 236.176 136.855 236.176Z" fill="#1E90FF"/>
<path opacity="0.1" d="M122.468 78.0165C122.242 78.5918 122.206 79.5906 122.268 80.7089C120.484 81.7833 118.434 82.3326 116.353 82.2937C114.272 82.2549 112.243 81.6294 110.502 80.4891C110.406 78.9007 110.215 77.3195 109.93 75.7539C109.93 75.7539 123.243 76.048 122.468 78.0165Z" fill="black"/>
<path d="M127.614 70.8732C127.616 72.038 127.433 73.1957 127.071 74.3026C126.261 76.7829 124.602 78.8971 122.385 80.2715C120.168 81.6459 117.537 82.192 114.957 81.8133C112.377 81.4346 110.013 80.1555 108.284 78.2021C106.556 76.2487 105.573 73.7466 105.509 71.1383C105.509 71.0478 105.509 70.9637 105.509 70.8732C105.484 69.405 105.752 67.9465 106.296 66.5828C106.84 65.219 107.65 63.9774 108.679 62.9302C109.708 61.883 110.935 61.0513 112.289 60.4836C113.642 59.9158 115.095 59.6234 116.563 59.6234C118.031 59.6234 119.484 59.9158 120.837 60.4836C122.191 61.0513 123.418 61.883 124.447 62.9302C125.476 63.9774 126.286 65.219 126.83 66.5828C127.374 67.9465 127.642 69.405 127.617 70.8732H127.614Z" fill="#CF6F80"/>
<path opacity="0.1" d="M118.309 95.1473C114.045 93.4892 108.559 88.0105 109.929 85.4506C110.233 84.8046 110.414 84.1074 110.462 83.3949L116.3 88.1948L119.912 91.1587L122.658 84.1642C122.89 85.6316 123.123 86.7499 123.123 86.7499C123.123 86.7499 122.309 87.8909 121.831 87.9523C121.353 88.0138 124.428 97.5101 118.309 95.1473Z" fill="black"/>
<path d="M133.407 116.36L128.532 198.298L122.174 198.715L105.711 151.204L108.412 94.7982L108.98 82.881L116.301 88.8962L119.916 91.8601L122.743 84.6619L127.999 89.2452L133.407 116.36Z" fill="#1E90FF"/>
<path opacity="0.1" d="M112.365 198.711C112.148 199.247 111.984 199.802 111.874 200.37C107.248 199.655 102.754 198.25 98.5443 196.203L98.457 196.158L98.4861 195.638L98.5023 195.366L100.118 192.354C100.118 192.354 113.14 196.814 112.365 198.711Z" fill="black"/>
<path opacity="0.1" d="M123.839 200.382C122.656 200.584 121.463 200.72 120.265 200.79C120.194 199.174 120.152 198.062 120.152 198.062L123.745 197.338L123.839 200.382Z" fill="black"/>
<path opacity="0.1" d="M133.272 198.443C130.975 199.041 127.428 199.713 124.252 199.293L124.207 197.244L132.872 195.505C132.872 195.505 133.111 197.105 133.272 198.443Z" fill="black"/>
<path opacity="0.1" d="M124.193 199.668C110.948 201.931 98.8165 195.444 98.8165 195.444L98.9329 193.246C98.9329 193.246 99.2333 168.328 98.3998 166.418C97.5663 164.508 96.9169 154.821 97.3886 153.334C97.8603 151.847 95.6667 129.551 95.6667 129.551L95.3113 120.501L82.3047 115.229L88.1199 103.102C88.9053 101.402 89.5808 99.6525 90.1423 97.8656C91.1534 94.7174 95.8476 91.6242 95.8476 91.6242C95.8476 91.6242 100.661 88.5342 102.564 88.6505C104.467 88.7669 106.961 85.916 106.961 85.916C108.802 81.2196 110.47 83.3464 110.47 83.3464C110.47 83.5694 110.47 83.3464 110.379 84.0414C109.733 89.1968 120.827 105.487 120.985 105.775L122.042 131.523L123.111 164.107L124.193 199.668Z" fill="black"/>
<path d="M123.836 199.668C110.59 201.931 98.4558 195.444 98.4558 195.444L98.5754 193.246C98.5754 193.246 98.8758 168.328 98.0391 166.418C97.2023 164.508 96.5562 154.821 97.0311 153.334C97.506 151.847 95.3092 129.551 95.3092 129.551L94.9506 120.501L81.9375 115.21L87.7527 103.082C88.5364 101.381 89.2119 99.6325 89.7751 97.8462C90.783 94.698 95.4804 91.6048 95.4804 91.6048C95.4804 91.6048 100.294 88.5147 102.194 88.6311C104.093 88.7475 106.591 85.8966 106.591 85.8966C108.435 81.2002 110.467 83.327 110.467 83.327C110.467 83.55 110.274 83.6502 110.377 84.0219C111.798 89.0222 120.469 105.468 120.628 105.755L121.697 131.503L122.766 164.088L123.836 199.668Z" fill="white"/>
<path opacity="0.1" d="M120.269 106.489C118.844 105.895 111.297 97.2741 111.297 97.2741V95.3122C111.022 94.6657 109.391 95.0601 108.066 95.5126L108.635 83.5953L109.281 84.1319C110.696 89.1289 120.104 106.202 120.269 106.489Z" fill="black"/>
<path d="M120.627 105.775C119.199 105.18 111.653 96.5598 111.653 96.5598V94.5978C111.378 93.9514 109.746 94.3457 108.422 94.7982L108.994 82.881L109.64 83.4175C111.058 88.4146 120.469 105.49 120.627 105.775Z" fill="white"/>
<path opacity="0.1" d="M98.8167 148.767C98.9944 148.767 108.027 147.817 108.027 147.817C108.027 147.817 113.497 158.577 113.138 161.195C112.78 163.813 112.13 166.13 109.93 165.72C107.73 165.309 98.0898 166.043 98.0898 166.043L98.8167 148.767Z" fill="black"/>
<path d="M98.4574 148.053C98.6351 148.053 107.668 147.102 107.668 147.102C107.668 147.102 113.134 157.866 112.779 160.48C112.423 163.095 111.768 165.416 109.571 165.006C107.374 164.595 97.7305 165.329 97.7305 165.329L98.4574 148.053Z" fill="white"/>
<path d="M105.264 143.001C105.264 143.001 113.554 147.458 113.731 148.819C113.909 150.179 109.512 148.224 108.562 147.988C107.937 147.837 107.301 147.738 106.66 147.691L100.324 147.862L105.264 143.001Z" fill="#CF6F80"/>
<path opacity="0.1" d="M117.954 107.044C118.436 107.044 118.827 106.654 118.827 106.172C118.827 105.69 118.436 105.3 117.954 105.3C117.473 105.3 117.082 105.69 117.082 106.172C117.082 106.654 117.473 107.044 117.954 107.044Z" fill="black"/>
<path d="M117.954 106.689C118.436 106.689 118.827 106.298 118.827 105.816C118.827 105.335 118.436 104.944 117.954 104.944C117.473 104.944 117.082 105.335 117.082 105.816C117.082 106.298 117.473 106.689 117.954 106.689Z" fill="#3F3D56"/>
<path opacity="0.1" d="M119.56 144.823C120.042 144.823 120.432 144.432 120.432 143.95C120.432 143.469 120.042 143.078 119.56 143.078C119.078 143.078 118.688 143.469 118.688 143.95C118.688 144.432 119.078 144.823 119.56 144.823Z" fill="black"/>
<path d="M119.56 144.464C120.042 144.464 120.432 144.073 120.432 143.592C120.432 143.11 120.042 142.719 119.56 142.719C119.078 142.719 118.688 143.11 118.688 143.592C118.688 144.073 119.078 144.464 119.56 144.464Z" fill="#3F3D56"/>
<path opacity="0.1" d="M118.821 125.933C119.303 125.933 119.694 125.543 119.694 125.061C119.694 124.579 119.303 124.189 118.821 124.189C118.34 124.189 117.949 124.579 117.949 125.061C117.949 125.543 118.34 125.933 118.821 125.933Z" fill="black"/>
<path d="M118.821 125.578C119.303 125.578 119.694 125.187 119.694 124.706C119.694 124.224 119.303 123.833 118.821 123.833C118.34 123.833 117.949 124.224 117.949 124.706C117.949 125.187 118.34 125.578 118.821 125.578Z" fill="#3F3D56"/>
<path d="M138.932 147.51C138.932 147.51 139.527 148.402 138.932 148.819C138.338 149.236 138.99 150.244 138.99 150.244C138.99 150.244 137.508 151.113 138.16 151.896C138.813 152.678 138.399 156.211 138.399 156.211L136.616 159.165C136.616 159.165 136.723 161.069 136.729 163.642C136.729 167.656 136.493 173.3 135.188 175.872L135.369 196.982C135.369 196.982 129.124 199.264 123.897 198.569L123.121 164.695C123.121 164.695 124.252 145.486 124.669 141.801C124.913 139.888 125.012 137.96 124.966 136.032C124.966 136.032 124.788 130.266 124.191 127.589C124.191 127.589 123.545 115.995 123.48 112.786C123.451 111.25 123.532 106.77 123.622 102.51C123.722 97.8527 123.835 93.4601 123.835 93.4601L122.656 84.1254C122.656 84.1254 123.835 84.0058 124.191 84.481C124.35 84.6297 124.523 84.7629 124.708 84.8785C126.743 86.2555 133.934 90.4897 133.934 90.4897C133.934 90.4897 137.915 92.0735 138.868 94.3425C139.821 96.6115 140.483 98.2212 140.945 98.8676C141.407 99.5141 141.659 102.552 141.659 102.552C141.659 102.552 143.029 108.144 144.098 109.091C145.167 110.038 145.949 116.063 145.949 116.063L136.5 123.497C136.5 123.497 135.669 135.864 135.492 136.342C135.314 136.821 138.932 147.51 138.932 147.51Z" fill="white"/>
<path d="M139.29 147.51C139.29 147.51 139.881 148.402 139.29 148.819C138.699 149.236 139.345 150.244 139.345 150.244C139.345 150.244 137.872 151.123 138.518 151.905C139.164 152.688 138.757 156.22 138.757 156.22L136.974 159.175C136.974 159.175 137.08 161.078 137.09 163.651C137.09 167.666 136.854 173.309 135.549 175.882L135.727 196.992C135.727 196.992 129.472 199.274 124.251 198.579L123.479 164.705C123.479 164.705 124.61 145.496 125.027 141.811C125.271 139.898 125.369 137.969 125.321 136.042C125.321 136.042 125.143 130.275 124.549 127.599C124.549 127.599 123.902 116.005 123.835 112.795C123.806 111.26 123.89 106.78 123.977 102.52C124.077 97.8624 124.19 93.4698 124.19 93.4698L122.633 84.009C122.633 84.009 124.19 84.009 124.549 84.4906C124.706 84.6412 124.88 84.7744 125.065 84.8882C127.101 86.2651 134.295 90.4994 134.295 90.4994C134.295 90.4994 138.272 92.0832 139.225 94.3522C140.178 96.6212 140.841 98.2309 141.306 98.8773C141.771 99.5238 142.017 102.562 142.017 102.562C142.017 102.562 143.387 108.154 144.456 109.101C145.525 110.048 146.297 116.06 146.297 116.06L136.848 123.494C136.848 123.494 136.017 135.861 135.836 136.339C135.656 136.817 139.29 147.51 139.29 147.51Z" fill="white"/>
<path opacity="0.1" d="M127.974 96.214L128.827 98.7028L124.336 103.228C124.436 98.5735 124.549 94.1777 124.549 94.1777L122.992 84.7169C122.992 84.7169 124.549 84.7169 124.908 85.1985C125.065 85.3486 125.239 85.4809 125.425 85.5929L129.244 96.6148L127.974 96.214Z" fill="black"/>
<path d="M127.614 95.4996L128.471 97.9885L123.98 102.514C124.08 97.8559 124.193 93.4633 124.193 93.4633L122.633 84.0026C122.633 84.0026 124.193 84.0026 124.549 84.4842C124.707 84.6338 124.88 84.767 125.065 84.8817L128.887 95.9004L127.614 95.4996Z" fill="white"/>
<path opacity="0.1" d="M127.614 70.8732C127.616 72.038 127.433 73.1957 127.071 74.3026C127.01 74.3122 126.947 74.3093 126.888 74.2944C126.828 74.2794 126.771 74.2525 126.722 74.2154C126.638 71.3063 125.207 68.5751 123.446 66.2511C122.952 65.5495 122.352 64.9281 121.669 64.4088C120.978 63.8897 120.119 63.6466 119.259 63.7267C118.29 63.8593 117.434 64.5186 116.455 64.6027C115.163 64.7094 114.006 63.814 112.723 63.7688C112.202 63.7737 111.688 63.8899 111.215 64.1095C110.742 64.3291 110.321 64.6471 109.981 65.0423C109.307 65.8398 108.806 66.7688 108.511 67.7703C108.003 69.2889 107.726 70.8754 107.69 72.4764C107.674 73.3814 107.587 74.516 106.747 74.8456C106.81 74.1801 106.734 73.5086 106.525 72.8737C106.315 72.2389 105.976 71.6545 105.529 71.1577L105.509 71.1383C105.509 71.0478 105.509 70.9637 105.509 70.8732C105.484 69.405 105.752 67.9465 106.296 66.5828C106.84 65.219 107.65 63.9774 108.679 62.9302C109.708 61.883 110.935 61.0513 112.289 60.4836C113.642 59.9158 115.095 59.6234 116.563 59.6234C118.031 59.6234 119.484 59.9158 120.837 60.4836C122.191 61.0513 123.418 61.883 124.447 62.9302C125.476 63.9774 126.286 65.219 126.83 66.5828C127.374 67.9465 127.642 69.405 127.617 70.8732H127.614Z" fill="black"/>
<path d="M121.139 53.3125C119.46 52.5224 117.551 52.373 115.77 52.8923C114.875 53.1574 114.032 53.5872 113.124 53.8038C111.186 54.2725 108.924 53.765 107.26 54.8995C106.336 55.546 105.781 56.5674 105.264 57.5597L103.972 60.0226C103.267 61.3705 102.557 62.7409 102.263 64.2245C101.969 65.7081 102.146 67.3695 103.086 68.5622C103.771 69.4317 104.782 69.9779 105.525 70.7957C105.971 71.2931 106.308 71.8771 106.517 72.5112C106.726 73.1452 106.802 73.8156 106.74 74.4804C107.583 74.1572 107.664 73.0194 107.684 72.1144C107.72 70.5134 107.996 68.9269 108.504 67.4083C108.799 66.4065 109.3 65.4773 109.974 64.6803C110.315 64.2854 110.736 63.9676 111.208 63.7481C111.681 63.5285 112.196 63.4121 112.717 63.4068C114.009 63.452 115.169 64.3441 116.448 64.2375C117.418 64.1567 118.277 63.494 119.253 63.3648C120.113 63.2833 120.972 63.5266 121.663 64.0468C122.346 64.5653 122.944 65.1868 123.436 65.8891C125.2 68.2131 126.631 70.9379 126.715 73.8534C127.08 74.1216 127.607 73.7726 127.788 73.3588C127.969 72.9451 127.975 72.4603 128.205 72.0659C128.47 71.6102 128.977 71.3678 129.374 71.0252C130.382 70.1557 130.634 68.6915 130.595 67.363C130.557 66.0346 130.298 64.6867 130.55 63.3809C130.702 62.5793 131.044 61.8294 131.232 61.0375C131.419 60.2457 131.442 59.3568 130.999 58.6748C130.353 57.6728 128.993 57.4756 127.807 57.3819C126.46 57.2655 125.255 57.4142 124.396 56.2797C123.992 55.6877 123.538 55.1318 123.039 54.6183C122.868 54.4503 121.139 53.3836 121.139 53.3125Z" fill="#512E4E"/>
<path opacity="0.1" d="M86.0274 121.474L82.6514 115.229L81.582 124.864C81.582 124.864 82.1765 129.144 82.0569 129.8C81.9374 130.456 84.4928 136.339 84.4928 136.339C84.4928 136.339 92.9345 151.382 96.3816 152.157L108.028 143.831L104.94 139.907C104.94 139.907 103.87 139.49 103.602 139.907C103.602 139.907 97.8677 130.036 97.2733 129.322C96.6789 128.607 96.7952 127.182 96.7952 127.182C96.7952 127.182 95.9035 126.232 96.2007 125.34C96.498 124.448 94.4788 121.354 94.4788 121.354L96.3203 119.631L86.0274 121.474Z" fill="black"/>
<path d="M82.8282 114.518L81.9365 115.229L80.8672 124.865C80.8672 124.865 81.4616 129.144 81.3421 129.8C81.2226 130.456 83.7812 136.339 83.7812 136.339C83.7812 136.339 92.2197 151.382 95.6668 152.158L107.317 143.831L104.225 139.907C104.225 139.907 103.155 139.49 102.887 139.907C102.887 139.907 97.1529 130.036 96.5585 129.322C95.964 128.607 96.0836 127.182 96.0836 127.182C96.0836 127.182 95.1919 126.232 95.4891 125.34C95.7863 124.448 93.764 121.354 93.764 121.354L95.6054 119.632L82.8282 114.518Z" fill="white"/>
<path opacity="0.1" d="M138.158 152.264C138.804 153.05 138.397 156.576 138.397 156.576L136.614 159.53C136.614 159.53 136.72 161.437 136.727 164.007L133.729 164.944C133.458 165.029 133.171 165.047 132.891 164.998C132.611 164.95 132.348 164.834 132.121 164.663C131.895 164.491 131.714 164.267 131.591 164.011C131.469 163.755 131.41 163.473 131.419 163.189L131.936 146.508L138.93 149.184C138.336 149.598 138.988 150.612 138.988 150.612C138.988 150.612 137.505 151.479 138.158 152.264Z" fill="black"/>
<path d="M138.517 151.905C139.163 152.691 138.756 156.22 138.756 156.22L136.972 159.175C136.972 159.175 137.079 161.078 137.089 163.651L134.036 164.605C133.77 164.687 133.489 164.705 133.215 164.657C132.942 164.609 132.684 164.496 132.462 164.328C132.241 164.159 132.063 163.941 131.944 163.69C131.824 163.439 131.766 163.163 131.774 162.885L132.294 146.152L139.292 148.828C138.694 149.242 139.347 150.254 139.347 150.254C139.347 150.254 137.87 151.123 138.517 151.905Z" fill="white"/>
<path d="M140.834 143.954C140.834 143.954 140.359 146.989 139.17 147.167C137.981 147.345 137.448 152.077 136.262 151.909C135.077 151.741 135.862 147.51 135.904 146.689C135.946 145.868 134.612 142.467 135.61 141.695C136.608 140.922 139.768 141.695 139.768 141.695L140.834 143.954Z" fill="#CF6F80"/>
<path opacity="0.1" d="M143.364 120.582L145.606 116.057C145.606 116.057 146.498 119.505 146.498 121.348C146.498 123.19 147.745 123.371 147.745 123.371C147.745 123.371 149.112 124.987 148.391 126.164C147.671 127.34 147.38 130.269 147.38 130.269C147.38 130.269 147.616 135.857 146.547 136.63C145.477 137.402 145.254 139.248 145.254 139.248C145.254 139.248 143.29 142.755 143.351 143.589C143.413 144.423 140.618 150.069 140.618 150.069C140.618 150.069 141.985 143.052 134.021 140.02C134.021 140.02 133.96 137.638 134.554 136.985C135.149 136.332 136.076 136.035 135.495 132.735C134.913 129.435 135.327 125.492 135.327 124.7C135.327 123.908 137.11 118.969 137.11 118.969L143.364 120.582Z" fill="black"/>
<path d="M144.334 115.41L146.292 116.057C146.292 116.057 147.187 119.505 147.187 121.348C147.187 123.19 148.434 123.371 148.434 123.371C148.434 123.371 149.8 124.987 149.08 126.164C148.359 127.34 148.072 130.269 148.072 130.269C148.072 130.269 148.308 135.857 147.238 136.63C146.169 137.402 145.93 139.248 145.93 139.248C145.93 139.248 143.969 142.755 144.03 143.589C144.092 144.423 141.294 150.069 141.294 150.069C141.294 150.069 142.664 143.052 134.697 140.02C134.697 140.02 134.639 137.638 135.233 136.985C135.828 136.332 136.755 136.035 136.173 132.735C135.592 129.435 136.005 125.492 136.005 124.7C136.005 123.908 137.789 118.969 137.789 118.969L144.334 115.41Z" fill="white"/>
<path opacity="0.1" d="M101.09 232.698C101.09 232.698 104.211 230.737 106.259 232.162C108.307 233.586 101.09 232.698 101.09 232.698Z" fill="black"/>
<path opacity="0.1" d="M125.34 226.631C125.34 226.631 128.102 226.276 130.422 228.774C132.741 231.273 125.34 226.631 125.34 226.631Z" fill="black"/>
<g opacity="0.1">
<path d="M129.381 70.3173C128.984 70.6599 128.474 70.9056 128.209 71.3613C127.983 71.7524 127.976 72.234 127.795 72.6542C127.614 73.0744 127.088 73.417 126.723 73.152C126.639 70.2429 125.204 67.5117 123.443 65.1845C122.951 64.4822 122.353 63.8606 121.67 63.3421C120.978 62.822 120.118 62.5788 119.257 62.6601C118.287 62.7926 117.434 63.452 116.456 63.5328C115.163 63.6427 114.003 62.7474 112.721 62.7021C112.2 62.7073 111.686 62.8239 111.213 63.0441C110.741 63.2643 110.321 63.583 109.981 63.9789C109.307 64.7747 108.806 65.7028 108.511 66.7036C108.004 68.2224 107.727 69.8088 107.691 71.4098C107.671 72.3116 107.587 73.4364 106.754 73.7725C106.773 74.0113 106.773 74.2513 106.754 74.4901C107.594 74.1669 107.678 73.0291 107.697 72.1241C107.733 70.5231 108.01 68.9366 108.518 67.418C108.813 66.4162 109.313 65.487 109.988 64.69C110.328 64.2952 110.748 63.9774 111.22 63.7578C111.693 63.5382 112.207 63.4219 112.727 63.4165C114.02 63.4617 115.183 64.3538 116.462 64.2471C117.431 64.1663 118.291 63.5037 119.263 63.3744C120.124 63.2931 120.985 63.5363 121.676 64.0564C122.359 64.575 122.958 65.1965 123.45 65.8988C125.211 68.2228 126.645 70.9476 126.729 73.863C127.094 74.1313 127.621 73.7822 127.802 73.3685C127.983 72.9548 127.989 72.47 128.215 72.0756C128.48 71.6199 128.99 71.3775 129.388 71.0348C130.396 70.1654 130.648 68.7012 130.609 67.3727C130.609 67.3307 130.609 67.2887 130.609 67.2499C130.548 68.4006 130.241 69.5739 129.381 70.3173Z" fill="black"/>
<path d="M105.534 70.0878C104.791 69.27 103.776 68.7238 103.095 67.8576C102.521 67.0907 102.193 66.1676 102.155 65.2104C102.053 66.4066 102.387 67.5993 103.095 68.5686C103.776 69.4381 104.791 69.9844 105.534 70.8021C106.247 71.602 106.676 72.6159 106.752 73.6853C106.801 73.0345 106.719 72.3804 106.51 71.7622C106.3 71.1441 105.968 70.5746 105.534 70.0878Z" fill="black"/>
<path d="M131.239 60.3297C131.048 61.1216 130.709 61.8747 130.554 62.673C130.462 63.2065 130.428 63.7484 130.453 64.2892C130.464 63.9811 130.498 63.6743 130.554 63.3712C130.709 62.5696 131.048 61.8197 131.239 61.0278C131.35 60.5911 131.386 60.1386 131.345 59.6897C131.325 59.9053 131.289 60.1192 131.239 60.3297Z" fill="black"/>
</g>
<path opacity="0.1" d="M42.8818 245.841C60.2675 245.841 74.3613 243.576 74.3613 240.782C74.3613 237.988 60.2675 235.724 42.8818 235.724C25.4962 235.724 11.4023 237.988 11.4023 240.782C11.4023 243.576 25.4962 245.841 42.8818 245.841Z" fill="#1E90FF"/>
<path d="M43.8967 143.88H41.8711V189.509H43.8967V143.88Z" fill="#535461"/>
<path d="M56.622 189.37L56.496 191.426L56.3151 194.335L56.2408 195.544L56.0631 198.453L55.9856 199.662L55.8046 202.571L53.7629 235.562C53.6741 236.982 53.0481 238.314 52.0122 239.288C50.9763 240.262 49.6083 240.804 48.1868 240.805H37.5708C36.1496 240.804 34.782 240.262 33.7467 239.288C32.7113 238.314 32.0859 236.981 31.998 235.562L29.9659 202.548L29.785 199.639L29.7107 198.43L29.5297 195.521L29.4554 194.312L29.2745 191.403L29.1453 189.348C29.1229 188.952 29.1814 188.556 29.3175 188.184C29.4535 187.812 29.6641 187.471 29.9364 187.183C30.2087 186.895 30.5368 186.666 30.9008 186.51C31.2647 186.353 31.6568 186.273 32.0529 186.274H53.7661C54.1607 186.277 54.5504 186.361 54.9112 186.521C55.272 186.681 55.5962 186.914 55.8638 187.204C56.1314 187.494 56.3368 187.836 56.4672 188.208C56.5976 188.581 56.6503 188.976 56.622 189.37Z" fill="#3F3D56"/>
<path d="M56.4961 191.426L56.3152 194.325H29.4426L29.2617 191.426H56.4961Z" fill="#9D9CB5"/>
<path d="M56.2435 195.534L56.0658 198.437H29.7004L29.5195 195.534H56.2435Z" fill="#9D9CB5"/>
<path d="M55.9869 199.649L55.8093 202.548H29.9544L29.7734 199.649H55.9869Z" fill="#9D9CB5"/>
<path d="M26.1708 160.982C37.9659 169.521 42.8894 182.877 42.8894 182.877C42.8894 182.877 28.6746 182.389 16.8762 173.849C5.07789 165.309 0.164062 151.957 0.164062 151.957C0.164062 151.957 14.3725 152.442 26.1708 160.982Z" fill="#1E90FF"/>
<path d="M0.15625 151.957C0.15625 151.957 14.9139 160.151 19.6468 166.935C24.3797 173.72 42.8913 182.877 42.8913 182.877" stroke="#535461" stroke-width="2" stroke-miterlimit="10"/>
<path d="M33.7856 143.78C40.2049 148.424 42.8896 155.694 42.8896 155.694C42.8896 155.694 35.1522 155.429 28.7297 150.784C22.3071 146.139 19.6289 138.867 19.6289 138.867C19.6289 138.867 27.3631 139.132 33.7856 143.78Z" fill="#1E90FF"/>
<path d="M19.6289 138.867C19.6289 138.867 27.6603 143.327 30.2351 147.018C32.81 150.709 42.8896 155.694 42.8896 155.694" stroke="#535461" stroke-width="2" stroke-miterlimit="10"/>
<path d="M52.2094 155.325C44.8338 163.435 43.2734 174.033 43.2734 174.033C43.2734 174.033 53.6729 171.48 61.042 163.367C68.4111 155.254 69.978 144.659 69.978 144.659C69.978 144.659 59.585 147.215 52.2094 155.325Z" fill="#1E90FF"/>
<path d="M69.9845 144.662C69.9845 144.662 60.3765 152.975 57.9341 158.703C55.4918 164.43 43.2734 174.033 43.2734 174.033" stroke="#535461" stroke-width="2" stroke-miterlimit="10"/>
<path d="M322.958 152.471C322.958 152.471 317.624 125.921 319.666 122.618C319.666 122.618 319.74 119.547 319.617 115.633C319.617 115.485 319.617 115.336 319.617 115.184C319.977 115.424 320.351 115.64 320.739 115.83C322.62 116.797 324.779 117.076 326.844 116.619L325.229 114.819C324.841 114.389 324.438 113.923 324.354 113.355C324.27 112.786 324.502 112.278 324.703 111.771C326.237 107.892 326.318 103.015 323.362 100.054C320.865 97.565 320.257 94.3522 317.547 92.0799C315.566 90.4153 314.478 87.975 313.45 85.6155C312.581 83.6212 311.706 81.6107 311.208 79.4968C310.82 77.8452 310.665 76.1353 310.132 74.5224C309.599 72.9095 308.601 71.3419 307.041 70.6211C306.485 70.3658 305.868 70.2203 305.361 69.8809C304.695 69.4317 304.295 68.7012 303.813 68.0612C301.368 64.829 293.178 66.7327 289.301 68.045C288.247 68.3755 287.271 68.9165 286.432 69.6353L286.468 69.5771C286.497 69.5286 286.532 69.4801 286.565 69.4317C286.14 69.775 285.774 70.1842 285.479 70.6438C284.914 71.5391 284.678 72.5831 284.206 73.5528C283.638 74.7002 280.475 77.9034 281.835 79.193C281.93 79.2796 282.04 79.3496 282.158 79.3999C282.669 79.6125 283.231 79.6687 283.773 79.5615L283.715 79.7005C283.251 80.8383 283.013 82.0559 283.014 83.285C283.014 88.5956 287.392 92.9009 292.797 92.9009C293.813 92.9019 294.823 92.746 295.791 92.4387C295.814 92.5615 295.833 92.6844 295.856 92.8072C295.856 92.8557 295.872 92.9042 295.879 92.9526L295.707 93.1918C295.699 93.1771 295.689 93.163 295.678 93.1498L290.606 100.241C289.831 100.788 285.366 104.02 285.114 106.444C284.849 109.098 284.584 112.204 284.584 112.204L284.549 112.87C284.327 113.055 284.068 113.19 283.789 113.265C283.51 113.341 283.218 113.355 282.933 113.306C281.35 113.047 281.35 119.124 281.35 119.124C281.35 119.124 280.297 120.094 279.574 119.253C278.85 118.413 276.937 121.261 276.937 121.261L264.952 121.778L264.677 121.794L264.031 119.793C263.961 119.582 263.811 119.407 263.614 119.306C263.416 119.205 263.186 119.186 262.974 119.253C262.924 119.27 262.876 119.29 262.829 119.315L262.784 119.341L262.7 119.399L262.658 119.438C262.635 119.459 262.613 119.481 262.593 119.505L262.554 119.551L262.535 119.57C262.46 119.673 262.411 119.793 262.391 119.918C262.371 120.044 262.38 120.173 262.419 120.294L262.974 122.01C260.661 122.476 258.296 123.788 260.225 127.402L250.449 125.595L253.612 128.252L269.94 131.623C269.723 132.011 269.865 132.573 270.541 133.365C273.448 136.782 278.747 137.709 280.879 137.949C281.442 139.209 282.145 140.402 282.975 141.504L282.791 144.908C282.791 144.908 277.393 170.85 276.404 172.165C276.903 171.599 277.36 170.998 277.771 170.365C276.204 175.695 274.014 182.99 273.439 184.082C272.515 185.828 271.658 192.89 272.712 193.343C273.035 193.482 273.959 193.414 275.277 193.314V193.899L275.219 216.068C275.219 216.068 275.484 229.667 274.757 230.963C274.03 232.259 273.836 234.977 273.836 234.977C273.836 234.977 270.928 240.339 268.625 242.495C268.609 242.512 268.592 242.527 268.573 242.541L268.502 242.036C268.502 242.036 265.733 245.534 259.608 245.336C259.608 245.336 255.922 247.735 261.388 247.864C266.854 247.993 273.836 247.67 273.836 247.67C273.836 247.67 278.711 240.236 282.795 241.206V246.839H284.045V241.115C284.625 240.733 285.121 240.237 285.503 239.658C285.886 239.078 286.147 238.427 286.271 237.744C286.378 237.039 286.299 236.319 286.043 235.654C285.787 234.989 285.362 234.403 284.81 233.952C284.563 233.728 284.364 233.455 284.226 233.15C284.089 232.845 284.016 232.516 284.012 232.181L283.967 232.22C283.967 232.107 283.938 231.99 283.925 231.871C283.567 228.962 283.118 222.96 284.704 218.519C286.878 212.429 287.537 203.948 285.954 198.899C285.443 197.285 285.024 195.644 284.697 193.983C284.659 193.773 284.623 193.572 284.591 193.385C285.673 193.531 286.744 193.747 287.799 194.031C291.466 195.043 299.487 195.23 306.336 195.175C306.352 195.363 306.372 195.56 306.394 195.757C306.517 197.128 306.772 198.483 307.157 199.804C308.016 202.39 308.41 213.79 308.41 213.79C308.41 213.79 309.518 223.163 308.914 226.977C308.591 229.098 308.268 231.228 308.084 233.367V233.409C308.084 233.409 306.268 238.581 304.941 241.39C304.908 241.461 304.873 241.532 304.84 241.6C304.487 241.632 304.138 241.709 303.803 241.829C303.803 241.829 302.023 245.385 300.25 245.973C298.476 246.561 299.064 248.498 303.08 247.786C307.095 247.075 313.159 246.494 313.159 246.494L313.421 242.867L314.655 241.322L314.332 244.939L315.647 244.68L315.473 240.281L317.492 237.754C317.492 237.754 319.931 235.582 316.306 231.308V231.402C316.267 231.341 316.232 231.276 316.19 231.215V231.195C315.589 230.264 315.111 228.529 315.986 225.448C317.569 219.883 318.49 214.831 318.49 214.831C318.49 214.831 322.024 201.297 317.776 194.894H317.963C317.528 193.993 317.22 193.036 317.049 192.05C317.028 191.933 317.008 191.814 316.991 191.691C320.134 191.51 323.22 190.941 325.736 189.713C325.727 189.7 324.211 157.584 322.958 152.471ZM283.05 130.072V130.136L282.404 130.169L283.05 130.072ZM280.834 130.379C280.727 130.402 280.628 130.45 280.543 130.518C280.265 130.911 280.091 131.368 280.036 131.846L279.028 131.62C279.028 131.62 278.32 131.468 277.302 131.297L276.821 130.812C278.146 130.702 279.522 130.54 280.834 130.379Z" fill="url(#paint1_linear_941_17492)"/>
<path d="M314.185 240.326L313.801 244.906L315.09 244.648L314.896 239.68L314.185 240.326Z" fill="#1D2366"/>
<path d="M284.776 218.58C283.222 223.008 283.662 228.985 284.01 231.887C284.14 232.96 284.259 233.613 284.259 233.613C284.259 233.613 281.936 238.907 281.743 239.108C281.549 239.308 274.906 243.365 274.906 243.365L270.264 246.077C270.264 246.077 265.554 244.011 267.812 243.3C268.273 243.115 268.689 242.831 269.03 242.469C271.291 240.32 274.131 234.977 274.131 234.977C274.131 234.977 274.325 232.265 275.036 230.976C275.746 229.686 275.488 216.133 275.488 216.133L275.543 194.041V191.161L284.379 191.226C284.434 192.203 284.562 193.176 284.76 194.135C285.077 195.79 285.488 197.426 285.991 199.035C287.548 204.074 286.902 212.513 284.776 218.58Z" fill="#FFB0B1"/>
<path opacity="0.1" d="M284.259 233.613C284.259 233.613 281.936 238.907 281.743 239.108C281.549 239.308 274.906 243.365 274.906 243.365L270.264 246.077C270.264 246.077 265.554 244.011 267.812 243.3C268.273 243.115 268.689 242.831 269.03 242.469L269.23 243.882L270.778 243.817L284.023 231.893C284.14 232.96 284.259 233.613 284.259 233.613Z" fill="black"/>
<path d="M284.097 232.194L270.777 244.199L269.23 244.263L268.906 242.001C268.906 242.001 266.199 245.485 260.184 245.291C260.184 245.291 256.572 247.68 261.925 247.809C267.278 247.938 274.114 247.615 274.114 247.615C274.114 247.615 278.889 240.181 282.886 241.151V246.765H284.113V241.099C284.684 240.714 285.171 240.218 285.545 239.641C285.92 239.063 286.173 238.416 286.291 237.737C286.397 237.039 286.322 236.324 286.072 235.663C285.823 235.002 285.407 234.416 284.866 233.962C284.624 233.735 284.431 233.462 284.299 233.158C284.167 232.853 284.098 232.526 284.097 232.194Z" fill="#1D2366"/>
<path d="M315.411 225.484C314.552 228.555 315.02 230.284 315.608 231.212V231.231C316.362 232.376 316.887 233.657 317.152 235.003L317.204 235.294L311.143 244.134L307.855 245.427C307.855 245.427 302.566 243.62 303.532 243.103C303.774 242.977 304.152 242.305 304.585 241.377C305.877 238.581 307.661 233.422 307.661 233.422V233.38C307.848 231.25 308.145 229.127 308.475 227.013C309.066 223.208 307.981 213.871 307.981 213.871C307.981 213.871 307.593 202.516 306.753 199.933C306.374 198.62 306.122 197.274 306 195.912C305.826 194.296 305.787 192.964 305.787 192.964C305.787 192.964 309.27 188.116 315.653 193.352C316.164 193.77 316.613 194.257 316.988 194.8C321.397 201.077 317.847 214.905 317.847 214.905C317.847 214.905 316.959 219.934 315.411 225.484Z" fill="#FFB0B1"/>
<path opacity="0.1" d="M317.216 235.294L311.155 244.134L307.866 245.427C307.866 245.427 302.578 243.62 303.544 243.103C303.786 242.977 304.164 242.305 304.597 241.377C306.836 241.357 307.996 243.491 307.996 243.491L310.832 243.038C310.832 243.038 314.573 235.682 315.413 235.232C316.253 234.783 315.542 231.874 315.542 231.874V231.134C315.565 231.16 315.584 231.189 315.61 231.215V231.234C316.364 232.38 316.889 233.661 317.154 235.006L317.216 235.294Z" fill="black"/>
<path d="M308.19 243.681C308.19 243.681 306.575 240.714 303.48 241.81C303.48 241.81 301.738 245.365 299.997 245.941C298.256 246.516 298.837 248.455 302.772 247.748C306.707 247.04 312.639 246.455 312.639 246.455L312.897 242.838L316.897 237.741C316.897 237.741 319.281 235.578 315.734 231.321V232.062C315.734 232.062 316.444 234.971 315.604 235.42C314.764 235.869 311.036 243.229 311.036 243.229L308.19 243.681Z" fill="#1D2366"/>
<path opacity="0.1" d="M284.388 191.219C284.444 192.197 284.572 193.169 284.77 194.128C281.132 193.595 277.756 193.86 275.543 194.034V191.154L284.388 191.219Z" fill="black"/>
<path opacity="0.1" d="M317.347 195.605C317.347 195.605 312.178 195.857 306.014 195.909C305.84 194.293 305.801 192.961 305.801 192.961C305.801 192.961 309.283 188.113 315.667 193.349C316.178 193.767 316.627 194.254 317.001 194.797C317.102 195.073 317.217 195.342 317.347 195.605Z" fill="black"/>
<path d="M317.345 195.023C317.345 195.023 294.705 196.119 287.804 194.183C280.903 192.247 274.064 193.924 273.034 193.475C272.003 193.026 272.84 185.989 273.744 184.247C274.649 182.505 279.611 164.886 279.611 164.886L284.386 139.978L289.416 138.592L289.772 138.492L298.536 136.074L304.959 134.299C304.959 134.299 317.73 184.182 316.634 187.861C316.237 189.269 316.173 190.751 316.447 192.189C316.614 193.17 316.917 194.124 317.345 195.023Z" fill="#1D2366"/>
<path d="M267.743 122.945C267.743 122.945 263.22 127.793 266.645 130.495C270.069 133.197 272.321 130.754 272.321 130.754L267.743 122.945Z" fill="#C7DAF5"/>
<path opacity="0.1" d="M267.743 122.945C267.743 122.945 263.22 127.793 266.645 130.495C270.069 133.197 272.321 130.754 272.321 130.754L267.743 122.945Z" fill="black"/>
<path d="M304.285 91.0682C304.285 91.0682 303.755 91.5725 302.957 92.3159C301.82 93.3793 300.137 94.934 298.644 96.2366C296.577 98.0369 294.871 99.3589 295.482 98.2309C296.092 97.1028 295.976 95.1376 295.672 93.2985C295.65 93.1757 295.63 93.0528 295.608 92.9332C295.356 91.5825 295.023 90.2484 294.609 88.9382C294.609 88.9382 297.95 84.6199 299.798 82.9165C300.486 82.2701 300.967 82.0051 300.996 82.4543C301.029 83.0588 301.481 84.3937 302.043 85.8094C302.059 85.8546 302.075 85.8967 302.095 85.9419C302.47 86.9116 302.893 87.9071 303.264 88.7669C303.833 90.0857 304.285 91.0682 304.285 91.0682Z" fill="#FFB0B1"/>
<path opacity="0.1" d="M302.095 85.9419C301.781 87.6312 301.019 89.2051 299.889 90.4992C298.76 91.7933 297.303 92.7601 295.672 93.2985C295.415 91.823 295.06 90.3663 294.609 88.9382C294.609 88.9382 300.899 80.8091 300.996 82.4543C301.019 83.0781 301.51 84.4615 302.095 85.9419Z" fill="black"/>
<path opacity="0.1" d="M295.045 95.4706L295.859 94.3231C295.859 94.3231 296.398 97.6135 298.382 96.1623C300.366 94.711 300.463 107.084 300.463 107.084L298.334 138.931L282.949 138.01L283.385 122.621L285.127 114.864L289.433 103.587L291.995 99.8599L295.045 95.4706Z" fill="black"/>
<path d="M300.465 107.281L298.526 136.077L298.323 139.128L289.745 138.614L289.422 138.595L282.961 138.207L283.397 122.815L285.138 115.058L289.445 103.781L292.007 100.054L295.057 95.6483L295.871 94.5041C295.871 94.5041 296.41 97.7945 298.394 96.3433L298.436 96.3142C300.374 95.0859 300.465 107.281 300.465 107.281Z" fill="#1D2366"/>
<path d="M285.354 112.362C285.354 112.362 284.582 113.978 283.031 113.716C281.481 113.455 281.484 119.534 281.484 119.534C281.484 119.534 280.453 120.504 279.743 119.664C279.032 118.823 277.158 121.665 277.158 121.665L265.418 122.182C265.418 122.182 270.642 124.57 269.618 131.798C269.618 131.798 287.354 130.699 287.936 129.021C288.517 127.344 285.354 112.362 285.354 112.362Z" fill="white"/>
<path opacity="0.03" d="M285.354 112.362C285.354 112.362 284.582 113.978 283.031 113.716C281.481 113.455 281.484 119.534 281.484 119.534C281.484 119.534 280.453 120.504 279.743 119.664C279.032 118.823 277.158 121.665 277.158 121.665L265.418 122.182C265.418 122.182 270.642 124.57 269.618 131.798C269.618 131.798 287.354 130.699 287.936 129.021C288.517 127.344 285.354 112.362 285.354 112.362Z" fill="black"/>
<path d="M251.234 125.98L254.329 128.624L279.806 133.979L276.647 130.754L251.234 125.98Z" fill="white"/>
<path d="M295.096 96.4887C294.673 97.1351 293.461 100.445 292.45 103.335C291.607 105.743 290.903 107.86 290.903 107.86C290.903 107.86 289.258 118.571 288.418 120.507C287.578 122.444 288.034 129.994 288.034 129.994L284.903 148.641C284.903 148.641 283.485 158.257 281.295 164C279.133 169.654 276.727 172.304 276.652 172.388C277.622 171.076 282.904 145.237 282.904 145.237L284.648 112.65C284.648 112.65 284.903 109.553 285.162 106.906C285.42 104.259 290.654 100.645 290.654 100.645L295.7 93.4666C296.207 94.1453 295.868 95.3283 295.096 96.4887Z" fill="white"/>
<path d="M281.937 138.369C281.937 138.369 274.507 138.046 270.908 133.721C267.309 129.396 279.227 131.995 279.227 131.995L282.325 132.706L281.937 138.369Z" fill="#FFB0B1"/>
<path opacity="0.1" d="M316.636 187.864C316.238 189.272 316.174 190.754 316.449 192.192C308.343 192.767 299.672 190.576 299.672 190.576C298.057 192.063 293.802 194.254 293.802 194.254L291.482 165.487C289.999 161.609 289.418 141.287 289.418 141.287C289.418 141.287 289.55 140.224 289.741 138.631C289.741 138.592 289.741 138.55 289.757 138.511C290.335 134.06 291.482 125.705 292.044 124.577C292.82 123.025 289.66 118.898 289.66 118.898L291.098 106.631L291.272 105.151C294.303 103.797 296.626 99.472 296.626 99.472L298.409 96.3465C300.347 95.1021 300.447 107.297 300.447 107.297L298.509 136.093L304.932 134.319C304.932 134.319 317.731 184.186 316.636 187.864Z" fill="black"/>
<path d="M324.954 189.852C316.118 194.241 300.059 190.175 300.059 190.175C298.443 191.662 294.189 193.853 294.189 193.853L291.866 165.086C290.386 161.208 289.805 140.887 289.805 140.887C289.805 140.887 291.672 125.724 292.447 124.176C292.674 123.724 292.564 123.051 292.296 122.327C290.977 118.881 290.492 115.172 290.881 111.502L291.501 106.231L291.672 104.754C294.706 103.396 297.028 99.0713 297.028 99.0713L298.644 96.2398L301.616 91.023L303.025 88.5536L303.264 88.7701L305.089 90.4251C305.089 90.4251 305.864 91.0715 307.027 92.0412C309.557 94.1744 313.928 97.9303 316.183 100.228C318.167 102.252 318.793 110.122 318.974 116.047C319.094 119.948 319.023 123.006 319.023 123.006C317.023 126.3 322.253 152.743 322.253 152.743C323.471 157.853 324.954 189.852 324.954 189.852Z" fill="white"/>
<path opacity="0.03" d="M307.993 99.0066C307.993 99.0066 301.929 110.555 302.633 114.945C303.338 119.334 305.341 124.302 304.375 125.462C304.043 125.902 303.614 126.259 303.121 126.505C302.628 126.751 302.086 126.88 301.535 126.881C300.566 126.946 297.981 128.753 297.981 128.947C297.981 129.141 295.594 129.141 293.458 130.046C291.323 130.951 288.17 131.465 288.17 131.465C288.17 131.465 282.031 131.271 281.46 131.853C280.888 132.434 280.3 135.916 281.524 138.692C282.749 141.468 284.109 143.54 285.136 143.919C286.163 144.297 292.683 142.112 297.971 141.595C303.26 141.077 309.001 136.885 309.001 136.885C309.001 136.885 315.323 134.623 316.431 130.818C317.54 127.014 315.078 106.105 315.078 106.105C315.078 106.105 313.217 96.3594 307.993 99.0066Z" fill="black"/>
<path opacity="0.03" d="M307.218 98.0369C307.218 98.0369 301.154 109.589 301.865 113.975C302.576 118.361 304.572 123.332 303.603 124.496C303.272 124.936 302.844 125.293 302.352 125.54C301.859 125.786 301.317 125.914 300.766 125.915C299.797 125.98 297.213 127.786 297.213 127.98C297.213 128.174 294.825 128.174 292.69 129.076C290.554 129.978 287.401 130.495 287.401 130.495C287.401 130.495 281.263 130.301 280.694 130.883C280.126 131.465 279.531 134.949 280.759 137.722C281.987 140.496 283.343 142.571 284.371 142.949C285.398 143.327 291.918 141.142 297.206 140.628C302.495 140.114 308.236 135.915 308.236 135.915C308.236 135.915 314.555 133.653 315.65 129.852C316.745 126.051 314.296 105.135 314.296 105.135C314.296 105.135 312.442 95.3929 307.218 98.0369Z" fill="black"/>
<path d="M307.803 98.4248C307.803 98.4248 301.739 109.977 302.45 114.363C303.16 118.749 305.157 123.72 304.191 124.881C303.86 125.322 303.432 125.68 302.939 125.927C302.446 126.174 301.902 126.302 301.351 126.303C300.382 126.367 297.798 128.174 297.798 128.365C297.798 128.556 295.413 128.559 293.275 129.464C291.136 130.369 287.986 130.883 287.986 130.883C287.986 130.883 281.848 130.689 281.276 131.271C280.704 131.853 280.116 135.337 281.341 138.11C282.565 140.883 283.925 142.959 284.953 143.337C285.98 143.715 292.499 141.53 297.788 141.013C303.076 140.496 308.817 136.303 308.817 136.303C308.817 136.303 315.14 134.041 316.248 130.236C317.356 126.432 314.91 105.523 314.91 105.523C314.91 105.523 313.024 95.7938 307.803 98.4248Z" fill="white"/>
<path opacity="0.1" d="M307.672 129.409C307.672 129.409 302.826 128.439 304.513 130.055C306.199 131.672 306.189 133.087 308.254 133.023C310.318 132.958 307.672 129.409 307.672 129.409Z" fill="black"/>
<path opacity="0.1" d="M315.861 164.181C315.861 164.181 313.671 165.665 317.861 169.085C322.051 172.504 315.861 164.181 315.861 164.181Z" fill="black"/>
<path opacity="0.1" d="M311.68 176.377C311.68 176.571 310.905 183.488 313.806 185.217C316.707 186.946 311.68 176.377 311.68 176.377Z" fill="black"/>
<path d="M265.619 122.166C263.28 122.246 258.228 122.961 260.848 127.851C263.164 132.179 267.057 129.286 269.248 127.091C268.713 125.045 267.415 123.282 265.619 122.166Z" fill="#FFB0B1"/>
<path opacity="0.1" d="M307.027 92.2383C304.545 93.9352 302.465 95.3671 302.058 95.6645C300.946 96.4887 298.827 101.327 297.461 103.797C296.372 105.785 292.834 106.295 291.5 106.421L291.671 104.944C294.705 103.587 297.028 99.262 297.028 99.262L303.024 88.7443L305.088 90.6222C305.088 90.6222 305.863 91.2686 307.027 92.2383Z" fill="black"/>
<path d="M307.027 92.0444C304.545 93.7413 302.465 95.1732 302.058 95.4738C300.946 96.2948 298.827 101.133 297.461 103.603C296.372 105.591 292.834 106.101 291.5 106.227L291.671 104.75C294.705 103.393 297.028 99.068 297.028 99.068L303.024 88.5503L305.088 90.4218C305.088 90.4218 305.863 91.0618 307.027 92.0444Z" fill="#DCE7FF"/>
<path d="M302.254 83.8087C302.255 85.749 301.667 87.6438 300.568 89.2421C299.269 91.1317 297.336 92.493 295.12 93.079C292.904 93.6649 290.551 93.4366 288.489 92.4356C286.427 91.4345 284.792 89.727 283.88 87.6229C282.969 85.5188 282.841 83.1574 283.521 80.9673C284.201 78.7772 285.643 76.9034 287.585 75.686C289.528 74.4685 291.842 73.9881 294.108 74.3318C296.374 74.6756 298.443 75.8207 299.937 77.5595C301.432 79.2982 302.254 81.5154 302.254 83.8087Z" fill="#FFB0B1"/>
<path opacity="0.1" d="M318.977 116.05C317.665 115.243 316.596 114.094 315.885 112.727C315.345 111.661 314.987 110.429 314.066 109.673C313.236 108.994 312.128 108.829 311.094 108.526C307.695 107.52 304.846 104.417 304.739 100.875C304.687 99.207 305.208 97.5424 304.972 95.8907C304.838 94.956 304.466 94.0712 303.893 93.3211C303.608 92.9624 303.296 92.6263 302.959 92.3159C302.507 91.8892 302.032 91.4755 301.618 91.023C301.358 90.7428 301.13 90.4337 300.94 90.1018C300.786 89.8302 300.662 89.5431 300.568 89.2453C299.922 87.2671 300.51 84.9205 299.799 82.9198L299.761 82.8099C299.493 82.0988 298.947 81.3877 298.187 81.3328C297.428 81.2778 296.779 81.9081 296.055 82.1893C294.54 82.7776 292.905 81.7756 291.642 80.7542C290.379 79.7328 288.954 78.566 287.349 78.7922C286.286 78.9441 285.446 79.6681 284.467 80.0431C284.246 80.1287 284.018 80.1947 283.785 80.2403C284.614 78.1733 286.136 76.4595 288.09 75.3932C290.044 74.327 292.308 73.975 294.494 74.3976C296.679 74.8202 298.649 75.9911 300.066 77.7091C301.482 79.4271 302.256 81.5849 302.255 83.8119C302.256 84.4844 302.185 85.155 302.045 85.8126C302.061 85.8579 302.077 85.8999 302.096 85.9452C302.471 86.9148 302.894 87.9103 303.266 88.7701L305.091 90.425C305.091 90.425 305.867 91.0715 307.03 92.0412C309.559 94.1744 313.93 97.9303 316.185 100.228C318.169 102.258 318.789 110.126 318.977 116.05Z" fill="black"/>
<path d="M284.351 74.1378C284.813 73.1972 285.042 72.1435 285.595 71.2514C286.406 69.9585 287.821 69.131 289.274 68.63C293.07 67.321 301.092 65.4204 303.489 68.63C303.961 69.2765 304.352 69.994 305.004 70.4401C305.502 70.7795 306.103 70.9249 306.649 71.1803C308.177 71.8978 309.153 73.4622 309.673 75.059C310.193 76.6557 310.348 78.3688 310.729 80.014C311.217 82.1246 312.073 84.1254 312.926 86.1132C313.931 88.4598 314.997 90.8937 316.935 92.5518C319.581 94.8144 320.166 98.0175 322.621 100.5C325.529 103.448 325.435 108.312 323.936 112.175C323.739 112.682 323.516 113.212 323.594 113.752C323.671 114.292 324.072 114.783 324.45 115.213L326.039 117.007C322.279 117.915 318.024 115.95 316.273 112.501C315.733 111.435 315.375 110.206 314.451 109.447C313.624 108.768 312.512 108.606 311.482 108.303C308.083 107.294 305.234 104.188 305.127 100.645C305.075 98.9807 305.596 97.3161 305.36 95.6677C305.229 94.7266 304.856 93.8357 304.278 93.0819C303.389 91.9215 302.048 91.1426 301.325 89.8497C300.1 87.6873 301.031 84.8785 300.149 82.5577C299.877 81.8467 299.335 81.1356 298.575 81.0806C297.816 81.0257 297.167 81.656 296.44 81.9372C294.928 82.5254 293.293 81.5267 292.03 80.502C290.767 79.4774 289.342 78.3138 287.733 78.5433C286.67 78.692 285.834 79.416 284.855 79.7942C284.131 80.0722 282.664 80.321 282.031 79.7101C280.694 78.4787 283.792 75.2885 284.351 74.1378Z" fill="#591D4B"/>
<path opacity="0.1" d="M317.174 111.435C316.632 110.368 316.276 109.14 315.352 108.383C314.525 107.705 313.414 107.54 312.38 107.236C308.985 106.231 306.135 103.125 306.025 99.582C305.974 97.9174 306.494 96.2495 306.261 94.6011C306.126 93.6661 305.753 92.7814 305.179 92.0315C304.287 90.8711 302.947 90.0921 302.226 88.7992C301.002 86.6401 301.932 83.8313 301.047 81.5073C300.779 80.7994 300.233 80.0884 299.477 80.0302C298.721 79.972 298.065 80.6088 297.341 80.89C295.829 81.4782 294.191 80.4762 292.932 79.4548C291.672 78.4335 290.24 77.2666 288.635 77.4929C287.572 77.6448 286.732 78.3688 285.756 78.7438C285.033 79.0217 283.563 79.2738 282.929 78.6629C281.598 77.3701 284.697 74.1863 285.252 73.0421C285.714 72.0983 285.944 71.0478 286.499 70.1557C286.528 70.1072 286.561 70.0587 286.593 70.0103C286.177 70.3548 285.819 70.7627 285.53 71.2191C284.978 72.1112 284.748 73.1584 284.286 74.1055C283.727 75.2497 280.629 78.4432 281.963 79.7264C282.61 80.3405 284.063 80.0884 284.787 79.8104C285.756 79.4322 286.603 78.7082 287.666 78.5595C289.281 78.33 290.702 79.4969 291.962 80.5182C293.222 81.5396 294.87 82.5416 296.375 81.9534C297.099 81.6722 297.732 81.0386 298.508 81.0968C299.283 81.155 299.8 81.8629 300.081 82.574C300.963 84.8947 300.032 87.7035 301.257 89.8659C301.981 91.1361 303.321 91.9313 304.21 93.0981C304.788 93.8519 305.161 94.7428 305.292 95.6839C305.528 97.3323 305.008 98.9969 305.059 100.662C305.166 104.217 308.015 107.31 311.414 108.319C312.438 108.623 313.556 108.784 314.383 109.463C315.31 110.222 315.675 111.451 316.205 112.517C317.956 115.966 322.211 117.931 325.971 117.023L325.222 116.176C321.962 116.225 318.664 114.369 317.174 111.435Z" fill="black"/>
<path opacity="0.1" d="M294.901 96.6826C294.478 97.3291 293.266 100.639 292.255 103.528C291.309 103.16 290.449 100.81 290.449 100.81L295.495 93.6281C296.012 94.3392 295.673 95.519 294.901 96.6826Z" fill="black"/>
<path d="M295.092 96.4887C294.669 97.1352 293.458 100.445 292.447 103.335C291.5 102.969 290.641 100.616 290.641 100.616L295.687 93.4375C296.204 94.1454 295.865 95.3284 295.092 96.4887Z" fill="#DCE7FF"/>
<path d="M265.755 129.509L262.957 120.682C262.924 120.579 262.912 120.47 262.921 120.362C262.93 120.253 262.96 120.148 263.01 120.052C263.06 119.955 263.128 119.87 263.211 119.8C263.294 119.73 263.39 119.677 263.494 119.644C263.702 119.579 263.927 119.599 264.121 119.7C264.315 119.8 264.461 119.973 264.527 120.181L267.325 128.999L267.047 130.844L265.755 129.509Z" fill="#BE8B87"/>
<path opacity="0.1" d="M263.222 119.906C263.431 119.84 263.657 119.86 263.851 119.96C264.046 120.061 264.192 120.234 264.259 120.443L267.057 129.26L266.847 130.644L267.05 130.857L267.328 129.011L264.514 120.194C264.448 119.986 264.301 119.813 264.108 119.713C263.914 119.612 263.689 119.592 263.48 119.657C263.305 119.714 263.154 119.828 263.051 119.981C263.106 119.951 263.163 119.926 263.222 119.906Z" fill="white"/>
<path d="M265.754 129.509L267.324 129.011L267.095 130.523L267.046 130.856L266.587 130.378L265.754 129.509Z" fill="#EFC8C4"/>
<path d="M266.586 130.379C266.613 130.344 266.647 130.316 266.686 130.295C266.709 130.28 266.735 130.273 266.762 130.273C266.789 130.273 266.815 130.28 266.838 130.295C266.86 130.321 266.878 130.351 266.893 130.382C266.914 130.418 266.943 130.448 266.978 130.471C267.013 130.494 267.052 130.509 267.093 130.514L267.045 130.837L266.586 130.379Z" fill="#727A9C"/>
<path d="M262.941 123.817C262.941 123.817 268.553 123.785 267.232 126.174C265.91 128.562 263.846 128.85 263.846 128.85L262.941 123.817Z" fill="#FFB0B1"/>
<path d="M228.038 16.6201H227.796C218.156 16.6201 209.63 21.7238 204.726 29.255C199.822 21.7238 191.296 16.6201 181.656 16.6201H181.414C174.179 16.6891 167.264 19.6119 162.171 24.7533C157.078 29.8948 154.219 36.8394 154.215 44.078C154.215 53.0668 158.15 65.8212 165.823 76.3163C180.441 96.3141 204.726 113.81 204.726 113.81C204.726 113.81 229.011 96.3174 243.626 76.3163C251.302 65.8212 255.234 53.0668 255.234 44.078C255.23 36.8399 252.372 29.8958 247.279 24.7545C242.187 19.6131 235.273 16.69 228.038 16.6201ZM224.572 77.8548C223.474 77.8507 222.403 77.5144 221.5 76.8903C220.596 76.2662 219.902 75.3833 219.51 74.3576H213.746C213.367 74.3552 212.997 74.2343 212.69 74.0118C212.382 73.7893 212.152 73.4763 212.031 73.1164L210.26 67.78L204.658 87.3641C204.549 87.7411 204.321 88.0725 204.007 88.3085C203.694 88.5446 203.312 88.6725 202.92 88.6731H202.807C202.398 88.6533 202.008 88.4936 201.702 88.2206C201.396 87.9477 201.193 87.578 201.127 87.1734L195.354 52.4333L191.135 72.9903C191.038 73.3808 190.813 73.7277 190.497 73.9755C190.18 74.2233 189.789 74.3578 189.387 74.3576H181.268C181.025 74.3679 180.782 74.3288 180.554 74.2427C180.326 74.1567 180.118 74.0254 179.942 73.8567C179.766 73.6881 179.626 73.4856 179.531 73.2614C179.435 73.0373 179.386 72.7961 179.386 72.5524C179.386 72.3087 179.435 72.0675 179.531 71.8433C179.626 71.6192 179.766 71.4167 179.942 71.248C180.118 71.0794 180.326 70.9481 180.554 70.862C180.782 70.7759 181.025 70.7369 181.268 70.7472H187.965L193.942 43.1083C194.04 42.6997 194.277 42.3378 194.612 42.0846C194.948 41.8314 195.36 41.7026 195.78 41.7201C196.2 41.7377 196.6 41.9006 196.913 42.1809C197.226 42.4612 197.432 42.8416 197.496 43.257L203.392 78.6952L208.412 61.1733C208.517 60.8042 208.738 60.4789 209.042 60.2459C209.347 60.0129 209.719 59.8847 210.102 59.8804H210.137C210.517 59.8805 210.887 60.0006 211.195 60.2234C211.502 60.4463 211.731 60.7606 211.85 61.1216L215.051 70.7569H219.438C219.75 69.8087 220.318 68.9652 221.079 68.3195C221.84 67.6738 222.764 67.2509 223.75 67.0976C224.736 66.9443 225.745 67.0665 226.666 67.4506C227.586 67.8348 228.383 68.4661 228.968 69.2747C229.553 70.0834 229.903 71.038 229.98 72.0332C230.057 73.0284 229.857 74.0255 229.404 74.9145C228.95 75.8034 228.259 76.5497 227.409 77.0708C226.558 77.592 225.579 77.8678 224.582 77.8678L224.572 77.8548Z" fill="#1E90FF"/>
</g>
<defs>
<linearGradient id="paint0_linear_941_17492" x1="115.117" y1="250.456" x2="115.117" y2="51.5638" gradientUnits="userSpaceOnUse">
<stop stop-color="#808080" stop-opacity="0.25"/>
<stop offset="0.54" stop-color="#808080" stop-opacity="0.12"/>
<stop offset="1" stop-color="#808080" stop-opacity="0.1"/>
</linearGradient>
<linearGradient id="paint1_linear_941_17492" x1="288.636" y1="247.942" x2="288.636" y2="66.2899" gradientUnits="userSpaceOnUse">
<stop stop-color="#808080" stop-opacity="0.25"/>
<stop offset="0.54" stop-color="#808080" stop-opacity="0.12"/>
<stop offset="1" stop-color="#808080" stop-opacity="0.1"/>
</linearGradient>
<clipPath id="clip0_941_17492">
<rect width="357" height="253" fill="white"/>
</clipPath>
</defs>
</svg>
