<svg width="121" height="130" viewBox="0 0 121 130" fill="none" xmlns="http://www.w3.org/2000/svg">
<g clip-path="url(#clip0_945_13638)">
<path d="M119.331 108.787H1.93361C1.42096 108.786 0.929472 108.581 0.566975 108.216C0.204478 107.851 0.000575393 107.356 0 106.839V71.5044C0.000575393 70.988 0.204478 70.493 0.566975 70.1279C0.929472 69.7627 1.42096 69.5574 1.93361 69.5568H119.331C119.844 69.5574 120.335 69.7627 120.698 70.1279C121.06 70.493 121.264 70.988 121.265 71.5044V106.839C121.264 107.356 121.06 107.851 120.698 108.216C120.335 108.581 119.844 108.786 119.331 108.787ZM1.93361 70.1132C1.56743 70.1137 1.21638 70.2604 0.957459 70.5212C0.698535 70.782 0.552883 71.1355 0.552459 71.5044V106.839C0.552883 107.208 0.698535 107.562 0.957459 107.822C1.21638 108.083 1.56743 108.23 1.93361 108.23H119.331C119.697 108.23 120.048 108.083 120.307 107.822C120.566 107.562 120.712 107.208 120.712 106.839V71.5044C120.712 71.1355 120.566 70.7819 120.307 70.5211C120.048 70.2604 119.697 70.1137 119.331 70.1132H1.93361Z" fill="#3F3D56"/>
<path d="M53.3055 123.665C53.0753 123.664 52.8515 123.589 52.6663 123.452L51.1259 122.325C50.9981 122.231 50.8439 122.18 50.6857 122.18C50.5274 122.18 50.3732 122.231 50.2454 122.325L48.7051 123.452C48.5193 123.588 48.2956 123.661 48.0659 123.661C47.8363 123.661 47.6126 123.588 47.4268 123.452C47.241 123.316 47.1027 123.124 47.0317 122.904C46.9608 122.684 46.9607 122.447 47.0317 122.227L47.6201 120.404C47.6692 120.252 47.6694 120.089 47.6205 119.937C47.5716 119.786 47.4762 119.653 47.348 119.56L45.8076 118.433C45.6219 118.297 45.4836 118.105 45.4126 117.885C45.3416 117.665 45.3416 117.428 45.4126 117.208C45.4835 116.988 45.6218 116.797 45.8076 116.661C45.9934 116.525 46.2171 116.451 46.4467 116.451H48.3508C48.509 116.452 48.6633 116.401 48.7913 116.308C48.9193 116.214 49.0145 116.082 49.0631 115.93L49.6514 114.106C49.7224 113.886 49.8607 113.695 50.0464 113.559C50.2322 113.423 50.456 113.349 50.6857 113.349C50.9153 113.349 51.1391 113.423 51.3249 113.559C51.5106 113.695 51.6489 113.886 51.7199 114.106L52.3082 115.93C52.3568 116.082 52.452 116.214 52.58 116.308C52.708 116.401 52.8623 116.452 53.0205 116.451H54.9245C55.1542 116.451 55.3779 116.525 55.5637 116.661C55.7494 116.797 55.8877 116.988 55.9587 117.208C56.0296 117.428 56.0296 117.665 55.9587 117.885C55.8877 118.105 55.7494 118.297 55.5637 118.433L54.0233 119.56C53.8951 119.653 53.7997 119.786 53.7508 119.937C53.7019 120.089 53.7021 120.252 53.7512 120.404L54.3396 122.227C54.4132 122.447 54.4145 122.685 54.3433 122.906C54.2721 123.126 54.1323 123.318 53.9446 123.452C53.7594 123.589 53.5356 123.664 53.3055 123.665Z" fill="#1E90FF"/>
<path d="M68.9147 123.665C68.6846 123.664 68.4607 123.589 68.2756 123.452L66.7352 122.325C66.6074 122.231 66.4532 122.18 66.295 122.18C66.1367 122.18 65.9825 122.231 65.8547 122.325L64.3144 123.452C64.1286 123.588 63.9049 123.661 63.6752 123.661C63.4456 123.661 63.2219 123.588 63.0361 123.452C62.8503 123.316 62.712 123.124 62.641 122.904C62.5701 122.684 62.57 122.447 62.641 122.227L63.2294 120.404C63.2785 120.252 63.2787 120.089 63.2298 119.937C63.1809 119.786 63.0855 119.653 62.9573 119.56L61.4169 118.433C61.2312 118.297 61.0929 118.105 61.022 117.885C60.951 117.665 60.951 117.428 61.022 117.208C61.0929 116.988 61.2312 116.797 61.417 116.661C61.6028 116.525 61.8265 116.451 62.0561 116.451H63.9601C64.1183 116.452 64.2726 116.401 64.4006 116.308C64.5286 116.214 64.6238 116.082 64.6724 115.93L65.2608 114.106C65.3317 113.886 65.47 113.695 65.6558 113.559C65.8416 113.423 66.0653 113.349 66.295 113.349C66.5246 113.349 66.7484 113.423 66.9342 113.559C67.12 113.695 67.2582 113.886 67.3292 114.106L67.9175 115.93C67.9661 116.082 68.0613 116.214 68.1893 116.308C68.3174 116.401 68.4716 116.452 68.6299 116.451H70.5338C70.7635 116.451 70.9872 116.525 71.173 116.661C71.3587 116.797 71.497 116.988 71.568 117.208C71.6389 117.428 71.639 117.665 71.568 117.885C71.4971 118.105 71.3588 118.297 71.173 118.433L69.6327 119.56C69.5044 119.653 69.409 119.786 69.3601 119.937C69.3112 120.089 69.3113 120.252 69.3605 120.404L69.9489 122.227C70.0225 122.447 70.0238 122.685 69.9526 122.906C69.8814 123.126 69.7416 123.318 69.5538 123.452C69.3687 123.589 69.1448 123.664 68.9147 123.665Z" fill="#1E90FF"/>
<path d="M84.5241 123.665C84.294 123.664 84.0702 123.589 83.885 123.452L82.3446 122.325C82.2167 122.231 82.0626 122.18 81.9044 122.18C81.7462 122.18 81.592 122.231 81.4641 122.325L79.9237 123.452C79.738 123.588 79.5142 123.661 79.2846 123.661C79.055 123.661 78.8313 123.588 78.6455 123.452C78.4597 123.316 78.3214 123.124 78.2505 122.904C78.1795 122.684 78.1795 122.447 78.2504 122.227L78.8387 120.404C78.8879 120.252 78.8881 120.089 78.8392 119.937C78.7903 119.786 78.6949 119.653 78.5667 119.56L77.0263 118.433C76.8405 118.297 76.7023 118.105 76.6313 117.885C76.5604 117.665 76.5604 117.428 76.6314 117.208C76.7023 116.988 76.8406 116.797 77.0264 116.661C77.2121 116.525 77.4359 116.451 77.6655 116.451H79.5695C79.7277 116.452 79.8819 116.401 80.01 116.308C80.138 116.214 80.2332 116.082 80.2818 115.93L80.8702 114.106C80.9411 113.886 81.0794 113.695 81.2652 113.559C81.451 113.423 81.6747 113.349 81.9044 113.349C82.134 113.349 82.3578 113.423 82.5435 113.559C82.7293 113.695 82.8676 113.886 82.9385 114.106L83.5269 115.93C83.5756 116.082 83.6707 116.214 83.7988 116.308C83.9268 116.401 84.081 116.452 84.2393 116.451H86.1432C86.3728 116.451 86.5966 116.525 86.7824 116.661C86.9681 116.797 87.1064 116.988 87.1774 117.208C87.2483 117.428 87.2483 117.665 87.1774 117.885C87.1064 118.105 86.9682 118.297 86.7824 118.433L85.242 119.56C85.1138 119.653 85.0184 119.786 84.9695 119.937C84.9206 120.089 84.9208 120.252 84.97 120.404L85.5583 122.227C85.6318 122.447 85.6331 122.685 85.562 122.906C85.4908 123.126 85.351 123.318 85.1633 123.452C84.9781 123.589 84.7542 123.664 84.5241 123.665Z" fill="#1E90FF"/>
<path d="M100.134 123.665C99.9035 123.664 99.6796 123.589 99.4944 123.452L97.954 122.325C97.8262 122.231 97.6721 122.18 97.5138 122.18C97.3556 122.18 97.2014 122.231 97.0736 122.325L95.5332 123.452C95.3474 123.588 95.1237 123.661 94.8941 123.661C94.6645 123.661 94.4407 123.588 94.2549 123.452C94.0691 123.316 93.9309 123.124 93.8599 122.904C93.7889 122.684 93.7889 122.447 93.8598 122.227L94.4482 120.404C94.4974 120.252 94.4976 120.089 94.4486 119.937C94.3997 119.786 94.3043 119.654 94.1761 119.56L92.6357 118.433C92.4499 118.297 92.3116 118.105 92.2407 117.885C92.1698 117.665 92.1698 117.428 92.2407 117.208C92.3117 116.988 92.45 116.797 92.6357 116.661C92.8215 116.525 93.0452 116.451 93.2749 116.451H95.1788C95.3371 116.452 95.4913 116.401 95.6194 116.308C95.7474 116.214 95.8426 116.082 95.8912 115.93L96.4796 114.106C96.5505 113.886 96.6888 113.695 96.8745 113.559C97.0603 113.423 97.2841 113.349 97.5137 113.349C97.7434 113.349 97.9671 113.423 98.1529 113.559C98.3387 113.695 98.477 113.886 98.5479 114.106L99.1363 115.93C99.1849 116.082 99.2801 116.214 99.4081 116.308C99.5362 116.401 99.6904 116.452 99.8486 116.451H101.753C101.982 116.451 102.206 116.525 102.392 116.661C102.578 116.797 102.716 116.988 102.787 117.208C102.858 117.428 102.858 117.665 102.787 117.885C102.716 118.105 102.578 118.297 102.392 118.433L100.851 119.56C100.723 119.653 100.628 119.786 100.579 119.937C100.53 120.089 100.53 120.252 100.579 120.404L101.168 122.227C101.241 122.447 101.243 122.685 101.171 122.906C101.1 123.126 100.96 123.318 100.773 123.452C100.588 123.589 100.364 123.664 100.134 123.665Z" fill="#1E90FF"/>
<path d="M110.505 123.773C110.252 123.772 110.006 123.69 109.803 123.539C109.597 123.392 109.443 123.181 109.365 122.939C109.287 122.697 109.288 122.435 109.369 122.194L109.957 120.37C110 120.24 110 120.1 109.958 119.97C109.916 119.84 109.834 119.727 109.724 119.647L108.184 118.52C107.98 118.371 107.828 118.16 107.75 117.918C107.672 117.677 107.672 117.416 107.75 117.175C107.828 116.933 107.98 116.723 108.184 116.573C108.388 116.424 108.634 116.344 108.886 116.344H110.79C110.926 116.344 111.058 116.301 111.167 116.22C111.277 116.14 111.359 116.027 111.4 115.897L111.989 114.073C112.067 113.831 112.219 113.621 112.423 113.471C112.627 113.322 112.873 113.242 113.125 113.242C113.377 113.242 113.623 113.322 113.827 113.471C114.031 113.621 114.183 113.831 114.261 114.073L114.849 115.897C114.891 116.027 114.972 116.14 115.082 116.22C115.192 116.301 115.324 116.344 115.46 116.344H117.364C117.616 116.344 117.862 116.424 118.066 116.573C118.27 116.723 118.422 116.933 118.5 117.175C118.578 117.416 118.578 117.677 118.5 117.918C118.422 118.16 118.27 118.371 118.066 118.52L116.525 119.647C116.415 119.727 116.334 119.84 116.292 119.97C116.25 120.1 116.25 120.24 116.292 120.37L116.881 122.194C116.958 122.436 116.958 122.696 116.88 122.937C116.803 123.179 116.651 123.39 116.447 123.539C116.242 123.688 115.997 123.769 115.744 123.769C115.492 123.769 115.246 123.688 115.042 123.539L113.502 122.412C113.393 122.331 113.26 122.288 113.125 122.288C112.989 122.288 112.857 122.331 112.747 122.412L111.207 123.539C111.004 123.69 110.758 123.772 110.505 123.773ZM113.125 121.731C113.377 121.731 113.623 121.812 113.827 121.962L115.367 123.089C115.477 123.169 115.609 123.212 115.744 123.212C115.88 123.212 116.012 123.169 116.122 123.089C116.232 123.009 116.313 122.895 116.355 122.766C116.397 122.636 116.397 122.496 116.355 122.366L115.767 120.542C115.688 120.301 115.688 120.04 115.766 119.798C115.844 119.557 115.996 119.346 116.201 119.197L117.741 118.07C117.851 117.989 117.932 117.876 117.974 117.746C118.016 117.617 118.016 117.477 117.974 117.347C117.932 117.217 117.851 117.104 117.741 117.024C117.631 116.943 117.499 116.9 117.364 116.9H115.46C115.207 116.9 114.961 116.82 114.757 116.671C114.553 116.521 114.401 116.311 114.324 116.069L113.735 114.245C113.693 114.115 113.612 114.002 113.502 113.922C113.392 113.841 113.26 113.798 113.125 113.798C112.989 113.798 112.857 113.841 112.747 113.922C112.638 114.002 112.556 114.115 112.514 114.245L111.926 116.069C111.848 116.311 111.696 116.521 111.492 116.671C111.288 116.82 111.042 116.9 110.79 116.9H108.886C108.75 116.9 108.618 116.943 108.509 117.023C108.399 117.104 108.317 117.217 108.275 117.347C108.233 117.477 108.233 117.617 108.275 117.746C108.317 117.876 108.399 117.989 108.508 118.07L110.049 119.197C110.253 119.346 110.405 119.557 110.483 119.798C110.561 120.04 110.561 120.301 110.483 120.542L109.894 122.366C109.852 122.496 109.852 122.636 109.894 122.766C109.936 122.895 110.018 123.009 110.128 123.089C110.237 123.169 110.369 123.212 110.505 123.212C110.641 123.212 110.773 123.169 110.882 123.089L112.423 121.962C112.627 121.812 112.872 121.731 113.125 121.731Z" fill="#3F3D56"/>
<path d="M15.1939 77.9035C14.7177 77.9035 14.261 78.0941 13.9243 78.4332C13.5876 78.7724 13.3984 79.2324 13.3984 79.712C13.3984 80.1917 13.5876 80.6517 13.9243 80.9908C14.261 81.33 14.7177 81.5205 15.1939 81.5205H106.073C106.55 81.5205 107.006 81.33 107.343 80.9908C107.68 80.6517 107.869 80.1917 107.869 79.712C107.869 79.2324 107.68 78.7724 107.343 78.4332C107.006 78.0941 106.55 77.9035 106.073 77.9035H15.1939Z" fill="#CCCCCC"/>
<path d="M15.1939 87.3633C14.7177 87.3633 14.261 87.5538 13.9243 87.893C13.5876 88.2322 13.3984 88.6922 13.3984 89.1718C13.3984 89.6514 13.5876 90.1114 13.9243 90.4506C14.261 90.7897 14.7177 90.9803 15.1939 90.9803H106.073C106.55 90.9803 107.006 90.7897 107.343 90.4506C107.68 90.1114 107.869 89.6514 107.869 89.1718C107.869 88.6922 107.68 88.2322 107.343 87.893C107.006 87.5538 106.55 87.3633 106.073 87.3633H15.1939Z" fill="#CCCCCC"/>
<path d="M15.1939 96.8231C14.7177 96.8231 14.261 97.0136 13.9243 97.3528C13.5876 97.6919 13.3984 98.1519 13.3984 98.6315C13.3984 99.1112 13.5876 99.5712 13.9243 99.9103C14.261 100.249 14.7177 100.44 15.1939 100.44H106.073C106.55 100.44 107.006 100.249 107.343 99.9103C107.68 99.5712 107.869 99.1112 107.869 98.6315C107.869 98.1519 107.68 97.6919 107.343 97.3528C107.006 97.0136 106.55 96.8231 106.073 96.8231H15.1939Z" fill="#CCCCCC"/>
<path d="M15.1939 77.9035C14.7177 77.9035 14.261 78.0941 13.9243 78.4332C13.5876 78.7724 13.3984 79.2324 13.3984 79.712C13.3984 80.1917 13.5876 80.6517 13.9243 80.9908C14.261 81.33 14.7177 81.5205 15.1939 81.5205H106.073C106.55 81.5205 107.006 81.33 107.343 80.9908C107.68 80.6517 107.869 80.1917 107.869 79.712C107.869 79.2324 107.68 78.7724 107.343 78.4332C107.006 78.0941 106.55 77.9035 106.073 77.9035H15.1939Z" fill="#CCCCCC"/>
<path d="M15.1939 87.3633C14.7177 87.3633 14.261 87.5538 13.9243 87.893C13.5876 88.2322 13.3984 88.6922 13.3984 89.1718C13.3984 89.6514 13.5876 90.1114 13.9243 90.4506C14.261 90.7897 14.7177 90.9803 15.1939 90.9803H106.073C106.55 90.9803 107.006 90.7897 107.343 90.4506C107.68 90.1114 107.869 89.6514 107.869 89.1718C107.869 88.6922 107.68 88.2322 107.343 87.893C107.006 87.5538 106.55 87.3633 106.073 87.3633H15.1939Z" fill="#CCCCCC"/>
<path d="M15.1939 96.8231C14.7177 96.8231 14.261 97.0136 13.9243 97.3528C13.5876 97.6919 13.3984 98.1519 13.3984 98.6315C13.3984 99.1112 13.5876 99.5712 13.9243 99.9103C14.261 100.249 14.7177 100.44 15.1939 100.44H106.073C106.55 100.44 107.006 100.249 107.343 99.9103C107.68 99.5712 107.869 99.1112 107.869 98.6315C107.869 98.1519 107.68 97.6919 107.343 97.3528C107.006 97.0136 106.55 96.8231 106.073 96.8231H15.1939Z" fill="#CCCCCC"/>
<path d="M119.331 39.23H1.93361C1.42096 39.2294 0.929472 39.0241 0.566975 38.6589C0.204478 38.2938 0.000575393 37.7988 0 37.2824V1.94759C0.000575393 1.43123 0.204478 0.936194 0.566975 0.571075C0.929472 0.205957 1.42096 0.000579554 1.93361 0H119.331C119.844 0.000578819 120.335 0.205957 120.698 0.571075C121.06 0.936194 121.264 1.43123 121.265 1.94759V37.2824C121.264 37.7988 121.06 38.2938 120.698 38.6589C120.335 39.0241 119.844 39.2294 119.331 39.23ZM1.93361 0.556454C1.56743 0.556881 1.21638 0.703583 0.957459 0.964379C0.698535 1.22517 0.552883 1.57877 0.552459 1.94759V37.2824C0.552883 37.6513 0.698535 38.0048 0.957459 38.2656C1.21638 38.5264 1.56743 38.6731 1.93361 38.6736H119.331C119.697 38.6731 120.048 38.5265 120.307 38.2657C120.566 38.0049 120.712 37.6513 120.712 37.2824V1.94759C120.712 1.57877 120.566 1.22517 120.307 0.964374C120.048 0.703577 119.697 0.556875 119.331 0.556454H1.93361Z" fill="#3F3D56"/>
<path d="M53.3055 54.1083C53.0753 54.1074 52.8515 54.0327 52.6663 53.8951L51.1259 52.7679C50.9981 52.6739 50.8439 52.6232 50.6857 52.6232C50.5274 52.6232 50.3732 52.6739 50.2454 52.7679L48.7051 53.8951C48.5193 54.0311 48.2956 54.1043 48.0659 54.1043C47.8363 54.1043 47.6126 54.0311 47.4268 53.8952C47.241 53.7592 47.1027 53.5676 47.0317 53.3476C46.9608 53.1276 46.9607 52.8907 47.0317 52.6707L47.6201 50.8468C47.6692 50.6953 47.6694 50.532 47.6205 50.3804C47.5716 50.2288 47.4762 50.0967 47.348 50.0032L45.8076 48.876C45.6219 48.7401 45.4836 48.5484 45.4126 48.3284C45.3416 48.1084 45.3416 47.8715 45.4126 47.6515C45.4835 47.4315 45.6218 47.2398 45.8076 47.1039C45.9934 46.9679 46.2171 46.8947 46.4467 46.8947H48.3508C48.509 46.895 48.6633 46.8447 48.7913 46.751C48.9193 46.6573 49.0145 46.5251 49.0631 46.3735L49.6514 44.5496C49.7224 44.3296 49.8607 44.1379 50.0464 44.0019C50.2322 43.8659 50.456 43.7927 50.6857 43.7927C50.9153 43.7927 51.1391 43.8659 51.3249 44.0019C51.5106 44.1379 51.6489 44.3296 51.7199 44.5496L52.3082 46.3735C52.3568 46.5251 52.452 46.6573 52.58 46.751C52.708 46.8447 52.8623 46.895 53.0205 46.8947H54.9245C55.1542 46.8947 55.3779 46.9679 55.5637 47.1039C55.7494 47.2399 55.8877 47.4316 55.9587 47.6515C56.0296 47.8715 56.0296 48.1084 55.9587 48.3284C55.8877 48.5484 55.7494 48.7401 55.5637 48.876L54.0233 50.0032C53.8951 50.0967 53.7997 50.2288 53.7508 50.3804C53.7019 50.532 53.7021 50.6953 53.7512 50.8468L54.3396 52.6707C54.4132 52.8905 54.4145 53.1282 54.3433 53.3488C54.2721 53.5693 54.1323 53.7609 53.9446 53.8951C53.7594 54.0327 53.5356 54.1074 53.3055 54.1083Z" fill="#1E90FF"/>
<path d="M68.9147 54.1083C68.6846 54.1074 68.4607 54.0327 68.2756 53.8951L66.7352 52.7679C66.6074 52.6739 66.4532 52.6232 66.295 52.6232C66.1367 52.6232 65.9825 52.6739 65.8547 52.7679L64.3144 53.8951C64.1286 54.0311 63.9049 54.1043 63.6752 54.1043C63.4456 54.1043 63.2219 54.0311 63.0361 53.8952C62.8503 53.7592 62.712 53.5676 62.641 53.3476C62.5701 53.1276 62.57 52.8907 62.641 52.6707L63.2294 50.8468C63.2785 50.6953 63.2787 50.532 63.2298 50.3804C63.1809 50.2288 63.0855 50.0967 62.9573 50.0032L61.4169 48.876C61.2312 48.7401 61.0929 48.5484 61.022 48.3284C60.951 48.1084 60.951 47.8715 61.022 47.6515C61.0929 47.4315 61.2312 47.2398 61.417 47.1039C61.6028 46.9679 61.8265 46.8947 62.0561 46.8947H63.9601C64.1183 46.895 64.2726 46.8447 64.4006 46.751C64.5286 46.6573 64.6238 46.5251 64.6724 46.3735L65.2608 44.5496C65.3317 44.3296 65.47 44.1379 65.6558 44.0019C65.8416 43.8659 66.0653 43.7927 66.295 43.7927C66.5246 43.7927 66.7484 43.8659 66.9342 44.0019C67.12 44.1379 67.2582 44.3296 67.3292 44.5496L67.9175 46.3735C67.9661 46.5251 68.0613 46.6573 68.1893 46.751C68.3174 46.8447 68.4716 46.895 68.6299 46.8947H70.5338C70.7635 46.8947 70.9872 46.9679 71.173 47.1039C71.3587 47.2398 71.497 47.4315 71.568 47.6515C71.6389 47.8715 71.639 48.1084 71.568 48.3284C71.4971 48.5484 71.3588 48.7401 71.173 48.876L69.6327 50.0032C69.5044 50.0967 69.409 50.2288 69.3601 50.3804C69.3112 50.532 69.3113 50.6953 69.3605 50.8468L69.9489 52.6707C70.0225 52.8905 70.0238 53.1282 69.9526 53.3488C69.8814 53.5693 69.7416 53.7609 69.5538 53.8951C69.3687 54.0327 69.1448 54.1074 68.9147 54.1083Z" fill="#1E90FF"/>
<path d="M84.5241 54.1083C84.294 54.1074 84.0702 54.0327 83.885 53.8951L82.3446 52.7679C82.2167 52.6741 82.0626 52.6236 81.9044 52.6236C81.7462 52.6236 81.592 52.6741 81.4641 52.7679L79.9237 53.8951C79.738 54.0311 79.5142 54.1043 79.2846 54.1043C79.055 54.1043 78.8313 54.0311 78.6455 53.8952C78.4597 53.7592 78.3214 53.5676 78.2505 53.3476C78.1795 53.1276 78.1795 52.8907 78.2504 52.6707L78.8387 50.8468C78.8879 50.6953 78.8881 50.532 78.8392 50.3804C78.7903 50.2288 78.6949 50.0967 78.5667 50.0032L77.0263 48.876C76.8405 48.7401 76.7023 48.5484 76.6313 48.3284C76.5604 48.1084 76.5604 47.8715 76.6314 47.6515C76.7023 47.4315 76.8406 47.2398 77.0264 47.1039C77.2121 46.9679 77.4359 46.8947 77.6655 46.8947H79.5695C79.7277 46.895 79.8819 46.8447 80.01 46.751C80.138 46.6573 80.2332 46.5251 80.2818 46.3735L80.8702 44.5496C80.9411 44.3296 81.0794 44.1379 81.2652 44.0019C81.451 43.8659 81.6747 43.7927 81.9044 43.7927C82.134 43.7927 82.3578 43.8659 82.5435 44.0019C82.7293 44.1379 82.8676 44.3296 82.9385 44.5496L83.5269 46.3735C83.5756 46.5251 83.6707 46.6573 83.7988 46.751C83.9268 46.8447 84.081 46.895 84.2393 46.8947H86.1432C86.3728 46.8947 86.5966 46.9679 86.7824 47.1039C86.9681 47.2398 87.1064 47.4315 87.1774 47.6515C87.2483 47.8715 87.2483 48.1084 87.1774 48.3284C87.1064 48.5484 86.9682 48.7401 86.7824 48.876L85.242 50.0032C85.1138 50.0967 85.0184 50.2288 84.9695 50.3804C84.9206 50.532 84.9208 50.6953 84.97 50.8468L85.5583 52.6707C85.6318 52.8905 85.6331 53.1282 85.562 53.3488C85.4908 53.5693 85.351 53.7609 85.1633 53.8951C84.9781 54.0327 84.7542 54.1074 84.5241 54.1083Z" fill="#1E90FF"/>
<path d="M110.505 54.2165C110.252 54.2154 110.006 54.1335 109.803 53.9825C109.597 53.8351 109.443 53.6246 109.365 53.3823C109.287 53.14 109.288 52.8787 109.369 52.6373L109.957 50.8135C110 50.6836 110 50.5437 109.958 50.4138C109.916 50.2839 109.834 50.1707 109.724 50.0906L108.184 48.9633C107.98 48.814 107.828 48.6034 107.75 48.3618C107.672 48.1201 107.672 47.8598 107.75 47.6182C107.828 47.3766 107.98 47.166 108.184 47.0167C108.388 46.8673 108.634 46.7869 108.886 46.7869H110.79C110.926 46.7872 111.058 46.744 111.167 46.6637C111.277 46.5834 111.359 46.4701 111.4 46.3401L111.989 44.5163C112.067 44.2746 112.219 44.0641 112.423 43.9147C112.627 43.7654 112.873 43.685 113.125 43.685C113.377 43.685 113.623 43.7654 113.827 43.9147C114.031 44.0641 114.183 44.2746 114.261 44.5163L114.849 46.3401C114.891 46.4701 114.972 46.5834 115.082 46.6637C115.192 46.744 115.324 46.7872 115.46 46.7869H117.364C117.616 46.7869 117.862 46.8674 118.066 47.0167C118.27 47.166 118.422 47.3766 118.5 47.6182C118.578 47.8598 118.578 48.1201 118.5 48.3617C118.422 48.6034 118.27 48.8139 118.066 48.9633L116.525 50.0906C116.415 50.1707 116.334 50.2838 116.292 50.4137C116.25 50.5437 116.25 50.6836 116.292 50.8135L116.881 52.6373C116.958 52.8789 116.958 53.1392 116.88 53.3808C116.803 53.6225 116.651 53.833 116.447 53.9824C116.242 54.1317 115.997 54.2121 115.744 54.2121C115.492 54.2121 115.246 54.1317 115.042 53.9824L113.502 52.8552C113.393 52.7747 113.26 52.7313 113.125 52.7313C112.989 52.7313 112.857 52.7747 112.747 52.8552L111.207 53.9824C111.004 54.1335 110.758 54.2155 110.505 54.2165ZM113.125 52.1746C113.377 52.1746 113.623 52.2553 113.827 52.405L115.367 53.5322C115.477 53.6125 115.609 53.6557 115.744 53.6558C115.88 53.6558 116.012 53.6126 116.122 53.5323C116.232 53.452 116.313 53.3388 116.355 53.209C116.397 53.0791 116.397 52.9392 116.355 52.8093L115.767 50.9855C115.688 50.7439 115.688 50.4834 115.766 50.2417C115.844 50 115.996 49.7894 116.201 49.6404L117.741 48.5131C117.851 48.4328 117.932 48.3196 117.974 48.1898C118.016 48.0599 118.016 47.92 117.974 47.7902C117.932 47.6603 117.851 47.5471 117.741 47.4669C117.631 47.3866 117.499 47.3434 117.364 47.3434H115.46C115.207 47.3439 114.961 47.2636 114.757 47.1142C114.553 46.9648 114.401 46.754 114.324 46.5121L113.735 44.6883C113.693 44.5584 113.612 44.4452 113.502 44.3649C113.392 44.2847 113.26 44.2414 113.125 44.2414C112.989 44.2414 112.857 44.2847 112.747 44.3649C112.638 44.4452 112.556 44.5584 112.514 44.6883L111.926 46.5121C111.848 46.754 111.696 46.9648 111.492 47.1142C111.288 47.2636 111.042 47.3439 110.79 47.3434H108.886C108.75 47.3434 108.618 47.3866 108.509 47.4669C108.399 47.5471 108.317 47.6603 108.275 47.7901C108.233 47.92 108.233 48.0599 108.275 48.1898C108.317 48.3196 108.399 48.4328 108.508 48.5131L110.049 49.6404C110.253 49.7894 110.405 50 110.483 50.2417C110.561 50.4835 110.561 50.7439 110.483 50.9855L109.894 52.8093C109.852 52.9392 109.852 53.0791 109.894 53.2089C109.936 53.3388 110.018 53.452 110.128 53.5322C110.237 53.6125 110.369 53.6557 110.505 53.6557C110.641 53.6557 110.773 53.6124 110.882 53.5322L112.423 52.405C112.627 52.2553 112.872 52.1746 113.125 52.1746Z" fill="#3F3D56"/>
<path d="M94.7589 54.1717C94.5062 54.1707 94.2603 54.0887 94.0569 53.9378C93.8506 53.7903 93.697 53.5798 93.6188 53.3375C93.5407 53.0952 93.5421 52.834 93.6229 52.5925L94.2113 50.7687C94.2534 50.6389 94.2536 50.4989 94.2116 50.369C94.1697 50.2391 94.088 50.1259 93.9781 50.0458L92.4377 48.9185C92.2336 48.7692 92.0817 48.5586 92.0038 48.317C91.9258 48.0753 91.9258 47.8151 92.0038 47.5734C92.0817 47.3318 92.2336 47.1212 92.4377 46.9719C92.6418 46.8226 92.8875 46.7421 93.1398 46.7422H95.0438C95.1794 46.7424 95.3116 46.6993 95.4213 46.619C95.531 46.5387 95.6126 46.4253 95.6543 46.2953L96.2427 44.4715C96.3207 44.2299 96.4726 44.0193 96.6766 43.87C96.8807 43.7207 97.1265 43.6402 97.3787 43.6402C97.6309 43.6402 97.8767 43.7207 98.0808 43.87C98.2848 44.0193 98.4367 44.2299 98.5147 44.4715L99.103 46.2953C99.1447 46.4253 99.2262 46.5387 99.336 46.619C99.4457 46.6993 99.5779 46.7424 99.7135 46.7422H101.618C101.87 46.7422 102.116 46.8226 102.32 46.9719C102.524 47.1213 102.676 47.3318 102.753 47.5735C102.831 47.8151 102.831 48.0754 102.754 48.317C102.676 48.5586 102.524 48.7692 102.32 48.9185L100.779 50.0458C100.669 50.1259 100.588 50.2391 100.546 50.369C100.504 50.4989 100.504 50.6389 100.546 50.7687L101.134 52.5925C101.212 52.8342 101.212 53.0945 101.134 53.3361C101.056 53.5777 100.905 53.7883 100.7 53.9376C100.496 54.0869 100.251 54.1674 99.9984 54.1674C99.7461 54.1674 99.5004 54.087 99.2963 53.9376L97.756 52.8104C97.6464 52.7299 97.5143 52.6866 97.3786 52.6866C97.243 52.6866 97.1109 52.7299 97.0013 52.8104L95.4609 53.9376C95.2575 54.0887 95.0116 54.1707 94.7589 54.1717ZM97.3787 52.1298C97.631 52.1299 97.8767 52.2105 98.0806 52.3602L99.621 53.4874C99.7307 53.5677 99.8628 53.611 99.9983 53.611C100.134 53.611 100.266 53.5678 100.376 53.4875C100.485 53.4073 100.567 53.2941 100.609 53.1642C100.651 53.0343 100.651 52.8944 100.609 52.7645L100.021 50.9407C99.9421 50.6991 99.9419 50.4387 100.02 50.1969C100.098 49.9552 100.25 49.7446 100.455 49.5956L101.995 48.4683C102.105 48.388 102.186 48.2749 102.228 48.145C102.27 48.0152 102.27 47.8753 102.228 47.7454C102.186 47.6155 102.104 47.5024 101.995 47.4221C101.885 47.3419 101.753 47.2986 101.618 47.2986H99.7135C99.4611 47.2991 99.2152 47.2188 99.011 47.0694C98.8069 46.92 98.6551 46.7092 98.5776 46.4673L97.9892 44.6435C97.9473 44.5136 97.8656 44.4004 97.756 44.3202C97.6463 44.2399 97.5142 44.1967 97.3786 44.1967C97.243 44.1967 97.1109 44.2399 97.0012 44.3202C96.8916 44.4004 96.8099 44.5136 96.7681 44.6435L96.1796 46.4673C96.1021 46.7092 95.9504 46.92 95.7462 47.0694C95.5421 47.2188 95.2961 47.2991 95.0438 47.2986H93.1398C93.0042 47.2986 92.8721 47.3418 92.7625 47.4221C92.6528 47.5023 92.5711 47.6155 92.5292 47.7454C92.4873 47.8752 92.4873 48.0151 92.5292 48.145C92.5711 48.2749 92.6527 48.388 92.7624 48.4683L94.3028 49.5956C94.5073 49.7447 94.6594 49.9552 94.7374 50.1969C94.8154 50.4387 94.8151 50.6991 94.7367 50.9407L94.1483 52.7645C94.1064 52.8944 94.1064 53.0343 94.1483 53.1642C94.1902 53.294 94.2718 53.4072 94.3815 53.4874C94.4912 53.5677 94.6233 53.6109 94.7588 53.6109C94.8944 53.6109 95.0265 53.5677 95.1362 53.4874L96.6766 52.3602C96.8805 52.2105 97.1263 52.1299 97.3787 52.1298Z" fill="#3F3D56"/>
<path d="M15.1939 8.34679C14.7177 8.34679 14.261 8.53733 13.9243 8.87648C13.5876 9.21564 13.3984 9.67563 13.3984 10.1553C13.3984 10.6349 13.5876 11.0949 13.9243 11.4341C14.261 11.7732 14.7177 11.9637 15.1939 11.9637H106.073C106.55 11.9637 107.006 11.7732 107.343 11.4341C107.68 11.0949 107.869 10.6349 107.869 10.1553C107.869 9.67563 107.68 9.21564 107.343 8.87648C107.006 8.53733 106.55 8.34679 106.073 8.34679H15.1939Z" fill="#CCCCCC"/>
<path d="M15.1939 17.8066C14.7177 17.8066 14.261 17.9971 13.9243 18.3362C13.5876 18.6754 13.3984 19.1354 13.3984 19.615C13.3984 20.0947 13.5876 20.5547 13.9243 20.8938C14.261 21.233 14.7177 21.4235 15.1939 21.4235H106.073C106.55 21.4235 107.006 21.233 107.343 20.8938C107.68 20.5547 107.869 20.0947 107.869 19.615C107.869 19.1354 107.68 18.6754 107.343 18.3362C107.006 17.9971 106.55 17.8066 106.073 17.8066H15.1939Z" fill="#CCCCCC"/>
<path d="M15.1939 27.2662C14.7177 27.2662 14.261 27.4567 13.9243 27.7959C13.5876 28.135 13.3984 28.595 13.3984 29.0747C13.3984 29.5543 13.5876 30.0143 13.9243 30.3535C14.261 30.6926 14.7177 30.8831 15.1939 30.8831H106.073C106.55 30.8831 107.006 30.6926 107.343 30.3535C107.68 30.0143 107.869 29.5543 107.869 29.0747C107.869 28.595 107.68 28.135 107.343 27.7959C107.006 27.4567 106.55 27.2662 106.073 27.2662H15.1939Z" fill="#CCCCCC"/>
<path d="M15.1939 8.34679C14.7177 8.34679 14.261 8.53733 13.9243 8.87648C13.5876 9.21564 13.3984 9.67563 13.3984 10.1553C13.3984 10.6349 13.5876 11.0949 13.9243 11.4341C14.261 11.7732 14.7177 11.9637 15.1939 11.9637H106.073C106.55 11.9637 107.006 11.7732 107.343 11.4341C107.68 11.0949 107.869 10.6349 107.869 10.1553C107.869 9.67563 107.68 9.21564 107.343 8.87648C107.006 8.53733 106.55 8.34679 106.073 8.34679H15.1939Z" fill="#CCCCCC"/>
<path d="M15.1939 17.8066C14.7177 17.8066 14.261 17.9971 13.9243 18.3362C13.5876 18.6754 13.3984 19.1354 13.3984 19.615C13.3984 20.0947 13.5876 20.5547 13.9243 20.8938C14.261 21.233 14.7177 21.4235 15.1939 21.4235H106.073C106.55 21.4235 107.006 21.233 107.343 20.8938C107.68 20.5547 107.869 20.0947 107.869 19.615C107.869 19.1354 107.68 18.6754 107.343 18.3362C107.006 17.9971 106.55 17.8066 106.073 17.8066H15.1939Z" fill="#CCCCCC"/>
<path d="M15.1939 27.2662C14.7177 27.2662 14.261 27.4567 13.9243 27.7959C13.5876 28.135 13.3984 28.595 13.3984 29.0747C13.3984 29.5543 13.5876 30.0143 13.9243 30.3535C14.261 30.6926 14.7177 30.8831 15.1939 30.8831H106.073C106.55 30.8831 107.006 30.6926 107.343 30.3535C107.68 30.0143 107.869 29.5543 107.869 29.0747C107.869 28.595 107.68 28.135 107.343 27.7959C107.006 27.4567 106.55 27.2662 106.073 27.2662H15.1939Z" fill="#CCCCCC"/>
</g>
<defs>
<clipPath id="clip0_945_13638">
<rect width="121" height="130" fill="white"/>
</clipPath>
</defs>
</svg>
