<svg width="334" height="295" viewBox="0 0 334 295" fill="none" xmlns="http://www.w3.org/2000/svg">
<g clip-path="url(#clip0_1023_15431)">
<path d="M214.499 265.812L213.679 254.414C208.311 251.73 202.369 250.398 196.369 250.532C204.81 257.057 204.134 270.098 209.98 279.022C211.825 281.792 214.269 284.111 217.132 285.808C219.994 287.504 223.202 288.535 226.518 288.823L233.543 292.865C234.346 287.553 233.989 282.131 232.495 276.971C231.001 271.811 228.407 267.036 224.89 262.975C222.894 260.716 220.622 258.718 218.127 257.027C216.592 261.436 214.499 265.812 214.499 265.812Z" fill="#F2F2F2"/>
<path d="M172.652 294.383H333.485C333.621 294.383 333.752 294.328 333.849 294.232C333.946 294.135 334 294.004 334 293.867C334 293.731 333.946 293.6 333.849 293.503C333.752 293.406 333.621 293.352 333.485 293.352H172.652C172.516 293.352 172.385 293.406 172.288 293.503C172.191 293.6 172.137 293.731 172.137 293.867C172.137 294.004 172.191 294.135 172.288 294.232C172.385 294.328 172.516 294.383 172.652 294.383Z" fill="#CCCCCC"/>
<path d="M70.2523 171.381V171.602H70.406C70.3504 171.531 70.299 171.458 70.2523 171.381ZM71.4352 77.8692C60.6995 91.831 54.8884 108.954 54.9087 126.566C54.9112 129.248 55.0425 131.893 55.3029 134.499C55.3431 134.947 55.3897 135.394 55.4501 135.835C56.9417 148.796 61.5983 161.192 69.0094 171.929C69.2965 172.35 69.5905 172.764 69.8849 173.179C73.0753 177.652 76.7176 181.784 80.7541 185.512C113.25 215.518 163.917 213.5 193.924 181.004C194.385 180.516 194.826 180.022 195.26 179.527C207.542 165.618 214.607 147.872 215.247 129.328C215.887 110.783 210.062 92.5923 198.769 77.8692C198.428 77.4214 198.08 76.9737 197.719 76.5326C196.929 75.5369 196.109 74.5612 195.26 73.6056C194.826 73.111 194.385 72.6165 193.924 72.1287C186.432 64.0031 177.336 57.5191 167.212 53.0861C157.088 48.6531 146.154 46.3674 135.102 46.3733C134.333 46.3733 133.571 46.3867 132.81 46.4067C132.302 46.4201 131.794 46.4401 131.286 46.4669C119.91 47.0069 108.78 49.9682 98.64 55.1529C88.4998 60.3377 79.5826 67.6265 72.4843 76.5326C72.1234 76.9737 71.7762 77.4214 71.4352 77.8692ZM70.406 171.602C70.3504 171.531 70.299 171.458 70.2523 171.381V171.602H70.406Z" fill="white"/>
<path d="M69.6909 170.559L69.918 170.098L86.9323 135.836V135.829L87.5941 134.499V134.492L115.702 77.8693V77.8626L116.363 76.5328L116.37 76.5261L130.604 47.837L131.286 46.467C131.794 46.4403 132.302 46.4202 132.809 46.4069L132.135 47.7701L117.86 76.5261V76.5328L117.199 77.8626V77.8693L88.3557 135.969L88.3492 135.976L71.3348 170.265L70.6666 171.602L70.5595 171.822L69.8847 173.179C69.5904 172.764 69.2964 172.35 69.0093 171.929L69.6909 170.559Z" fill="#3F3D56"/>
<path d="M88.0685 134.499V135.835H55.4499C55.3895 135.394 55.3429 134.947 55.3027 134.499H88.0685Z" fill="#3F3D56"/>
<path d="M138.76 144.925V143.588H171.378C171.439 144.029 171.485 144.477 171.526 144.925H138.76Z" fill="#3F3D56"/>
<path d="M166.042 140.268H167.379V172.887C166.938 172.947 166.49 172.994 166.042 173.034V140.268Z" fill="#3F3D56"/>
<path d="M198.768 77.8692C198.427 77.4214 198.08 76.9737 197.719 76.5326H195.26V73.6055C194.826 73.111 194.385 72.6165 193.923 72.1287V76.5326H72.4841C72.1232 76.9737 71.776 77.4214 71.4351 77.8692H193.923V181.004C194.385 180.516 194.826 180.022 195.26 179.527V77.8692H198.768Z" fill="#3F3D56"/>
<path d="M194.591 170.264H70.2505V171.601H194.591V170.264Z" fill="#3F3D56"/>
<path d="M70.2523 171.381V171.602H70.406C70.3504 171.531 70.299 171.458 70.2523 171.381ZM71.4352 77.8692C60.6995 91.831 54.8884 108.954 54.9087 126.566C54.9112 129.248 55.0425 131.893 55.3029 134.499C55.3431 134.947 55.3897 135.394 55.4501 135.835C56.9417 148.796 61.5983 161.192 69.0094 171.929C69.2965 172.35 69.5905 172.764 69.8849 173.179C73.0753 177.652 76.7176 181.784 80.7541 185.512C113.25 215.518 163.917 213.5 193.924 181.004C194.385 180.516 194.826 180.022 195.26 179.527C207.542 165.618 214.607 147.872 215.247 129.328C215.887 110.783 210.062 92.5923 198.769 77.8692C198.428 77.4214 198.08 76.9737 197.719 76.5326C196.929 75.5369 196.109 74.5612 195.26 73.6056C194.826 73.111 194.385 72.6165 193.924 72.1287C186.432 64.0031 177.336 57.5191 167.212 53.0861C157.088 48.6531 146.154 46.3674 135.102 46.3733C134.333 46.3733 133.571 46.3867 132.81 46.4067C132.302 46.4201 131.794 46.4401 131.286 46.4669C119.91 47.0069 108.78 49.9682 98.64 55.1529C88.4998 60.3377 79.5826 67.6265 72.4843 76.5326C72.1234 76.9737 71.7762 77.4214 71.4352 77.8692ZM56.7932 135.835C56.7331 135.394 56.6865 134.947 56.6395 134.499C54.6025 114.201 60.5091 93.9041 73.1193 77.8691C73.4733 77.4214 73.8277 76.9736 74.1951 76.5326C81.1017 68.1082 89.6809 61.2083 99.3904 56.2691C109.1 51.3298 119.729 48.4585 130.604 47.8368C131.112 47.8101 131.62 47.7833 132.135 47.77C133.117 47.7299 134.106 47.7098 135.102 47.7098C146.215 47.7033 157.203 50.0524 167.342 54.6025C177.482 59.1525 186.541 65.8 193.924 74.1067C194.385 74.6146 194.832 75.1225 195.26 75.6438C195.521 75.9378 195.768 76.2319 196.009 76.5326C196.376 76.9737 196.73 77.4214 197.084 77.8691C208.321 92.1351 214.278 109.848 213.945 128.005C213.613 146.161 207.011 163.644 195.26 177.489C194.832 178.01 194.385 178.518 193.924 179.026C189.855 183.598 185.267 187.679 180.253 191.189C144.614 216.131 95.5026 207.461 70.5597 171.822C70.5062 171.749 70.4527 171.675 70.406 171.602C70.3504 171.531 70.299 171.458 70.2523 171.381C70.0586 171.107 69.8715 170.833 69.691 170.559C62.6713 160.185 58.2478 148.276 56.7932 135.835ZM70.406 171.602C70.3504 171.531 70.299 171.458 70.2523 171.381V171.602H70.406Z" fill="#CCCCCC"/>
<path d="M227.461 212.7H147.454C146.476 212.699 145.538 212.309 144.846 211.618C144.154 210.926 143.765 209.988 143.764 209.01V170.026C143.765 169.048 144.154 168.11 144.846 167.418C145.538 166.726 146.476 166.337 147.454 166.336H227.461C228.439 166.337 229.377 166.726 230.069 167.418C230.761 168.11 231.15 169.048 231.151 170.026V209.01C231.15 209.988 230.761 210.926 230.069 211.618C229.377 212.309 228.439 212.699 227.461 212.7Z" fill="#CACACA"/>
<path d="M192.219 209.563C174.697 209.563 156.427 209.395 149.61 209.287C148.713 209.268 147.859 208.9 147.23 208.26C146.601 207.621 146.247 206.761 146.243 205.863V170.029C146.244 169.708 146.371 169.4 146.598 169.172C146.825 168.945 147.133 168.816 147.454 168.815H227.458C227.78 168.816 228.088 168.943 228.315 169.17C228.542 169.397 228.671 169.705 228.672 170.026V194.339C228.657 198.308 227.087 202.112 224.299 204.937C221.511 207.762 217.727 209.381 213.759 209.448C207.405 209.531 199.882 209.563 192.219 209.563Z" fill="#E4E4E4"/>
<path d="M219.201 191.217H154.103C153.68 191.217 153.269 191.086 152.924 190.843C152.579 190.599 152.317 190.255 152.175 189.858L144.807 169.187C144.697 168.879 144.663 168.548 144.707 168.224C144.752 167.899 144.873 167.59 145.062 167.322C145.25 167.054 145.5 166.836 145.791 166.685C146.082 166.533 146.404 166.454 146.732 166.454L228.105 166.34H228.108C228.447 166.34 228.78 166.424 229.078 166.585C229.376 166.745 229.63 166.977 229.816 167.26C230.003 167.543 230.116 167.867 230.146 168.205C230.176 168.542 230.122 168.881 229.989 169.193L221.081 189.977C220.924 190.345 220.662 190.659 220.327 190.88C219.993 191.1 219.601 191.218 219.201 191.217Z" fill="#CACACA"/>
<path d="M172.971 205.544H150.523C149.971 205.543 149.441 205.323 149.051 204.932C148.66 204.541 148.441 204.011 148.441 203.458C148.441 202.906 148.66 202.376 149.051 201.985C149.441 201.594 149.971 201.373 150.523 201.373H172.971C173.524 201.373 174.053 201.594 174.444 201.985C174.834 202.376 175.054 202.906 175.054 203.458C175.054 204.011 174.834 204.541 174.444 204.932C174.053 205.323 173.524 205.543 172.971 205.544Z" fill="#CACACA"/>
<path d="M187.336 196.315C190.151 196.315 192.433 194.032 192.433 191.217C192.433 188.402 190.151 186.12 187.336 186.12C184.521 186.12 182.238 188.402 182.238 191.217C182.238 194.032 184.521 196.315 187.336 196.315Z" fill="#3F3D56"/>
<path d="M25.7683 10.5405C38.2935 1.71977 53.8098 -1.76405 68.9037 0.855447C83.9976 3.47494 97.4327 11.9832 106.253 24.5084C124.622 50.5909 143.053 118.986 130.042 158.607C91.2351 117.616 31.6157 113.357 11.8003 91.0257C-9.37303 67.164 -0.314213 28.9087 25.7683 10.5405Z" fill="#1E90FF"/>
<path d="M59.8128 69.6028C70.2168 69.6028 78.651 61.1686 78.651 50.7646C78.651 40.3605 70.2168 31.9264 59.8128 31.9264C49.4088 31.9264 40.9746 40.3605 40.9746 50.7646C40.9746 61.1686 49.4088 69.6028 59.8128 69.6028Z" fill="white"/>
<path d="M145.967 179.123C152.781 179.123 158.306 173.599 158.306 166.785C158.306 159.97 152.781 154.446 145.967 154.446C139.153 154.446 133.628 159.97 133.628 166.785C133.628 173.599 139.153 179.123 145.967 179.123Z" fill="#1E90FF"/>
<path opacity="0.2" d="M39.6579 46.4178C38.4105 48.5541 37.5962 50.9152 37.2613 53.3663C36.9264 55.8173 37.0776 58.3103 37.7062 60.703C38.3348 63.0956 39.4285 65.341 40.9248 67.3109C42.4212 69.2808 44.2909 70.9368 46.4272 72.1841C48.5636 73.4315 50.9247 74.2459 53.3757 74.5807C55.8267 74.9156 58.3198 74.7644 60.7124 74.1358C63.105 73.5072 65.3504 72.4135 67.3203 70.9172C69.2903 69.4208 70.9462 67.5511 72.1936 65.4148C68.831 68.3646 64.5285 70.0215 60.056 70.0889C55.5835 70.1563 51.2329 68.6299 47.7831 65.7827C44.3332 62.9355 42.0091 58.9536 41.2269 54.5495C40.4447 50.1454 41.2554 45.6066 43.5138 41.7456C41.9849 43.0848 40.6827 44.6626 39.6579 46.4178Z" fill="#231F20"/>
<path opacity="0.2" d="M11.7651 91.1146C31.5804 113.446 91.1998 117.705 130.007 158.696C131.218 154.947 132.151 151.114 132.796 147.228C94.0084 109.963 37.7081 105.254 18.5629 83.6778C1.42758 64.367 4.09496 35.6307 19.5594 15.6357C-1.64984 35.2959 -7.63832 69.2477 11.7651 91.1146Z" fill="#231F20"/>
<path d="M258.067 170.014L250.067 167.578C246.585 171.776 243.697 183.939 243.697 183.939L232.748 201.731C232.162 202.009 231.66 202.437 231.292 202.971C230.923 203.505 230.702 204.127 230.651 204.773C230.599 205.42 230.719 206.068 230.998 206.654C231.277 207.24 231.705 207.741 232.239 208.109C232.774 208.476 233.396 208.697 234.042 208.747C234.689 208.798 235.337 208.678 235.923 208.398C236.508 208.119 237.009 207.69 237.376 207.155C237.743 206.62 237.962 205.998 238.012 205.351L254.583 185.234L258.067 170.014Z" fill="#FFB6B6"/>
<path d="M257.914 171.956L259.392 159.846L256.078 154.311C255.424 153.227 254.479 152.348 253.351 151.772C252.223 151.197 250.956 150.948 249.694 151.055C247.984 151.211 246.398 152.011 245.255 153.292C244.112 154.573 243.499 156.24 243.538 157.957C243.663 163.162 244.483 169.744 247.683 171.542L247.715 171.561L257.914 171.956Z" fill="#1E90FF"/>
<path d="M280.514 281.384L275.716 283.699L264.501 266.297L271.582 262.88L280.514 281.384Z" fill="#FFB6B6"/>
<path d="M283.098 286.307L268.346 293.428L268.256 293.241C267.521 291.719 267.421 289.966 267.978 288.369C268.535 286.773 269.703 285.463 271.226 284.728L272.934 281.382L278.949 281L280.237 280.378L283.098 286.307Z" fill="#2F2E41"/>
<path d="M244.804 287.871L239.477 287.871L236.943 267.323L244.805 267.324L244.804 287.871Z" fill="#FFB6B6"/>
<path d="M244.992 293.428L228.61 293.427V293.22C228.61 291.529 229.282 289.908 230.478 288.712C231.674 287.516 233.295 286.844 234.986 286.844H234.987L237.979 284.574L243.562 286.845L244.992 286.845L244.992 293.428Z" fill="#2F2E41"/>
<path d="M239.525 192.576L233.421 234.671L235.082 240.21L232.902 244.133L236.103 273.658L234.804 276.519L238.434 278.758H245.822L246.214 247.569L248.039 242.99V240.467L251.754 221.448L252.611 251.055L253.797 253.342C258.215 263.366 264.167 266.648 268.374 274.141L275.762 270.139L275.607 267.154C277.092 266.403 273.379 264.206 273.022 262.581L272.376 259.672L268.066 250.745L267.902 247.601L269.081 226.218L268.526 197.423L258.835 190.012L239.525 192.576Z" fill="#2F2E41"/>
<path d="M249.116 141.518C254.417 141.518 258.715 137.22 258.715 131.919C258.715 126.618 254.417 122.321 249.116 122.321C243.815 122.321 239.518 126.618 239.518 131.919C239.518 137.22 243.815 141.518 249.116 141.518Z" fill="#FFB6B6"/>
<path d="M234.934 210.735L234.793 210.687L236.651 204.649C236.408 203.871 236.361 203.044 236.516 202.244C236.671 201.443 237.022 200.694 237.538 200.063C237.238 199.543 235.999 197.087 238.016 195C237.896 194.392 237.289 190.791 239.406 189.03C239.406 189.03 243.514 157.897 245.818 149.674C245.884 149.072 245.345 144.16 248.444 143.967C250.078 143.866 252.531 143.711 256.212 143.473C256.687 143.439 256.966 144.242 257.388 145.549C257.674 146.433 256.203 147.641 256.559 147.621L256.584 147.62L256.608 147.626C260.042 148.547 263.054 150.621 265.138 153.501C267.222 156.382 268.251 159.891 268.051 163.441L266.957 182.043C267.123 182.791 270.608 204.005 269.697 206.282C269.18 207.574 270.061 208.378 270.705 208.966C271.036 209.269 271.275 209.487 271.242 209.726C271.229 209.792 271.199 209.853 271.155 209.905C271.112 209.956 271.057 209.995 270.994 210.019C270.412 210.31 270.733 212.306 271.073 213.496L271.108 213.617L270.995 213.675C270.865 213.742 260.45 208.964 247.796 208.964C243.026 208.964 240.269 212.597 234.934 210.735Z" fill="#1E90FF"/>
<path d="M256.723 137.821C256.623 137.77 256.535 137.698 256.465 137.61C256.395 137.523 256.344 137.422 256.315 137.313L256.178 136.756L256.599 137.194C256.824 137.008 256.996 136.766 257.098 136.492C257.199 136.218 257.227 135.922 257.177 135.634C257.128 135.346 257.004 135.076 256.817 134.851C256.63 134.627 256.387 134.456 256.113 134.355C255.927 134.293 255.738 134.247 255.545 134.217C255.343 134.185 255.144 134.137 254.95 134.073C254.496 133.877 254.104 133.56 253.818 133.157C253.531 132.754 253.36 132.28 253.323 131.787C253.261 130.917 253.357 130.043 253.608 129.207C249.372 129.858 245.054 129.728 240.865 128.824C240.22 128.688 239.601 128.445 239.036 128.105C238.002 127.491 237.141 126.625 236.534 125.587C236.453 125.447 236.42 125.285 236.439 125.125C236.457 124.964 236.526 124.814 236.636 124.696C236.713 124.614 236.805 124.548 236.908 124.502C237.011 124.457 237.122 124.433 237.234 124.433L237.081 124.018C237.033 123.888 237.02 123.748 237.044 123.612C237.068 123.476 237.128 123.348 237.217 123.242C237.306 123.137 237.421 123.057 237.552 123.01C237.682 122.964 237.822 122.953 237.958 122.978L238.501 123.08L238.449 122.719C238.429 122.584 238.445 122.447 238.495 122.32C238.545 122.194 238.627 122.082 238.733 121.997C238.838 121.912 238.965 121.856 239.099 121.834C239.233 121.813 239.371 121.827 239.498 121.875C239.615 121.919 239.739 121.937 239.863 121.928C239.988 121.919 240.108 121.883 240.217 121.823C240.326 121.763 240.421 121.68 240.495 121.579C240.569 121.479 240.62 121.364 240.645 121.242L240.832 120.335L240.851 120.287C241.77 118.755 243.536 117.642 245.695 117.233C247.621 116.868 249.587 117.052 251.489 117.23C252.296 117.247 253.088 117.447 253.806 117.816C254.131 118.003 254.397 118.277 254.576 118.607C254.754 118.937 254.837 119.31 254.816 119.684C256.689 119.109 258.698 120.256 259.692 121.701C260.873 123.42 261.064 125.577 261.098 127.264C261.18 131.251 260.358 134.513 258.657 136.96C258.413 137.376 258.045 137.703 257.604 137.897C257.491 137.934 257.374 137.953 257.255 137.953C257.069 137.954 256.887 137.908 256.723 137.821Z" fill="#2F2E41"/>
<path d="M257.068 175.614L250.023 171.108C245.536 174.211 239.473 185.143 239.473 185.143L224.128 199.32C223.489 199.429 222.89 199.706 222.391 200.12C221.893 200.535 221.512 201.074 221.288 201.683C221.064 202.291 221.004 202.948 221.114 203.587C221.225 204.227 221.502 204.825 221.917 205.323C222.333 205.822 222.872 206.202 223.481 206.425C224.09 206.648 224.747 206.707 225.386 206.596C226.025 206.485 226.623 206.207 227.121 205.791C227.618 205.375 227.998 204.836 228.22 204.226L249.606 189.328L257.068 175.614Z" fill="#FFB6B6"/>
<path d="M256.396 177.442L261.089 166.18L259.392 159.957C259.054 158.736 258.382 157.634 257.451 156.776C256.52 155.917 255.367 155.336 254.123 155.098C252.435 154.787 250.691 155.129 249.245 156.054C247.799 156.979 246.758 158.419 246.333 160.082C245.048 165.128 244.061 171.687 246.657 174.282L246.683 174.309L256.396 177.442Z" fill="#1E90FF"/>
</g>
<defs>
<clipPath id="clip0_1023_15431">
<rect width="334" height="294.383" fill="white"/>
</clipPath>
</defs>
</svg>
