<svg width="244" height="177" viewBox="0 0 244 177" fill="none" xmlns="http://www.w3.org/2000/svg">
<g clip-path="url(#clip0_999_13821)">
<path d="M243.647 175.643H0.352601C0.259086 175.643 0.1694 175.605 0.103274 175.539C0.0371487 175.472 0 175.382 0 175.288C0 175.195 0.0371487 175.105 0.103274 175.038C0.1694 174.972 0.259086 174.934 0.352601 174.934H243.647C243.741 174.934 243.831 174.972 243.897 175.038C243.963 175.105 244 175.195 244 175.288C244 175.382 243.963 175.472 243.897 175.539C243.831 175.605 243.741 175.643 243.647 175.643Z" fill="#CCCCCC"/>
<path d="M219.566 113.889H76.4102C75.8024 113.889 75.2194 114.132 74.7896 114.563C74.3598 114.995 74.1183 115.58 74.1183 116.191C74.1183 116.801 74.3598 117.387 74.7896 117.818C75.2194 118.25 75.8024 118.492 76.4102 118.492H80.4651V173.553C80.4651 174.163 80.7066 174.749 81.1364 175.18C81.5662 175.612 82.1492 175.854 82.757 175.854C83.3649 175.854 83.9479 175.612 84.3777 175.18C84.8075 174.749 85.049 174.163 85.049 173.553L85.0838 118.492H210.575V173.553C210.575 174.163 210.816 174.749 211.246 175.18C211.676 175.612 212.259 175.854 212.867 175.854C213.475 175.854 214.058 175.612 214.487 175.18C214.917 174.749 215.159 174.163 215.159 173.553V119.706L215.826 118.492H219.566C220.174 118.492 220.757 118.25 221.187 117.818C221.617 117.387 221.858 116.801 221.858 116.191C221.858 115.58 221.617 114.995 221.187 114.563C220.757 114.132 220.174 113.889 219.566 113.889Z" fill="#CCCCCC"/>
<path d="M155.777 115.094H112.414C111.574 115.093 110.769 114.757 110.175 114.161C109.581 113.565 109.248 112.756 109.247 111.913V87.9383C109.248 87.0952 109.581 86.2868 110.175 85.6906C110.769 85.0943 111.574 84.7589 112.414 84.758H155.777C156.617 84.7589 157.422 85.0943 158.015 85.6906C158.609 86.2868 158.943 87.0952 158.944 87.9383V111.913C158.943 112.756 158.609 113.565 158.015 114.161C157.422 114.757 156.617 115.093 155.777 115.094Z" fill="#3F3D56"/>
<path d="M155.777 87.2057H112.414C112.22 87.2061 112.035 87.2835 111.898 87.4209C111.761 87.5582 111.684 87.7444 111.684 87.9387V111.914C111.684 112.108 111.761 112.294 111.898 112.432C112.035 112.569 112.22 112.646 112.414 112.647H155.777C155.97 112.646 156.156 112.569 156.292 112.432C156.429 112.294 156.506 112.108 156.507 111.914V87.9387C156.506 87.7444 156.429 87.5582 156.292 87.4209C156.156 87.2835 155.97 87.2061 155.777 87.2057Z" fill="white"/>
<path d="M137.794 104.18C137.794 104.18 132.603 102.979 129.748 105.181C126.892 107.383 133.381 112.388 133.381 112.388L137.794 104.18Z" fill="#2F2E41"/>
<path d="M134.35 101.91C137.054 101.91 139.246 99.7088 139.246 96.9931C139.246 94.2774 137.054 92.0759 134.35 92.0759C131.645 92.0759 129.453 94.2774 129.453 96.9931C129.453 99.7088 131.645 101.91 134.35 101.91Z" fill="#A0616A"/>
<path d="M130.563 90.0905C130.89 89.5339 131.363 89.0788 131.931 88.7754C132.499 88.472 133.139 88.332 133.781 88.3711C134.453 88.4557 135.108 88.6399 135.726 88.9178L138.927 90.1717C139.755 90.4962 140.662 90.8936 141.022 91.7102C141.355 92.4682 141.107 93.3435 140.855 94.1326L139.657 97.8836C139.524 97.0346 139.297 96.2034 138.978 95.4058C138.655 94.6028 138.07 93.9334 137.32 93.5065C136.488 93.0781 135.508 93.087 134.575 93.1321C133.253 93.196 131.815 93.3649 130.876 94.3013C130.377 94.833 130.039 95.496 129.901 96.2131C129.765 96.9263 129.697 97.6509 129.697 98.3771C129.155 97.4414 128.698 96.4583 128.333 95.4398C128.032 94.6815 127.86 93.8777 127.826 93.0622C127.794 92.2397 128.066 91.4345 128.589 90.8006C128.854 90.4909 129.201 90.2618 129.589 90.1391C129.977 90.0164 130.392 90.0051 130.786 90.1063L130.563 90.0905Z" fill="#2F2E41"/>
<path d="M146.041 108.444C145.995 108.278 145.902 108.129 145.772 108.016C145.642 107.904 145.482 107.832 145.312 107.81C145.3 107.802 145.289 107.795 145.276 107.789L137.966 103.675C137.758 103.557 137.512 103.525 137.28 103.585C137.048 103.645 136.849 103.792 136.722 103.997L134.723 107.247L131.712 104.223L131.664 104.175C131.509 104.02 131.305 103.924 131.088 103.905C130.87 103.886 130.652 103.945 130.473 104.071L124.466 108.295C124.455 108.295 124.445 108.299 124.434 108.299C124.147 108.347 123.884 108.492 123.69 108.71C123.495 108.928 123.381 109.207 123.366 109.499L123.211 112.647H147.202L146.041 108.444Z" fill="#1E90FF"/>
<path d="M159.431 112.158H154.803C154.803 112.028 154.751 111.904 154.66 111.812C154.569 111.72 154.445 111.669 154.315 111.669H152.854C152.725 111.669 152.601 111.72 152.509 111.812C152.418 111.904 152.367 112.028 152.367 112.158H150.905C150.905 112.028 150.853 111.904 150.762 111.812C150.671 111.72 150.547 111.669 150.418 111.669H148.956C148.827 111.669 148.703 111.72 148.611 111.812C148.52 111.904 148.469 112.028 148.469 112.158H147.007C147.007 112.028 146.956 111.904 146.864 111.812C146.773 111.72 146.649 111.669 146.52 111.669H145.058C144.929 111.669 144.805 111.72 144.714 111.812C144.622 111.904 144.571 112.028 144.571 112.158H143.109C143.109 112.028 143.058 111.904 142.966 111.812C142.875 111.72 142.751 111.669 142.622 111.669H141.16C141.031 111.669 140.907 111.72 140.816 111.812C140.724 111.904 140.673 112.028 140.673 112.158H139.211C139.211 112.028 139.16 111.904 139.069 111.812C138.977 111.72 138.853 111.669 138.724 111.669H137.262C137.133 111.669 137.009 111.72 136.918 111.812C136.826 111.904 136.775 112.028 136.775 112.158H135.313C135.313 112.028 135.262 111.904 135.171 111.812C135.079 111.72 134.955 111.669 134.826 111.669H133.364C133.235 111.669 133.111 111.72 133.02 111.812C132.929 111.904 132.877 112.028 132.877 112.158H131.416C131.416 112.028 131.364 111.904 131.273 111.812C131.181 111.72 131.058 111.669 130.928 111.669H129.467C129.337 111.669 129.214 111.72 129.122 111.812C129.031 111.904 128.979 112.028 128.979 112.158H127.518C127.518 112.028 127.466 111.904 127.375 111.812C127.284 111.72 127.16 111.669 127.031 111.669H125.569C125.44 111.669 125.316 111.72 125.224 111.812C125.133 111.904 125.082 112.028 125.082 112.158H123.62C123.62 112.028 123.569 111.904 123.477 111.812C123.386 111.72 123.262 111.669 123.133 111.669H121.671C121.542 111.669 121.418 111.72 121.326 111.812C121.235 111.904 121.184 112.028 121.184 112.158H119.722C119.722 112.028 119.671 111.904 119.579 111.812C119.488 111.72 119.364 111.669 119.235 111.669H117.773C117.644 111.669 117.52 111.72 117.429 111.812C117.337 111.904 117.286 112.028 117.286 112.158H115.824C115.824 112.028 115.773 111.904 115.681 111.812C115.59 111.72 115.466 111.669 115.337 111.669H113.875C113.746 111.669 113.622 111.72 113.531 111.812C113.439 111.904 113.388 112.028 113.388 112.158H108.759C108.372 112.159 108.001 112.313 107.727 112.589C107.454 112.864 107.3 113.237 107.3 113.626C107.3 114.015 107.454 114.388 107.727 114.663C108.001 114.938 108.372 115.093 108.759 115.094H159.431C159.819 115.094 160.191 114.939 160.465 114.664C160.739 114.388 160.893 114.015 160.893 113.626C160.893 113.236 160.739 112.863 160.465 112.588C160.191 112.313 159.819 112.158 159.431 112.158Z" fill="#3F3D56"/>
<path d="M101.224 103.634V113.38H76.9082C76.2568 113.403 75.6074 113.294 74.9988 113.059C74.3903 112.824 73.835 112.469 73.3661 112.014C72.8972 111.56 72.5243 111.015 72.2696 110.412C72.0149 109.809 71.8836 109.162 71.8836 108.507C71.8836 107.852 72.0149 107.204 72.2696 106.602C72.5243 105.999 72.8972 105.454 73.3661 105C73.835 104.545 74.3903 104.189 74.9988 103.955C75.6074 103.72 76.2568 103.611 76.9082 103.634H101.224Z" fill="#F2F2F2"/>
<path d="M101.822 113.305C101.822 113.405 101.782 113.5 101.712 113.57C101.642 113.641 101.547 113.68 101.448 113.68H76.4751C75.1188 113.68 73.818 113.139 72.8589 112.176C71.8998 111.213 71.361 109.906 71.361 108.544C71.361 107.182 71.8998 105.876 72.8589 104.913C73.818 103.95 75.1188 103.409 76.4751 103.409H101.448C101.547 103.409 101.642 103.448 101.712 103.519C101.782 103.589 101.822 103.684 101.822 103.784C101.822 103.883 101.782 103.978 101.712 104.049C101.642 104.119 101.547 104.158 101.448 104.158H76.4751C75.3175 104.16 74.2076 104.622 73.3894 105.444C72.5711 106.267 72.1115 107.382 72.1115 108.544C72.1115 109.707 72.5711 110.822 73.3894 111.644C74.2076 112.467 75.3175 112.929 76.4751 112.93H101.448C101.547 112.93 101.642 112.97 101.712 113.04C101.782 113.11 101.822 113.206 101.822 113.305Z" fill="#1E90FF"/>
<path d="M101.224 105.883H75.0939C75.0841 105.883 75.0743 105.881 75.0652 105.877C75.0561 105.874 75.0478 105.868 75.0408 105.861C75.0338 105.854 75.0283 105.846 75.0245 105.837C75.0207 105.828 75.0188 105.818 75.0188 105.808C75.0188 105.798 75.0207 105.788 75.0245 105.779C75.0283 105.77 75.0338 105.762 75.0408 105.755C75.0478 105.748 75.0561 105.742 75.0652 105.738C75.0743 105.735 75.0841 105.733 75.0939 105.733H101.224C101.244 105.733 101.263 105.741 101.277 105.755C101.291 105.769 101.299 105.788 101.299 105.808C101.299 105.828 101.291 105.847 101.277 105.861C101.263 105.875 101.244 105.883 101.224 105.883Z" fill="#CCCCCC"/>
<path d="M101.224 107.682H75.0939C75.0841 107.682 75.0743 107.68 75.0652 107.677C75.0561 107.673 75.0478 107.667 75.0408 107.66C75.0338 107.653 75.0283 107.645 75.0245 107.636C75.0207 107.627 75.0188 107.617 75.0188 107.607C75.0188 107.597 75.0207 107.588 75.0245 107.578C75.0283 107.569 75.0338 107.561 75.0408 107.554C75.0478 107.547 75.0561 107.542 75.0652 107.538C75.0743 107.534 75.0841 107.532 75.0939 107.532H101.224C101.244 107.532 101.263 107.54 101.277 107.554C101.291 107.568 101.299 107.587 101.299 107.607C101.299 107.627 101.291 107.646 101.277 107.66C101.263 107.674 101.244 107.682 101.224 107.682Z" fill="#CCCCCC"/>
<path d="M101.224 109.482H75.0939C75.0841 109.482 75.0743 109.48 75.0652 109.476C75.0561 109.472 75.0478 109.467 75.0408 109.46C75.0338 109.453 75.0283 109.445 75.0245 109.435C75.0207 109.426 75.0188 109.416 75.0188 109.407C75.0188 109.397 75.0207 109.387 75.0245 109.378C75.0283 109.369 75.0338 109.36 75.0408 109.353C75.0478 109.346 75.0561 109.341 75.0652 109.337C75.0743 109.333 75.0841 109.332 75.0939 109.332H101.224C101.244 109.332 101.263 109.34 101.277 109.354C101.291 109.368 101.299 109.387 101.299 109.407C101.299 109.426 101.291 109.445 101.277 109.459C101.263 109.473 101.244 109.481 101.224 109.482Z" fill="#CCCCCC"/>
<path d="M101.224 111.281H75.0939C75.0841 111.281 75.0743 111.279 75.0652 111.275C75.0561 111.272 75.0478 111.266 75.0408 111.259C75.0338 111.252 75.0283 111.244 75.0245 111.235C75.0207 111.226 75.0188 111.216 75.0188 111.206C75.0188 111.196 75.0207 111.186 75.0245 111.177C75.0283 111.168 75.0338 111.16 75.0408 111.153C75.0478 111.146 75.0561 111.14 75.0652 111.137C75.0743 111.133 75.0841 111.131 75.0939 111.131H101.224C101.244 111.131 101.263 111.139 101.277 111.153C101.291 111.167 101.299 111.186 101.299 111.206C101.299 111.226 101.291 111.245 101.277 111.259C101.263 111.273 101.244 111.281 101.224 111.281Z" fill="#CCCCCC"/>
<path d="M96.6406 93.3651V103.112H72.3244C71.6729 103.134 71.0236 103.025 70.415 102.791C69.8064 102.556 69.2511 102.201 68.7823 101.746C68.3134 101.291 67.9404 100.746 67.6858 100.144C67.4311 99.5409 67.2998 98.893 67.2998 98.2384C67.2998 97.5838 67.4311 96.9358 67.6858 96.3332C67.9404 95.7306 68.3134 95.1857 68.7823 94.731C69.2511 94.2762 69.8064 93.9209 70.415 93.6862C71.0236 93.4516 71.6729 93.3424 72.3244 93.3651H96.6406Z" fill="#F2F2F2"/>
<path d="M97.2379 103.037C97.2378 103.136 97.1985 103.231 97.1285 103.302C97.0585 103.372 96.9636 103.412 96.8646 103.412H71.8913C71.2197 103.412 70.5547 103.279 69.9342 103.021C69.3138 102.763 68.75 102.384 68.2751 101.907C67.8002 101.43 67.4235 100.864 67.1665 100.241C66.9095 99.6181 66.7772 98.9503 66.7772 98.2759C66.7772 97.6015 66.9095 96.9336 67.1665 96.3106C67.4235 95.6875 67.8002 95.1213 68.2751 94.6444C68.75 94.1675 69.3138 93.7892 69.9342 93.5312C70.5547 93.2731 71.2197 93.1402 71.8913 93.1402H96.8646C96.9636 93.1402 97.0585 93.1797 97.1285 93.25C97.1985 93.3203 97.2379 93.4157 97.2379 93.5151C97.2379 93.6145 97.1985 93.7099 97.1285 93.7802C97.0585 93.8505 96.9636 93.89 96.8646 93.89H71.8913C70.7337 93.891 69.6238 94.3536 68.8056 95.176C67.9873 95.9984 67.5277 97.1133 67.5277 98.2759C67.5277 99.4384 67.9873 100.553 68.8056 101.376C69.6238 102.198 70.7337 102.661 71.8913 102.662H96.8646C96.9636 102.662 97.0585 102.701 97.1285 102.772C97.1985 102.842 97.2378 102.937 97.2379 103.037Z" fill="#3F3D56"/>
<path d="M96.6406 95.6143H70.5101C70.5003 95.6144 70.4905 95.6125 70.4814 95.6087C70.4723 95.605 70.464 95.5995 70.457 95.5925C70.45 95.5856 70.4445 95.5773 70.4407 95.5681C70.4369 95.559 70.4349 95.5492 70.4349 95.5393C70.4349 95.5295 70.4369 95.5196 70.4407 95.5105C70.4445 95.5014 70.45 95.4931 70.457 95.4861C70.464 95.4792 70.4723 95.4737 70.4814 95.4699C70.4905 95.4662 70.5003 95.4643 70.5101 95.4644H96.6406C96.6603 95.4645 96.6791 95.4725 96.693 95.4865C96.7069 95.5005 96.7147 95.5195 96.7147 95.5393C96.7147 95.5591 96.7069 95.5781 96.693 95.5922C96.6791 95.6062 96.6603 95.6142 96.6406 95.6143Z" fill="#CCCCCC"/>
<path d="M96.6406 97.4137H70.5101C70.5003 97.4137 70.4905 97.4118 70.4814 97.4081C70.4723 97.4044 70.464 97.3989 70.457 97.3919C70.45 97.3849 70.4445 97.3766 70.4407 97.3675C70.4369 97.3584 70.4349 97.3486 70.4349 97.3387C70.4349 97.3288 70.4369 97.319 70.4407 97.3099C70.4445 97.3008 70.45 97.2925 70.457 97.2855C70.464 97.2785 70.4723 97.273 70.4814 97.2693C70.4905 97.2656 70.5003 97.2637 70.5101 97.2637H96.6406C96.6603 97.2639 96.6791 97.2718 96.693 97.2859C96.7069 97.2999 96.7147 97.3189 96.7147 97.3387C96.7147 97.3585 96.7069 97.3775 96.693 97.3915C96.6791 97.4056 96.6603 97.4135 96.6406 97.4137Z" fill="#CCCCCC"/>
<path d="M96.6406 99.2131H70.5101C70.5003 99.2131 70.4905 99.2112 70.4814 99.2075C70.4723 99.2038 70.464 99.1982 70.457 99.1913C70.45 99.1843 70.4445 99.176 70.4407 99.1669C70.4369 99.1578 70.4349 99.148 70.4349 99.1381C70.4349 99.1282 70.4369 99.1184 70.4407 99.1093C70.4445 99.1001 70.45 99.0919 70.457 99.0849C70.464 99.0779 70.4723 99.0724 70.4814 99.0687C70.4905 99.0649 70.5003 99.063 70.5101 99.0631H96.6406C96.6603 99.0632 96.6791 99.0712 96.693 99.0853C96.7069 99.0993 96.7147 99.1183 96.7147 99.1381C96.7147 99.1579 96.7069 99.1769 96.693 99.1909C96.6791 99.205 96.6603 99.2129 96.6406 99.2131Z" fill="#CCCCCC"/>
<path d="M96.6406 101.012H70.5101C70.5003 101.012 70.4905 101.011 70.4814 101.007C70.4723 101.003 70.464 100.998 70.457 100.991C70.45 100.984 70.4445 100.975 70.4407 100.966C70.4369 100.957 70.4349 100.947 70.4349 100.937C70.4349 100.928 70.4369 100.918 70.4407 100.909C70.4445 100.899 70.45 100.891 70.457 100.884C70.464 100.877 70.4723 100.872 70.4814 100.868C70.4905 100.864 70.5003 100.862 70.5101 100.862H96.6406C96.6603 100.863 96.6791 100.871 96.693 100.885C96.7069 100.899 96.7147 100.918 96.7147 100.937C96.7147 100.957 96.7069 100.976 96.693 100.99C96.6791 101.004 96.6603 101.012 96.6406 101.012Z" fill="#CCCCCC"/>
<path d="M124.928 148.024V139.526C124.928 139.15 124.779 138.79 124.515 138.524C124.25 138.259 123.891 138.109 123.517 138.109H91.4306C91.0565 138.109 90.6978 138.259 90.4333 138.524C90.1688 138.79 90.0202 139.15 90.0202 139.526V148.024H124.928Z" fill="#CCCCCC"/>
<path d="M124.928 151.211H90.0202V162.187H124.928V151.211Z" fill="#CCCCCC"/>
<path d="M90.0202 165.374V173.872C90.0202 174.248 90.1688 174.608 90.4333 174.874C90.6978 175.139 91.0565 175.288 91.4306 175.288H123.517C123.891 175.288 124.25 175.139 124.515 174.874C124.779 174.608 124.928 174.248 124.928 173.872V165.374H90.0202Z" fill="#CCCCCC"/>
<path d="M107.298 144.483C107.882 144.483 108.355 144.007 108.355 143.421C108.355 142.834 107.882 142.358 107.298 142.358C106.713 142.358 106.24 142.834 106.24 143.421C106.24 144.007 106.713 144.483 107.298 144.483Z" fill="white"/>
<path d="M107.298 158.646C107.882 158.646 108.355 158.171 108.355 157.584C108.355 156.997 107.882 156.522 107.298 156.522C106.713 156.522 106.24 156.997 106.24 157.584C106.24 158.171 106.713 158.646 107.298 158.646Z" fill="white"/>
<path d="M107.354 172.51C107.939 172.51 108.412 172.034 108.412 171.448C108.412 170.861 107.939 170.385 107.354 170.385C106.77 170.385 106.297 170.861 106.297 171.448C106.297 172.034 106.77 172.51 107.354 172.51Z" fill="white"/>
<path d="M120.97 128.42V138.166H96.6539C96.0024 138.189 95.353 138.08 94.7445 137.845C94.1359 137.611 93.5806 137.255 93.1117 136.8C92.6428 136.346 92.27 135.801 92.0153 135.198C91.7606 134.596 91.6293 133.948 91.6293 133.293C91.6293 132.638 91.7606 131.991 92.0153 131.388C92.27 130.785 92.6428 130.24 93.1117 129.786C93.5806 129.331 94.1359 128.976 94.7445 128.741C95.353 128.506 96.0024 128.397 96.6539 128.42H120.97Z" fill="#F2F2F2"/>
<path d="M121.567 138.091C121.567 138.191 121.528 138.286 121.458 138.356C121.388 138.427 121.293 138.466 121.194 138.466H96.2208C95.5489 138.467 94.8834 138.334 94.2624 138.076C93.6414 137.819 93.0772 137.44 92.6018 136.963C92.1265 136.487 91.7494 135.92 91.4921 135.297C91.2349 134.673 91.1024 134.005 91.1024 133.331C91.1024 132.656 91.2349 131.988 91.4921 131.364C91.7494 130.741 92.1265 130.174 92.6018 129.698C93.0772 129.221 93.6414 128.842 94.2624 128.585C94.8834 128.327 95.5489 128.194 96.2208 128.195H121.194C121.293 128.195 121.388 128.234 121.458 128.305C121.528 128.375 121.567 128.47 121.567 128.57C121.567 128.669 121.528 128.764 121.458 128.835C121.388 128.905 121.293 128.945 121.194 128.945H96.2208C95.0631 128.946 93.9532 129.408 93.135 130.231C92.3168 131.053 91.8572 132.168 91.8572 133.331C91.8572 134.493 92.3168 135.608 93.135 136.43C93.9532 137.253 95.0631 137.715 96.2208 137.716H121.194C121.293 137.716 121.388 137.756 121.458 137.826C121.528 137.897 121.567 137.992 121.567 138.091Z" fill="#3F3D56"/>
<path d="M120.97 130.669H94.8396C94.8298 130.669 94.82 130.667 94.8109 130.663C94.8018 130.66 94.7935 130.654 94.7865 130.647C94.7795 130.64 94.7739 130.632 94.7702 130.623C94.7664 130.614 94.7644 130.604 94.7644 130.594C94.7644 130.584 94.7664 130.574 94.7702 130.565C94.7739 130.556 94.7795 130.548 94.7865 130.541C94.7935 130.534 94.8018 130.528 94.8109 130.525C94.82 130.521 94.8298 130.519 94.8396 130.519H120.97C120.99 130.519 121.009 130.527 121.023 130.541C121.036 130.555 121.044 130.574 121.044 130.594C121.044 130.614 121.036 130.633 121.023 130.647C121.009 130.661 120.99 130.669 120.97 130.669Z" fill="#CCCCCC"/>
<path d="M120.97 132.468H94.8396C94.8298 132.468 94.82 132.467 94.8109 132.463C94.8018 132.459 94.7935 132.454 94.7865 132.447C94.7795 132.44 94.7739 132.431 94.7702 132.422C94.7664 132.413 94.7644 132.403 94.7644 132.393C94.7644 132.383 94.7664 132.374 94.7702 132.365C94.7739 132.355 94.7795 132.347 94.7865 132.34C94.7935 132.333 94.8018 132.328 94.8109 132.324C94.82 132.32 94.8298 132.318 94.8396 132.318H120.97C120.99 132.319 121.009 132.326 121.023 132.341C121.036 132.355 121.044 132.374 121.044 132.393C121.044 132.413 121.036 132.432 121.023 132.446C121.009 132.46 120.99 132.468 120.97 132.468Z" fill="#CCCCCC"/>
<path d="M120.97 134.268H94.8396C94.8298 134.268 94.82 134.266 94.8109 134.262C94.8018 134.258 94.7935 134.253 94.7865 134.246C94.7795 134.239 94.7739 134.231 94.7702 134.222C94.7664 134.212 94.7644 134.203 94.7644 134.193C94.7644 134.183 94.7664 134.173 94.7702 134.164C94.7739 134.155 94.7795 134.146 94.7865 134.14C94.7935 134.133 94.8018 134.127 94.8109 134.123C94.82 134.12 94.8298 134.118 94.8396 134.118H120.97C120.99 134.118 121.009 134.126 121.023 134.14C121.036 134.154 121.044 134.173 121.044 134.193C121.044 134.213 121.036 134.232 121.023 134.246C121.009 134.26 120.99 134.268 120.97 134.268Z" fill="#CCCCCC"/>
<path d="M120.97 136.067H94.8396C94.8298 136.067 94.82 136.065 94.8109 136.061C94.8018 136.058 94.7935 136.052 94.7865 136.045C94.7795 136.038 94.7739 136.03 94.7702 136.021C94.7664 136.012 94.7644 136.002 94.7644 135.992C94.7644 135.982 94.7664 135.972 94.7702 135.963C94.7739 135.954 94.7795 135.946 94.7865 135.939C94.7935 135.932 94.8018 135.926 94.8109 135.923C94.82 135.919 94.8298 135.917 94.8396 135.917H120.97C120.99 135.917 121.009 135.925 121.023 135.939C121.036 135.953 121.044 135.972 121.044 135.992C121.044 136.012 121.036 136.031 121.023 136.045C121.009 136.059 120.99 136.067 120.97 136.067Z" fill="#CCCCCC"/>
<path d="M88.1892 64.8056V2.66325C88.19 1.95716 88.4697 1.28022 88.9669 0.780936C89.464 0.281655 90.1381 0.000803154 90.8413 0H139.757C140.46 0.00080783 141.134 0.281662 141.632 0.780942C142.129 1.28022 142.408 1.95716 142.409 2.66325V64.8056C142.408 65.5117 142.129 66.1886 141.632 66.6879C141.134 67.1872 140.46 67.468 139.757 67.4688H90.8413C90.1381 67.468 89.464 67.1872 88.9669 66.6879C88.4697 66.1886 88.19 65.5117 88.1892 64.8056ZM90.8413 0.591833C90.2944 0.592448 89.7701 0.810884 89.3834 1.19922C88.9967 1.58755 88.7792 2.11406 88.7786 2.66325V64.8056C88.7792 65.3548 88.9967 65.8813 89.3834 66.2696C89.7701 66.6579 90.2944 66.8764 90.8413 66.877H139.757C140.304 66.8764 140.828 66.6579 141.215 66.2696C141.602 65.8813 141.819 65.3548 141.82 64.8056V2.66325C141.819 2.11406 141.602 1.58755 141.215 1.19922C140.828 0.810884 140.304 0.592449 139.757 0.591833H90.8413Z" fill="#E6E6E6"/>
<path d="M118.042 28.5386V15.7789C118.043 15.4258 118.182 15.0873 118.431 14.8377C118.68 14.5881 119.017 14.4476 119.368 14.4472H130.136C130.487 14.4476 130.824 14.5881 131.073 14.8377C131.321 15.0873 131.461 15.4258 131.462 15.7789V28.5386C131.461 28.8917 131.321 29.2302 131.073 29.4798C130.824 29.7294 130.487 29.8699 130.136 29.8703H119.368C119.017 29.8699 118.68 29.7294 118.431 29.4798C118.182 29.2302 118.043 28.8917 118.042 28.5386Z" fill="#1E90FF"/>
<path d="M97.1204 34.4569V21.6972C97.1208 21.3441 97.2606 21.0057 97.5092 20.756C97.7578 20.5064 98.0948 20.366 98.4464 20.3656H109.214C109.565 20.366 109.902 20.5064 110.151 20.756C110.4 21.0057 110.539 21.3441 110.54 21.6972V34.457C110.539 34.81 110.4 35.1485 110.151 35.3981C109.902 35.6478 109.565 35.7882 109.214 35.7886H98.4464C98.0948 35.7882 97.7578 35.6478 97.5092 35.3981C97.2606 35.1485 97.1207 34.81 97.1204 34.4569Z" fill="#CCCCCC"/>
<path d="M113.917 52.5078V39.748C113.917 39.395 114.057 39.0565 114.306 38.8069C114.554 38.5572 114.891 38.4168 115.243 38.4164H126.01C126.362 38.4168 126.699 38.5572 126.947 38.8069C127.196 39.0565 127.336 39.395 127.336 39.748V52.5078C127.336 52.8609 127.196 53.1993 126.947 53.449C126.699 53.6986 126.362 53.839 126.01 53.8394H115.243C114.891 53.839 114.554 53.6986 114.306 53.449C114.057 53.1993 113.917 52.8609 113.917 52.5078Z" fill="#FF6584"/>
<path d="M178.262 110.845H167.183C167.078 110.845 166.974 110.869 166.88 110.915L164.084 112.321C163.992 112.36 163.914 112.426 163.858 112.51C163.803 112.593 163.774 112.692 163.774 112.792C163.774 112.892 163.803 112.991 163.858 113.074C163.914 113.158 163.992 113.224 164.084 113.263L166.88 114.669C166.974 114.715 167.078 114.74 167.183 114.74H178.262C178.415 114.748 178.565 114.697 178.68 114.595C178.794 114.494 178.865 114.351 178.876 114.198V111.386C178.865 111.233 178.794 111.09 178.68 110.989C178.565 110.888 178.415 110.836 178.262 110.845Z" fill="#3F3D56"/>
<path d="M178.876 111.386V114.198C178.865 114.351 178.794 114.494 178.68 114.595C178.565 114.697 178.415 114.748 178.262 114.74H176.055V110.845H178.262C178.415 110.836 178.565 110.888 178.68 110.989C178.794 111.09 178.865 111.233 178.876 111.386Z" fill="#1E90FF"/>
<path d="M178.179 89.8117C178.681 89.5943 179.222 89.4857 179.769 89.4932C180.315 89.5007 180.854 89.6241 181.35 89.8553C181.846 90.0864 182.287 90.4201 182.645 90.8346C183.004 91.249 183.271 91.7348 183.429 92.2601C183.478 92.4266 183.516 92.5964 183.542 92.7682L199.035 100.483L202.62 98.0971L207.081 103.254L201.607 107.719C200.948 108.252 200.136 108.558 199.291 108.59C198.447 108.623 197.614 108.381 196.917 107.901L181.198 96.9852C181.081 97.0351 180.961 97.0788 180.84 97.1163C180.317 97.2752 179.766 97.3213 179.224 97.2515C178.682 97.1818 178.16 96.9978 177.694 96.7116C177.228 96.4254 176.827 96.0435 176.517 95.5908C176.208 95.1382 175.998 94.6251 175.9 94.085C175.871 93.9283 175.852 93.7699 175.843 93.6107C175.799 92.8137 175.999 92.0224 176.417 91.3432C176.835 90.664 177.45 90.1295 178.179 89.8117Z" fill="#FFB8B8"/>
<path d="M210.447 137.312H193.519C193.519 137.801 176.072 138.197 176.072 138.197C175.798 138.404 175.548 138.642 175.328 138.905C174.665 139.699 174.303 140.702 174.305 141.738V142.446C174.306 143.62 174.77 144.746 175.597 145.576C176.423 146.406 177.544 146.872 178.713 146.872H210.447C211.616 146.871 212.736 146.405 213.562 145.575C214.389 144.745 214.853 143.62 214.854 142.446V141.738C214.853 140.565 214.388 139.44 213.562 138.61C212.735 137.781 211.615 137.314 210.447 137.312Z" fill="#3F3D56"/>
<path d="M192.033 176.44H196.617V146.697H192.033V176.44Z" fill="#3F3D56"/>
<path d="M178.987 176.278C178.987 176.776 185.933 176.471 194.501 176.471C203.069 176.471 210.015 176.776 210.015 176.278C210.015 175.781 203.069 171.837 194.501 171.837C185.933 171.837 178.987 175.781 178.987 176.278Z" fill="#3F3D56"/>
<path d="M183.124 172.792L178.802 172.792L176.745 161.533L183.125 161.533L183.124 172.792Z" fill="#FFB8B8"/>
<path d="M184.227 177L170.288 177V176.822C170.288 176.107 170.429 175.399 170.701 174.738C170.974 174.077 171.374 173.476 171.877 172.97C172.381 172.464 172.979 172.063 173.638 171.789C174.296 171.515 175.001 171.374 175.714 171.374H175.714L184.227 171.375L184.227 177Z" fill="#2F2E41"/>
<path d="M176.659 165.81L168.041 146.404C167.322 144.768 167.242 142.92 167.818 141.228C168.395 139.536 169.584 138.124 171.151 137.274L189.843 127.208L198.373 126.479L206.241 125.761L206.298 125.857C206.371 125.981 208.062 128.915 206.919 132.133C206.051 134.573 203.795 136.479 200.213 137.799C191.851 140.878 182.192 143.509 178.427 144.497C178.26 144.54 178.105 144.618 177.97 144.725C177.836 144.832 177.726 144.967 177.647 145.12C177.568 145.272 177.521 145.438 177.509 145.609C177.497 145.779 177.521 145.95 177.578 146.111L185.584 164.175C185.668 164.404 185.698 164.649 185.672 164.892C185.646 165.135 185.566 165.368 185.436 165.574C185.306 165.781 185.131 165.954 184.924 166.082C184.717 166.209 184.483 166.287 184.241 166.31L178.259 166.747C178.208 166.752 178.157 166.755 178.107 166.755C177.801 166.754 177.501 166.665 177.244 166.498C176.987 166.33 176.784 166.091 176.659 165.81Z" fill="#2F2E41"/>
<path d="M185.24 172.792L180.918 172.792L178.861 161.533L185.241 161.533L185.24 172.792Z" fill="#FFB8B8"/>
<path d="M186.343 177L172.404 177V176.822C172.404 176.107 172.544 175.399 172.817 174.738C173.09 174.077 173.489 173.476 173.993 172.97C174.497 172.464 175.095 172.063 175.753 171.789C176.411 171.515 177.117 171.374 177.829 171.374H177.83L186.343 171.375L186.343 177Z" fill="#2F2E41"/>
<path d="M179.127 166.873L170.509 147.466C169.79 145.83 169.71 143.982 170.287 142.29C170.863 140.598 172.052 139.187 173.619 138.336L192.311 128.27L200.841 127.541L208.709 126.823L208.766 126.92C208.839 127.043 210.53 129.977 209.387 133.195C208.519 135.635 206.263 137.542 202.681 138.861C194.319 141.94 184.66 144.571 180.895 145.559C180.728 145.602 180.573 145.68 180.439 145.787C180.304 145.895 180.194 146.029 180.115 146.183C180.036 146.334 179.989 146.5 179.977 146.671C179.965 146.841 179.989 147.013 180.046 147.174L188.052 165.237C188.136 165.466 188.166 165.712 188.14 165.954C188.115 166.197 188.034 166.43 187.904 166.637C187.774 166.843 187.599 167.017 187.392 167.144C187.185 167.272 186.951 167.35 186.709 167.372L180.727 167.81C180.676 167.814 180.625 167.817 180.575 167.817C180.269 167.817 179.969 167.728 179.712 167.56C179.455 167.392 179.252 167.154 179.127 166.873Z" fill="#2F2E41"/>
<path d="M174.832 107.587C171.21 102.75 168.348 97.3847 166.343 91.6776C166.227 91.3363 166.235 90.9646 166.366 90.6287C166.497 90.2929 166.743 90.0147 167.059 89.8437L179.451 83.1756C179.652 83.067 179.874 83.0056 180.102 82.9964C180.33 82.9871 180.557 83.0301 180.765 83.1221C180.978 83.2148 181.166 83.355 181.317 83.5319C181.467 83.7089 181.575 83.918 181.633 84.1433C183.075 89.6428 185.787 94.7242 189.547 98.9763C189.702 99.1493 189.816 99.3556 189.879 99.5794C189.942 99.8031 189.954 100.038 189.913 100.267C189.874 100.493 189.784 100.706 189.65 100.891C189.517 101.077 189.343 101.229 189.141 101.336L176.749 108.004C176.432 108.174 176.066 108.225 175.714 108.149C175.363 108.073 175.051 107.874 174.832 107.587Z" fill="#CCCCCC"/>
<path d="M175.677 106.949C175.744 107.033 175.838 107.09 175.942 107.112C176.047 107.134 176.155 107.118 176.249 107.068L188.642 100.4C188.702 100.368 188.754 100.323 188.794 100.268C188.834 100.213 188.861 100.149 188.872 100.082C188.885 100.011 188.881 99.9382 188.861 99.8689C188.841 99.7996 188.806 99.7359 188.757 99.6827C184.886 95.3054 182.095 90.0743 180.61 84.4127C180.593 84.3427 180.559 84.2777 180.513 84.2228C180.467 84.1678 180.408 84.1243 180.342 84.0958C180.28 84.0679 180.213 84.0549 180.145 84.0577C180.077 84.0605 180.01 84.0791 179.951 84.112L167.559 90.78C167.465 90.831 167.392 90.9132 167.352 91.0126C167.312 91.112 167.308 91.2222 167.34 91.3243C169.309 96.9292 172.121 102.199 175.677 106.949Z" fill="white"/>
<path d="M216.001 105.809L206.296 109.512L203.926 102.903C203.612 102.025 203.616 101.064 203.939 100.189C204.261 99.3144 204.882 98.5825 205.69 98.1226C206.507 97.6574 207.464 97.5011 208.386 97.6819C209.308 97.8627 210.136 98.3687 210.719 99.1085L216.001 105.809Z" fill="#1E90FF"/>
<path d="M191.315 131.997C191.111 131.852 190.94 131.665 190.813 131.448C190.687 131.231 190.607 130.99 190.581 130.74C189.338 119.087 190.203 109.968 193.227 102.861C193.76 101.636 194.562 100.547 195.574 99.6774C196.586 98.8078 197.781 98.1798 199.069 97.8405L206.914 97.4429L206.955 97.4626C208.725 98.3333 210.169 99.7538 211.072 101.513C211.975 103.273 212.289 105.278 211.968 107.231C209.445 113.911 207.332 120.865 208.943 126.475C209.011 126.709 209.031 126.955 209.001 127.197C208.972 127.44 208.894 127.674 208.773 127.885C208.655 128.089 208.497 128.267 208.308 128.408C208.119 128.549 207.903 128.649 207.674 128.703L192.732 132.272C192.49 132.33 192.238 132.335 191.994 132.288C191.75 132.24 191.518 132.141 191.315 131.997Z" fill="#1E90FF"/>
<path d="M204.296 94.5003C209.079 94.5003 212.956 90.6066 212.956 85.8036C212.956 81.0005 209.079 77.1068 204.296 77.1068C199.513 77.1068 195.635 81.0005 195.635 85.8036C195.635 90.6066 199.513 94.5003 204.296 94.5003Z" fill="#FFB8B8"/>
<path d="M180.265 92.6916L173.516 95.6835C173.259 95.797 172.968 95.8035 172.706 95.7018C172.445 95.6 172.234 95.3982 172.121 95.1407L171.954 94.7609C171.841 94.5032 171.834 94.2109 171.936 93.9483C172.037 93.6857 172.238 93.4742 172.494 93.3602L179.244 90.3683C179.5 90.2548 179.791 90.2483 180.053 90.35C180.314 90.4518 180.525 90.6536 180.639 90.9111L180.806 91.2909C180.919 91.5486 180.925 91.8409 180.824 92.1035C180.722 92.3661 180.521 92.5776 180.265 92.6916Z" fill="#CCCCCC"/>
<path d="M182.733 97.2948L175.984 100.287C175.727 100.4 175.436 100.407 175.175 100.305C174.913 100.203 174.703 100.001 174.589 99.7439L174.422 99.3641C174.309 99.1063 174.303 98.8141 174.404 98.5515C174.505 98.2889 174.706 98.0773 174.963 97.9633L181.712 94.9714C181.969 94.858 182.26 94.8514 182.521 94.9532C182.783 95.055 182.993 95.2567 183.107 95.5143L183.274 95.894C183.387 96.1518 183.393 96.444 183.292 96.7067C183.191 96.9693 182.99 97.1808 182.733 97.2948Z" fill="#CCCCCC"/>
<path d="M187.938 115.274L172.891 103.354C172.771 103.396 172.649 103.432 172.526 103.462C171.995 103.587 171.443 103.598 170.908 103.495C170.372 103.391 169.864 103.176 169.417 102.863C168.966 102.549 168.588 102.143 168.306 101.671C168.025 101.199 167.847 100.671 167.785 100.125C167.684 99.2506 167.881 98.3679 168.342 97.6199C168.803 96.8718 169.503 96.3023 170.327 96.0037C170.842 95.8184 171.389 95.7443 171.934 95.7863C172.479 95.8284 173.009 95.9855 173.489 96.2475C173.97 96.5095 174.389 96.8704 174.721 97.3067C175.053 97.7429 175.289 98.2446 175.414 98.7788C175.453 98.9481 175.48 99.1199 175.495 99.293L190.474 107.971L194.201 105.816L198.331 111.244L192.543 115.387C191.865 115.868 191.052 116.117 190.222 116.096C189.393 116.076 188.592 115.788 187.938 115.274Z" fill="#FFB8B8"/>
<path d="M200.167 112.935L191.581 107.072L195.616 101.334C196.152 100.572 196.939 100.024 197.837 99.7886C198.736 99.5528 199.689 99.6435 200.527 100.045C201.376 100.451 202.051 101.148 202.432 102.011C202.814 102.873 202.875 103.844 202.606 104.748L200.167 112.935Z" fill="#1E90FF"/>
<path d="M201.121 84.5083C198.895 86.0381 195.972 87.6107 193.699 85.9815C192.206 84.9118 191.736 82.9309 192.341 81.1926C193.43 78.0665 196.42 76.6902 199.28 75.6353C202.998 74.2639 207.047 73.1729 210.885 74.155C214.723 75.1372 218.115 78.869 217.422 82.7852C216.865 85.9345 213.907 88.555 214.327 91.7257C214.749 94.9168 218.323 96.5965 221.478 97.1668C224.633 97.7372 228.164 97.9204 230.431 100.196C233.323 103.099 232.601 108.288 229.879 111.353C227.158 114.418 223.051 115.808 219.071 116.752C213.798 118.004 208.095 118.661 203.087 116.584C198.079 114.508 194.181 108.917 195.632 103.675C196.245 101.46 197.689 99.5887 199.084 97.7668C200.479 95.9448 201.891 94.0396 202.424 91.8043C202.867 89.9416 202.539 87.7788 201.309 86.3815C201.085 86.137 200.944 85.8275 200.907 85.4975C200.869 85.1676 200.936 84.8341 201.099 84.5451L201.121 84.5083Z" fill="#2F2E41"/>
<path d="M38.459 126.763C36.2274 127.55 33.8314 127.748 31.5019 127.336C29.1723 126.924 26.9877 125.916 25.1585 124.41C20.4999 120.483 19.0393 114.014 17.8509 108.024C16.6791 102.119 15.5074 96.2132 14.3357 90.3075L21.6951 95.3963C26.9875 99.0558 32.3991 102.833 36.0636 108.133C39.728 113.434 41.3276 120.67 38.3833 126.405" fill="#E6E6E6"/>
<path d="M37.8299 148.213C38.5748 142.764 39.3407 137.246 38.8182 131.739C38.3542 126.848 36.8684 122.071 33.8434 118.155C32.2378 116.08 30.284 114.302 28.07 112.901C27.4926 112.535 26.9613 113.454 27.5361 113.818C31.367 116.249 34.3301 119.84 35.9981 124.071C37.8404 128.777 38.1363 133.906 37.8188 138.905C37.6268 141.928 37.2199 144.931 36.8099 147.93C36.7776 148.066 36.7977 148.209 36.8663 148.33C36.9349 148.452 37.0467 148.542 37.1793 148.584C37.3145 148.62 37.4587 148.602 37.5805 148.532C37.7023 148.463 37.7919 148.348 37.8299 148.213Z" fill="#F2F2F2"/>
<path d="M30.6555 138.572C29.6984 140.032 28.3828 141.221 26.8355 142.023C25.2882 142.825 23.5613 143.213 21.8212 143.15C17.3491 142.937 13.6208 139.803 10.2646 136.827L0.337738 128.025L6.90769 127.71C11.6324 127.483 16.479 127.271 20.9792 128.734C25.4793 130.197 29.6295 133.718 30.4524 138.396" fill="#E6E6E6"/>
<path d="M39.935 151.345C36.3498 144.974 32.1913 137.894 24.7609 135.632C22.6948 135.004 20.5284 134.78 18.3784 134.97C17.7008 135.028 17.87 136.077 18.5464 136.019C22.1503 135.718 25.7473 136.674 28.7318 138.725C31.6037 140.688 33.8398 143.417 35.7324 146.311C36.8917 148.084 37.9301 149.932 38.9687 151.778C39.3006 152.367 40.2707 151.942 39.935 151.345Z" fill="#F2F2F2"/>
<path d="M45.6794 158.05C45.5586 156.645 45.056 155.299 44.2265 154.161C43.3969 153.022 42.2722 152.134 40.9747 151.593V147.91H34.8236V151.709C33.59 152.277 32.5284 153.163 31.7469 154.276C30.9654 155.39 30.4921 156.693 30.3751 158.05L28.9288 174.934H47.1258L45.6794 158.05Z" fill="#F2F2F2"/>
</g>
<defs>
<clipPath id="clip0_999_13821">
<rect width="244" height="177" fill="white"/>
</clipPath>
</defs>
</svg>
