<svg width="278" height="184" viewBox="0 0 278 184" fill="none" xmlns="http://www.w3.org/2000/svg">
<g clip-path="url(#clip0_999_13718)">
<path d="M267.133 123.137C265.126 125.328 262.636 126.96 259.935 128.227H259.932C259.678 128.347 259.423 128.465 259.166 128.575H259.163L259.159 128.579L259.156 128.575H259.153L259.153 128.577L259.152 128.578L259.151 128.578L259.15 128.579H259.146L259.143 128.575C259.14 128.579 259.14 128.579 259.137 128.575L259.133 128.579L259.13 128.575H259.127C259.124 128.579 259.124 128.579 259.12 128.575H259.117C257.309 129.357 255.452 130.021 253.558 130.562C242.42 133.72 230.713 134.331 219.306 132.35C219.088 132.311 218.873 132.272 218.655 132.232V105.818C218.87 105.727 219.088 105.636 219.306 105.548C220.73 104.958 222.172 104.416 223.63 103.923C225.729 103.206 227.857 102.592 230.014 102.079C237.052 100.377 244.314 99.7901 251.534 100.34C252.847 100.438 254.157 100.579 255.464 100.764C258.198 101.145 261.066 101.809 263.588 102.962H263.591C263.959 103.134 264.321 103.314 264.68 103.506C266.921 104.72 268.811 106.391 269.965 108.681C270.379 109.503 270.678 110.378 270.851 111.283V111.289C270.917 111.602 270.962 111.918 270.998 112.23C271.409 116.086 269.809 120.212 267.133 123.137Z" fill="#F2F2F2"/>
<path d="M270.998 112.23C270.966 112.238 270.933 112.243 270.9 112.243C265.318 112.487 259.744 112.85 254.177 113.331H254.167C254.144 113.334 254.125 113.334 254.102 113.337C248.386 113.833 242.683 114.452 236.991 115.197C236.75 115.23 236.512 115.262 236.274 115.291C232.338 115.816 228.409 116.398 224.487 117.037C222.757 117.32 221.03 117.616 219.306 117.923C219.088 117.962 218.873 117.998 218.655 118.04V117.053C218.873 117.011 219.091 116.975 219.306 116.936C225.048 115.92 230.809 115.033 236.59 114.275C238.043 114.08 239.499 113.895 240.957 113.722C245.167 113.214 249.383 112.775 253.607 112.406C253.916 112.38 254.223 112.354 254.532 112.328C259.938 111.869 265.352 111.52 270.773 111.283C270.799 111.281 270.826 111.284 270.851 111.289C271.373 111.335 271.484 112.116 270.998 112.23Z" fill="white"/>
<path d="M259.406 127.616C252.452 127.667 245.601 124.72 240.682 119.842C239.295 118.461 238.072 116.923 237.038 115.26C236.706 114.729 235.931 115.315 236.259 115.842C240.079 121.964 246.442 126.326 253.458 127.929C255.45 128.381 257.488 128.598 259.531 128.579C260.154 128.574 260.025 127.611 259.406 127.616Z" fill="white"/>
<path d="M230.014 102.079C229.984 102.171 229.931 102.253 229.86 102.318C229.788 102.382 229.701 102.427 229.607 102.447C228.013 102.865 226.473 103.466 225.019 104.238C222.894 105.36 220.965 106.817 219.306 108.553C219.218 108.641 219.134 108.729 219.052 108.821C218.915 108.964 218.785 109.11 218.655 109.26V107.84C218.863 107.619 219.081 107.401 219.306 107.192C220.616 105.939 222.067 104.842 223.63 103.923C225.729 103.206 227.857 102.592 230.014 102.079Z" fill="white"/>
<path d="M264.164 102.705C259.741 104.605 256.04 107.867 253.599 112.014C253.55 112.133 253.549 112.266 253.598 112.386C253.646 112.505 253.739 112.6 253.857 112.651C253.976 112.698 254.109 112.697 254.228 112.649C254.346 112.601 254.442 112.509 254.494 112.393C256.823 108.475 260.337 105.398 264.53 103.605C265.105 103.359 264.741 102.459 264.164 102.705Z" fill="white"/>
<path d="M277.499 75.046C276.743 77.9183 275.293 80.5204 273.491 82.8944L273.488 82.8977C273.321 83.1192 273.149 83.3439 272.97 83.5588V83.5621C271.718 85.1024 270.368 86.5591 268.926 87.9227C263.742 92.8593 257.887 97.0397 251.534 100.34C241.54 105.557 230.369 108.641 219.306 108.817C219.222 108.821 219.137 108.821 219.052 108.821C218.919 108.824 218.785 108.824 218.655 108.824V94.0224C218.866 93.6185 219.085 93.2147 219.306 92.8142C222.181 87.6441 225.687 82.8506 229.744 78.5436C229.841 78.4361 229.943 78.3286 230.044 78.2244C231.568 76.6157 233.167 75.0839 234.84 73.6293C241.275 67.9746 248.712 63.5729 256.768 60.6516C259.365 59.7202 262.213 58.9745 264.983 58.8279C265.39 58.8051 265.794 58.7953 266.201 58.7986C268.753 58.8344 271.2 59.4369 273.289 60.9284C274.037 61.4653 274.708 62.1019 275.283 62.8205C275.485 63.0713 275.671 63.3286 275.85 63.5924V63.5956C278.007 66.8197 278.509 71.2129 277.499 75.046Z" fill="#F2F2F2"/>
<path d="M275.85 63.5924V63.5956C275.826 63.6166 275.8 63.6352 275.772 63.651C270.949 66.4549 266.187 69.361 261.486 72.369C261.48 72.3723 261.476 72.3755 261.47 72.3788C261.451 72.3919 261.431 72.4038 261.411 72.4146C256.579 75.5084 251.814 78.7064 247.119 82.0086C246.923 82.1454 246.724 82.2855 246.526 82.4255C243.283 84.7149 240.075 87.0532 236.9 89.4403C230.904 93.954 225.039 98.6349 219.306 103.483C219.088 103.665 218.873 103.851 218.655 104.037V102.77C218.87 102.584 219.088 102.398 219.306 102.216C221.503 100.363 223.719 98.5361 225.954 96.7352C226.622 96.1978 227.293 95.6605 227.964 95.1296C233.928 90.3847 240.025 85.8167 246.255 81.4257H246.258C247.484 80.5627 248.711 79.7073 249.941 78.8595C253.434 76.4561 256.966 74.1102 260.538 71.8219C260.795 71.6558 261.056 71.4897 261.317 71.3236C265.889 68.4057 270.52 65.5833 275.211 62.8564C275.234 62.8425 275.258 62.8305 275.283 62.8205C275.772 62.6251 276.231 63.27 275.85 63.5924Z" fill="white"/>
<path d="M272.738 82.5992C266.603 85.8727 259.167 86.4435 252.544 84.4075C250.672 83.8283 248.875 83.0344 247.186 82.0417C246.646 81.725 246.231 82.604 246.767 82.918C252.996 86.5666 260.658 87.475 267.616 85.6383C269.59 85.1129 271.496 84.3598 273.296 83.3941C273.846 83.1006 273.284 82.3077 272.738 82.5992Z" fill="white"/>
<path d="M226.841 94.5147C226.537 92.8099 226.433 91.0756 226.53 89.3467C226.75 85.4038 227.958 81.5793 230.043 78.2251C231.57 76.6168 233.169 75.0849 234.841 73.6292C234.857 73.7244 234.848 73.8221 234.814 73.9126C234.781 74.0031 234.724 74.0833 234.65 74.1453C233.434 75.2549 232.35 76.5015 231.42 77.8604C228.1 82.703 226.804 88.6503 227.809 94.4341C227.825 94.4997 227.824 94.5684 227.806 94.6336C227.789 94.6987 227.754 94.7582 227.707 94.8063C227.637 94.867 227.553 94.9084 227.462 94.9263C227.371 94.9443 227.278 94.9383 227.19 94.9088C227.102 94.8793 227.024 94.8274 226.963 94.7583C226.901 94.6891 226.859 94.6052 226.841 94.5147Z" fill="white"/>
<path d="M265.373 58.3304C262.339 62.0665 260.577 66.6729 260.344 71.479C260.355 71.6071 260.417 71.7254 260.515 71.8085C260.613 71.8915 260.74 71.9325 260.868 71.9226C260.996 71.909 261.113 71.8469 261.195 71.7493C261.278 71.6517 261.32 71.5261 261.312 71.3984C261.554 66.8478 263.236 62.4915 266.115 58.9577C266.51 58.4732 265.769 57.8449 265.373 58.3304Z" fill="white"/>
<path d="M231.627 69.0309V69.0342C231.604 69.3143 231.578 69.5911 231.549 69.8679V69.8744C231.322 71.8448 230.969 73.7985 230.49 75.7233C230.262 76.6677 230.014 77.6057 229.744 78.5436C229.711 78.6641 229.675 78.7846 229.639 78.9018V78.9051C228.844 81.6328 227.893 84.3131 226.791 86.9327C224.765 91.7556 222.257 96.3621 219.306 100.682C219.094 100.998 218.876 101.314 218.655 101.627V50.6277C218.873 50.6146 219.088 50.6146 219.306 50.6212C219.41 50.6212 219.515 50.6244 219.619 50.6309C220.539 50.6792 221.447 50.8557 222.317 51.1553C222.624 51.2562 222.92 51.3702 223.213 51.4972C226.769 53.0539 229.561 56.4864 230.773 60.2608C231.683 63.0876 231.865 66.0609 231.627 69.0309Z" fill="#F2F2F2"/>
<path d="M223.213 51.4972C223.206 51.5291 223.194 51.5598 223.177 51.5884C221.858 54.1514 220.567 56.7274 219.306 59.3164C219.088 59.7625 218.87 60.212 218.655 60.6581V58.4436C218.87 58.0007 219.087 57.5578 219.306 57.1149C220.281 55.1414 221.271 53.1765 222.278 51.2204C222.289 51.1975 222.302 51.1757 222.317 51.1552C222.617 50.7254 223.36 51.0185 223.213 51.4972Z" fill="white"/>
<path d="M231.731 69.5552C231.673 69.6595 231.614 69.7637 231.549 69.8679C230.592 71.5344 229.453 73.0897 228.153 74.5053C225.657 77.2122 222.65 79.4001 219.306 80.9437C219.091 81.0479 218.873 81.1456 218.655 81.2368V80.1784C218.873 80.0807 219.091 79.9797 219.306 79.8755C224.147 77.568 228.168 73.8392 230.832 69.1873C230.871 69.1208 230.923 69.0634 230.985 69.019C231.048 68.9745 231.119 68.944 231.195 68.9294C231.27 68.9149 231.348 68.9168 231.422 68.9348C231.497 68.9529 231.567 68.9868 231.627 69.0342C231.668 69.0615 231.704 69.0967 231.731 69.1377C231.759 69.1787 231.778 69.2247 231.787 69.2731C231.797 69.3215 231.797 69.3713 231.788 69.4198C231.778 69.4682 231.759 69.5142 231.731 69.5552Z" fill="white"/>
<path d="M219.306 10.7469V35.4973H218.655V35.2336H0.651727V35.4973H0V10.7469C0.00279864 7.89751 1.13665 5.16561 3.15272 3.15078C5.16878 1.13595 7.90236 0.00279692 10.7535 0H208.553C211.404 0.00279692 214.137 1.13595 216.154 3.15078C218.17 5.16561 219.303 7.89751 219.306 10.7469Z" fill="#1E90FF"/>
<path d="M208.553 0H10.7535C7.90236 0.00279692 5.16878 1.13595 3.15272 3.15078C1.13665 5.16561 0.00279864 7.8975 0 10.7469V152.085C0.00279864 154.934 1.13665 157.666 3.15272 159.681C5.16878 161.696 7.90236 162.829 10.7535 162.832H208.553C211.404 162.829 214.137 161.696 216.154 159.681C218.17 157.666 219.303 154.934 219.306 152.085V10.7469C219.303 7.8975 218.17 5.16561 216.154 3.15078C214.137 1.13595 211.404 0.00279692 208.553 0ZM218.655 152.085C218.651 154.761 217.586 157.327 215.692 159.22C213.798 161.112 211.231 162.177 208.553 162.181H10.7535C8.07539 162.177 5.50795 161.112 3.61424 159.22C1.72053 157.327 0.655145 154.761 0.651727 152.085V10.7469C0.655145 8.07044 1.72053 5.50457 3.61424 3.61203C5.50795 1.71948 8.07539 0.654742 10.7535 0.651327H208.553C211.231 0.654743 213.798 1.71948 215.692 3.61203C217.586 5.50457 218.651 8.07044 218.655 10.7469V152.085Z" fill="#3F3D56"/>
<path d="M44.3175 24.262C47.9169 24.262 50.8347 21.3459 50.8347 17.7487C50.8347 14.1515 47.9169 11.2354 44.3175 11.2354C40.7181 11.2354 37.8002 14.1515 37.8002 17.7487C37.8002 21.3459 40.7181 24.262 44.3175 24.262Z" fill="white"/>
<path d="M174.989 24.262C178.588 24.262 181.506 21.3459 181.506 17.7487C181.506 14.1515 178.588 11.2354 174.989 11.2354C171.389 11.2354 168.472 14.1515 168.472 17.7487C168.472 21.3459 171.389 24.262 174.989 24.262Z" fill="white"/>
<path d="M63.1474 90.3723H24.3773C22.7348 90.3704 21.1602 89.7175 19.9988 88.5568C18.8373 87.3961 18.184 85.8224 18.1822 84.181V65.868C18.184 64.2266 18.8373 62.6528 19.9988 61.4921C21.1602 60.3314 22.7348 59.6786 24.3773 59.6767H63.1474C64.7898 59.6786 66.3645 60.3314 67.5259 61.4921C68.6873 62.6528 69.3406 64.2266 69.3425 65.868V84.181C69.3406 85.8224 68.6873 87.3961 67.5259 88.5568C66.3645 89.7175 64.7898 90.3704 63.1474 90.3723Z" fill="#1E90FF"/>
<path d="M129.102 90.3723H90.3317C88.6892 90.3704 87.1145 89.7175 85.9531 88.5568C84.7917 87.3961 84.1384 85.8224 84.1365 84.181V65.868C84.1384 64.2266 84.7917 62.6528 85.9531 61.4921C87.1145 60.3314 88.6892 59.6786 90.3317 59.6767H129.102C130.744 59.6786 132.319 60.3314 133.48 61.4921C134.642 62.6528 135.295 64.2266 135.297 65.868V84.181C135.295 85.8224 134.642 87.3961 133.48 88.5568C132.319 89.7175 130.744 90.3704 129.102 90.3723Z" fill="#1E90FF"/>
<path d="M129.102 137.688H90.3317C88.6394 137.687 87.017 137.014 85.8204 135.818C84.6238 134.622 83.9507 133.001 83.9488 131.309V112.996C83.9507 111.305 84.6238 109.684 85.8204 108.488C87.017 107.292 88.6394 106.619 90.3317 106.617H129.102C130.794 106.619 132.416 107.292 133.613 108.488C134.81 109.684 135.483 111.305 135.485 112.996V131.309C135.483 133.001 134.81 134.622 133.613 135.818C132.416 137.014 130.794 137.687 129.102 137.688Z" fill="#F2F2F2"/>
<path d="M63.0202 137.688H24.2502C22.5579 137.687 20.9355 137.014 19.7389 135.818C18.5423 134.622 17.8692 133.001 17.8673 131.309V112.996C17.8692 111.305 18.5423 109.684 19.7389 108.488C20.9355 107.292 22.5579 106.619 24.2502 106.617H63.0202C64.7125 106.619 66.3349 107.292 67.5315 108.488C68.7281 109.684 69.4012 111.305 69.4031 112.996V131.309C69.4012 133.001 68.7281 134.622 67.5315 135.818C66.3349 137.014 64.7125 137.687 63.0202 137.688Z" fill="#F2F2F2"/>
<path d="M195.056 137.688H156.286C154.594 137.687 152.971 137.014 151.775 135.818C150.578 134.622 149.905 133.001 149.903 131.309V112.996C149.905 111.305 150.578 109.684 151.775 108.488C152.971 107.292 154.594 106.619 156.286 106.617H195.056C196.748 106.619 198.371 107.292 199.567 108.488C200.764 109.684 201.437 111.305 201.439 112.996V131.309C201.437 133.001 200.764 134.622 199.567 135.818C198.371 137.014 196.748 137.687 195.056 137.688Z" fill="#F2F2F2"/>
<path d="M195.056 90.4091H156.286C154.594 90.4072 152.971 89.7346 151.775 88.5387C150.578 87.3428 149.905 85.7214 149.903 84.0302V65.7171C149.905 64.0258 150.578 62.4044 151.775 61.2086C152.971 60.0127 154.594 59.34 156.286 59.3381H195.056C196.748 59.34 198.371 60.0127 199.567 61.2086C200.764 62.4044 201.437 64.0258 201.439 65.7171V84.0302C201.437 85.7214 200.764 87.3428 199.567 88.5387C198.371 89.7346 196.748 90.4072 195.056 90.4091Z" fill="#F2F2F2"/>
<path d="M43.7624 85.531C49.5685 85.531 54.2753 80.8271 54.2753 75.0245C54.2753 69.2219 49.5685 64.518 43.7624 64.518C37.9562 64.518 33.2494 69.2219 33.2494 75.0245C33.2494 80.8271 37.9562 85.531 43.7624 85.531Z" fill="white"/>
<path d="M42.7203 79.0325C42.4837 79.0329 42.2535 78.9565 42.0642 78.8147L42.0525 78.8059L39.5819 76.9155C39.4673 76.8279 39.3711 76.7187 39.2988 76.5939C39.2265 76.4692 39.1795 76.3315 39.1605 76.1886C39.1415 76.0457 39.1509 75.9004 39.1881 75.7612C39.2253 75.6219 39.2896 75.4913 39.3773 75.3769C39.465 75.2625 39.5745 75.1665 39.6994 75.0943C39.8242 75.0222 39.9621 74.9754 40.1051 74.9565C40.2481 74.9377 40.3934 74.9472 40.5327 74.9845C40.6721 75.0218 40.8026 75.0862 40.9171 75.174L42.5173 76.4003L46.2991 71.4714C46.3868 71.3571 46.4961 71.2612 46.6209 71.1891C46.7457 71.117 46.8835 71.0702 47.0264 71.0514C47.1693 71.0325 47.3146 71.042 47.4538 71.0792C47.5931 71.1165 47.7236 71.1807 47.838 71.2684L47.8145 71.3003L47.8386 71.2689C48.0693 71.4461 48.2203 71.7076 48.2584 71.9959C48.2965 72.2842 48.2185 72.5759 48.0417 72.8069L43.5935 78.6044C43.4907 78.738 43.3584 78.8461 43.2069 78.9204C43.0555 78.9946 42.889 79.033 42.7203 79.0325Z" fill="#1E90FF"/>
<path d="M109.904 85.3801C115.711 85.3801 120.417 80.6762 120.417 74.8736C120.417 69.071 115.711 64.3671 109.904 64.3671C104.098 64.3671 99.3915 69.071 99.3915 74.8736C99.3915 80.6762 104.098 85.3801 109.904 85.3801Z" fill="white"/>
<path d="M108.862 78.8816C108.626 78.8821 108.396 78.8056 108.206 78.6638L108.195 78.655L105.724 76.7646C105.493 76.5877 105.342 76.3262 105.303 76.0378C105.265 75.7494 105.343 75.4576 105.52 75.2267C105.697 74.9957 105.959 74.8446 106.247 74.8064C106.536 74.7682 106.828 74.8462 107.059 75.0231L108.659 76.2494L112.441 71.3205C112.529 71.2062 112.638 71.1103 112.763 71.0382C112.888 70.9661 113.026 70.9193 113.169 70.9005C113.311 70.8816 113.457 70.8911 113.596 70.9283C113.735 70.9656 113.866 71.0299 113.98 71.1175L113.957 71.1494L113.981 71.118C114.211 71.2952 114.362 71.5567 114.4 71.845C114.439 72.1333 114.361 72.425 114.184 72.656L109.736 78.4535C109.633 78.5871 109.5 78.6952 109.349 78.7695C109.198 78.8437 109.031 78.8821 108.862 78.8816Z" fill="#1E90FF"/>
<path d="M180.956 124.452C181.301 124.075 181.56 123.626 181.713 123.138C181.866 122.65 181.91 122.135 181.843 121.628C181.775 121.121 181.597 120.635 181.32 120.204C181.044 119.774 180.677 119.409 180.245 119.135L174.376 87.8151L167.238 90.4604L175.251 120.415C174.84 121.172 174.72 122.053 174.915 122.891C175.11 123.73 175.606 124.468 176.309 124.966C177.013 125.464 177.874 125.686 178.73 125.592C179.587 125.497 180.379 125.092 180.956 124.452Z" fill="#A0616A"/>
<path d="M124 76.6614C124.018 76.8558 124.02 77.0514 124.007 77.2463L137.886 87.9214L141.821 86.3062L145.037 91.9236L138.347 95.4596C137.807 95.7453 137.188 95.8481 136.585 95.7525C135.981 95.6569 135.424 95.3682 134.999 94.9296L121.126 80.6365C120.392 80.802 119.625 80.7402 118.926 80.4592C118.228 80.1783 117.632 79.6915 117.217 79.0637C116.802 78.4358 116.589 77.6967 116.605 76.9446C116.621 76.1924 116.865 75.463 117.306 74.8531C117.747 74.2433 118.363 73.7821 119.073 73.5308C119.782 73.2795 120.551 73.2501 121.278 73.4464C122.005 73.6427 122.654 74.0554 123.141 74.6297C123.627 75.204 123.927 75.9126 124 76.6614Z" fill="#A0616A"/>
<path d="M156.424 180.043H152.429L150.528 167.9L156.425 167.9L156.424 180.043Z" fill="#A0616A"/>
<path d="M157.443 183.913L144.561 183.913V183.75C144.561 183.092 144.691 182.44 144.943 181.832C145.195 181.224 145.564 180.672 146.03 180.207C146.495 179.741 147.048 179.372 147.656 179.121C148.265 178.869 148.917 178.739 149.575 178.739L157.443 178.739L157.443 183.913Z" fill="#2F2E41"/>
<path d="M171.413 180.043H167.419L165.518 167.9L171.414 167.9L171.413 180.043Z" fill="#A0616A"/>
<path d="M172.432 183.913L159.551 183.913V183.75C159.551 183.092 159.68 182.44 159.932 181.832C160.184 181.224 160.554 180.672 161.019 180.207C161.485 179.741 162.038 179.372 162.646 179.121C163.254 178.869 163.906 178.739 164.565 178.739L172.433 178.739L172.432 183.913Z" fill="#2F2E41"/>
<path d="M151.599 177.643C151.235 177.643 150.883 177.507 150.613 177.262C150.343 177.017 150.175 176.68 150.141 176.317L146.66 129.522L146.824 129.509L170.782 127.541L170.788 127.711L172.693 176.186C172.7 176.383 172.668 176.58 172.598 176.764C172.527 176.948 172.421 177.116 172.284 177.258C172.147 177.4 171.983 177.513 171.801 177.59C171.62 177.667 171.425 177.706 171.228 177.706H166.53C166.179 177.708 165.84 177.583 165.574 177.355C165.307 177.127 165.132 176.811 165.081 176.464L158.702 137.304C158.695 137.264 158.674 137.227 158.642 137.202C158.61 137.176 158.57 137.164 158.529 137.167C158.488 137.17 158.45 137.188 158.422 137.218C158.394 137.248 158.378 137.287 158.378 137.328L158.088 175.992C158.085 176.365 157.94 176.724 157.682 176.994C157.424 177.264 157.072 177.425 156.699 177.445L151.678 177.641C151.652 177.642 151.625 177.643 151.599 177.643Z" fill="#2F2E41"/>
<path d="M155.689 70.3842C160.109 70.3842 163.692 66.8031 163.692 62.3856C163.692 57.968 160.109 54.3869 155.689 54.3869C151.268 54.3869 147.685 57.968 147.685 62.3856C147.685 66.8031 151.268 70.3842 155.689 70.3842Z" fill="#A0616A"/>
<path d="M157.238 132.507C153.74 132.496 150.258 132.021 146.886 131.093C146.561 130.998 146.279 130.795 146.087 130.517C145.895 130.239 145.805 129.903 145.831 129.566C146.909 113.383 147.162 100.824 144.896 92.1349C143.931 88.4315 144.369 84.531 146.099 81.4337C148.703 76.7724 153.488 73.9354 158.593 74.0334C158.837 74.038 159.083 74.0467 159.332 74.0595C167.079 74.4581 173.115 81.462 172.788 89.6724L171.23 128.807C171.224 129.092 171.134 129.37 170.971 129.604C170.808 129.839 170.579 130.019 170.313 130.124C166.133 131.695 161.704 132.503 157.238 132.507Z" fill="#3F3D56"/>
<path d="M146.213 95.1397L140.218 87.7977C140.048 87.5888 139.924 87.3457 139.856 87.0847C139.788 86.8238 139.777 86.5513 139.824 86.2858C139.871 86.0203 139.974 85.7679 140.128 85.546C140.281 85.3241 140.48 85.1377 140.712 84.9997L148.833 80.1636C149.907 79.2972 151.281 78.8921 152.654 79.0369C154.027 79.1817 155.287 79.8648 156.156 80.9362C157.026 82.0077 157.435 83.3801 157.294 84.7525C157.152 86.1249 156.472 87.3852 155.402 88.2572L149.055 95.2176C148.874 95.4168 148.651 95.5746 148.403 95.6801C148.154 95.7856 147.886 95.8363 147.617 95.8289C147.347 95.8216 147.082 95.7561 146.84 95.6372C146.598 95.5183 146.384 95.3486 146.213 95.1397Z" fill="#3F3D56"/>
<path d="M165.073 94.2184C164.827 94.1083 164.607 93.9463 164.429 93.7437C164.251 93.541 164.119 93.3024 164.042 93.044L161.343 84.0214C160.757 82.772 160.691 81.3414 161.159 80.0434C161.627 78.7454 162.591 77.6858 163.84 77.0972C165.089 76.5086 166.52 76.439 167.82 76.9036C169.12 77.3682 170.182 78.3291 170.775 79.5756L175.994 87.4529C176.143 87.6777 176.241 87.932 176.283 88.1983C176.325 88.4647 176.309 88.737 176.236 88.9965C176.163 89.2561 176.034 89.4969 175.86 89.7025C175.685 89.9081 175.468 90.0737 175.224 90.188L166.636 94.2054C166.392 94.3199 166.126 94.3803 165.856 94.3825C165.586 94.3847 165.319 94.3288 165.073 94.2184Z" fill="#3F3D56"/>
<path d="M159.644 68.9486L153.711 67.5916C153.099 67.4516 152.364 67.1845 152.279 66.5629C152.165 65.7275 153.368 65.1456 153.257 64.3098C153.149 63.5002 152.053 63.3959 151.272 63.157C150.544 62.9019 149.945 62.3738 149.6 61.6845C149.255 60.9952 149.191 60.1988 149.424 59.4639C148.578 60.6545 146.647 60.7565 145.55 59.7918C144.454 58.8272 144.243 57.0771 144.902 55.7739C145.258 55.1338 145.76 54.5866 146.367 54.1769C146.974 53.7671 147.669 53.5064 148.397 53.4159C149.858 53.2502 151.336 53.5256 152.64 54.2066C152.727 53.2838 153.88 52.9098 154.807 52.9015C156.734 52.924 158.605 53.546 160.161 54.6811C161.717 55.8161 162.881 57.4078 163.489 59.2345C164.627 62.8989 163.866 66.9157 160.682 69.0597L159.644 68.9486Z" fill="#2F2E41"/>
<path d="M219.4 184H95.2458C95.1594 184 95.0765 183.966 95.0154 183.905C94.9543 183.844 94.92 183.761 94.92 183.674C94.92 183.588 94.9543 183.505 95.0154 183.444C95.0765 183.383 95.1594 183.349 95.2458 183.349H219.4C219.486 183.349 219.569 183.383 219.63 183.444C219.691 183.505 219.726 183.588 219.726 183.674C219.726 183.761 219.691 183.844 219.63 183.905C219.569 183.966 219.486 184 219.4 184Z" fill="#3F3D56"/>
</g>
<defs>
<clipPath id="clip0_999_13718">
<rect width="278" height="184" fill="white"/>
</clipPath>
</defs>
</svg>
