<svg width="175" height="175" viewBox="0 0 175 175" fill="none" xmlns="http://www.w3.org/2000/svg">
<path d="M175 133.84H0V133.928H175V133.84Z" fill="#EBEBEB"/>
<path d="M157.465 139.471H145.873V139.559H157.465V139.471Z" fill="#EBEBEB"/>
<path d="M115.927 140.424H112.885V140.511H115.927V140.424Z" fill="#EBEBEB"/>
<path d="M145.523 136.223H138.806V136.311H145.523V136.223Z" fill="#EBEBEB"/>
<path d="M33.4776 136.812H18.3611V136.899H33.4776V136.812Z" fill="#EBEBEB"/>
<path d="M38.8114 136.812H36.5959V136.899H38.8114V136.812Z" fill="#EBEBEB"/>
<path d="M78.8024 138.288H46.0144V138.376H78.8024V138.288Z" fill="#EBEBEB"/>
<path d="M82.95 118.23H15.3685C14.8391 118.229 14.3317 118.018 13.9576 117.643C13.5836 117.269 13.3735 116.761 13.3735 116.231V21.231C13.3781 20.7046 13.5903 20.2013 13.9638 19.8304C14.3373 19.4595 14.8421 19.2509 15.3685 19.25H82.95C83.4801 19.25 83.9884 19.4606 84.3632 19.8353C84.738 20.2101 84.9485 20.7185 84.9485 21.2485V116.231C84.9485 116.762 84.738 117.27 84.3632 117.645C83.9884 118.019 83.4801 118.23 82.95 118.23ZM15.3685 19.32C14.8623 19.3209 14.3771 19.5227 14.0195 19.881C13.6619 20.2392 13.461 20.7248 13.461 21.231V116.231C13.461 116.738 13.6619 117.223 14.0195 117.582C14.3771 117.94 14.8623 118.142 15.3685 118.142H82.95C83.4566 118.142 83.9421 117.94 84.3003 117.582C84.6585 117.224 84.8601 116.738 84.861 116.231V21.231C84.8601 20.7245 84.6585 20.2389 84.3003 19.8807C83.9421 19.5226 83.4566 19.3209 82.95 19.32H15.3685Z" fill="#EBEBEB"/>
<path d="M158.658 118.23H91.0734C90.5437 118.229 90.0359 118.018 89.6613 117.644C89.2867 117.269 89.0759 116.761 89.075 116.231V21.231C89.0805 20.7043 89.2934 20.201 89.6675 19.8302C90.0416 19.4593 90.5467 19.2509 91.0734 19.25H158.658C159.184 19.2518 159.688 19.4608 160.061 19.8316C160.434 20.2024 160.645 20.7052 160.65 21.231V116.231C160.65 116.76 160.44 117.268 160.067 117.642C159.694 118.017 159.187 118.228 158.658 118.23ZM91.0734 19.32C90.5669 19.3209 90.0814 19.5226 89.7232 19.8807C89.365 20.2389 89.1634 20.7245 89.1625 21.231V116.231C89.1634 116.738 89.365 117.224 89.7232 117.582C90.0814 117.94 90.5669 118.142 91.0734 118.142H158.658C159.165 118.142 159.651 117.94 160.009 117.582C160.367 117.224 160.569 116.738 160.569 116.231V21.231C160.569 20.7245 160.367 20.2389 160.009 19.8807C159.651 19.5226 159.165 19.3209 158.658 19.32H91.0734Z" fill="#EBEBEB"/>
<path d="M44.3135 38.9305H23.436V70.0525H44.3135V38.9305Z" fill="#E6E6E6"/>
<path d="M44.3136 70.056H44.6426L44.6426 38.934H44.3136L44.3136 70.056Z" fill="#E0E0E0"/>
<path d="M43.134 68.873V40.1135H24.619V68.873H43.134Z" fill="#FAFAFA"/>
<path d="M37.3771 52.1325C39.3098 50.1998 39.3098 47.0663 37.3771 45.1336C35.4444 43.2009 32.3108 43.2009 30.3781 45.1336C28.4454 47.0663 28.4454 50.1998 30.3781 52.1325C32.3108 54.0652 35.4444 54.0652 37.3771 52.1325Z" fill="#F0F0F0"/>
<path d="M39.9805 56.4445H27.769V57.694H39.9805V56.4445Z" fill="#EBEBEB"/>
<path d="M39.9805 59.7695H27.769V61.019H39.9805V59.7695Z" fill="#EBEBEB"/>
<path d="M39.9805 63.091H27.769V64.3405H39.9805V63.091Z" fill="#EBEBEB"/>
<path d="M70.5496 43.414H49.6721V74.536H70.5496V43.414Z" fill="#E6E6E6"/>
<path d="M70.5494 74.5325H70.8784V43.4105H70.5494V74.5325Z" fill="#E0E0E0"/>
<path d="M69.3701 73.3565V44.597H50.8551V73.3565H69.3701Z" fill="#FAFAFA"/>
<path d="M64.9237 54.2463C65.5516 51.5861 63.9041 48.9206 61.2439 48.2928C58.5837 47.6649 55.9183 49.3124 55.2904 51.9726C54.6625 54.6328 56.3101 57.2982 58.9702 57.9261C61.6304 58.5539 64.2959 56.9064 64.9237 54.2463Z" fill="#F0F0F0"/>
<path d="M66.2164 60.928H54.0049V62.1775H66.2164V60.928Z" fill="#EBEBEB"/>
<path d="M66.2164 64.2495H54.0049V65.499H66.2164V64.2495Z" fill="#EBEBEB"/>
<path d="M66.2164 67.571H54.0049V68.8205H66.2164V67.571Z" fill="#EBEBEB"/>
<path d="M144.176 87.5H52.9341V88.473H144.176V87.5Z" fill="#EBEBEB"/>
<path d="M144.172 88.473H151.561V87.5H144.172V88.473Z" fill="#E0E0E0"/>
<path d="M144.172 88.473H54.1836V133.84H144.172V88.473Z" fill="#F5F5F5"/>
<path d="M74.368 88.473H73.864V133.84H74.368V88.473Z" fill="#E6E6E6"/>
<path d="M98.1681 97.699H97.6641V133.84H98.1681V97.699Z" fill="#E6E6E6"/>
<path d="M74.116 124.866V124.362H54.187V124.866H74.116Z" fill="#E6E6E6"/>
<path d="M74.116 115.892V115.388H54.187V115.892H74.116Z" fill="#E6E6E6"/>
<path d="M74.116 106.918V106.414H54.187V106.918H74.116Z" fill="#E6E6E6"/>
<path d="M144.176 97.951V97.447H54.187V97.951H144.176Z" fill="#E6E6E6"/>
<path d="M144.175 133.84H150.64V88.473H144.175V133.84Z" fill="#EBEBEB"/>
<path d="M145.694 26.8485H113.844V72.2015H145.694V26.8485Z" fill="#FAFAFA"/>
<path d="M146.044 27.3945H113.494C113.423 27.3945 113.352 27.3804 113.286 27.3529C113.22 27.3254 113.16 27.2851 113.11 27.2344C113.059 27.1836 113.019 27.1234 112.992 27.0572C112.965 26.991 112.951 26.92 112.952 26.8485C112.951 26.7771 112.965 26.7064 112.992 26.6403C113.019 26.5743 113.059 26.5143 113.11 26.4639C113.16 26.4134 113.22 26.3734 113.286 26.3464C113.352 26.3193 113.423 26.3055 113.494 26.306H146.044C146.116 26.3055 146.187 26.3192 146.253 26.3463C146.319 26.3733 146.38 26.4132 146.43 26.4637C146.481 26.5141 146.521 26.574 146.549 26.6401C146.576 26.7061 146.59 26.777 146.59 26.8485C146.59 26.9933 146.533 27.1322 146.43 27.2346C146.328 27.337 146.189 27.3945 146.044 27.3945Z" fill="#EBEBEB"/>
<path d="M146.044 72.7475H113.494C113.423 72.7475 113.352 72.7334 113.286 72.7059C113.22 72.6784 113.16 72.6381 113.11 72.5874C113.059 72.5366 113.019 72.4764 112.992 72.4102C112.965 72.344 112.951 72.273 112.952 72.2015C112.951 72.1301 112.965 72.0594 112.992 71.9933C113.019 71.9273 113.059 71.8673 113.11 71.8169C113.16 71.7664 113.22 71.7265 113.286 71.6994C113.352 71.6723 113.423 71.6585 113.494 71.659H146.044C146.116 71.6585 146.187 71.6722 146.253 71.6993C146.319 71.7263 146.38 71.7662 146.43 71.8167C146.481 71.8671 146.521 71.927 146.549 71.9931C146.576 72.0591 146.59 72.13 146.59 72.2015C146.59 72.3463 146.533 72.4852 146.43 72.5876C146.328 72.69 146.189 72.7475 146.044 72.7475Z" fill="#EBEBEB"/>
<path d="M130.963 38.0485H128.576C126.529 38.0485 124.869 39.708 124.869 41.755V49.217C124.869 51.264 126.529 52.9235 128.576 52.9235H130.963C133.01 52.9235 134.669 51.264 134.669 49.217V41.755C134.669 39.708 133.01 38.0485 130.963 38.0485Z" fill="#F0F0F0"/>
<path d="M126.969 68.033C126.412 68.033 125.878 67.8117 125.484 67.4179C125.091 67.0241 124.869 66.49 124.869 65.933V50.0675C124.869 49.5105 125.091 48.9764 125.484 48.5826C125.878 48.1887 126.412 47.9675 126.969 47.9675C127.526 47.9675 128.06 48.1887 128.454 48.5826C128.848 48.9764 129.069 49.5105 129.069 50.0675V65.933C129.069 66.49 128.848 67.0241 128.454 67.4179C128.06 67.8117 127.526 68.033 126.969 68.033Z" fill="#F0F0F0"/>
<path d="M122.874 39.851H122.871C122.179 39.851 121.618 40.412 121.618 41.104V50.582C121.618 51.274 122.179 51.835 122.871 51.835H122.874C123.566 51.835 124.127 51.274 124.127 50.582V41.104C124.127 40.412 123.566 39.851 122.874 39.851Z" fill="#F0F0F0"/>
<path d="M136.668 51.8385C136.336 51.8367 136.018 51.7036 135.783 51.4682C135.548 51.2329 135.416 50.9144 135.415 50.582V41.1075C135.416 40.7751 135.548 40.4566 135.783 40.2213C136.018 39.9859 136.336 39.8528 136.668 39.851C137.001 39.8528 137.319 39.9858 137.554 40.2211C137.79 40.4563 137.923 40.7748 137.925 41.1075V50.582C137.923 50.9147 137.79 51.2332 137.554 51.4684C137.319 51.7037 137.001 51.8367 136.668 51.8385Z" fill="#F0F0F0"/>
<path d="M132.569 68.033C132.013 68.033 131.478 67.8117 131.085 67.4179C130.691 67.0241 130.469 66.49 130.469 65.933V50.0675C130.469 49.5105 130.691 48.9764 131.085 48.5826C131.478 48.1887 132.013 47.9675 132.569 47.9675C133.126 47.9675 133.661 48.1887 134.054 48.5826C134.448 48.9764 134.669 49.5105 134.669 50.0675V65.933C134.669 66.49 134.448 67.0241 134.054 67.4179C133.661 67.8117 133.126 68.033 132.569 68.033Z" fill="#F0F0F0"/>
<path d="M131.955 35.7445C133.162 34.5376 133.162 32.5808 131.955 31.3739C130.748 30.167 128.792 30.167 127.585 31.3739C126.378 32.5808 126.378 34.5376 127.585 35.7445C128.792 36.9514 130.748 36.9514 131.955 35.7445Z" fill="#F0F0F0"/>
<path d="M133.406 78.6345H118.744V87.5H133.406V78.6345Z" fill="#F5F5F5"/>
<path d="M133.406 87.5H137.018V78.6345H133.406V87.5Z" fill="#EBEBEB"/>
<path d="M128.877 82.2185H126.921V80.2655H125.23V82.2185H123.277V83.9125H125.23V85.8655H126.921V83.9125H128.877V82.2185Z" fill="white"/>
<path d="M105.907 87.5H104.507V71.8165C104.507 71.122 104.37 70.4343 104.104 69.7927C103.838 69.151 103.449 68.568 102.958 68.077C102.467 67.5859 101.883 67.1963 101.242 66.9306C100.6 66.6648 99.9125 66.528 99.218 66.528C98.5236 66.528 97.8359 66.6648 97.1942 66.9306C96.5526 67.1963 95.9696 67.5859 95.4785 68.077C94.9874 68.568 94.5979 69.151 94.3321 69.7927C94.0663 70.4343 93.9295 71.122 93.9295 71.8165H92.5295C92.5295 70.0426 93.2342 68.3413 94.4886 67.087C95.7429 65.8327 97.4441 65.128 99.218 65.128C100.992 65.128 102.693 65.8327 103.948 67.087C105.202 68.3413 105.907 70.0426 105.907 71.8165V87.5Z" fill="#EBEBEB"/>
<path d="M108.514 85.204H107.114V87.5H108.514V85.204Z" fill="#EBEBEB"/>
<path d="M63.9906 86.6845H62.5906V87.5H63.9906V86.6845Z" fill="#EBEBEB"/>
<path d="M61.5089 86.6845H60.1089V87.5H61.5089V86.6845Z" fill="#EBEBEB"/>
<path d="M48.2335 108.244H30.009V133.84H48.2335V108.244Z" fill="#F5F5F5"/>
<path d="M47.5231 107.604H30.7161V108.248H47.5231V107.604Z" fill="#E6E6E6"/>
<path d="M35.7805 101.829H42.4585C43.9902 101.829 45.4591 102.437 46.5421 103.52C47.6251 104.603 48.2335 106.072 48.2335 107.604H30.009C30.0086 106.846 30.1575 106.095 30.4474 105.394C30.7372 104.694 31.1622 104.057 31.6982 103.521C32.2342 102.984 32.8706 102.559 33.5711 102.269C34.2715 101.978 35.0223 101.829 35.7805 101.829Z" fill="#F5F5F5"/>
<path d="M32.4309 131.033H30.5024C29.7598 131.033 29.0476 131.328 28.5225 131.853C27.9974 132.378 27.7024 133.09 27.7024 133.833H35.2484C35.2484 133.464 35.1754 133.098 35.0336 132.757C34.8918 132.417 34.684 132.107 34.4221 131.847C34.1603 131.587 33.8495 131.381 33.5078 131.241C33.166 131.101 32.8001 131.031 32.4309 131.033Z" fill="#E6E6E6"/>
<path d="M87.4999 149.646C124.979 149.646 155.361 147.872 155.361 145.684C155.361 143.496 124.979 141.722 87.4999 141.722C50.0211 141.722 19.6384 143.496 19.6384 145.684C19.6384 147.872 50.0211 149.646 87.4999 149.646Z" fill="#F5F5F5"/>
<path d="M67.0983 51.1455L65.5093 49.1995L63.2903 50.5995C63.2903 50.5995 64.3053 51.6845 65.5373 53.2L67.0983 51.1455Z" fill="#B55B52"/>
<path d="M86.9118 51.303C86.8208 51.499 86.7578 51.618 86.6808 51.7685L86.4603 52.1885C86.3098 52.465 86.1628 52.738 86.0053 53.0075C85.6973 53.5442 85.3741 54.0715 85.0358 54.5895C84.3555 55.6501 83.6048 56.6639 82.7888 57.624C81.9239 58.6486 80.9498 59.5758 79.8838 60.389C79.294 60.8249 78.6661 61.2068 78.0078 61.53L77.4793 61.7645L76.9228 61.971C76.7373 62.0375 76.5378 62.0865 76.3418 62.1425L76.1948 62.1845L75.9848 62.23C75.8308 62.2615 75.6803 62.2825 75.5333 62.3C74.9978 62.3525 74.4574 62.3242 73.9303 62.216C73.4983 62.1312 73.0752 62.0058 72.6668 61.8415C71.9856 61.5626 71.3337 61.2167 70.7208 60.809C69.6601 60.0938 68.6614 59.2906 67.7353 58.408C66.8358 57.5715 66.0028 56.707 65.2048 55.825C64.8058 55.3805 64.4103 54.9395 64.0253 54.4845C63.6403 54.0295 63.2728 53.592 62.8738 53.0845L66.7448 50.0815C67.0458 50.463 67.4063 50.9005 67.7528 51.303C68.0993 51.7055 68.4528 52.1185 68.8238 52.514C69.5588 53.3015 70.3113 54.061 71.0848 54.7575C71.8136 55.4266 72.5994 56.0309 73.4333 56.5635C73.765 56.7758 74.1167 56.9551 74.4833 57.099C74.7843 57.2145 75.0083 57.211 74.9418 57.1935H74.9068L74.9663 57.176C75.0433 57.1445 75.1168 57.127 75.1973 57.0955L75.4318 56.994L75.6768 56.8715C76.0267 56.6776 76.3592 56.454 76.6708 56.203C77.3861 55.6078 78.0308 54.9326 78.5923 54.1905C79.2063 53.3913 79.7642 52.5504 80.2618 51.674C80.5184 51.226 80.7599 50.771 80.9863 50.309C81.1018 50.0815 81.2138 49.8505 81.3363 49.609L81.4903 49.259C81.5358 49.154 81.5953 49.0175 81.6198 48.9545L86.9118 51.303Z" fill="#1E90FF"/>
<path opacity="0.8" d="M86.9118 51.303C86.8208 51.499 86.7578 51.618 86.6808 51.7685L86.4603 52.1885C86.3098 52.465 86.1628 52.738 86.0053 53.0075C85.6973 53.5442 85.3741 54.0715 85.0358 54.5895C84.3555 55.6501 83.6048 56.6639 82.7888 57.624C81.9239 58.6486 80.9498 59.5758 79.8838 60.389C79.294 60.8249 78.6661 61.2068 78.0078 61.53L77.4793 61.7645L76.9228 61.971C76.7373 62.0375 76.5378 62.0865 76.3418 62.1425L76.1948 62.1845L75.9848 62.23C75.8308 62.2615 75.6803 62.2825 75.5333 62.3C74.9978 62.3525 74.4574 62.3242 73.9303 62.216C73.4983 62.1312 73.0752 62.0058 72.6668 61.8415C71.9856 61.5626 71.3337 61.2167 70.7208 60.809C69.6601 60.0938 68.6614 59.2906 67.7353 58.408C66.8358 57.5715 66.0028 56.707 65.2048 55.825C64.8058 55.3805 64.4103 54.9395 64.0253 54.4845C63.6403 54.0295 63.2728 53.592 62.8738 53.0845L66.7448 50.0815C67.0458 50.463 67.4063 50.9005 67.7528 51.303C68.0993 51.7055 68.4528 52.1185 68.8238 52.514C69.5588 53.3015 70.3113 54.061 71.0848 54.7575C71.8136 55.4266 72.5994 56.0309 73.4333 56.5635C73.765 56.7758 74.1167 56.9551 74.4833 57.099C74.7843 57.2145 75.0083 57.211 74.9418 57.1935H74.9068L74.9663 57.176C75.0433 57.1445 75.1168 57.127 75.1973 57.0955L75.4318 56.994L75.6768 56.8715C76.0267 56.6776 76.3592 56.454 76.6708 56.203C77.3861 55.6078 78.0308 54.9326 78.5923 54.1905C79.2063 53.3913 79.7642 52.5504 80.2618 51.674C80.5184 51.226 80.7599 50.771 80.9863 50.309C81.1018 50.0815 81.2138 49.8505 81.3363 49.609L81.4903 49.259C81.5358 49.154 81.5953 49.0175 81.6198 48.9545L86.9118 51.303Z" fill="white"/>
<path d="M86.1348 107.24H97.4328L93.1488 85.827H87.6153L86.1348 107.24Z" fill="#1E90FF"/>
<path opacity="0.6" d="M86.1348 107.24H97.4328L93.1488 85.827H87.6153L86.1348 107.24Z" fill="white"/>
<path d="M88.557 142.485H85.6765L85.554 135.818H88.4345L88.557 142.485Z" fill="#B55B52"/>
<path d="M104.506 142.485H101.626L100.341 135.818H103.222L104.506 142.485Z" fill="#B55B52"/>
<path d="M101.43 142.153H104.65C104.707 142.152 104.762 142.172 104.806 142.207C104.85 142.243 104.88 142.293 104.891 142.349L105.395 144.907C105.407 144.97 105.404 145.035 105.387 145.097C105.371 145.159 105.34 145.216 105.299 145.265C105.257 145.314 105.206 145.353 105.147 145.379C105.089 145.406 105.025 145.419 104.961 145.418C103.834 145.401 103.288 145.334 101.864 145.334C100.989 145.334 99.1828 145.425 97.9753 145.425C96.7678 145.425 96.6383 144.232 97.1353 144.123C99.3648 143.637 100.219 142.968 100.943 142.328C101.079 142.212 101.252 142.15 101.43 142.153Z" fill="#263238"/>
<path d="M85.7044 142.153H88.8544C88.9107 142.152 88.9653 142.172 89.0087 142.208C89.0522 142.243 89.0818 142.293 89.0924 142.349L89.5999 144.9C89.6117 144.963 89.6096 145.027 89.5936 145.089C89.5776 145.151 89.5482 145.209 89.5074 145.258C89.4666 145.307 89.4155 145.346 89.3576 145.373C89.2998 145.401 89.2367 145.415 89.1729 145.415C88.0389 145.394 86.4009 145.327 84.9729 145.327C83.3069 145.327 83.1704 145.418 81.2174 145.418C80.0344 145.418 79.7369 144.225 80.2339 144.116C82.4984 143.623 83.0339 143.57 85.0079 142.366C85.2163 142.233 85.4571 142.159 85.7044 142.153Z" fill="#263238"/>
<path d="M64.4349 48.5345L62.5729 48.5065L62.2229 50.9075C63.4084 51.1242 64.631 51.0029 65.7509 50.5575L65.7194 49.777C65.7051 49.4448 65.5639 49.1308 65.3249 48.8996C65.0859 48.6685 64.7674 48.5378 64.4349 48.5345Z" fill="#B55B52"/>
<path d="M59.6609 48.6185L60.0214 50.134L62.2159 50.9075L62.5729 48.5065L59.6609 48.6185Z" fill="#B55B52"/>
<path opacity="0.2" d="M85.554 135.821L85.617 139.258H88.4975L88.4345 135.821H85.554Z" fill="black"/>
<path opacity="0.2" d="M103.222 135.821H100.341L101.006 139.258H103.887L103.222 135.821Z" fill="black"/>
<path d="M82.1554 49.5145C81.3574 52.5665 79.9259 60.2665 81.4904 72.513H96.8904C97.0409 70.3675 96.0609 60.662 97.7934 50.5575C97.8664 50.1461 97.8543 49.7242 97.7579 49.3177C97.6615 48.9111 97.4828 48.5287 97.2329 48.1938C96.983 47.859 96.6672 47.5789 96.3049 47.3709C95.9426 47.1628 95.5415 47.0311 95.1264 46.984C94.5279 46.9175 93.8944 46.8615 93.2679 46.83C91.1155 46.7702 88.9614 46.8403 86.8174 47.04C85.9029 47.1273 84.9977 47.2936 84.1119 47.537C83.6405 47.665 83.2112 47.9153 82.8677 48.2626C82.5241 48.6098 82.2784 49.0417 82.1554 49.5145Z" fill="white"/>
<path d="M92.561 40.7085C92.0955 42.8085 91.826 45.423 93.261 46.83C93.261 46.83 92.3615 48.965 88.4485 48.965C84.8715 48.965 86.6985 46.83 86.6985 46.83C89.061 46.27 89.012 43.365 88.641 41.727L92.561 40.7085Z" fill="#B55B52"/>
<path d="M88.2698 48.6745L87.4228 49.609C87.3928 49.6413 87.3721 49.6812 87.3629 49.7243C87.3536 49.7674 87.3562 49.8122 87.3703 49.854L87.6398 50.68C87.6548 50.7263 87.6836 50.7669 87.7224 50.7963C87.7612 50.8258 87.8081 50.8426 87.8568 50.8445L88.7703 50.89C88.8136 50.8919 88.8566 50.8825 88.8952 50.8629C88.9339 50.8433 88.9668 50.814 88.9908 50.778L89.5368 49.9765C89.5697 49.9332 89.5876 49.8804 89.5876 49.826C89.5876 49.7716 89.5697 49.7188 89.5368 49.6755L88.6548 48.671C88.6316 48.6421 88.6022 48.6188 88.5687 48.6029C88.5352 48.587 88.4985 48.579 88.4614 48.5793C88.4244 48.5796 88.3879 48.5884 88.3547 48.6049C88.3215 48.6214 88.2925 48.6452 88.2698 48.6745Z" fill="#1E90FF"/>
<path d="M88.0565 50.8375C88.0565 50.8375 86.6565 61.1415 86.625 62.937C86.6434 64.6327 86.9099 66.3165 87.416 67.935C87.416 67.935 88.3785 66.115 88.543 62.86C88.7075 59.605 88.508 52.6645 88.5815 50.8375H88.0565Z" fill="#1E90FF"/>
<path opacity="0.2" d="M88.6618 41.7305C88.8823 42.6895 88.9873 44.0825 88.5603 45.1885C88.8403 45.311 89.9953 44.8665 90.4748 44.562C91.5423 43.883 91.9553 43.218 92.3473 41.8005C92.4103 41.426 92.4803 41.062 92.5608 40.7085L88.6618 41.7305Z" fill="black"/>
<path d="M85.0078 39.683C85.1367 40.0104 85.3298 40.3088 85.5756 40.5607C85.8214 40.8125 86.1151 41.0127 86.4393 41.1495C87.3108 41.4995 87.8743 40.7365 87.7343 39.844C87.6118 39.0425 87.0063 37.8875 86.0823 37.912C85.8787 37.9235 85.681 37.9844 85.5062 38.0894C85.3314 38.1944 85.1848 38.3404 85.079 38.5147C84.9732 38.6891 84.9115 38.8865 84.8991 39.0901C84.8867 39.2936 84.924 39.4971 85.0078 39.683Z" fill="#B55B52"/>
<path opacity="0.2" d="M85.0078 39.683C85.1367 40.0104 85.3298 40.3088 85.5756 40.5607C85.8214 40.8125 86.1151 41.0127 86.4393 41.1495C87.3108 41.4995 87.8743 40.7365 87.7343 39.844C87.6118 39.0425 87.0063 37.8875 86.0823 37.912C85.8787 37.9235 85.681 37.9844 85.5062 38.0894C85.3314 38.1944 85.1848 38.3404 85.079 38.5147C84.9732 38.6891 84.9115 38.8865 84.8991 39.0901C84.8867 39.2936 84.924 39.4971 85.0078 39.683Z" fill="black"/>
<path d="M88.5498 36.5295C88.3853 37.7615 87.6153 38.6785 86.8313 38.5735C86.0473 38.4685 85.5468 37.3835 85.7148 36.148C85.8828 34.9125 86.6493 33.9955 87.4333 34.1005C88.2173 34.2055 88.7248 35.294 88.5498 36.5295Z" fill="#263238"/>
<path d="M93.94 37.9785C93.24 40.7785 92.967 42.4445 91.2835 43.6555C88.7565 45.479 85.554 43.603 85.421 40.67C85.2985 38.031 86.471 33.901 89.411 33.236C90.0556 33.0869 90.728 33.1081 91.3619 33.2977C91.9959 33.4872 92.5695 33.8385 93.0265 34.3171C93.4835 34.7956 93.808 35.3848 93.9682 36.0268C94.1284 36.6688 94.1186 37.3414 93.94 37.9785Z" fill="#B55B52"/>
<path d="M89.2919 32.2595C87.6154 32.6095 85.7604 33.978 87.3599 34.9755C88.9594 35.973 92.5609 36.127 92.5609 36.127C92.5609 36.127 91.3709 38.927 92.9984 40.3725C93.5409 40.103 92.3824 42.546 92.3824 42.546C92.9785 42.3407 93.4773 41.9217 93.7824 41.37C94.7554 41.1215 97.6324 36.47 95.7144 35.154C95.3504 32.4415 91.5424 31.773 89.2919 32.2595Z" fill="#263238"/>
<path d="M93.3379 39.6655H93.2994L90.7794 38.5105C90.7668 38.5069 90.7552 38.5007 90.7453 38.4922C90.7354 38.4838 90.7274 38.4733 90.7219 38.4614C90.7164 38.4496 90.7135 38.4368 90.7134 38.4237C90.7133 38.4107 90.716 38.3978 90.7213 38.3859C90.7266 38.374 90.7344 38.3634 90.7442 38.3547C90.754 38.3461 90.7655 38.3397 90.778 38.3359C90.7905 38.3321 90.8036 38.3311 90.8165 38.3328C90.8294 38.3346 90.8418 38.3391 90.8529 38.346L93.3764 39.501C93.398 39.5109 93.4149 39.529 93.4234 39.5512C93.4319 39.5735 93.4314 39.5982 93.4219 39.62C93.4135 39.6346 93.4012 39.6466 93.3863 39.6547C93.3715 39.6627 93.3547 39.6664 93.3379 39.6655Z" fill="white"/>
<path d="M94.6153 41.3C94.1313 41.836 93.4567 42.1614 92.7358 42.2065C91.7873 42.2555 91.5423 41.349 91.9973 40.558C92.4068 39.858 93.3973 38.962 94.2513 39.2875C95.1053 39.613 95.1998 40.6385 94.6153 41.3Z" fill="#B55B52"/>
<path d="M81.4905 72.513C81.4905 72.513 80.5665 94.038 80.6645 102.819C80.766 111.951 84.5635 138.59 84.5635 138.59H89.439C89.439 138.59 89.0015 112.483 89.439 103.516C89.915 93.737 91.616 72.513 91.616 72.513H81.4905Z" fill="#1E90FF"/>
<path d="M89.6665 136.437C89.691 136.437 89.7575 138.691 89.7575 138.691H84.1365L83.8145 136.241L89.6665 136.437Z" fill="#263238"/>
<path opacity="0.2" d="M88.0878 78.211C87.9198 88.893 88.4028 95.382 89.5963 100.611C89.8903 95.515 90.3698 88.7775 90.7933 83.181L88.0878 78.211Z" fill="black"/>
<path d="M86.9539 72.513C86.9539 72.513 89.6839 94.514 91.2729 102.757C93.0229 111.783 99.6729 138.59 99.6729 138.59H104.947C104.947 138.59 100.786 112.515 99.8829 103.59C98.9064 93.891 96.8834 72.527 96.8834 72.527L86.9539 72.513Z" fill="#1E90FF"/>
<path d="M104.821 136.556C104.846 136.556 105.213 138.691 105.213 138.691H99.4173L98.7803 136.339L104.821 136.556Z" fill="#263238"/>
<path d="M89.5614 38.052C89.5159 38.283 89.3619 38.4475 89.2114 38.423C89.0609 38.3985 88.9768 38.192 89.0188 37.961C89.0608 37.73 89.2183 37.5655 89.3688 37.59C89.5193 37.6145 89.5999 37.821 89.5614 38.052Z" fill="#263238"/>
<path d="M86.7369 37.387C86.6949 37.618 86.5374 37.7825 86.3869 37.758C86.2364 37.7335 86.1524 37.527 86.1944 37.296C86.2364 37.065 86.3939 36.9005 86.5444 36.925C86.6949 36.9495 86.7789 37.156 86.7369 37.387Z" fill="#263238"/>
<path d="M87.9129 37.9645C87.4338 38.5693 86.8758 39.1073 86.2539 39.564C86.3716 39.7173 86.5218 39.8426 86.6936 39.9309C86.8655 40.0193 87.0548 40.0685 87.2479 40.075L87.9129 37.9645Z" fill="#A02724"/>
<path d="M87.9198 40.7925C87.9025 40.7883 87.8873 40.7777 87.8776 40.7627C87.8678 40.7477 87.8642 40.7296 87.8673 40.712C87.8707 40.694 87.8811 40.678 87.8961 40.6675C87.9112 40.6571 87.9297 40.6529 87.9478 40.656C88.232 40.7081 88.5244 40.6935 88.802 40.6133C89.0795 40.5332 89.3347 40.3896 89.5473 40.194C89.5594 40.181 89.5761 40.1733 89.5938 40.1727C89.6116 40.172 89.6288 40.1784 89.6418 40.1905C89.6548 40.2026 89.6625 40.2193 89.6631 40.237C89.6638 40.2547 89.6574 40.272 89.6453 40.285C89.4186 40.5005 89.1439 40.6589 88.8439 40.7471C88.5438 40.8353 88.2271 40.8509 87.9198 40.7925Z" fill="#263238"/>
<path d="M90.9298 37.303C90.9092 37.298 90.8902 37.2881 90.8743 37.2741C90.8584 37.2601 90.8462 37.2423 90.8388 37.2225C90.7834 37.0644 90.6909 36.9218 90.5691 36.8068C90.4474 36.6917 90.2998 36.6074 90.1388 36.561C90.1036 36.5534 90.0728 36.5323 90.0532 36.5021C90.0335 36.472 90.0265 36.4353 90.0338 36.4C90.0414 36.3646 90.0624 36.3335 90.0925 36.3133C90.1225 36.2931 90.1592 36.2853 90.1948 36.2915C90.4036 36.3428 90.5963 36.4451 90.7557 36.5893C90.9152 36.7335 91.0363 36.915 91.1083 37.1175C91.12 37.1519 91.1182 37.1895 91.1032 37.2226C91.0883 37.2557 91.0613 37.282 91.0278 37.296C90.9971 37.3101 90.9623 37.3126 90.9298 37.303Z" fill="#263238"/>
<path d="M86.0125 36.2845C85.9927 36.2802 85.9745 36.2705 85.96 36.2565C85.9353 36.2305 85.9216 36.1961 85.9216 36.1603C85.9216 36.1244 85.9353 36.09 85.96 36.064C86.0954 35.8935 86.2688 35.757 86.4662 35.6652C86.6637 35.5735 86.8798 35.5291 87.0975 35.5355C87.115 35.5377 87.1319 35.5433 87.1472 35.552C87.1626 35.5608 87.176 35.5725 87.1868 35.5865C87.1975 35.6005 87.2054 35.6166 87.2099 35.6336C87.2144 35.6507 87.2154 35.6685 87.213 35.686C87.2112 35.704 87.2059 35.7214 87.1974 35.7373C87.1889 35.7532 87.1773 35.7673 87.1633 35.7786C87.1493 35.79 87.1332 35.7985 87.1159 35.8037C87.0986 35.8088 87.0804 35.8104 87.0625 35.8085C86.8903 35.8048 86.7197 35.8419 86.5646 35.9167C86.4095 35.9915 86.2742 36.1019 86.17 36.239C86.1515 36.2618 86.1265 36.2783 86.0984 36.2865C86.0702 36.2946 86.0402 36.2939 86.0125 36.2845Z" fill="#263238"/>
<path d="M89.509 39.69C89.4398 39.6893 89.3708 39.6834 89.3025 39.6725C89.1384 39.6413 88.9822 39.5779 88.8429 39.486C88.7035 39.3941 88.5837 39.2755 88.4905 39.137C88.3711 38.9589 88.2881 38.7591 88.246 38.5489C88.204 38.3387 88.2038 38.1223 88.2455 37.912C88.2929 37.5291 88.4883 37.18 88.7898 36.9393C89.0913 36.6986 89.4751 36.5854 89.859 36.624C90.1898 36.6881 90.4818 36.8806 90.671 37.1595C90.9105 37.5197 90.9986 37.9598 90.916 38.3845C90.8682 38.7311 90.7019 39.0504 90.4455 39.2884C90.189 39.5263 89.8581 39.6682 89.509 39.69ZM89.649 36.7885C89.3429 36.8102 89.0537 36.937 88.8304 37.1475C88.6072 37.358 88.4636 37.6392 88.424 37.9435C88.3489 38.3214 88.4256 38.7137 88.6375 39.0355C88.7181 39.1543 88.8215 39.256 88.9416 39.3347C89.0618 39.4134 89.1963 39.4675 89.3375 39.494C89.6736 39.5245 90.0084 39.4222 90.2701 39.2089C90.5317 38.9957 90.6995 38.6884 90.7375 38.353C90.8115 37.9746 90.7335 37.5823 90.5205 37.261C90.4401 37.1419 90.3368 37.04 90.2166 36.9613C90.0964 36.8826 89.9617 36.8286 89.8205 36.8025C89.7638 36.793 89.7064 36.7883 89.649 36.7885Z" fill="white"/>
<path d="M88.3328 38.017C88.3184 38.0169 88.3042 38.0133 88.2914 38.0066C88.2786 37.9999 88.2676 37.9903 88.2593 37.9785C88.2025 37.8637 88.1056 37.7737 87.987 37.7253C87.8684 37.677 87.7362 37.6737 87.6153 37.716C87.593 37.7244 87.5683 37.724 87.5462 37.7149C87.5241 37.7058 87.5063 37.6887 87.4963 37.667C87.4868 37.6452 87.4863 37.6205 87.4948 37.5982C87.5033 37.576 87.5202 37.5579 87.5418 37.548C87.702 37.4911 87.8772 37.493 88.0362 37.5532C88.1952 37.6135 88.3276 37.7282 88.4098 37.877C88.4163 37.8871 88.4207 37.8984 88.4228 37.9102C88.4249 37.922 88.4246 37.9341 88.422 37.9458C88.4194 37.9575 88.4145 37.9686 88.4076 37.9784C88.4007 37.9882 88.392 37.9966 88.3818 38.003C88.3674 38.0129 88.3502 38.0178 88.3328 38.017Z" fill="white"/>
<path d="M86.2643 38.9515C86.194 38.951 86.1238 38.9451 86.0543 38.934C85.8903 38.9028 85.7341 38.8394 85.5947 38.7475C85.4553 38.6556 85.3356 38.537 85.2423 38.3985C85.0027 38.0383 84.9147 37.5982 84.9973 37.1735C85.0447 36.7909 85.2402 36.4421 85.5419 36.2019C85.8435 35.9618 86.2273 35.8494 86.6108 35.889C86.7749 35.9188 86.9313 35.9813 87.0707 36.0727C87.2102 36.1641 87.3299 36.2825 87.4228 36.421C87.6626 36.7825 87.7506 37.2237 87.6678 37.6495C87.62 37.9951 87.4542 38.3136 87.1984 38.5509C86.9426 38.7882 86.6125 38.9297 86.2643 38.9515ZM86.4008 36.05C86.0947 36.0717 85.8055 36.1985 85.5823 36.409C85.359 36.6195 85.2154 36.9007 85.1758 37.205C85.1384 37.3923 85.1383 37.5852 85.1755 37.7726C85.2128 37.96 85.2866 38.1382 85.3928 38.297C85.4732 38.4161 85.5765 38.518 85.6967 38.5967C85.8169 38.6754 85.9515 38.7294 86.0928 38.7555C86.429 38.786 86.7637 38.6837 87.0254 38.4704C87.2871 38.2571 87.4548 37.9499 87.4928 37.6145C87.568 37.2361 87.4899 36.8434 87.2758 36.5225C87.1123 36.2831 86.8606 36.1182 86.5758 36.064C86.518 36.0543 86.4594 36.0496 86.4008 36.05Z" fill="white"/>
<path d="M100.45 142.653C100.256 142.668 100.062 142.618 99.9004 142.509C99.852 142.466 99.8147 142.411 99.7916 142.351C99.7685 142.29 99.7602 142.224 99.7674 142.159C99.7692 142.119 99.7814 142.08 99.8029 142.045C99.8243 142.011 99.8543 141.983 99.8899 141.963C100.208 141.802 101.125 142.373 101.23 142.436C101.242 142.443 101.251 142.454 101.256 142.466C101.261 142.479 101.262 142.493 101.258 142.506C101.257 142.52 101.25 142.532 101.241 142.542C101.232 142.552 101.219 142.559 101.206 142.562C100.958 142.621 100.705 142.651 100.45 142.653ZM100.037 142.058C100.007 142.058 99.9771 142.064 99.9494 142.075C99.9351 142.083 99.9232 142.095 99.9152 142.109C99.9072 142.123 99.9033 142.14 99.9039 142.156C99.8967 142.201 99.9009 142.248 99.9162 142.291C99.9315 142.335 99.9573 142.374 99.9914 142.404C100.145 142.537 100.52 142.555 101.013 142.457C100.721 142.263 100.395 142.127 100.051 142.058H100.037Z" fill="#1E90FF"/>
<path d="M101.206 142.555C101.196 142.558 101.185 142.558 101.174 142.555C100.88 142.394 100.317 141.764 100.387 141.442C100.398 141.392 100.427 141.347 100.466 141.315C100.506 141.283 100.556 141.264 100.607 141.264C100.659 141.257 100.712 141.261 100.762 141.276C100.812 141.291 100.858 141.317 100.898 141.351C101.223 141.624 101.272 142.454 101.276 142.492C101.274 142.51 101.266 142.527 101.253 142.541C101.241 142.554 101.224 142.563 101.206 142.566V142.555ZM100.653 141.4H100.621C100.534 141.4 100.523 141.449 100.52 141.467C100.481 141.656 100.835 142.135 101.125 142.359C101.113 142.033 101.002 141.718 100.807 141.456C100.764 141.419 100.709 141.4 100.653 141.4Z" fill="#1E90FF"/>
<path d="M84.4969 142.656C84.2499 142.68 84.0025 142.617 83.7969 142.478C83.7507 142.437 83.7156 142.385 83.6948 142.327C83.674 142.269 83.6682 142.206 83.6779 142.146C83.6802 142.108 83.6921 142.072 83.7123 142.041C83.7325 142.01 83.7604 141.984 83.7934 141.967C84.1434 141.767 85.2914 142.355 85.4209 142.425C85.4339 142.432 85.4445 142.442 85.4511 142.455C85.4578 142.468 85.4601 142.482 85.4577 142.496C85.4553 142.511 85.4484 142.524 85.438 142.534C85.4276 142.544 85.4142 142.55 85.3999 142.552C85.1028 142.614 84.8005 142.65 84.4969 142.656ZM83.9999 142.058C83.9555 142.057 83.9115 142.066 83.8704 142.083C83.8575 142.09 83.8468 142.101 83.8395 142.114C83.8321 142.126 83.8283 142.141 83.8284 142.156C83.8212 142.196 83.8245 142.238 83.838 142.276C83.8515 142.315 83.8747 142.349 83.9054 142.377C84.0769 142.534 84.5494 142.562 85.1899 142.454C84.8185 142.255 84.4161 142.121 83.9999 142.058Z" fill="#1E90FF"/>
<path d="M85.3998 142.555H85.3718C85.0218 142.397 84.3568 141.778 84.4163 141.449C84.4163 141.375 84.4863 141.277 84.6753 141.26C84.7424 141.252 84.8104 141.258 84.8749 141.278C84.9395 141.298 84.9991 141.331 85.0498 141.375C85.3998 141.676 85.4663 142.453 85.4698 142.485C85.4701 142.497 85.4678 142.509 85.4629 142.52C85.4581 142.531 85.4509 142.54 85.4418 142.548C85.4285 142.553 85.4142 142.556 85.3998 142.555ZM84.7173 141.4H84.6753C84.5528 141.4 84.5423 141.459 84.5388 141.477C84.5038 141.669 84.9588 142.159 85.3088 142.373C85.287 142.048 85.1647 141.737 84.9588 141.484C84.8918 141.427 84.8056 141.397 84.7173 141.4Z" fill="#1E90FF"/>
<path d="M93.4499 46.6375L96.7749 47.0365C97.3263 47.102 97.833 47.3721 98.1947 47.7934C98.5564 48.2148 98.7467 48.7565 98.7279 49.3115C98.5599 54.495 97.8739 61.6175 98.4234 72.513C98.6999 78.008 102.539 107.845 102.539 107.845L94.9759 109.172C91.3643 97.7061 88.8332 85.9274 87.4159 73.99C86.8661 68.8021 86.8473 63.5717 87.3599 58.38L93.4499 46.6375Z" fill="#1E90FF"/>
<path opacity="0.8" d="M93.4499 46.6375L96.7749 47.0365C97.3263 47.102 97.833 47.3721 98.1947 47.7934C98.5564 48.2148 98.7467 48.7565 98.7279 49.3115C98.5599 54.495 97.8739 61.6175 98.4234 72.513C98.6999 78.008 102.539 107.845 102.539 107.845L94.9759 109.172C91.3643 97.7061 88.8332 85.9274 87.4159 73.99C86.8661 68.8021 86.8473 63.5717 87.3599 58.38L93.4499 46.6375Z" fill="white"/>
<path opacity="0.2" d="M96.1658 53.2525C96.1658 54.0295 96.7608 57.9845 98.2343 60.7145C98.2763 58.8525 98.3428 57.1515 98.4198 55.5905L96.1658 53.2525Z" fill="#1E90FF"/>
<path opacity="0.2" d="M81.8543 52.5595C81.4273 53.375 80.1953 56.833 79.5688 60.6095C79.8558 60.41 80.1288 60.2035 80.3913 59.9935C81.3589 59.1901 82.2473 58.2959 83.0444 57.323L83.1984 57.134L81.8543 52.5595Z" fill="#1E90FF"/>
<path d="M86.4255 46.977L84.462 47.215C83.5208 47.3308 82.6517 47.778 82.0103 48.4764C81.3689 49.1749 80.9973 50.0789 80.962 51.0265C80.738 56.8435 80.283 68.4635 80.0345 72.513C79.6845 78.0045 79.933 107.845 79.933 107.845L84.6475 108.671C84.6475 108.671 85.8445 92.2425 87.43 73.99C87.8366 68.5726 87.9336 63.1364 87.7205 57.708L86.4255 46.977Z" fill="#1E90FF"/>
<path opacity="0.8" d="M86.4255 46.977L84.462 47.215C83.5208 47.3308 82.6517 47.778 82.0103 48.4764C81.3689 49.1749 80.9973 50.0789 80.962 51.0265C80.738 56.8435 80.283 68.4635 80.0345 72.513C79.6845 78.0045 79.933 107.845 79.933 107.845L84.6475 108.671C84.6475 108.671 85.8445 92.2425 87.43 73.99C87.8366 68.5726 87.9336 63.1364 87.7205 57.708L86.4255 46.977Z" fill="white"/>
<path d="M88.4553 48.5905C88.8942 49.2947 89.2467 50.0491 89.5053 50.8375C89.5053 50.8375 94.1008 49.259 93.9363 46.7285C93.9363 46.7285 93.2363 46.3155 92.8163 45.9795C92.8128 45.9795 92.6063 47.5755 88.4553 48.5905Z" fill="#F5F5F5"/>
<path d="M88.4553 48.5905C87.9316 49.1957 87.4924 49.8692 87.1498 50.5925C86.5847 50.1676 86.1683 49.5749 85.9602 48.8992C85.7522 48.2234 85.763 47.4992 85.9913 46.83C86.4015 46.6645 86.8239 46.5311 87.2548 46.431C87.2548 46.431 86.9223 48.048 88.4553 48.5905Z" fill="#F5F5F5"/>
<path opacity="0.2" d="M93.2295 74.0425L98.497 78.568L94.899 76.8075L93.2295 74.0425Z" fill="#1E90FF"/>
<path d="M98.5179 48.363C98.7419 48.6745 98.9099 48.9195 99.0989 49.196L99.6344 50.0045C99.9844 50.5458 100.324 51.093 100.653 51.646C101.314 52.7555 101.937 53.8895 102.511 55.076C103.104 56.2897 103.609 57.5448 104.02 58.8315C104.239 59.5193 104.412 60.2208 104.538 60.9315C104.671 61.7011 104.731 62.4816 104.716 63.2625C104.651 64.7361 104.367 66.1917 103.873 67.5815C103.425 68.8605 102.873 70.1002 102.221 71.288C101.6 72.4366 100.917 73.5501 100.173 74.6235C99.8094 75.1578 99.4337 75.6828 99.0464 76.1985C98.8539 76.4575 98.6544 76.7165 98.4514 76.972C98.2484 77.2275 98.0559 77.4655 97.8039 77.7595L94.1044 74.55C94.2444 74.382 94.4544 74.144 94.6084 73.927L95.1264 73.255C95.4764 72.8 95.7984 72.338 96.1169 71.855C96.7453 70.9217 97.3213 69.9542 97.8424 68.957C98.342 68.0036 98.76 67.0095 99.0919 65.9855C99.3981 65.0828 99.5645 64.1385 99.5854 63.1855C99.5436 62.257 99.3534 61.3413 99.0219 60.473C98.6544 59.4576 98.2085 58.4723 97.6884 57.526C97.1564 56.546 96.5649 55.573 95.9384 54.6245C95.6199 54.152 95.2909 53.683 94.9549 53.2245L94.4439 52.542C94.2759 52.325 94.0939 52.08 93.9434 51.9085L98.5179 48.363Z" fill="#1E90FF"/>
<path opacity="0.8" d="M98.5179 48.363C98.7419 48.6745 98.9099 48.9195 99.0989 49.196L99.6344 50.0045C99.9844 50.5458 100.324 51.093 100.653 51.646C101.314 52.7555 101.937 53.8895 102.511 55.076C103.104 56.2897 103.609 57.5448 104.02 58.8315C104.239 59.5193 104.412 60.2208 104.538 60.9315C104.671 61.7011 104.731 62.4816 104.716 63.2625C104.651 64.7361 104.367 66.1917 103.873 67.5815C103.425 68.8605 102.873 70.1002 102.221 71.288C101.6 72.4366 100.917 73.5501 100.173 74.6235C99.8094 75.1578 99.4337 75.6828 99.0464 76.1985C98.8539 76.4575 98.6544 76.7165 98.4514 76.972C98.2484 77.2275 98.0559 77.4655 97.8039 77.7595L94.1044 74.55C94.2444 74.382 94.4544 74.144 94.6084 73.927L95.1264 73.255C95.4764 72.8 95.7984 72.338 96.1169 71.855C96.7453 70.9217 97.3213 69.9542 97.8424 68.957C98.342 68.0036 98.76 67.0095 99.0919 65.9855C99.3981 65.0828 99.5645 64.1385 99.5854 63.1855C99.5436 62.257 99.3534 61.3413 99.0219 60.473C98.6544 59.4576 98.2085 58.4723 97.6884 57.526C97.1564 56.546 96.5649 55.573 95.9384 54.6245C95.6199 54.152 95.2909 53.683 94.9549 53.2245L94.4439 52.542C94.2759 52.325 94.0939 52.08 93.9434 51.9085L98.5179 48.363Z" fill="white"/>
<path d="M93.7998 54.432C93.6868 54.6963 93.4851 54.9128 93.2296 55.0444C92.9741 55.176 92.6806 55.2144 92.3998 55.153C92.2719 55.1251 92.1517 55.0688 92.0483 54.9885C91.9448 54.9081 91.8607 54.8056 91.8019 54.6885C91.7432 54.5714 91.7114 54.4426 91.7089 54.3117C91.7064 54.1807 91.7332 54.0508 91.7873 53.9315C91.9005 53.6674 92.1023 53.4512 92.3579 53.3202C92.6136 53.1892 92.9069 53.1516 93.1873 53.214C93.3152 53.2415 93.4353 53.2973 93.5388 53.3773C93.6422 53.4573 93.7264 53.5595 93.7852 53.6764C93.844 53.7932 93.8758 53.9217 93.8783 54.0525C93.8809 54.1833 93.854 54.313 93.7998 54.432Z" fill="#263238"/>
<path opacity="0.2" d="M93.7998 54.432C93.6868 54.6963 93.4851 54.9128 93.2296 55.0444C92.9741 55.176 92.6806 55.2144 92.3998 55.153C92.2719 55.1251 92.1517 55.0688 92.0483 54.9885C91.9448 54.9081 91.8607 54.8056 91.8019 54.6885C91.7432 54.5714 91.7114 54.4426 91.7089 54.3117C91.7064 54.1807 91.7332 54.0508 91.7873 53.9315C91.9005 53.6674 92.1023 53.4512 92.3579 53.3202C92.6136 53.1892 92.9069 53.1516 93.1873 53.214C93.3152 53.2415 93.4353 53.2973 93.5388 53.3773C93.6422 53.4573 93.7264 53.5595 93.7852 53.6764C93.844 53.7932 93.8758 53.9217 93.8783 54.0525C93.8809 54.1833 93.854 54.313 93.7998 54.432Z" fill="white"/>
<path d="M92.6483 53.9C92.6196 53.9005 92.5914 53.8919 92.5678 53.8755C92.5388 53.8544 92.5192 53.8228 92.5133 53.7875C92.5074 53.7521 92.5157 53.7158 92.5363 53.6865C95.1403 50.064 94.4123 46.844 94.4053 46.8125C94.3979 46.7943 94.3946 46.7747 94.3955 46.7551C94.3963 46.7355 94.4014 46.7163 94.4104 46.6988C94.4194 46.6813 94.4321 46.666 94.4475 46.6539C94.463 46.6417 94.4809 46.6331 94.5 46.6285C94.5191 46.6239 94.5389 46.6235 94.5582 46.6273C94.5775 46.6311 94.5957 46.639 94.6116 46.6505C94.6276 46.662 94.6408 46.6768 94.6505 46.6939C94.6602 46.711 94.6661 46.7299 94.6678 46.7495C94.6678 46.781 95.4378 50.1165 92.7568 53.844C92.745 53.8618 92.7288 53.8762 92.7098 53.886C92.6908 53.8958 92.6697 53.9006 92.6483 53.9Z" fill="#263238"/>
<path d="M83.5694 52.0625C83.5351 52.0618 83.5023 52.0486 83.4772 52.0254C83.452 52.0022 83.4363 51.9706 83.4329 51.9365C83.1494 48.3805 85.0324 47.068 85.1129 47.0155C85.1429 46.9961 85.1792 46.9889 85.2143 46.9954C85.2495 47.0019 85.2808 47.0216 85.3019 47.0505C85.3218 47.0807 85.3289 47.1175 85.3217 47.153C85.3145 47.1884 85.2935 47.2195 85.2634 47.2395C85.2459 47.2395 83.4329 48.5275 83.7059 51.9155C83.7078 51.9511 83.6957 51.9861 83.6721 52.013C83.6486 52.0398 83.6155 52.0563 83.5799 52.059L83.5694 52.0625Z" fill="#263238"/>
<path d="M93.4183 54.3375C93.3047 54.6013 93.1029 54.8175 92.8476 54.949C92.5922 55.0805 92.299 55.1192 92.0183 55.0585C91.8899 55.0311 91.7694 54.9753 91.6656 54.895C91.5618 54.8148 91.4773 54.7122 91.4185 54.5949C91.3597 54.4776 91.328 54.3486 91.3258 54.2174C91.3236 54.0862 91.3509 53.9562 91.4058 53.837C91.5219 53.5762 91.725 53.3638 91.9803 53.2361C92.2357 53.1084 92.5275 53.0734 92.8058 53.137C92.9311 53.1656 93.0485 53.2214 93.1499 53.3004C93.2513 53.3794 93.3341 53.4797 93.3925 53.5942C93.4509 53.7086 93.4835 53.8345 93.4879 53.963C93.4924 54.0914 93.4686 54.2193 93.4183 54.3375Z" fill="#263238"/>
<path opacity="0.4" d="M93.4183 54.3375C93.3047 54.6013 93.1029 54.8175 92.8476 54.949C92.5922 55.0805 92.299 55.1192 92.0183 55.0585C91.8899 55.0311 91.7694 54.9753 91.6656 54.895C91.5618 54.8148 91.4773 54.7122 91.4185 54.5949C91.3597 54.4776 91.328 54.3486 91.3258 54.2174C91.3236 54.0862 91.3509 53.9562 91.4058 53.837C91.5219 53.5762 91.725 53.3638 91.9803 53.2361C92.2357 53.1084 92.5275 53.0734 92.8058 53.137C92.9311 53.1656 93.0485 53.2214 93.1499 53.3004C93.2513 53.3794 93.3341 53.4797 93.3925 53.5942C93.4509 53.7086 93.4835 53.8345 93.4879 53.963C93.4924 54.0914 93.4686 54.2193 93.4183 54.3375Z" fill="white"/>
<path opacity="0.4" d="M92.8303 54.1485C92.7704 54.2876 92.6639 54.4014 92.5291 54.4704C92.3943 54.5394 92.2397 54.5592 92.0918 54.5265C92.0248 54.5117 91.9619 54.4822 91.9076 54.44C91.8534 54.3979 91.8093 54.3442 91.7785 54.2828C91.7476 54.2215 91.7309 54.154 91.7294 54.0854C91.7279 54.0168 91.7417 53.9486 91.7698 53.886C91.8303 53.7474 91.9369 53.634 92.0715 53.565C92.2062 53.4961 92.3605 53.476 92.5083 53.508C92.5754 53.5228 92.6383 53.5523 92.6925 53.5945C92.7467 53.6366 92.7908 53.6903 92.8217 53.7517C92.8525 53.813 92.8693 53.8805 92.8708 53.9491C92.8723 54.0177 92.8585 54.0859 92.8303 54.1485Z" fill="white"/>
<path d="M84.6333 60.3365C84.5977 60.3356 84.5639 60.3208 84.5391 60.2953C84.5142 60.2698 84.5003 60.2356 84.5003 60.2C84.4999 60.1822 84.503 60.1646 84.5094 60.148C84.5159 60.1315 84.5256 60.1164 84.538 60.1037C84.5504 60.091 84.5652 60.0809 84.5816 60.0739C84.598 60.067 84.6156 60.0635 84.6333 60.0635C84.8901 60.056 85.1352 59.9546 85.3223 59.7785C85.5093 59.6024 85.6253 59.3639 85.6483 59.108L85.9073 54.558C85.9291 54.2388 85.8846 53.9186 85.7766 53.6174C85.6686 53.3162 85.4996 53.0406 85.28 52.8079C85.0605 52.5752 84.7951 52.3904 84.5008 52.2652C84.2064 52.1399 83.8893 52.0769 83.5693 52.08C82.8963 52.0881 82.251 52.3494 81.762 52.8119C81.273 53.2743 80.976 53.904 80.9303 54.5755L80.6678 59.1255C80.6585 59.2471 80.6748 59.3692 80.7154 59.4842C80.7561 59.5991 80.8204 59.7042 80.9041 59.7929C80.9878 59.8815 81.0891 59.9517 81.2015 59.9989C81.3139 60.0461 81.4349 60.0693 81.5568 60.067C81.593 60.067 81.6278 60.0814 81.6534 60.107C81.679 60.1326 81.6933 60.1673 81.6933 60.2035C81.6924 60.2394 81.6778 60.2736 81.6524 60.299C81.627 60.3244 81.5928 60.3391 81.5568 60.34C81.3983 60.3413 81.2412 60.3099 81.0954 60.2477C80.9496 60.1855 80.8183 60.0939 80.7095 59.9786C80.6007 59.8632 80.517 59.7267 80.4634 59.5775C80.4099 59.4283 80.3877 59.2697 80.3983 59.1115L80.6608 54.5615C80.7109 53.8213 81.0381 53.1271 81.5771 52.6172C82.1161 52.1074 82.8274 51.8194 83.5693 51.8105C83.9265 51.8072 84.2804 51.8779 84.609 52.018C84.9375 52.1581 85.2335 52.3646 85.4784 52.6246C85.7233 52.8846 85.9117 53.1925 86.0319 53.5288C86.1521 53.8651 86.2015 54.2227 86.1768 54.579L85.9178 59.129C85.8941 59.4547 85.749 59.7596 85.511 59.9832C85.2731 60.2069 84.9598 60.333 84.6333 60.3365Z" fill="#263238"/>
<path d="M81.7809 60.2C81.7809 60.417 81.6584 60.5955 81.5359 60.5955C81.4134 60.5955 81.3189 60.417 81.3329 60.2C81.3469 59.983 81.4554 59.801 81.5814 59.801C81.7074 59.801 81.7949 59.9795 81.7809 60.2Z" fill="#263238"/>
<path d="M84.8609 60.2C84.8609 60.417 84.7384 60.5955 84.6124 60.5955C84.4864 60.5955 84.3954 60.417 84.4094 60.2C84.4234 59.983 84.5319 59.801 84.6579 59.801C84.7839 59.801 84.8714 59.9795 84.8609 60.2Z" fill="#263238"/>
<path d="M56.6789 32.55L56.4304 32.3715C57.1618 31.3699 58.1902 30.6242 59.3695 30.2403C60.5488 29.8564 61.8191 29.8539 62.9999 30.233L62.9054 30.527C61.7865 30.1684 60.5832 30.1708 59.4658 30.5338C58.3483 30.8969 57.3734 31.6022 56.6789 32.55Z" fill="#1E90FF"/>
<path d="M55.622 35.7H55.314C55.3298 35.141 55.4252 34.5871 55.5975 34.055L55.8915 34.1495C55.7282 34.6509 55.6375 35.173 55.622 35.7Z" fill="#1E90FF"/>
<path d="M72.0755 35.945C71.8066 35.351 71.4198 34.8178 70.9386 34.3778C70.4575 33.9377 69.892 33.5999 69.2764 33.3849C68.6608 33.1699 68.008 33.0821 67.3575 33.1269C66.707 33.1717 66.0723 33.3481 65.492 33.6455C65.2001 33.0759 64.7976 32.5702 64.308 32.1579C63.8184 31.7457 63.2515 31.4352 62.6405 31.2445C62.0295 31.0539 61.3866 30.987 60.7494 31.0477C60.1123 31.1084 59.4936 31.2954 58.9295 31.598C56.595 32.851 55.7795 35.819 56.994 38.1815L60.144 44.331C60.297 44.6303 60.5075 44.8965 60.7634 45.1143C61.0194 45.3322 61.3159 45.4974 61.6358 45.6004C61.9557 45.7035 62.2929 45.7424 62.6279 45.715C62.9629 45.6875 63.2891 45.5943 63.588 45.4405L69.762 42.2905C70.888 41.7315 71.7561 40.7611 72.1867 39.58C72.6173 38.3989 72.5775 37.0976 72.0755 35.945Z" fill="#1E90FF"/>
</svg>
